<?xml version="1.0" standalone="no"?>
<!DOCTYPE svg PUBLIC "-//W3C//DTD SVG 1.1//EN" "http://www.w3.org/Graphics/SVG/1.1/DTD/svg11.dtd" >
<svg xmlns="http://www.w3.org/2000/svg" xmlns:xlink="http://www.w3.org/1999/xlink" version="1.1">
<metadata>
Created by FontForge 20170731 at Fri Nov 25 18:45:57 2022
 By Aleksey,,,
Copyright 2018 The Advent Pro Project Authors (https://github.com/googlefonts/Advent)
</metadata>
<defs>
<font id="AdventProExtraExpanded-ExtraBold" horiz-adv-x="267" >
  <font-face 
    font-family="Advent Pro ExtraExpanded ExtraBold"
    font-weight="800"
    font-stretch="extra-expanded"
    units-per-em="1000"
    panose-1="0 0 0 0 0 0 0 0 0 0"
    ascent="800"
    descent="-200"
    x-height="500"
    cap-height="700"
    bbox="-74 -240 2315 962"
    underline-thickness="50"
    underline-position="-175"
    unicode-range="U+000D-FB04"
  />
<missing-glyph horiz-adv-x="500" 
d="M50 -232v1194h400v-1194h-400zM100 -182h300v1094h-300v-1094z" />
    <glyph glyph-name="fi" unicode="fi" horiz-adv-x="549" 
d="M512 545v121q-31 12 -67 22.5t-80.5 16.5t-102.5 6q-47 0 -87.5 -10.5t-70.5 -32.5t-47 -56.5t-17 -82.5v-529h147v359h110l31 142h-141v21q0 19 10 31t29.5 17.5t48.5 4.5q60 0 119 -7t118 -23zM512 0v501h-145v-501h145z" />
    <glyph glyph-name="fl" unicode="fl" horiz-adv-x="550" 
d="M363 566v-566h145v675q-39 12 -77 19.5t-78 12t-83 4.5q-64 0 -107.5 -13.5t-71 -38.5t-40 -60t-12.5 -78v-521h147v359h110l31 142h-141v30q0 13 6.5 22t18.5 14.5t27.5 8t33.5 2.5q26 0 51 -3t40 -9z" />
    <glyph glyph-name="ffl" unicode="ffl" horiz-adv-x="897" 
d="M706 558v-558h147v674q-41 11 -82 19t-82 12.5t-83 4.5q-39 0 -69 -4.5t-52 -11.5t-39 -16q-45 14 -88 22t-87 8q-71 0 -117 -17.5t-70.5 -44t-34.5 -56.5t-10 -56v-534h148v359h106l30 142h-136v19q0 19 10 29.5t29.5 15.5t46.5 5q21 0 39 -2t34.5 -5.5t30.5 -7.5
q-4 -9 -6.5 -20.5t-2.5 -37.5v-497h149v359h109l29 142h-138v23q0 12 6.5 20.5t18 14.5t27 8.5t33.5 2.5t37.5 -2t37 -4.5t29.5 -5.5z" />
    <glyph glyph-name="ft" unicode="ft" horiz-adv-x="671" 
d="M514 171v188h99l28 142h-127v175q-39 11 -77.5 18.5t-78.5 12t-83 4.5q-65 0 -110 -14.5t-72.5 -40.5t-40 -61t-12.5 -77v-518h147v359h113l29 142h-142v30q0 19 12.5 29t32 14t40.5 4q28 0 54.5 -2t43.5 -5v-418q0 -47 19.5 -84.5t60.5 -59t107 -22.5l52 123
q-27 0 -48.5 5t-34 18t-12.5 38z" />
    <glyph glyph-name="w_w_w" unicode="www" horiz-adv-x="2331" 
d="M528 500h-145l-98 -303l-106 303h-152l181 -500h155l91 268l91 -268h154l180 500h-151l-101 -302zM1247 500h-145l-98 -303l-106 303h-152l181 -500h155l91 268l91 -268h154l180 500h-151l-101 -302zM1964 500h-145l-98 -303l-106 303h-152l181 -500h155l91 268l91 -268
h154l180 500h-151l-101 -302z" />
    <glyph glyph-name="t_t" unicode="tt" horiz-adv-x="639" 
d="M187 175v185h188v140h-188v200h-145v-550q0 -50 22 -86.5t68 -56t119 -20.5l49 127q-23 0 -43.5 2t-36.5 8.5t-24.5 18.5t-8.5 32zM480 175v185h123l25 140h-148v200h-146v-547q0 -77 53 -120.5t157 -45.5l49 127q-34 0 -59.5 4t-39.5 17t-14 40z" />
    <glyph glyph-name="gamma_gamma" unicode="&#x3b3;&#x3b3;" horiz-adv-x="1022" 
d="M555 501h-156l-99 -351q0 1 -8 1t-18.5 3t-21 13t-15.5 29l-60 305h-155l83 -347q12 -49 35.5 -79t56 -44t69.5 -17l-13 -41q-5 -16 -20 -25.5t-35 -13.5t-43 -5l-46 -2l38 -130q67 -1 112 11t74 35t46 54.5t27 69.5zM999 439l-63 89q-55 -7 -89 -25.5t-54 -53.5t-35 -91
l-59 -208l-8 0.5t-19 3.5t-21 13t-15 30l-60 304h-156l84 -348q12 -49 35.5 -78.5t56 -43.5t71.5 -18l-13 -41q-5 -17 -20 -26t-35 -13t-43 -5.5t-46 -1.5l34 -129q67 -1 113 11t76 34.5t47.5 54t26.5 70.5l104 378q9 33 20.5 50.5t28 26.5t39.5 17z" />
    <glyph glyph-name="gamma_kappa" unicode="&#x3b3;&#x3ba;" horiz-adv-x="1127" 
d="M606 388l-29 124q-64 3 -107.5 -15t-70.5 -55t-43 -93l-58 -199q-1 0 -9 0.5t-18.5 4t-21 13t-15.5 28.5l-56 305h-156l80 -346q12 -49 36 -79t57 -44.5t71 -18.5l-13 -40q-5 -17 -20 -26t-35 -13t-43 -5t-45 -2l37 -130q67 -1 112.5 10.5t74 33.5t45.5 51t26 62l101 362
q9 33 22.5 48.5t33 20t44.5 3.5zM990 175l-111 117l236 208h-200l-192 -165v165l-146 12v-512h146v152l50 41l90 -94q23 -27 51 -49.5t63.5 -36t83.5 -13.5h55v123h-4q-22 0 -42.5 3.5t-40 14.5t-39.5 34z" />
    <glyph glyph-name="lambda_lambda" unicode="&#x3bb;&#x3bb;" horiz-adv-x="1096" 
d="M605 0l-208 553q-11 31 -30 58t-48.5 47.5t-71.5 32t-101 11.5l-43 -123q27 0 52 -2t45.5 -8t35.5 -17t21 -28l19 -51q-26 -8 -48 -21.5t-40 -38t-34 -65.5l-129 -348h159l101 300q5 13 15 19t18 7.5l8 1.5l120 -328h159zM975 154l-150 397q-12 32 -31.5 59.5t-49 48
t-72 32t-100.5 11.5l-44 -123q37 0 68.5 -4t54 -16t31.5 -35l18 -50q-26 -8 -47.5 -22.5t-39.5 -40t-35 -69.5l-128 -343h160l99 298q5 14 15.5 20.5t18.5 8.5l8 2l65 -176q21 -56 42.5 -91t53 -54t79.5 -29l86 79q-23 8 -41 17t-33.5 27.5t-27.5 52.5z" />
    <glyph glyph-name="sigma_tau" unicode="&#x3c3;&#x3c4;" horiz-adv-x="1027" 
d="M829 357v-175q0 -27 10 -42.5t29.5 -23t45.5 -11.5l-60 -123q-45 4 -77.5 18.5t-53 36.5t-30 49t-9.5 56v215q-44 1 -82 3t-70 5.5t-55 7.5q14 -16 20 -37t6 -51v-102q0 -90 -57.5 -141.5t-173.5 -51.5q-84 0 -137 25.5t-77.5 69t-24.5 98.5v140q0 57 20.5 94t54.5 57.5
t76 29t85 8.5q27 0 51.5 -1.5t49.5 -3.5t50 -5q84 -7 159 -11.5t145.5 -5t137.5 3t134 12.5v-133q-43 -4 -85 -6.5t-82 -4.5zM335 379q-8 1 -19.5 2t-23 1h-19.5q-19 0 -36 -2.5t-30.5 -9t-21 -18.5t-7.5 -30v-134q0 -16 9.5 -29.5t30 -20.5t53.5 -7q50 0 70 15t20 42v131
q0 6 -0.5 13t-2 13.5t-5 12.5t-7.5 11.5t-11 9.5z" />
    <glyph glyph-name=".notdef" horiz-adv-x="500" 
d="M50 -232v1194h400v-1194h-400zM100 -182h300v1094h-300v-1094z" />
    <glyph glyph-name=".null" horiz-adv-x="0" 
 />
    <glyph glyph-name="nonmarkingreturn" horiz-adv-x="333" 
 />
    <glyph glyph-name="NULL" horiz-adv-x="0" 
 />
    <glyph glyph-name="NULL" horiz-adv-x="0" 
 />
    <glyph glyph-name="CR" unicode="&#xd;" horiz-adv-x="393" 
 />
    <glyph glyph-name="space" unicode=" " horiz-adv-x="350" 
 />
    <glyph glyph-name="exclam" unicode="!" horiz-adv-x="195" 
d="M32 639l20 -503h89l25 504q0 34 -17.5 53t-51.5 19q-32 0 -48.5 -19t-16.5 -54zM98 122q-29 0 -49 -20t-20 -49t20 -49t49 -20q28 0 48 20t20 49t-20 49t-48 20z" />
    <glyph glyph-name="quotedbl" unicode="&#x22;" horiz-adv-x="284" 
d="M86 701l15 -112h74l16 112q0 25 -16 37.5t-36.5 12.5t-36.5 -12.5t-16 -37.5zM92 701l16 -112h74l16 112q0 25 -16 37.5t-37 12.5t-37 -12.5t-16 -37.5z" />
    <glyph glyph-name="numbersign" unicode="#" horiz-adv-x="766" 
d="M566 270l25 87h135v114h-99l68 229h-132l-68 -229h-157l67 229h-121l-66 -229h-180v-114h146l-26 -87h-120v-103h90l-52 -167h124l48 167h157l-47 -167h128l49 167h191v103h-160zM436 270h-157l26 87h158z" />
    <glyph glyph-name="dollar" unicode="$" horiz-adv-x="669" 
d="M280 -115h124v934h-124v-934zM517 556l33 117q-30 13 -64.5 21t-70 12t-70.5 4q-48 0 -97.5 -9.5t-91.5 -31t-67.5 -57.5t-25.5 -89q0 -42 17.5 -73t47 -54.5t66.5 -41.5t77 -32t77 -27t66.5 -27t47.5 -30.5t18 -37.5t-12.5 -36t-33.5 -24.5t-48.5 -14.5t-59.5 -5
q-41 0 -82 8t-77 23t-64 36l-72 -98q37 -33 84 -55.5t100.5 -34t109.5 -11.5q64 0 120 12t98.5 38t66.5 67.5t24 101.5q0 43 -18 75.5t-48 56.5t-68 42.5t-78 33t-77.5 27t-67.5 24.5t-48 26.5t-18 33.5q0 17 12.5 28t32 17.5t43 8.5t46.5 2q29 0 59 -3t58.5 -9t54.5 -14z
" />
    <glyph glyph-name="percent" unicode="%" horiz-adv-x="913" 
d="M44 0h144l676 700h-146zM236 715q-50 0 -92 -19.5t-67 -52.5t-25 -73t25 -73.5t66.5 -53.5t91.5 -20q49 0 90.5 20t66.5 53.5t25 73.5t-25 73t-66 52.5t-90 19.5zM235 622q18 0 32.5 -7t23.5 -19t9 -26t-9 -26.5t-23.5 -19.5t-32.5 -7t-33 7t-24 19.5t-9 26.5t9 26t24 19
t33 7zM687 278q-51 0 -92.5 -19.5t-66.5 -52.5t-25 -74q0 -40 25 -73.5t66.5 -53t92.5 -19.5q50 0 91 19.5t65.5 53t24.5 73.5q0 41 -24.5 74t-65.5 52.5t-91 19.5zM687 185q17 0 31.5 -7.5t23 -19.5t8.5 -26t-8.5 -26.5t-23 -19.5t-31.5 -7q-18 0 -33 7t-23.5 19.5
t-8.5 26.5t8.5 26t23.5 19.5t33 7.5z" />
    <glyph glyph-name="ampersand" unicode="&#x26;" horiz-adv-x="649" 
d="M468 562l30 140h-233q-55 0 -96 -18.5t-63.5 -51t-22.5 -76.5q0 -34 10.5 -62t31 -50t49.5 -40h-23q-26 0 -48 -7.5t-38 -23t-25 -39.5t-9 -57v-126q0 -32 9.5 -57.5t26 -43.5t39.5 -29.5t49.5 -17t54.5 -5.5t59.5 4t62.5 14t54 27q30 -27 71 -38.5t95 -12.5l37 118
q-43 0 -70.5 11.5t-27.5 45.5v122h98l28 115h-125v104h-141v-104h-34q-19 9 -36.5 21t-30.5 26t-20.5 30t-7.5 33q0 23 16.5 35.5t48.5 12.5h181zM351 293v-108q0 -14 -15.5 -25t-39 -17t-49.5 -6q-23 0 -38.5 6.5t-23.5 18t-8 25.5v68q0 10 4.5 17.5t11.5 12t17 6.5t22 2
h119z" />
    <glyph glyph-name="quotesingle" unicode="'" horiz-adv-x="149" 
d="M21 701l16 -112h74l16 112q0 25 -16 37.5t-37 12.5t-37 -12.5t-16 -37.5z" />
    <glyph glyph-name="parenleft" unicode="(" horiz-adv-x="297" 
d="M270 734l-62 85q-58 -26 -92.5 -60.5t-50 -73.5t-15.5 -79v-511q0 -31 7.5 -60t25.5 -55.5t49 -51t77 -45.5l64 82q-7 4 -20 12t-27 22.5t-24 40t-10 64.5v504q0 36 10.5 60t25 38t26.5 20.5t16 7.5z" />
    <glyph glyph-name="parenright" unicode=")" horiz-adv-x="297" 
d="M25 734l65 85q44 -19 73.5 -44t48 -52.5t27.5 -57t9 -59.5v-511q0 -31 -7.5 -60t-25.5 -55.5t-49 -51t-77 -45.5l-66 82q4 3 17.5 10.5t28.5 22.5t25.5 41t10.5 65v504q0 36 -10 59t-24 36.5t-27 20t-19 10.5z" />
    <glyph glyph-name="asterisk" unicode="*" horiz-adv-x="382" 
d="M65 655l-39 -103l99 -14l-73 -70l99 -71l38 103l38 -103l102 69l-76 70l101 15l-45 105l-81 -52l22 96h-120l22 -96z" />
    <glyph glyph-name="plus" unicode="+" horiz-adv-x="478" 
d="M307 531h-139v-111h-131v-106h131v-103h139v103h131v106h-131v111z" />
    <glyph glyph-name="comma" unicode="," horiz-adv-x="188" 
d="M57 -63l27 -20l11.5 8t27 24.5t27.5 42.5t12 62q0 28 -19.5 48.5t-47.5 20.5q-29 0 -49.5 -20.5t-20.5 -48.5q0 -24 15 -42t38 -24q-3 -11 -8 -24.5t-13 -26.5z" />
    <glyph glyph-name="hyphen" unicode="-" horiz-adv-x="394" 
d="M35 292h320v122h-320v-122z" />
    <glyph glyph-name="period" unicode="." horiz-adv-x="190" 
d="M95 121q-29 0 -49 -20t-20 -49t20 -49t49 -20t49.5 20t20.5 49t-20.5 49t-49.5 20z" />
    <glyph glyph-name="slash" unicode="/" horiz-adv-x="602" 
d="M35 -115h124l410 934h-124z" />
    <glyph glyph-name="zero" unicode="0" horiz-adv-x="598" 
d="M35 502v-311q0 -66 34.5 -111t94 -68t135.5 -23q82 0 140.5 24.5t90.5 70t32 107.5v310q0 101 -67.5 158.5t-193.5 57.5q-125 0 -195.5 -55.5t-70.5 -159.5zM180 212v267q0 38 13 60.5t39.5 32t65.5 9.5q42 0 68.5 -10t39.5 -32t13 -59v-267q0 -31 -14.5 -51.5t-41 -30.5
t-64.5 -10t-64.5 9.5t-40.5 30t-14 51.5z" />
    <glyph glyph-name="one" unicode="1" horiz-adv-x="374" 
d="M20 629l41 -123q-1 0 12 1.5t33 5t42 9.5t39 14l-1 -536h147v700h-146q-22 -20 -51 -33.5t-56 -21.5t-44 -12t-16 -4z" />
    <glyph glyph-name="two" unicode="2" horiz-adv-x="535" 
d="M44 578l110 -70q8 17 24 30.5t38 22t48 8.5q24 0 42 -6t28.5 -17t10.5 -26q0 -11 -5 -22t-15.5 -24.5t-26.5 -31.5l-267 -311l1 -131h467v135h-283l204 237q36 41 55 79.5t19 88.5q0 56 -31.5 94t-81.5 57t-107 19q-50 0 -94.5 -15t-79.5 -44.5t-56 -72.5z" />
    <glyph glyph-name="three" unicode="3" horiz-adv-x="552" 
d="M331 410l-8 1l128 154v135h-364v-135h199l-213 -274h147q39 0 73.5 -7t56.5 -25t22 -50q0 -25 -15 -44t-43.5 -29.5t-69.5 -10.5q-47 0 -86 11t-66 33l-77 -103q55 -44 113 -61t125 -17q57 0 106 16.5t85 46t56.5 69.5t20.5 87q0 56 -22 97.5t-64.5 68.5t-103.5 37z" />
    <glyph glyph-name="four" unicode="4" horiz-adv-x="667" 
d="M405 0h145v276h62l26 138h-88v286h-145v-286h-187l101 286h-150l-152 -424h388v-276z" />
    <glyph glyph-name="five" unicode="5" horiz-adv-x="563" 
d="M222 422l14 143h227v135h-353l-37 -407h162q45 0 79 -7.5t53 -26t19 -50.5q0 -21 -10 -36.5t-27.5 -25.5t-42 -15.5t-52.5 -5.5q-37 0 -70 5.5t-58.5 12.5t-40.5 12.5l-15 5.5l-48 -117q0 1 18.5 -7.5t51 -20t75 -20.5t91.5 -9q69 0 120.5 18t86.5 49t52.5 71t17.5 83
q0 61 -29.5 109t-88 76t-144.5 28h-51z" />
    <glyph glyph-name="six" unicode="6" horiz-adv-x="593" 
d="M330 571h51v130h-44q-92 0 -161 -29t-106.5 -83.5t-37.5 -129.5v-256q0 -61 35.5 -109.5t95.5 -75.5t134 -27q57 0 105 15.5t84.5 44t57 67t20.5 85.5q0 65 -34 113t-93 74.5t-135 26.5q-32 0 -59.5 -5t-44.5 -10.5t-18 -6.5v57q0 37 18.5 63.5t52.5 41t79 14.5zM298 278
q24 0 46 -5t38 -15t25.5 -23.5t9.5 -30.5q0 -16 -9.5 -29.5t-25.5 -23.5t-38 -15t-46 -5q-33 0 -60 9t-42.5 25.5t-15.5 38.5q0 17 9 30.5t25 23.5t37.5 15t46.5 5z" />
    <glyph glyph-name="seven" unicode="7" horiz-adv-x="570" 
d="M203 0l343 565v135h-495v-135h329l-341 -565h164z" />
    <glyph glyph-name="eight" unicode="8" horiz-adv-x="593" 
d="M297 710q-61 0 -110.5 -22.5t-78.5 -62t-29 -91.5q0 -32 10 -59.5t31 -49.5t52 -38q-42 -13 -74.5 -42t-50.5 -65.5t-18 -77.5q0 -66 36 -114t97 -74t134 -26q74 0 134.5 26t97 74.5t36.5 113.5q0 42 -18 78t-50 63.5t-75 42.5q50 23 73 61t23 87q0 52 -29.5 91.5
t-79.5 62t-111 22.5zM296 483q-23 0 -42 7t-30 18t-11 26q0 16 11 27t29.5 17t42.5 6q25 0 43.5 -6t28.5 -17t10 -27q0 -14 -11 -25.5t-29.5 -18.5t-41.5 -7zM296 128q-34 0 -62 9t-44.5 26t-16.5 39q0 17 9.5 31t26.5 23.5t39 14.5t48 5q35 0 62.5 -9t43.5 -25.5t16 -39.5
q0 -22 -16.5 -39t-44 -26t-61.5 -9z" />
    <glyph glyph-name="nine" unicode="9" horiz-adv-x="592" 
d="M293 710q-56 0 -104.5 -15.5t-85 -43.5t-57 -67t-20.5 -86q0 -65 34 -113t93 -74.5t135 -26.5q39 0 66 6t41.5 11.5t14.5 4.5v-57q0 -36 -19 -62.5t-52.5 -41.5t-79.5 -15h-50v-131h44q92 0 160.5 29.5t106.5 84t38 129.5v256q0 63 -35.5 110.5t-95.5 74.5t-134 27z
M292 570q34 0 60.5 -9t42 -25t15.5 -39q0 -17 -9 -30.5t-25 -23.5t-37.5 -15t-46.5 -5q-24 0 -46 5t-38.5 15t-25.5 23.5t-9 30.5t9 30.5t25.5 23t38.5 14.5t46 5z" />
    <glyph glyph-name="colon" unicode=":" horiz-adv-x="197" 
d="M167 144q0 29 -20.5 49t-48.5 20q-29 0 -49 -20t-20 -49q0 -28 20 -48.5t49 -20.5q28 0 48.5 20.5t20.5 48.5zM167 385q0 28 -20.5 48t-48.5 20q-29 0 -49 -20t-20 -48t20 -48.5t49 -20.5q28 0 48.5 20.5t20.5 48.5z" />
    <glyph glyph-name="semicolon" unicode=";" horiz-adv-x="196" 
d="M60 27l27 -20l11.5 8t27 24.5t27.5 42.5t12 62q0 28 -20 48t-47 20q-29 0 -49.5 -20t-20.5 -48q0 -24 15 -42.5t38 -24.5q-2 -10 -7.5 -23.5t-13.5 -26.5zM167 385q0 28 -20.5 48t-48.5 20q-29 0 -49 -20t-20 -48t20 -48.5t49 -20.5q28 0 48.5 20.5t20.5 48.5z" />
    <glyph glyph-name="less" unicode="&#x3c;" horiz-adv-x="515" 
d="M33 359l349 -279l88 67l-261 212l265 208l-92 71z" />
    <glyph glyph-name="equal" unicode="=" horiz-adv-x="395" 
d="M36 352h321v111h-321v-111zM36 205h321v110h-321v-110z" />
    <glyph glyph-name="greater" unicode="&#x3e;" horiz-adv-x="519" 
d="M40 567l265 -208l-262 -212l90 -67l349 279l-349 279z" />
    <glyph glyph-name="question" unicode="?" horiz-adv-x="520" 
d="M25 524h143q0 15 6.5 26.5t18 19t27 11t33.5 3.5q32 0 52.5 -7.5t30.5 -20.5t10 -30q0 -20 -14.5 -39.5t-36.5 -39t-44 -41.5q-18 -18 -33.5 -38t-27 -43.5t-18.5 -51t-7 -60.5v-68h144v66q0 24 4 42.5t12.5 34.5t24.5 33.5t39 39.5q27 25 49.5 48.5t37 52t14.5 65.5
q0 44 -18.5 78.5t-51 58t-75.5 36t-93 12.5q-45 0 -86 -11t-73 -34.5t-50 -58.5t-18 -84zM237 121q-29 0 -49 -20t-20 -49t20 -49t49 -20t49 20t20 49t-20 49t-49 20z" />
    <glyph glyph-name="at" unicode="@" horiz-adv-x="977" 
d="M957 388l-73 95q-51 -20 -77.5 -50t-35 -67t-8.5 -77v-130q0 -33 -19.5 -61t-56 -48t-89.5 -31t-119 -11q-74 0 -130.5 11t-95 34.5t-58 61t-19.5 91.5v130q0 44 13.5 76.5t40.5 53.5t67.5 31.5t93.5 10.5q66 0 104 -9.5t42 -36.5h-133q-36 0 -65.5 -8.5t-51.5 -27.5
t-34 -49t-12 -73v-86q0 -35 10 -66t34 -53.5t65.5 -35t104.5 -12.5q35 0 69 4t63.5 9.5t52 11.5t35 10t11.5 4v247h41l29 125l-72 -1q-3 46 -24 79t-58 54.5t-91 32t-124 10.5q-78 0 -143 -17.5t-112.5 -54t-73.5 -92.5t-26 -133v-141q0 -74 27 -133.5t81.5 -101t138 -63.5
t196.5 -22t194.5 23t133.5 63t77.5 91t25.5 106v133q0 19 3 36t14 32t34 25zM436 333h106v-153q-9 -1 -20 -1.5l-22 -1t-21 -0.5h-18q-33 0 -54 10.5t-21 43.5v55q0 18 6.5 28t18.5 14.5t25 4.5z" />
    <glyph glyph-name="A" unicode="A" horiz-adv-x="670" 
d="M646 0l-205 700h-214l-202 -700h157l41 150h221l42 -150h160zM260 287l74 275l73 -275h-147z" />
    <glyph glyph-name="B" unicode="B" horiz-adv-x="613" 
d="M320 700h-279v-700h293q87 0 141.5 26t80 72.5t25.5 107.5q0 47 -15.5 82t-43.5 59t-64 36q28 15 46.5 34.5t27.5 45.5t9 60q0 55 -25.5 94.5t-74.5 61t-121 21.5zM296 422h-109v153h116q30 0 49 -8.5t27.5 -24.5t8.5 -41t-8.5 -43t-29 -27t-54.5 -9zM326 121h-139v178
h135q33 0 55.5 -9t34 -28.5t11.5 -51.5q0 -36 -14.5 -55.5t-37 -26.5t-45.5 -7z" />
    <glyph glyph-name="C" unicode="C" horiz-adv-x="517" 
d="M427 559l31 118q-45 18 -90 26.5t-90 8.5q-70 0 -124.5 -21t-86 -65t-31.5 -112v-330q0 -66 29 -109.5t84.5 -65t134.5 -21.5q48 0 99 9.5t105 25.5l-20 128q-10 -3 -38.5 -9.5t-65.5 -11.5t-72 -5q-32 0 -57 5.5t-39.5 21.5t-14.5 48v300q0 32 17 48t45 21.5t62 5.5
q33 0 63.5 -4t58.5 -12z" />
    <glyph glyph-name="D" unicode="D" horiz-adv-x="604" 
d="M305 701h-264v-701h284q84 0 137.5 25t79.5 72.5t26 112.5v270q0 72 -30.5 121.5t-89 74.5t-143.5 25zM321 131h-134v435h138q33 0 54.5 -10.5t32 -29.5t10.5 -48v-261q0 -15 -3.5 -30t-13.5 -28t-30.5 -20.5t-53.5 -7.5z" />
    <glyph glyph-name="E" unicode="E" horiz-adv-x="495" 
d="M41 0h417v131h-271l-1 164h158l45 132h-202v138h273v135h-419v-700z" />
    <glyph glyph-name="F" unicode="F" horiz-adv-x="479" 
d="M460 700h-419v-700h146v295h156l46 131h-202v139h273v135z" />
    <glyph glyph-name="G" unicode="G" horiz-adv-x="583" 
d="M444 559l40 118q-25 10 -57 17.5t-66 11.5t-68 4q-84 0 -141.5 -21t-87 -66t-29.5 -117v-317q0 -72 34.5 -116t94 -63.5t133.5 -19.5q16 1 41.5 3.5t51.5 9.5t43 19l6 -22h110v343h-256l32 -131h77v-16q0 -17 -9 -31t-24.5 -22.5t-34 -13t-36.5 -4.5q-40 0 -66 7.5
t-38.5 25t-12.5 46.5v292q0 34 18 50.5t49 22.5t69 6q19 0 41.5 -2t45 -5.5t40.5 -8.5z" />
    <glyph glyph-name="H" unicode="H" horiz-adv-x="621" 
d="M433 426h-246v274h-146v-700h146v295h246v-295h145v700h-145v-274z" />
    <glyph glyph-name="I" unicode="I" horiz-adv-x="288" 
d="M19 574l82 -2v-572h145v700h-227v-126z" />
    <glyph glyph-name="J" unicode="J" horiz-adv-x="314" 
d="M273 153v547h-235v-126l89 -2v-389q0 -33 -9 -55t-32.5 -33.5t-68.5 -11.5l33 -120q60 1 102.5 14.5t69 38.5t39 59.5t12.5 77.5z" />
    <glyph glyph-name="K" unicode="K" horiz-adv-x="609" 
d="M189 448v252h-148v-700h148v229l43 51l174 -280h180l-257 400l232 300h-179z" />
    <glyph glyph-name="L" unicode="L" horiz-adv-x="519" 
d="M41 0h453v131h-307v569h-146v-700z" />
    <glyph glyph-name="M" unicode="M" horiz-adv-x="761" 
d="M185 700h-151l-8 -700h146v362l150 -362h116l152 362v-362h144l-8 700h-149l-197 -467z" />
    <glyph glyph-name="N" unicode="N" horiz-adv-x="701" 
d="M658 700h-146v-449l-326 449h-145v-700h145v439l322 -439h150v700z" />
    <glyph glyph-name="O" unicode="O" horiz-adv-x="598" 
d="M35 502v-311q0 -66 34.5 -111t94 -68t135.5 -23q82 0 140.5 24.5t90.5 70t32 107.5v310q0 101 -67.5 158.5t-193.5 57.5q-125 0 -195.5 -55.5t-70.5 -159.5zM180 212v267q0 38 13 60.5t39.5 32t65.5 9.5q42 0 68.5 -10t39.5 -32t13 -59v-267q0 -31 -14.5 -51.5t-41 -30.5
t-64.5 -10t-64.5 9.5t-40.5 30t-14 51.5z" />
    <glyph glyph-name="P" unicode="P" horiz-adv-x="618" 
d="M332 700h-290v-700h145v184h143q51 0 96.5 10.5t81.5 38.5t57 79.5t21 133.5q1 76 -20 126t-57 78t-82 39t-95 11zM187 317v247h125q31 0 54 -5t39.5 -18t24.5 -36t8 -60q0 -40 -8 -65t-24 -39t-39.5 -19t-54.5 -5h-125z" />
    <glyph glyph-name="Q" unicode="Q" horiz-adv-x="598" 
d="M362 53v128h-124v-156q0 -30 10.5 -58.5t38 -51.5t77.5 -36t130 -13l28 116q-52 -3 -84 1t-48 13t-22 24t-6 33zM35 502v-311q0 -66 34.5 -111t94 -68t135.5 -23q82 0 140.5 24.5t90.5 70t32 107.5v310q0 101 -67.5 158.5t-193.5 57.5q-125 0 -195.5 -55.5t-70.5 -159.5z
M180 212v267q0 38 13 60.5t39.5 32t65.5 9.5q42 0 68.5 -10t39.5 -32t13 -59v-267q0 -31 -14.5 -51.5t-41 -30.5t-64.5 -10t-64.5 9.5t-40.5 30t-14 51.5z" />
    <glyph glyph-name="R" unicode="R" horiz-adv-x="623" 
d="M327 700h-285v-700h145v185h111h15.5t22 0.5t17.5 0.5l76 -186h164l-101 227q28 18 49 47t33.5 72t12.5 100q0 79 -22 129t-59 77t-83.5 37.5t-95.5 10.5zM312 317h-125v246h125q31 0 54 -5t39 -17.5t24.5 -35.5t8.5 -59q0 -41 -8.5 -66.5t-24 -39t-39 -18.5t-54.5 -5z
" />
    <glyph glyph-name="S" unicode="S" horiz-adv-x="660" 
d="M515 556l33 117q-30 13 -64.5 21t-70 12t-70.5 4q-48 0 -97.5 -9.5t-91.5 -31t-67.5 -57.5t-25.5 -89q0 -42 17.5 -73t47 -54.5t67 -41.5t77 -32t76.5 -27t67 -27t47.5 -30.5t17.5 -37.5t-12 -36t-33.5 -24.5t-49 -14.5t-59.5 -5q-41 0 -82 8t-77 23t-64 36l-72 -98
q37 -33 84 -55.5t101 -34t109 -11.5q64 0 120 12t98.5 38t66.5 67.5t24 101.5q0 43 -18 75.5t-48 56.5t-67.5 42.5t-77.5 33t-78 27t-68 24.5t-48 26.5t-18 33.5q0 17 12.5 28t32 17.5t43 8.5t46.5 2q30 0 59.5 -3t58.5 -9t54 -14z" />
    <glyph glyph-name="T" unicode="T" horiz-adv-x="529" 
d="M335 564h180v136h-502v-136h177v-564h145v564z" />
    <glyph glyph-name="U" unicode="U" horiz-adv-x="606" 
d="M566 189v511h-143v-489q0 -28 -14.5 -48t-41 -30.5t-64.5 -10.5q-39 0 -65.5 9.5t-40 29t-13.5 49.5v490h-145v-511q0 -64 34 -109t94 -68t137 -23t136 23t92.5 68t33.5 109z" />
    <glyph glyph-name="V" unicode="V" horiz-adv-x="632" 
d="M15 700l212 -700h174l215 700h-159l-141 -508l-145 508h-156z" />
    <glyph glyph-name="W" unicode="W" horiz-adv-x="915" 
d="M524 700h-132l-113 -426l-106 426h-154l177 -700h157l104 367l103 -367h157l176 700h-154l-104 -426z" />
    <glyph glyph-name="X" unicode="X" horiz-adv-x="742" 
d="M371 483l-152 217h-180l242 -338l-256 -362h177l169 237l169 -237h179l-258 362l241 338h-178z" />
    <glyph glyph-name="Y" unicode="Y" horiz-adv-x="629" 
d="M588 157v543h-146v-283q0 -18 -10 -33.5t-28 -26.5t-41 -17.5t-48 -6.5q-49 0 -79 11t-44 32.5t-14 53.5v270h-147v-290q0 -66 32.5 -112.5t89.5 -71t128 -24.5q31 0 61 3.5t56.5 12t47.5 20.5l-1 -68q0 -21 -9.5 -35t-25.5 -23t-35.5 -13.5t-39.5 -5.5l44 -112
q112 8 160.5 52.5t48.5 123.5z" />
    <glyph glyph-name="Z" unicode="Z" horiz-adv-x="678" 
d="M41 700v-144l385 -1l-20 -20l-378 -396v-139h611v142l-410 1l19 18l380 394v145h-587z" />
    <glyph glyph-name="bracketleft" unicode="[" horiz-adv-x="292" 
d="M192 703l63 10v106h-202v-934h202v106l-63 10v702z" />
    <glyph glyph-name="backslash" unicode="\" horiz-adv-x="599" 
d="M430 -115h148l-406 934h-152z" />
    <glyph glyph-name="bracketright" unicode="]" horiz-adv-x="294" 
d="M39 -115h201v934h-201v-106l63 -10v-702l-63 -10v-106z" />
    <glyph glyph-name="asciicircum" unicode="^" 
d="M273 787l-138 124l-140 -123l60 -66l81 72l75 -71z" />
    <glyph glyph-name="underscore" unicode="_" horiz-adv-x="384" 
d="M33 -92h320v92h-320v-92z" />
    <glyph glyph-name="grave" unicode="`" 
d="M142 706q-3 16 -16 28.5t-30.5 16.5t-35.5 -6q-17 -9 -22 -24.5t-0.5 -31.5t13.5 -28l55 -72h67z" />
    <glyph glyph-name="a" unicode="a" horiz-adv-x="548" 
d="M363 355q-17 11 -43.5 20.5t-59 15.5t-67.5 6q-36 0 -66.5 -8.5t-52.5 -26.5t-34 -46t-12 -66v-94q0 -50 18.5 -82t52.5 -51t80 -26.5t102 -7.5q25 0 49 0.5l48 1t46.5 2t44 3.5t42.5 4v311q0 60 -14.5 98.5t-46 60.5t-82.5 31t-124 9l-15 -83q30 0 54.5 -3.5t42.5 -11.5
t27.5 -22t9.5 -35zM365 244v-125l-6 -0.5t-15.5 -1t-20.5 -1t-21.5 -1t-19.5 -0.5q-29 0 -50 3.5t-33.5 10.5t-18.5 17t-6 24v57q0 11 4 19t12 12.5t19.5 6.5t25.5 2q23 0 47 -4t45.5 -9t37.5 -10z" />
    <glyph glyph-name="b" unicode="b" horiz-adv-x="555" 
d="M186 490v210h-145v-700q23 -1 46.5 -2.5t46.5 -3t46 -2.5t45 -2t41 -1q58 0 105 8t80.5 26.5t52 51.5t18.5 84v200q0 39 -14 67.5t-39 47t-57.5 27.5t-69.5 9q-25 0 -51.5 -2.5t-53 -6.5t-51.5 -11zM186 132v219q7 3 25 6t43 5.5t50 2.5q14 0 27 -1.5t23.5 -6.5t16.5 -13
t6 -22v-132q0 -14 -3.5 -25.5t-14 -19.5t-32.5 -12t-59 -4q-8 0 -21.5 0.5t-27.5 1t-23.5 1z" />
    <glyph glyph-name="c" unicode="c" horiz-adv-x="464" 
d="M396 357l35 122q-38 14 -79 23t-83 10q-77 2 -130.5 -22t-80.5 -67t-27 -102v-149q0 -66 30 -105.5t84 -58t126 -20.5q42 -1 83 4t80 13l-27 129l-10 -1t-26.5 -2.5t-36 -3t-38.5 -1.5q-26 0 -47.5 4t-37.5 12.5t-24.5 22.5t-8.5 33v111q0 26 15.5 40.5t42 20.5t59.5 5
q27 -1 54 -6t47 -12z" />
    <glyph glyph-name="d" unicode="d" horiz-adv-x="556" 
d="M511 0v700h-145v-210q-43 11 -80 15.5t-76 4.5q-35 0 -67.5 -9t-58 -27.5t-40.5 -46.5t-15 -67v-203q0 -49 18.5 -81.5t52.5 -51.5t80 -27t101 -8q22 0 45 1t46.5 1.5t47.5 2t47 3.5t44 3zM366 352v-221l-5.5 -0.5t-15 -0.5t-21 -0.5t-22.5 -0.5h-19q-32 0 -53 4
t-33 11.5t-17 19t-5 27.5v127q0 13 5.5 22t15.5 14.5t23.5 8.5t30.5 3q36 0 67.5 -5.5t48.5 -8.5z" />
    <glyph glyph-name="e" unicode="e" horiz-adv-x="529" 
d="M178 157v18l322 12v159q0 56 -28.5 92.5t-79.5 54.5t-119 18t-122.5 -18.5t-86 -55.5t-31.5 -94v-210q0 -38 16 -66t45 -45.5t68 -26t86 -8.5q60 0 117.5 13t102.5 35l-42 114q-37 -14 -78 -23t-83 -10q-25 0 -41.5 2t-26.5 7t-14.5 13t-4.5 19zM355 326v-25l-177 -7v33
q0 18 7 30.5t27 19.5t57 8q35 1 53.5 -7.5t25.5 -22t7 -29.5z" />
    <glyph glyph-name="f" unicode="f" horiz-adv-x="377" 
d="M317 571l31 131q-15 3 -36 5.5t-41.5 4t-34.5 1.5q-49 0 -86 -11t-61.5 -33t-36.5 -54.5t-12 -75.5v-539h148v359h110l34 142h-144v40q0 9 4 15.5t12 11t20 7t28 2.5q13 0 33 -1.5t32 -4.5z" />
    <glyph glyph-name="g" unicode="g" horiz-adv-x="547" 
d="M505 -64v565h-145v-20q-20 11 -44 17.5t-49.5 9.5t-51.5 3q-56 0 -97.5 -19t-64 -55t-22.5 -88v-174q0 -96 53 -141.5t148 -45.5q17 0 35 1.5t35.5 4t32 6.5t25.5 9v-57q0 -17 -11 -28.5t-28 -18.5t-34.5 -9.5t-30.5 -2.5l30 -104q66 0 115.5 14.5t76.5 47t27 85.5z
M360 358v-195q0 -6 -7 -12.5t-20.5 -11.5t-33 -8.5t-46.5 -3.5q-25 -1 -42 5t-25.5 18t-8.5 30v140q0 17 6 27.5t17 16t25.5 7.5t30.5 2q15 0 33 -2.5t34 -5.5t26.5 -5z" />
    <glyph glyph-name="h" unicode="h" horiz-adv-x="549" 
d="M186 483v217h-146v-700h146v358q18 6 36 9t36.5 5t36.5 2q16 0 29.5 -2.5t23.5 -8.5t15.5 -15t5.5 -22v-326h145v344q0 40 -10 68.5t-28 47.5t-41.5 30t-50.5 16t-56 5t-56 -4.5t-49 -11t-37 -12.5z" />
    <glyph glyph-name="i" unicode="i" horiz-adv-x="235" 
d="M45 0h144v501h-144v-501zM117 725q-32 0 -53.5 -20t-21.5 -53q0 -31 21.5 -53t53.5 -22t53.5 22t21.5 53q0 33 -21.5 53t-53.5 20z" />
    <glyph glyph-name="j" unicode="j" horiz-adv-x="310" 
d="M263 -41v542h-235v-116l90 -9v-408q0 -24 -12 -40t-32.5 -24t-47.5 -12l34 -108q67 2 112 24.5t68 61.5t23 89zM265 651q0 32 -22 53t-53 21t-53 -21t-22 -53q0 -30 22 -52t53 -22t53 22t22 52z" />
    <glyph glyph-name="k" unicode="k" horiz-adv-x="595" 
d="M349 304l158 141l-119 84l-201 -180v351h-146v-700h146v179l48 34l149 -213h188z" />
    <glyph glyph-name="l" unicode="l" horiz-adv-x="229" 
d="M41 0h145v700h-145v-700z" />
    <glyph glyph-name="m" unicode="m" horiz-adv-x="882" 
d="M699 326v-326h146v345q0 52 -16 84.5t-43 50t-61.5 23.5t-71.5 6q-31 0 -63.5 -7t-61.5 -18.5t-53 -26.5q-17 20 -39 31.5t-48 16t-53 4.5q-28 0 -56.5 -5t-53 -12.5t-40.5 -14.5v24h-146v-501h146v355q13 5 30 9.5t35.5 7.5t35.5 3q14 0 29 -2.5t27 -7.5t20 -14.5
t8 -24.5v-326h144v320q0 6 -0.5 16.5t-2.5 15.5q15 6 33 11.5t36.5 8.5t33.5 3q17 0 32 -2.5t27 -7.5t19 -15t7 -24z" />
    <glyph glyph-name="n" unicode="n" horiz-adv-x="549" 
d="M368 327v-328h143v347q0 39 -10 67t-27 46.5t-39 29.5t-47 16t-50 5q-32 0 -61 -5t-53 -12t-39 -12v20h-146v-502h146v358q19 6 36 9.5t31.5 5.5t28.5 2q20 0 35.5 -3t27 -8.5t18 -14.5t6.5 -21z" />
    <glyph glyph-name="o" unicode="o" horiz-adv-x="536" 
d="M504 183v137q0 93 -60.5 142.5t-172.5 49.5q-78 0 -131.5 -22t-81 -64.5t-27.5 -105.5v-137q0 -57 24.5 -100.5t77 -68t137.5 -24.5q116 0 175 51.5t59 141.5zM358 314v-126q0 -17 -8 -30t-26.5 -20t-53.5 -7t-56 7.5t-29.5 20.5t-8.5 29v126q0 19 10 31.5t31 19t53 6.5
t51.5 -6.5t28 -19.5t8.5 -31z" />
    <glyph glyph-name="p" unicode="p" horiz-adv-x="549" 
d="M513 175v174q0 52 -19 88t-58 55t-98 19q-31 0 -61.5 -5.5t-55 -12.5t-35.5 -14v22h-146v-693l146 -22v222q18 -6 39 -10.5t45 -7t51 -2.5q89 0 140.5 47.5t51.5 139.5zM368 323v-146q0 -15 -9 -27t-25.5 -18.5t-40.5 -6.5q-16 0 -34.5 2.5t-35.5 7t-27 12t-10 17.5v194
q3 1 17 4.5t36 7t45 3.5q17 0 32 -2t26.5 -7.5t18.5 -15.5t7 -25z" />
    <glyph glyph-name="q" unicode="q" horiz-adv-x="545" 
d="M359 10v-202l145 -21v714h-145v-22q-21 11 -45 18t-49 11t-50 4q-57 0 -98 -18t-63.5 -54t-22.5 -91v-174q0 -65 25 -106t70.5 -60.5t105.5 -19.5q27 0 50 2.5t42.5 7.5t34.5 11zM359 354v-193q0 -7 -6.5 -12.5t-19.5 -10.5t-32.5 -8.5t-46.5 -3.5q-28 0 -45 6
t-24.5 17.5t-7.5 25.5v150q0 15 6.5 24t17.5 14t25 6.5t29 1.5q16 0 33 -2t31.5 -5t25 -6t14.5 -4z" />
    <glyph glyph-name="r" unicode="r" horiz-adv-x="437" 
d="M399 368l12 133q-15 6 -38 10.5t-47 4.5q-38 0 -76 -9t-69 -26v20h-142v-501h142v347q19 8 37.5 13t38 8.5t40 5t40.5 1.5q26 0 44 -3.5z" />
    <glyph glyph-name="s" unicode="s" horiz-adv-x="531" 
d="M403 360l43 113q-21 12 -49.5 21.5t-61 14.5t-64.5 5q-48 0 -88 -9.5t-69 -29t-45 -47.5t-16 -65q0 -38 16 -64.5t42 -45t57.5 -30.5t62.5 -20t57 -15t42 -15t16 -20q0 -10 -6 -16.5t-16.5 -10.5t-24.5 -6t-30 -2q-27 0 -59 6t-62 16.5t-52 25.5l-71 -92
q48 -42 111.5 -65.5t131.5 -23.5q45 0 87 10.5t75.5 31.5t53 53t19.5 74q0 39 -16.5 66t-43 45t-58.5 30t-64 19.5t-59 14t-43 13.5t-16 18q0 7 7 11.5t18 6.5t22.5 2.5t19.5 0.5q28 0 53 -3t45.5 -8t34.5 -10z" />
    <glyph glyph-name="t" unicode="t" horiz-adv-x="363" 
d="M186 175v185h123l25 140h-148v200h-146v-547q0 -77 53.5 -120.5t156.5 -45.5l50 127q-34 0 -59.5 4t-40 17t-14.5 40z" />
    <glyph glyph-name="u" unicode="u" horiz-adv-x="549" 
d="M364 25v-25h146v501h-146v-313q0 -13 -8.5 -23.5t-23.5 -18t-34.5 -11.5t-41.5 -4q-23 0 -39.5 4.5t-25.5 15t-9 27.5v323h-146v-343q0 -39 10.5 -67t29 -47t42 -30t50 -16t53.5 -5q35 0 62 4t47 12t34 16z" />
    <glyph glyph-name="v" unicode="v" horiz-adv-x="560" 
d="M21 501l182 -501h152l180 501h-149l-105 -330l-109 330h-151z" />
    <glyph glyph-name="w" unicode="w" horiz-adv-x="897" 
d="M521 500h-145l-98 -303l-106 303h-152l181 -500h155l91 268l91 -268h154l180 500h-151l-101 -302z" />
    <glyph glyph-name="x" unicode="x" horiz-adv-x="646" 
d="M324 364l-108 137h-185l202 -253l-199 -248h185l105 132l107 -132h183l-198 249l202 252h-184z" />
    <glyph glyph-name="y" unicode="y" horiz-adv-x="587" 
d="M559 414l-43 98q-47 0 -81.5 -17.5t-52.5 -50.5t-18 -78v-179q0 -13 -9.5 -23.5t-25.5 -18t-34 -12t-34 -4.5q-18 0 -32.5 2.5t-25 8.5t-16 15.5t-5.5 21.5v326h-146v-348q0 -48 16 -79.5t42 -49.5t58.5 -25.5t66.5 -7.5q30 0 57 4t49.5 11.5t38.5 16.5v-56
q0 -15 -9 -26.5t-24 -19t-33.5 -12t-37.5 -4.5l49 -121q61 0 106.5 18.5t70 53t24.5 83.5v402q0 27 8.5 46t40.5 25z" />
    <glyph glyph-name="z" unicode="z" horiz-adv-x="526" 
d="M482 501h-439v-133l228 -1l-238 -229v-138h460v137l-249 1l238 231v132z" />
    <glyph glyph-name="braceleft" unicode="{" horiz-adv-x="365" 
d="M270 518v113q0 22 3.5 38.5t9.5 28.5t14.5 20t17.5 13.5t18 9.5l-63 83q-1 0 -15.5 -5t-34 -17t-39.5 -33.5t-33.5 -55.5t-13.5 -82v-113q0 -22 -3.5 -42t-11.5 -40q-7 -19 -25.5 -37.5t-48.5 -37.5l-12 -8l13 -7q30 -18 48 -37t25 -38q8 -19 11.5 -39.5t3.5 -41.5v-114
q0 -48 13 -82t32.5 -56t39.5 -34t34.5 -17t16.5 -5l63 84q-9 4 -18.5 9.5t-17.5 13.5t-14 20t-9.5 28.5t-3.5 38.5v114q0 21 -3 42t-9 42q-12 41 -70 79q28 20 46 40t24 40q6 21 9 42t3 43z" />
    <glyph glyph-name="bar" unicode="|" horiz-adv-x="245" 
d="M53 -115h139v934h-139v-934z" />
    <glyph glyph-name="braceright" unicode="}" horiz-adv-x="373" 
d="M98 824l-64 -83q11 -4 20 -9.5t17 -13.5t14 -19.5t9.5 -28t3.5 -39.5v-113q0 -28 4.5 -56.5t22.5 -55.5t57 -53q-39 -25 -57 -52t-22.5 -54.5t-4.5 -56.5v-114q0 -22 -3.5 -39t-9.5 -28.5t-14 -19.5t-17 -13.5t-20 -9.5l64 -84q2 0 16.5 5t35 17t40.5 34t33.5 56t13.5 82
v114q0 28 5 54.5t23.5 52t57.5 49.5l12 7l-13 8q-39 25 -57.5 50.5t-23 52t-4.5 54.5v113q0 48 -13.5 82t-33.5 55.5t-41 33.5t-35.5 17t-15.5 5z" />
    <glyph glyph-name="asciitilde" unicode="~" 
d="M292 300l-33 71q-18 -13 -33.5 -18.5t-29.5 -5.5q-21 0 -41 7.5t-40.5 14.5t-44.5 7q-28 0 -51.5 -12t-43.5 -29l33 -71q18 12 34.5 17.5t31.5 5.5q21 0 40.5 -7.5t39.5 -15t41 -7.5q30 0 54 13.5t43 29.5z" />
    <glyph glyph-name="uni00A0" unicode="&#xa0;" horiz-adv-x="280" 
 />
    <glyph glyph-name="exclamdown" unicode="&#xa1;" horiz-adv-x="195" 
d="M166 64l-25 504h-89l-20 -503q0 -35 16.5 -54.5t48.5 -19.5q34 0 51.5 19.5t17.5 53.5zM166 651q0 29 -20 49t-48 20q-29 0 -49 -20t-20 -49q0 -28 20 -48t49 -20q28 0 48 20t20 48z" />
    <glyph glyph-name="cent" unicode="&#xa2;" horiz-adv-x="464" 
d="M223 -114h103v739h-103v-739zM396 357l35 122q-38 14 -79 23t-83 10q-77 2 -130.5 -22t-80.5 -67t-27 -102v-149q0 -66 30 -105.5t84 -58t126 -20.5q42 -1 83 4t80 13l-27 129l-10 -1t-26.5 -2.5t-36 -3t-38.5 -1.5q-26 0 -47.5 4t-37.5 12.5t-24.5 22.5t-8.5 33v111
q0 26 15.5 40.5t42 20.5t59.5 5q27 -1 54 -6t47 -12z" />
    <glyph glyph-name="sterling" unicode="&#xa3;" horiz-adv-x="532" 
d="M164 130h-124v-130h452v130h-114q26 17 39 43t14 51q1 22 -5 42t-18 38l-20 33h104v116h-184l-23 26q-11 14 -19.5 25.5t-12.5 22t-3 19.5q2 10 10 16t21.5 9t30.5 3q35 0 62.5 -5.5t47.5 -13.5l27 119q-20 12 -48 20t-56.5 12t-50.5 4q-42 0 -81.5 -9t-71.5 -26t-51 -43
t-21 -61q-1 -24 7 -47t24 -48l14 -23h-74v-116h155l13 -19q12 -17 22.5 -32.5t17.5 -31t7 -32.5q1 -17 -4 -33.5t-16 -30t-28.5 -21t-42.5 -7.5z" />
    <glyph glyph-name="currency" unicode="&#xa4;" horiz-adv-x="499" 
d="M378 350l88 86l-65 64l-86 -88q-14 8 -31 12.5t-35 4.5t-34.5 -4t-31.5 -13l-86 88l-64 -64l87 -87q-7 -13 -11.5 -30.5t-4.5 -34.5q0 -19 4.5 -35t11.5 -31l-87 -86l64 -64l86 87q15 -7 31.5 -12t34.5 -5q17 0 34.5 4.5t30.5 11.5l88 -86l64 64l-88 86q8 15 12.5 31
t4.5 35q0 18 -4.5 34.5t-12.5 31.5zM249 232q-14 0 -25.5 7t-18.5 19t-7 26q0 15 7 26.5t18.5 18t25.5 6.5q15 0 26.5 -6.5t18.5 -18t7 -26.5q0 -14 -7 -26t-18.5 -19t-26.5 -7z" />
    <glyph glyph-name="yen" unicode="&#xa5;" horiz-adv-x="642" 
d="M390 316l224 384h-163l-134 -253l-134 253h-161l223 -384v-316h145v316zM156 193h321v111h-321v-111zM156 46h321v110h-321v-110z" />
    <glyph glyph-name="section" unicode="&#xa7;" horiz-adv-x="552" 
d="M404 547l43 113q-21 12 -50 21.5t-61 14.5t-64 5q-48 0 -88 -9.5t-69 -29t-45 -47.5t-16 -65q0 -30 10.5 -52.5t27.5 -39.5q-18 -18 -28.5 -42t-10.5 -53q0 -38 16 -64.5t42 -45t57.5 -30.5t62.5 -20t57 -15t42 -15t16 -20q0 -10 -6 -16.5t-16.5 -10.5t-24.5 -6t-30 -2
q-27 0 -59 6t-62 16.5t-52 25.5l-71 -92q47 -42 111 -65.5t132 -23.5q45 0 87 10.5t75.5 31.5t53 53t19.5 74q0 29 -9.5 51.5t-26.5 39.5q18 19 27.5 43t9.5 53q0 39 -16.5 66t-43 45t-59 30t-64 19.5t-58.5 14t-43 13.5t-16 18q0 7 7 11.5t18 6.5t22.5 2.5t19.5 0.5
q27 0 52.5 -3t46 -8t34.5 -10zM343 309q-20 6 -40.5 11t-39 9.5t-33.5 9.5t-23 10.5t-8 12.5q0 6 2.5 11t8 9.5t12.5 6.5q19 -5 38.5 -10t37 -10t31 -10t22 -11.5t8.5 -15.5q0 -8 -4.5 -14t-11.5 -9z" />
    <glyph glyph-name="dieresis" unicode="&#xa8;" 
d="M49 779q-28 0 -48.5 -20.5t-20.5 -48.5t20.5 -48.5t48.5 -20.5q30 0 50 20.5t20 48.5t-20 48.5t-50 20.5zM218 778q-29 0 -49 -20t-20 -48t20 -48.5t49 -20.5t49 20.5t20 48.5t-20 48t-49 20z" />
    <glyph glyph-name="copyright" unicode="&#xa9;" horiz-adv-x="985" 
d="M952 182v155q0 74 -33.5 130t-95.5 93.5t-146 56.5t-185 19t-185.5 -19t-146 -57t-95.5 -94t-34 -129v-155q0 -77 34 -134t95.5 -94t146 -55.5t185.5 -18.5t185 18t146 55t95.5 94t33.5 135zM808 295v-77q0 -58 -17.5 -98.5t-55.5 -64.5t-98 -35t-146 -11
q-85 0 -145 12.5t-98 38t-55.5 65t-17.5 93.5v77q0 58 17.5 98t55.5 65t98 36t145 11q86 0 146 -9.5t98 -33t55.5 -64.5t17.5 -103zM657 316l38 115q-39 16 -86 26.5t-96 10.5q-65 0 -114.5 -16t-82.5 -46q-29 -27 -44 -66t-15 -89q0 -56 21 -97t61 -66q31 -20 72.5 -29.5
t93.5 -9.5q57 0 109.5 12t98.5 28l-35 116q-9 -2 -26.5 -5t-40.5 -6t-48 -5t-49 -2q-26 0 -45.5 3.5t-33.5 10.5q-17 8 -25 22.5t-8 35.5q0 19 7 32.5t21 22.5q15 9 38 13t52 4q19 0 38.5 -1.5t38 -3.5t34 -4.5t26.5 -5.5z" />
    <glyph glyph-name="ordfeminine" unicode="&#xaa;" horiz-adv-x="413" 
d="M370 392q0 -1 0 15.5v41v49.5v42t0 16q0 47 -11.5 80.5t-43.5 52.5q-21 14 -48 19t-54.5 5t-49.5 -3l-13 -61q17 2 30 2.5t23 0.5q34 0 45.5 -7t11.5 -34q-24 11 -48 16.5t-47 5.5q-42 0 -71 -15.5t-44.5 -41t-16.5 -56.5q0 -42 13 -69.5t38 -43t59.5 -22t76.5 -6.5
q31 0 70 4.5t80 8.5zM260 535v-73q-5 0 -10 -0.5t-10.5 -0.5t-11 -0.5t-13.5 -0.5q-18 0 -35.5 3.5t-29 14t-12.5 31.5q0 13 5 24t15 17.5t26 6.5q20 0 40.5 -7t35.5 -15z" />
    <glyph glyph-name="guillemotleft" unicode="&#xab;" horiz-adv-x="697" 
d="M492 268l148 -119l-90 -69l-233 188l233 188l92 -72zM215 268l149 -119l-89 -69l-235 188l235 188l90 -72z" />
    <glyph glyph-name="sfthyphen" unicode="&#xad;" horiz-adv-x="394" 
d="M35 292h320v122h-320v-122z" />
    <glyph glyph-name="registered" unicode="&#xae;" horiz-adv-x="984" 
d="M953 182v155q0 74 -34 130t-96 93.5t-146 56.5t-185 19t-185.5 -19.5t-146 -57t-95 -93.5t-33.5 -129v-155q0 -77 33.5 -134t95 -94t146 -55.5t185.5 -18.5t185 18t146 55t96 94t34 135zM809 295v-77q0 -59 -18 -99.5t-56 -64.5t-98 -34.5t-146 -10.5q-85 0 -145 12
t-97.5 37t-55.5 64.5t-18 95.5v77q0 58 18 98t55.5 64.5t97.5 36t145 11.5q86 0 146 -10t98 -34t56 -64.5t18 -101.5zM528 444h-239v-383h139v68h98l30 -68h155l-54 89q31 17 46.5 49.5t15.5 84.5q0 40 -11 70t-33.5 50t-59 30t-87.5 10zM532 242h-105v84h104q10 0 20 -2
t16.5 -11t6.5 -29q0 -28 -14 -35t-28 -7z" />
    <glyph glyph-name="overscore" unicode="&#xaf;" 
d="M244 727h-222v-107h222v107z" />
    <glyph glyph-name="degree" unicode="&#xb0;" horiz-adv-x="351" 
d="M321 566q0 41 -19.5 74t-52.5 52.5t-74 19.5q-40 0 -73.5 -19.5t-53.5 -52.5t-20 -73q0 -41 20 -74t53.5 -53t73.5 -20q41 0 74 20t52.5 53t19.5 73zM175 619q14 0 26 -7t19.5 -19t7.5 -27q0 -14 -7.5 -26t-19.5 -19t-26 -7t-26 7t-19 19t-7 26q0 15 7 27t19 19t26 7z
" />
    <glyph glyph-name="plusminus" unicode="&#xb1;" horiz-adv-x="489" 
d="M44 350h131v-103h-132v-100h401v100h-130v103h131v106h-130v110h-140v-110h-131v-106z" />
    <glyph glyph-name="acute" unicode="&#xb4;" 
d="M217 669q10 13 13.5 29t-1.5 31t-22 24q-17 10 -34.5 6t-30 -16t-16.5 -28l-30 -117h66z" />
    <glyph glyph-name="mu" unicode="&#xb5;" horiz-adv-x="569" 
d="M512 151v360l-146 -13v-319q0 -14 -9.5 -25t-29 -17.5t-50.5 -7.5q-23 -1 -44 4.5t-34.5 16t-13.5 25.5v326h-145v-693l145 -24l-4 235q7 -6 20 -11.5t29.5 -9.5t33 -6t30.5 -2q25 0 48.5 5t41 12.5t23.5 15.5q7 -7 19.5 -12.5t27 -9.5t25.5 -5l70 82q-1 2 -10.5 8.5
t-18 22.5t-8.5 42z" />
    <glyph glyph-name="paragraph" unicode="&#xb6;" horiz-adv-x="839" 
d="M279 196h123v-195h146v563h100v-563h145v701h-514q-46 0 -90 -11.5t-79.5 -39t-57 -75.5t-21.5 -122q0 -81 21 -132t56 -78.5t79.5 -37.5t91.5 -10zM316 564h86v-233h-86q-39 0 -66 4t-44 17t-24.5 37.5t-7.5 64.5q0 49 14 72.5t45.5 30.5t82.5 7z" />
    <glyph glyph-name="periodcentered" unicode="&#xb7;" horiz-adv-x="251" 
d="M125 381q-29 0 -49 -20t-20 -49t20 -49t49 -20t49.5 20t20.5 49t-20.5 49t-49.5 20z" />
    <glyph glyph-name="cedilla" unicode="&#xb8;" 
d="M173 0h-76l-37 -62l17 -56q16 1 34.5 2t34.5 2t23 1q14 0 20 -5.5t6 -15.5q0 -6 -3 -11t-9 -7.5t-16 -2.5q-23 0 -47 2t-40.5 3.5t-17.5 1.5l-15 -73q3 -1 19 -4t40 -6t48 -3q62 0 91.5 28t29.5 75q0 37 -25.5 66t-72.5 29q-3 0 -9 0.5t-15 -0.5z" />
    <glyph glyph-name="ordmasculine" unicode="&#xba;" horiz-adv-x="427" 
d="M385 500v90q0 61 -44 91t-125 30q-84 0 -128.5 -29t-44.5 -92v-90q0 -34 18 -61.5t56.5 -43.5t98.5 -16q85 0 127 31.5t42 89.5zM293 583v-77q0 -18 -15.5 -30.5t-61.5 -12.5q-31 0 -49 6t-25 16t-7 21v77q0 21 19 32.5t62 11.5q28 0 45 -5.5t24.5 -15t7.5 -23.5z" />
    <glyph glyph-name="guillemotright" unicode="&#xbb;" horiz-adv-x="679" 
d="M190 268l-148 -119l90 -69l233 188l-233 188l-92 -72zM467 268l-149 -119l89 -69l235 188l-235 188l-90 -72z" />
    <glyph glyph-name="questiondown" unicode="&#xbf;" horiz-adv-x="521" 
d="M490 171h-141q-1 -15 -7.5 -26.5t-18 -19t-27.5 -11t-35 -3.5q-29 0 -49.5 7t-31 20t-10.5 31q0 21 14.5 39t37 37.5t43.5 41.5q18 18 33.5 38t27.5 43.5t18.5 51t6.5 60.5v68h-144v-66q0 -24 -3.5 -42t-12.5 -34.5t-24.5 -33.5t-39.5 -40q-26 -25 -49 -48t-37.5 -51
t-14.5 -66q0 -44 19 -78t51.5 -57.5t75.5 -36t91 -12.5t89.5 11.5t72.5 35.5t48 59.5t17 81.5zM279 710q-28 0 -48 -20t-20 -49q0 -28 20 -48.5t48 -20.5q29 0 49 20.5t20 48.5q0 29 -20 49t-49 20z" />
    <glyph glyph-name="Agrave" unicode="&#xc0;" horiz-adv-x="670" 
d="M339 866q-3 16 -16 28.5t-30.5 16.5t-35.5 -6q-17 -9 -22 -24.5t-0.5 -31.5t13.5 -28l55 -72h67zM646 0l-205 700h-214l-202 -700h157l41 150h221l42 -150h160zM260 287l74 275l73 -275h-147z" />
    <glyph glyph-name="Aacute" unicode="&#xc1;" horiz-adv-x="670" 
d="M421 820q10 13 13.5 29t-1.5 31t-22 24q-17 10 -34.5 6t-30 -16t-16.5 -28l-30 -117h66zM646 0l-205 700h-214l-202 -700h157l41 150h221l42 -150h160zM260 287l74 275l73 -275h-147z" />
    <glyph glyph-name="Acircumflex" unicode="&#xc2;" horiz-adv-x="670" 
d="M473 808l-138 124l-140 -123l60 -66l81 72l75 -71zM646 0l-205 700h-214l-202 -700h157l41 150h221l42 -150h160zM260 287l74 275l73 -275h-147z" />
    <glyph glyph-name="Atilde" unicode="&#xc3;" horiz-adv-x="670" 
d="M398 875v-10q0 -8 -1.5 -16t-12.5 -8q-7 0 -14.5 3.5t-13.5 6.5q-10 5 -16 8.5t-16 7.5q-24 11 -44.5 11t-37.5 -7q-22 -8 -34 -24.5t-16 -36t-4 -39.5v-13h82v11q0 10 2 17t13 7q5 0 12.5 -2.5t14.5 -6.5q5 -3 17 -9l16 -8q10 -4 21.5 -7.5t26.5 -3.5q46 0 66.5 29.5
t20.5 66.5v23h-82zM646 0l-205 700h-214l-202 -700h157l41 150h221l42 -150h160zM260 287l74 275l73 -275h-147z" />
    <glyph glyph-name="Adieresis" unicode="&#xc4;" horiz-adv-x="670" 
d="M250 889q-28 0 -48.5 -20.5t-20.5 -48.5t20.5 -48.5t48.5 -20.5q30 0 50 20.5t20 48.5t-20 48.5t-50 20.5zM419 888q-29 0 -49 -20t-20 -48t20 -48.5t49 -20.5t49 20.5t20 48.5t-20 48t-49 20zM646 0l-205 700h-214l-202 -700h157l41 150h221l42 -150h160zM260 287
l74 275l73 -275h-147z" />
    <glyph glyph-name="Aring" unicode="&#xc5;" horiz-adv-x="670" 
d="M336 895q-34 0 -62.5 -16t-45.5 -43.5t-17 -62.5q0 -33 17 -61t45.5 -45t61.5 -17q35 0 62.5 17t44 45t16.5 61q0 35 -16.5 62.5t-44 43.5t-61.5 16zM335 797q10 0 18 -8q6 -6 6 -16q0 -5 -2 -10t-6 -8q-3 -3 -7 -5t-9 -2q-4 0 -8.5 2t-8.5 5q-3 4 -5 8.5t-2 9.5
q0 6 2.5 10.5t5.5 7.5q4 3 8 4.5t8 1.5zM646 0l-205 700h-214l-202 -700h157l41 150h221l42 -150h160zM260 287l74 275l73 -275h-147z" />
    <glyph glyph-name="AE" unicode="&#xc6;" horiz-adv-x="936" 
d="M486 0h416v140h-272v154h154l41 132h-195v139h273v135h-547l-336 -700h164l80 171h222v-171zM326 304l118 250h41v-250h-159z" />
    <glyph glyph-name="Ccedilla" unicode="&#xc7;" horiz-adv-x="517" 
d="M308 0h-76l-37 -62l17 -56q16 1 34.5 2t34.5 2t23 1q14 0 20 -5.5t6 -15.5q0 -6 -3 -11t-9 -7.5t-16 -2.5q-23 0 -47 2t-40.5 3.5t-17.5 1.5l-15 -73q3 -1 19 -4t40 -6t48 -3q62 0 91.5 28t29.5 75q0 37 -25.5 66t-72.5 29q-3 0 -9 0.5t-15 -0.5zM427 559l31 118
q-45 18 -90 26.5t-90 8.5q-70 0 -124.5 -21t-86 -65t-31.5 -112v-330q0 -66 29 -109.5t84.5 -65t134.5 -21.5q48 0 99 9.5t105 25.5l-20 128q-10 -3 -38.5 -9.5t-65.5 -11.5t-72 -5q-32 0 -57 5.5t-39.5 21.5t-14.5 48v300q0 32 17 48t45 21.5t62 5.5q33 0 63.5 -4t58.5 -12
z" />
    <glyph glyph-name="Egrave" unicode="&#xc8;" horiz-adv-x="495" 
d="M253 866q-3 16 -16 28.5t-30.5 16.5t-35.5 -6q-17 -9 -22 -24.5t-0.5 -31.5t13.5 -28l55 -72h67zM41 0h417v131h-271l-1 164h158l45 132h-202v138h273v135h-419v-700z" />
    <glyph glyph-name="Eacute" unicode="&#xc9;" horiz-adv-x="495" 
d="M334 819q10 13 13.5 29t-1.5 31t-22 24q-17 10 -34.5 6t-30 -16t-16.5 -28l-30 -117h66zM41 0h417v131h-271l-1 164h158l45 132h-202v138h273v135h-419v-700z" />
    <glyph glyph-name="Ecircumflex" unicode="&#xca;" horiz-adv-x="495" 
d="M387 808l-138 124l-140 -123l60 -66l81 72l75 -71zM41 0h417v131h-271l-1 164h158l45 132h-202v138h273v135h-419v-700z" />
    <glyph glyph-name="Edieresis" unicode="&#xcb;" horiz-adv-x="495" 
d="M164 889q-28 0 -48.5 -20.5t-20.5 -48.5t20.5 -48.5t48.5 -20.5q30 0 50 20.5t20 48.5t-20 48.5t-50 20.5zM333 888q-29 0 -49 -20t-20 -48t20 -48.5t49 -20.5t49 20.5t20 48.5t-20 48t-49 20zM41 0h417v131h-271l-1 164h158l45 132h-202v138h273v135h-419v-700z" />
    <glyph glyph-name="Igrave" unicode="&#xcc;" horiz-adv-x="288" 
d="M174 866q-3 16 -16 28.5t-30.5 16.5t-35.5 -6q-17 -9 -22 -24.5t-0.5 -31.5t13.5 -28l55 -72h67zM19 574l82 -2v-572h145v700h-227v-126z" />
    <glyph glyph-name="Iacute" unicode="&#xcd;" horiz-adv-x="288" 
d="M258 819q10 13 13.5 29t-1.5 31t-22 24q-17 10 -34.5 6t-30 -16t-16.5 -28l-30 -117h66zM19 574l82 -2v-572h145v700h-227v-126z" />
    <glyph glyph-name="Icircumflex" unicode="&#xce;" horiz-adv-x="288" 
d="M307 808l-138 124l-140 -123l60 -66l81 72l75 -71zM19 574l82 -2v-572h145v700h-227v-126z" />
    <glyph glyph-name="Idieresis" unicode="&#xcf;" horiz-adv-x="288" 
d="M87 889q-28 0 -48.5 -20.5t-20.5 -48.5t20.5 -48.5t48.5 -20.5q30 0 50 20.5t20 48.5t-20 48.5t-50 20.5zM256 888q-29 0 -49 -20t-20 -48t20 -48.5t49 -20.5t49 20.5t20 48.5t-20 48t-49 20zM20 574l82 -2v-572h145v700h-227v-126z" />
    <glyph glyph-name="Eth" unicode="&#xd0;" horiz-adv-x="604" 
d="M153 289h162l25 125h-187v-125zM305 701h-264v-701h284q84 0 137.5 25t79.5 72.5t26 112.5v270q0 72 -30.5 121.5t-89 74.5t-143.5 25zM321 131h-134v435h138q33 0 54.5 -10.5t32 -29.5t10.5 -48v-261q0 -15 -3.5 -30t-13.5 -28t-30.5 -20.5t-53.5 -7.5z" />
    <glyph glyph-name="Ntilde" unicode="&#xd1;" horiz-adv-x="701" 
d="M415 875v-10q0 -8 -1.5 -16t-12.5 -8q-7 0 -14.5 3.5t-13.5 6.5q-10 5 -16 8.5t-16 7.5q-24 11 -44.5 11t-37.5 -7q-22 -8 -34 -24.5t-16 -36t-4 -39.5v-13h82v11q0 10 2 17t13 7q5 0 12.5 -2.5t14.5 -6.5q5 -3 17 -9l16 -8q10 -4 21.5 -7.5t26.5 -3.5q46 0 66.5 29.5
t20.5 66.5v23h-82zM658 700h-146v-449l-326 449h-145v-700h145v439l322 -439h150v700z" />
    <glyph glyph-name="Ograve" unicode="&#xd2;" horiz-adv-x="598" 
d="M304 866q-3 16 -16 28.5t-30.5 16.5t-35.5 -6q-17 -9 -22 -24.5t-0.5 -31.5t13.5 -28l55 -72h67zM35 502v-311q0 -66 34.5 -111t94 -68t135.5 -23q82 0 140.5 24.5t90.5 70t32 107.5v310q0 101 -67.5 158.5t-193.5 57.5q-125 0 -195.5 -55.5t-70.5 -159.5zM180 212v267
q0 38 13 60.5t39.5 32t65.5 9.5q42 0 68.5 -10t39.5 -32t13 -59v-267q0 -31 -14.5 -51.5t-41 -30.5t-64.5 -10t-64.5 9.5t-40.5 30t-14 51.5z" />
    <glyph glyph-name="Oacute" unicode="&#xd3;" horiz-adv-x="598" 
d="M384 820q10 13 13.5 29t-1.5 31t-22 24q-17 10 -34.5 6t-30 -16t-16.5 -28l-30 -117h66zM35 502v-311q0 -66 34.5 -111t94 -68t135.5 -23q82 0 140.5 24.5t90.5 70t32 107.5v310q0 101 -67.5 158.5t-193.5 57.5q-125 0 -195.5 -55.5t-70.5 -159.5zM180 212v267
q0 38 13 60.5t39.5 32t65.5 9.5q42 0 68.5 -10t39.5 -32t13 -59v-267q0 -31 -14.5 -51.5t-41 -30.5t-64.5 -10t-64.5 9.5t-40.5 30t-14 51.5z" />
    <glyph glyph-name="Ocircumflex" unicode="&#xd4;" horiz-adv-x="598" 
d="M437 808l-138 124l-140 -123l60 -66l81 72l75 -71zM35 502v-311q0 -66 34.5 -111t94 -68t135.5 -23q82 0 140.5 24.5t90.5 70t32 107.5v310q0 101 -67.5 158.5t-193.5 57.5q-125 0 -195.5 -55.5t-70.5 -159.5zM180 212v267q0 38 13 60.5t39.5 32t65.5 9.5q42 0 68.5 -10
t39.5 -32t13 -59v-267q0 -31 -14.5 -51.5t-41 -30.5t-64.5 -10t-64.5 9.5t-40.5 30t-14 51.5z" />
    <glyph glyph-name="Otilde" unicode="&#xd5;" horiz-adv-x="598" 
d="M363 875v-10q0 -8 -1.5 -16t-12.5 -8q-7 0 -14.5 3.5t-13.5 6.5q-10 5 -16 8.5t-16 7.5q-24 11 -44.5 11t-37.5 -7q-22 -8 -34 -24.5t-16 -36t-4 -39.5v-13h82v11q0 10 2 17t13 7q5 0 12.5 -2.5t14.5 -6.5q5 -3 17 -9l16 -8q10 -4 21.5 -7.5t26.5 -3.5q46 0 66.5 29.5
t20.5 66.5v23h-82zM35 502v-311q0 -66 34.5 -111t94 -68t135.5 -23q82 0 140.5 24.5t90.5 70t32 107.5v310q0 101 -67.5 158.5t-193.5 57.5q-125 0 -195.5 -55.5t-70.5 -159.5zM180 212v267q0 38 13 60.5t39.5 32t65.5 9.5q42 0 68.5 -10t39.5 -32t13 -59v-267
q0 -31 -14.5 -51.5t-41 -30.5t-64.5 -10t-64.5 9.5t-40.5 30t-14 51.5z" />
    <glyph glyph-name="Odieresis" unicode="&#xd6;" horiz-adv-x="598" 
d="M215 889q-28 0 -48.5 -20.5t-20.5 -48.5t20.5 -48.5t48.5 -20.5q30 0 50 20.5t20 48.5t-20 48.5t-50 20.5zM384 888q-29 0 -49 -20t-20 -48t20 -48.5t49 -20.5t49 20.5t20 48.5t-20 48t-49 20zM35 502v-311q0 -66 34.5 -111t94 -68t135.5 -23q82 0 140.5 24.5t90.5 70
t32 107.5v310q0 101 -67.5 158.5t-193.5 57.5q-125 0 -195.5 -55.5t-70.5 -159.5zM180 212v267q0 38 13 60.5t39.5 32t65.5 9.5q42 0 68.5 -10t39.5 -32t13 -59v-267q0 -31 -14.5 -51.5t-41 -30.5t-64.5 -10t-64.5 9.5t-40.5 30t-14 51.5z" />
    <glyph glyph-name="multiply" unicode="&#xd7;" horiz-adv-x="459" 
d="M229 401l-115 108l-78 -62l122 -115l-120 -113l77 -64l114 108l113 -106l78 63l-120 112l121 117l-78 61z" />
    <glyph glyph-name="Oslash" unicode="&#xd8;" horiz-adv-x="598" 
d="M38 0h109l426 703h-112zM35 502v-311q0 -66 34.5 -111t94 -68t135.5 -23q82 0 140.5 24.5t90.5 70t32 107.5v310q0 101 -67.5 158.5t-193.5 57.5q-125 0 -195.5 -55.5t-70.5 -159.5zM180 212v267q0 38 13 60.5t39.5 32t65.5 9.5q42 0 68.5 -10t39.5 -32t13 -59v-267
q0 -31 -14.5 -51.5t-41 -30.5t-64.5 -10t-64.5 9.5t-40.5 30t-14 51.5z" />
    <glyph glyph-name="Ugrave" unicode="&#xd9;" horiz-adv-x="607" 
d="M308 866q-3 16 -16 28.5t-30.5 16.5t-35.5 -6q-17 -9 -22 -24.5t-0.5 -31.5t13.5 -28l55 -72h67zM566 189v511h-143v-489q0 -28 -14.5 -48t-41 -30.5t-64.5 -10.5q-39 0 -65.5 9.5t-40 29t-13.5 49.5v490h-145v-511q0 -64 34 -109t94 -68t137 -23t136 23t92.5 68
t33.5 109z" />
    <glyph glyph-name="Uacute" unicode="&#xda;" horiz-adv-x="607" 
d="M386 819q10 13 13.5 29t-1.5 31t-22 24q-17 10 -34.5 6t-30 -16t-16.5 -28l-30 -117h66zM566 189v511h-143v-489q0 -28 -14.5 -48t-41 -30.5t-64.5 -10.5q-39 0 -65.5 9.5t-40 29t-13.5 49.5v490h-145v-511q0 -64 34 -109t94 -68t137 -23t136 23t92.5 68t33.5 109z" />
    <glyph glyph-name="Ucircumflex" unicode="&#xdb;" horiz-adv-x="607" 
d="M442 808l-138 124l-140 -123l60 -66l81 72l75 -71zM566 189v511h-143v-489q0 -28 -14.5 -48t-41 -30.5t-64.5 -10.5q-39 0 -65.5 9.5t-40 29t-13.5 49.5v490h-145v-511q0 -64 34 -109t94 -68t137 -23t136 23t92.5 68t33.5 109z" />
    <glyph glyph-name="Udieresis" unicode="&#xdc;" horiz-adv-x="607" 
d="M217 889q-28 0 -48.5 -20.5t-20.5 -48.5t20.5 -48.5t48.5 -20.5q30 0 50 20.5t20 48.5t-20 48.5t-50 20.5zM386 888q-29 0 -49 -20t-20 -48t20 -48.5t49 -20.5t49 20.5t20 48.5t-20 48t-49 20zM566 189v511h-143v-489q0 -28 -14.5 -48t-41 -30.5t-64.5 -10.5
q-39 0 -65.5 9.5t-40 29t-13.5 49.5v490h-145v-511q0 -64 34 -109t94 -68t137 -23t136 23t92.5 68t33.5 109z" />
    <glyph glyph-name="Yacute" unicode="&#xdd;" horiz-adv-x="629" 
d="M393 819q10 13 13.5 29t-1.5 31t-22 24q-17 10 -34.5 6t-30 -16t-16.5 -28l-30 -117h66zM588 157v543h-146v-283q0 -18 -10 -33.5t-28 -26.5t-41 -17.5t-48 -6.5q-49 0 -79 11t-44 32.5t-14 53.5v270h-147v-290q0 -66 32.5 -112.5t89.5 -71t128 -24.5q31 0 61 3.5
t56.5 12t47.5 20.5l-1 -68q0 -21 -9.5 -35t-25.5 -23t-35.5 -13.5t-39.5 -5.5l44 -112q112 8 160.5 52.5t48.5 123.5z" />
    <glyph glyph-name="Thorn" unicode="&#xde;" horiz-adv-x="618" 
d="M332 613h-145v87h-145v-700h145v97h143q51 0 96.5 10.5t81.5 38.5t57 79.5t21 132.5q1 77 -20 127t-57 77.5t-82 39t-95 11.5zM187 229v247h125q31 0 54 -4.5t39.5 -17.5t24.5 -36.5t8 -60.5q0 -40 -8 -65t-24 -38.5t-39.5 -19t-54.5 -5.5h-125z" />
    <glyph glyph-name="germandbls" unicode="&#xdf;" horiz-adv-x="671" 
d="M185 0v492q0 28 11.5 45.5t33.5 25.5t55 8q25 0 43.5 -5t28 -13.5t9.5 -19.5t-9 -20.5t-27 -15t-46 -5.5q-11 -16 -16.5 -36t-5.5 -44q0 -35 16 -62.5t41 -50t53 -41.5t53 -35t41 -31.5t16 -31.5q0 -10 -6 -17.5t-16 -12t-23.5 -7t-28.5 -2.5q-11 0 -27 1t-33.5 4.5
t-34.5 9t-31 14.5l-52 -112q23 -16 52.5 -27.5t65.5 -17.5t75 -6q43 0 81 11.5t68 33t47 53t17 70.5q0 41 -16.5 71t-42.5 53.5t-55.5 42t-55.5 35.5t-42.5 34.5t-16.5 38.5q0 11 3.5 19.5t9.5 16.5h8.5h19.5h19h8q23 22 29 50t1 55t-16 44q-16 27 -44.5 47t-71.5 31.5
t-103 11.5q-49 0 -90.5 -12t-73 -35t-49 -57.5t-17.5 -78.5v-522h145z" />
    <glyph glyph-name="agrave" unicode="&#xe0;" horiz-adv-x="548" 
d="M266 671q-3 16 -16 28.5t-30.5 16.5t-35.5 -6q-17 -9 -22 -24.5t-0.5 -31.5t13.5 -28l55 -72h67zM363 355q-17 11 -43.5 20.5t-59 15.5t-67.5 6q-36 0 -66.5 -8.5t-52.5 -26.5t-34 -46t-12 -66v-94q0 -50 18.5 -82t52.5 -51t80 -26.5t102 -7.5q25 0 49 0.5l48 1t46.5 2
t44 3.5t42.5 4v311q0 60 -14.5 98.5t-46 60.5t-82.5 31t-124 9l-15 -83q30 0 54.5 -3.5t42.5 -11.5t27.5 -22t9.5 -35zM365 244v-125l-6 -0.5t-15.5 -1t-20.5 -1t-21.5 -1t-19.5 -0.5q-29 0 -50 3.5t-33.5 10.5t-18.5 17t-6 24v57q0 11 4 19t12 12.5t19.5 6.5t25.5 2
q23 0 47 -4t45.5 -9t37.5 -10z" />
    <glyph glyph-name="aacute" unicode="&#xe1;" horiz-adv-x="548" 
d="M354 625q10 13 13.5 29t-1.5 31t-22 24q-17 10 -34.5 6t-30 -16t-16.5 -28l-30 -117h66zM363 355q-17 11 -43.5 20.5t-59 15.5t-67.5 6q-36 0 -66.5 -8.5t-52.5 -26.5t-34 -46t-12 -66v-94q0 -50 18.5 -82t52.5 -51t80 -26.5t102 -7.5q25 0 49 0.5l48 1t46.5 2t44 3.5
t42.5 4v311q0 60 -14.5 98.5t-46 60.5t-82.5 31t-124 9l-15 -83q30 0 54.5 -3.5t42.5 -11.5t27.5 -22t9.5 -35zM365 244v-125l-6 -0.5t-15.5 -1t-20.5 -1t-21.5 -1t-19.5 -0.5q-29 0 -50 3.5t-33.5 10.5t-18.5 17t-6 24v57q0 11 4 19t12 12.5t19.5 6.5t25.5 2q23 0 47 -4
t45.5 -9t37.5 -10z" />
    <glyph glyph-name="acircumflex" unicode="&#xe2;" horiz-adv-x="548" 
d="M401 623l-138 124l-140 -123l60 -66l81 72l75 -71zM363 355q-17 11 -43.5 20.5t-59 15.5t-67.5 6q-36 0 -66.5 -8.5t-52.5 -26.5t-34 -46t-12 -66v-94q0 -50 18.5 -82t52.5 -51t80 -26.5t102 -7.5q25 0 49 0.5l48 1t46.5 2t44 3.5t42.5 4v311q0 60 -14.5 98.5t-46 60.5
t-82.5 31t-124 9l-15 -83q30 0 54.5 -3.5t42.5 -11.5t27.5 -22t9.5 -35zM365 244v-125l-6 -0.5t-15.5 -1t-20.5 -1t-21.5 -1t-19.5 -0.5q-29 0 -50 3.5t-33.5 10.5t-18.5 17t-6 24v57q0 11 4 19t12 12.5t19.5 6.5t25.5 2q23 0 47 -4t45.5 -9t37.5 -10z" />
    <glyph glyph-name="atilde" unicode="&#xe3;" horiz-adv-x="548" 
d="M331 680v-10q0 -8 -1.5 -16t-12.5 -8q-7 0 -14.5 3.5t-13.5 6.5q-10 5 -16 8.5t-16 7.5q-24 11 -44.5 11t-37.5 -7q-22 -8 -34 -24.5t-16 -36t-4 -39.5v-13h82v11q0 10 2 17t13 7q5 0 12.5 -2.5t14.5 -6.5q5 -3 17 -9l16 -8q10 -4 21.5 -7.5t26.5 -3.5q46 0 66.5 29.5
t20.5 66.5v23h-82zM363 355q-17 11 -43.5 20.5t-59 15.5t-67.5 6q-36 0 -66.5 -8.5t-52.5 -26.5t-34 -46t-12 -66v-94q0 -50 18.5 -82t52.5 -51t80 -26.5t102 -7.5q25 0 49 0.5l48 1t46.5 2t44 3.5t42.5 4v311q0 60 -14.5 98.5t-46 60.5t-82.5 31t-124 9l-15 -83
q30 0 54.5 -3.5t42.5 -11.5t27.5 -22t9.5 -35zM365 244v-125l-6 -0.5t-15.5 -1t-20.5 -1t-21.5 -1t-19.5 -0.5q-29 0 -50 3.5t-33.5 10.5t-18.5 17t-6 24v57q0 11 4 19t12 12.5t19.5 6.5t25.5 2q23 0 47 -4t45.5 -9t37.5 -10z" />
    <glyph glyph-name="adieresis" unicode="&#xe4;" horiz-adv-x="548" 
d="M177 694q-28 0 -48.5 -20.5t-20.5 -48.5t20.5 -48.5t48.5 -20.5q30 0 50 20.5t20 48.5t-20 48.5t-50 20.5zM346 693q-29 0 -49 -20t-20 -48t20 -48.5t49 -20.5t49 20.5t20 48.5t-20 48t-49 20zM363 355q-17 11 -43.5 20.5t-59 15.5t-67.5 6q-36 0 -66.5 -8.5t-52.5 -26.5
t-34 -46t-12 -66v-94q0 -50 18.5 -82t52.5 -51t80 -26.5t102 -7.5q25 0 49 0.5l48 1t46.5 2t44 3.5t42.5 4v311q0 60 -14.5 98.5t-46 60.5t-82.5 31t-124 9l-15 -83q30 0 54.5 -3.5t42.5 -11.5t27.5 -22t9.5 -35zM365 244v-125l-6 -0.5t-15.5 -1t-20.5 -1t-21.5 -1
t-19.5 -0.5q-29 0 -50 3.5t-33.5 10.5t-18.5 17t-6 24v57q0 11 4 19t12 12.5t19.5 6.5t25.5 2q23 0 47 -4t45.5 -9t37.5 -10z" />
    <glyph glyph-name="aring" unicode="&#xe5;" horiz-adv-x="548" 
d="M260 667q-34 0 -62.5 -16t-45.5 -43.5t-17 -62.5q0 -33 17 -61t45.5 -45t61.5 -17q35 0 62.5 17t44 45t16.5 61q0 35 -16.5 62.5t-44 43.5t-61.5 16zM259 569q10 0 18 -8q6 -6 6 -16q0 -5 -2 -10t-6 -8q-3 -3 -7 -5t-9 -2q-4 0 -8.5 2t-8.5 5q-3 4 -5 8.5t-2 9.5
q0 6 2.5 10.5t5.5 7.5q4 3 8 4.5t8 1.5zM363 355q-17 11 -43.5 20.5t-59 15.5t-67.5 6q-36 0 -66.5 -8.5t-52.5 -26.5t-34 -46t-12 -66v-94q0 -50 18.5 -82t52.5 -51t80 -26.5t102 -7.5q25 0 49 0.5l48 1t46.5 2t44 3.5t42.5 4v311q0 60 -14.5 98.5t-46 60.5t-82.5 31
t-124 9l-15 -83q30 0 54.5 -3.5t42.5 -11.5t27.5 -22t9.5 -35zM365 244v-125l-6 -0.5t-15.5 -1t-20.5 -1t-21.5 -1t-19.5 -0.5q-29 0 -50 3.5t-33.5 10.5t-18.5 17t-6 24v57q0 11 4 19t12 12.5t19.5 6.5t25.5 2q23 0 47 -4t45.5 -9t37.5 -10z" />
    <glyph glyph-name="ae" unicode="&#xe6;" horiz-adv-x="867" 
d="M363 355q-17 11 -43.5 20.5t-59 15.5t-67.5 6q-36 0 -66.5 -8.5t-52.5 -26.5t-34 -46t-12 -66v-94q0 -50 18.5 -82t52.5 -51t80 -26.5t102 -7.5q25 0 49 0.5l48 1t46.5 2t44 3.5t42.5 4v311q0 60 -14.5 98.5t-46 60.5t-82.5 31t-124 9l-15 -83q30 0 54.5 -3.5t42.5 -11.5
t27.5 -22t9.5 -35zM365 244v-125l-6 -0.5t-15.5 -1t-20.5 -1t-21.5 -1t-19.5 -0.5q-29 0 -50 3.5t-33.5 10.5t-18.5 17t-6 24v57q0 11 4 19t12 12.5t19.5 6.5t25.5 2q23 0 47 -4t45.5 -9t37.5 -10zM514 157v18l322 12v159q0 56 -28.5 92.5t-79.5 54.5t-119 18t-122.5 -18.5
t-86 -55.5t-31.5 -94v-210q0 -38 16 -66t45 -45.5t68 -26t86 -8.5q60 0 117.5 13t102.5 35l-42 114q-37 -14 -78 -23t-83 -10q-25 0 -41.5 2t-26.5 7t-14.5 13t-4.5 19zM691 326v-25l-177 -7v33q0 18 7 30.5t27 19.5t57 8q35 1 53.5 -7.5t25.5 -22t7 -29.5z" />
    <glyph glyph-name="ccedilla" unicode="&#xe7;" horiz-adv-x="463" 
d="M287 5h-76l-37 -62l17 -56q16 1 34.5 2t34.5 2t23 1q14 0 20 -5.5t6 -15.5q0 -6 -3 -11t-9 -7.5t-16 -2.5q-23 0 -47 2t-40.5 3.5t-17.5 1.5l-15 -73q3 -1 19 -4t40 -6t48 -3q62 0 91.5 28t29.5 75q0 37 -25.5 66t-72.5 29q-3 0 -9 0.5t-15 -0.5zM396 357l35 122
q-38 14 -79 23t-83 10q-77 2 -130.5 -22t-80.5 -67t-27 -102v-149q0 -66 30 -105.5t84 -58t126 -20.5q42 -1 83 4t80 13l-27 129l-10 -1t-26.5 -2.5t-36 -3t-38.5 -1.5q-26 0 -47.5 4t-37.5 12.5t-24.5 22.5t-8.5 33v111q0 26 15.5 40.5t42 20.5t59.5 5q27 -1 54 -6t47 -12z
" />
    <glyph glyph-name="egrave" unicode="&#xe8;" horiz-adv-x="527" 
d="M269 672q-3 16 -16 28.5t-30.5 16.5t-35.5 -6q-17 -9 -22 -24.5t-0.5 -31.5t13.5 -28l55 -72h67zM178 157v18l322 12v159q0 56 -28.5 92.5t-79.5 54.5t-119 18t-122.5 -18.5t-86 -55.5t-31.5 -94v-210q0 -38 16 -66t45 -45.5t68 -26t86 -8.5q60 0 117.5 13t102.5 35
l-42 114q-37 -14 -78 -23t-83 -10q-25 0 -41.5 2t-26.5 7t-14.5 13t-4.5 19zM355 326v-25l-177 -7v33q0 18 7 30.5t27 19.5t57 8q35 1 53.5 -7.5t25.5 -22t7 -29.5z" />
    <glyph glyph-name="eacute" unicode="&#xe9;" horiz-adv-x="527" 
d="M353 634q10 13 13.5 29t-1.5 31t-22 24q-17 10 -34.5 6t-30 -16t-16.5 -28l-30 -117h66zM178 157v18l322 12v159q0 56 -28.5 92.5t-79.5 54.5t-119 18t-122.5 -18.5t-86 -55.5t-31.5 -94v-210q0 -38 16 -66t45 -45.5t68 -26t86 -8.5q60 0 117.5 13t102.5 35l-42 114
q-37 -14 -78 -23t-83 -10q-25 0 -41.5 2t-26.5 7t-14.5 13t-4.5 19zM355 326v-25l-177 -7v33q0 18 7 30.5t27 19.5t57 8q35 1 53.5 -7.5t25.5 -22t7 -29.5z" />
    <glyph glyph-name="ecircumflex" unicode="&#xea;" horiz-adv-x="527" 
d="M405 623l-138 124l-140 -123l60 -66l81 72l75 -71zM178 157v18l322 12v159q0 56 -28.5 92.5t-79.5 54.5t-119 18t-122.5 -18.5t-86 -55.5t-31.5 -94v-210q0 -38 16 -66t45 -45.5t68 -26t86 -8.5q60 0 117.5 13t102.5 35l-42 114q-37 -14 -78 -23t-83 -10q-25 0 -41.5 2
t-26.5 7t-14.5 13t-4.5 19zM355 326v-25l-177 -7v33q0 18 7 30.5t27 19.5t57 8q35 1 53.5 -7.5t25.5 -22t7 -29.5z" />
    <glyph glyph-name="edieresis" unicode="&#xeb;" horiz-adv-x="527" 
d="M182 694q-28 0 -48.5 -20.5t-20.5 -48.5t20.5 -48.5t48.5 -20.5q30 0 50 20.5t20 48.5t-20 48.5t-50 20.5zM351 693q-29 0 -49 -20t-20 -48t20 -48.5t49 -20.5t49 20.5t20 48.5t-20 48t-49 20zM178 157v18l322 12v159q0 56 -28.5 92.5t-79.5 54.5t-119 18t-122.5 -18.5
t-86 -55.5t-31.5 -94v-210q0 -38 16 -66t45 -45.5t68 -26t86 -8.5q60 0 117.5 13t102.5 35l-42 114q-37 -14 -78 -23t-83 -10q-25 0 -41.5 2t-26.5 7t-14.5 13t-4.5 19zM355 326v-25l-177 -7v33q0 18 7 30.5t27 19.5t57 8q35 1 53.5 -7.5t25.5 -22t7 -29.5z" />
    <glyph glyph-name="igrave" unicode="&#xec;" horiz-adv-x="224" 
d="M116 681q-3 16 -16 28.5t-30.5 16.5t-35.5 -6q-17 -9 -22 -24.5t-0.5 -31.5t13.5 -28l55 -72h67zM39 0h146v500h-146v-500z" />
    <glyph glyph-name="iacute" unicode="&#xed;" horiz-adv-x="224" 
d="M203 634q10 13 13.5 29t-1.5 31t-22 24q-17 10 -34.5 6t-30 -16t-16.5 -28l-30 -117h66zM39 0h146v500h-146v-500z" />
    <glyph glyph-name="icircumflex" unicode="&#xee;" horiz-adv-x="224" 
d="M252 623l-138 124l-140 -123l60 -66l81 72l75 -71zM39 0h146v500h-146v-500z" />
    <glyph glyph-name="idieresis" unicode="&#xef;" horiz-adv-x="224" 
d="M29 694q-28 0 -48.5 -20.5t-20.5 -48.5t20.5 -48.5t48.5 -20.5q30 0 50 20.5t20 48.5t-20 48.5t-50 20.5zM198 693q-29 0 -49 -20t-20 -48t20 -48.5t49 -20.5t49 20.5t20 48.5t-20 48t-49 20zM39 0h146v500h-146v-500z" />
    <glyph glyph-name="eth" unicode="&#xf0;" horiz-adv-x="528" 
d="M365 662q-31 15 -67 24.5t-74 15.5l-35 -91l11 -3t29 -9t38 -16l-64 -50l48 -54l76 58q11 -11 18.5 -26t7.5 -32v-63q-13 5 -28.5 8t-32.5 5.5t-35 3.5t-35 1q-94 0 -144.5 -44t-50.5 -141v-64q0 -97 60.5 -145.5t171.5 -48.5q117 0 179 47t62 147v294q0 31 -8.5 56.5
t-24.5 47.5t-37 40l43 35l-46 54zM263 132q-31 0 -51.5 6.5t-30 18.5t-9.5 30v73q0 17 9.5 28t27 16t41.5 5q21 0 39.5 -1.5t33 -6t22.5 -12t8 -18.5v-84q0 -19 -10 -31t-30 -18t-50 -6z" />
    <glyph glyph-name="ntilde" unicode="&#xf1;" horiz-adv-x="544" 
d="M340 680v-10q0 -8 -1.5 -16t-12.5 -8q-7 0 -14.5 3.5t-13.5 6.5q-10 5 -16 8.5t-16 7.5q-24 11 -44.5 11t-37.5 -7q-22 -8 -34 -24.5t-16 -36t-4 -39.5v-13h82v11q0 10 2 17t13 7q5 0 12.5 -2.5t14.5 -6.5q5 -3 17 -9l16 -8q10 -4 21.5 -7.5t26.5 -3.5q46 0 66.5 29.5
t20.5 66.5v23h-82zM368 327v-328h143v347q0 39 -10 67t-27 46.5t-39 29.5t-47 16t-50 5q-32 0 -61 -5t-53 -12t-39 -12v20h-146v-502h146v358q19 6 36 9.5t31.5 5.5t28.5 2q20 0 35.5 -3t27 -8.5t18 -14.5t6.5 -21z" />
    <glyph glyph-name="ograve" unicode="&#xf2;" horiz-adv-x="536" 
d="M270 681q-3 16 -16 28.5t-30.5 16.5t-35.5 -6q-17 -9 -22 -24.5t-0.5 -31.5t13.5 -28l55 -72h67zM504 183v137q0 93 -60.5 142.5t-172.5 49.5q-78 0 -131.5 -22t-81 -64.5t-27.5 -105.5v-137q0 -57 24.5 -100.5t77 -68t137.5 -24.5q116 0 175 51.5t59 141.5zM358 314
v-126q0 -17 -8 -30t-26.5 -20t-53.5 -7t-56 7.5t-29.5 20.5t-8.5 29v126q0 19 10 31.5t31 19t53 6.5t51.5 -6.5t28 -19.5t8.5 -31z" />
    <glyph glyph-name="oacute" unicode="&#xf3;" horiz-adv-x="536" 
d="M352 634q10 13 13.5 29t-1.5 31t-22 24q-17 10 -34.5 6t-30 -16t-16.5 -28l-30 -117h66zM504 183v137q0 93 -60.5 142.5t-172.5 49.5q-78 0 -131.5 -22t-81 -64.5t-27.5 -105.5v-137q0 -57 24.5 -100.5t77 -68t137.5 -24.5q116 0 175 51.5t59 141.5zM358 314v-126
q0 -17 -8 -30t-26.5 -20t-53.5 -7t-56 7.5t-29.5 20.5t-8.5 29v126q0 19 10 31.5t31 19t53 6.5t51.5 -6.5t28 -19.5t8.5 -31z" />
    <glyph glyph-name="ocircumflex" unicode="&#xf4;" horiz-adv-x="536" 
d="M405 623l-138 124l-140 -123l60 -66l81 72l75 -71zM504 183v137q0 93 -60.5 142.5t-172.5 49.5q-78 0 -131.5 -22t-81 -64.5t-27.5 -105.5v-137q0 -57 24.5 -100.5t77 -68t137.5 -24.5q116 0 175 51.5t59 141.5zM358 314v-126q0 -17 -8 -30t-26.5 -20t-53.5 -7t-56 7.5
t-29.5 20.5t-8.5 29v126q0 19 10 31.5t31 19t53 6.5t51.5 -6.5t28 -19.5t8.5 -31z" />
    <glyph glyph-name="otilde" unicode="&#xf5;" horiz-adv-x="536" 
d="M330 680v-10q0 -8 -1.5 -16t-12.5 -8q-7 0 -14.5 3.5t-13.5 6.5q-10 5 -16 8.5t-16 7.5q-24 11 -44.5 11t-37.5 -7q-22 -8 -34 -24.5t-16 -36t-4 -39.5v-13h82v11q0 10 2 17t13 7q5 0 12.5 -2.5t14.5 -6.5q5 -3 17 -9l16 -8q10 -4 21.5 -7.5t26.5 -3.5q46 0 66.5 29.5
t20.5 66.5v23h-82zM504 183v137q0 93 -60.5 142.5t-172.5 49.5q-78 0 -131.5 -22t-81 -64.5t-27.5 -105.5v-137q0 -57 24.5 -100.5t77 -68t137.5 -24.5q116 0 175 51.5t59 141.5zM358 314v-126q0 -17 -8 -30t-26.5 -20t-53.5 -7t-56 7.5t-29.5 20.5t-8.5 29v126
q0 19 10 31.5t31 19t53 6.5t51.5 -6.5t28 -19.5t8.5 -31z" />
    <glyph glyph-name="odieresis" unicode="&#xf6;" horiz-adv-x="536" 
d="M180 694q-28 0 -48.5 -20.5t-20.5 -48.5t20.5 -48.5t48.5 -20.5q30 0 50 20.5t20 48.5t-20 48.5t-50 20.5zM349 693q-29 0 -49 -20t-20 -48t20 -48.5t49 -20.5t49 20.5t20 48.5t-20 48t-49 20zM504 183v137q0 93 -60.5 142.5t-172.5 49.5q-78 0 -131.5 -22t-81 -64.5
t-27.5 -105.5v-137q0 -57 24.5 -100.5t77 -68t137.5 -24.5q116 0 175 51.5t59 141.5zM358 314v-126q0 -17 -8 -30t-26.5 -20t-53.5 -7t-56 7.5t-29.5 20.5t-8.5 29v126q0 19 10 31.5t31 19t53 6.5t51.5 -6.5t28 -19.5t8.5 -31z" />
    <glyph glyph-name="divide" unicode="&#xf7;" horiz-adv-x="381" 
d="M29 331h321v101h-321v-101zM191 606q-31 0 -53 -21t-22 -51q0 -31 22 -53t53 -22q30 0 52 22t22 53q0 30 -22 51t-52 21zM191 305q-31 0 -53 -20t-22 -51t22 -53t53 -22q30 0 52 22t22 53t-22 51t-52 20z" />
    <glyph glyph-name="oslash" unicode="&#xf8;" horiz-adv-x="536" 
d="M474 514h-102l-299 -534h100zM504 183v137q0 93 -60.5 142.5t-172.5 49.5q-78 0 -131.5 -22t-81 -64.5t-27.5 -105.5v-137q0 -57 24.5 -100.5t77 -68t137.5 -24.5q116 0 175 51.5t59 141.5zM358 314v-126q0 -17 -8 -30t-26.5 -20t-53.5 -7t-56 7.5t-29.5 20.5t-8.5 29
v126q0 19 10 31.5t31 19t53 6.5t51.5 -6.5t28 -19.5t8.5 -31z" />
    <glyph glyph-name="ugrave" unicode="&#xf9;" horiz-adv-x="549" 
d="M275 681q-3 16 -16 28.5t-30.5 16.5t-35.5 -6q-17 -9 -22 -24.5t-0.5 -31.5t13.5 -28l55 -72h67zM364 25v-25h146v501h-146v-313q0 -13 -8.5 -23.5t-23.5 -18t-34.5 -11.5t-41.5 -4q-23 0 -39.5 4.5t-25.5 15t-9 27.5v323h-146v-343q0 -39 10.5 -67t29 -47t42 -30t50 -16
t53.5 -5q35 0 62 4t47 12t34 16z" />
    <glyph glyph-name="uacute" unicode="&#xfa;" horiz-adv-x="549" 
d="M359 634q10 13 13.5 29t-1.5 31t-22 24q-17 10 -34.5 6t-30 -16t-16.5 -28l-30 -117h66zM364 25v-25h146v501h-146v-313q0 -13 -8.5 -23.5t-23.5 -18t-34.5 -11.5t-41.5 -4q-23 0 -39.5 4.5t-25.5 15t-9 27.5v323h-146v-343q0 -39 10.5 -67t29 -47t42 -30t50 -16t53.5 -5
q35 0 62 4t47 12t34 16z" />
    <glyph glyph-name="ucircumflex" unicode="&#xfb;" horiz-adv-x="549" 
d="M411 623l-138 124l-140 -123l60 -66l81 72l75 -71zM364 25v-25h146v501h-146v-313q0 -13 -8.5 -23.5t-23.5 -18t-34.5 -11.5t-41.5 -4q-23 0 -39.5 4.5t-25.5 15t-9 27.5v323h-146v-343q0 -39 10.5 -67t29 -47t42 -30t50 -16t53.5 -5q35 0 62 4t47 12t34 16z" />
    <glyph glyph-name="udieresis" unicode="&#xfc;" horiz-adv-x="549" 
d="M188 694q-28 0 -48.5 -20.5t-20.5 -48.5t20.5 -48.5t48.5 -20.5q30 0 50 20.5t20 48.5t-20 48.5t-50 20.5zM357 693q-29 0 -49 -20t-20 -48t20 -48.5t49 -20.5t49 20.5t20 48.5t-20 48t-49 20zM364 25v-25h146v501h-146v-313q0 -13 -8.5 -23.5t-23.5 -18t-34.5 -11.5
t-41.5 -4q-23 0 -39.5 4.5t-25.5 15t-9 27.5v323h-146v-343q0 -39 10.5 -67t29 -47t42 -30t50 -16t53.5 -5q35 0 62 4t47 12t34 16z" />
    <glyph glyph-name="yacute" unicode="&#xfd;" horiz-adv-x="587" 
d="M364 634q10 13 13.5 29t-1.5 31t-22 24q-17 10 -34.5 6t-30 -16t-16.5 -28l-30 -117h66zM559 414l-43 98q-47 0 -81.5 -17.5t-52.5 -50.5t-18 -78v-179q0 -13 -9.5 -23.5t-25.5 -18t-34 -12t-34 -4.5q-18 0 -32.5 2.5t-25 8.5t-16 15.5t-5.5 21.5v326h-146v-348
q0 -48 16 -79.5t42 -49.5t58.5 -25.5t66.5 -7.5q30 0 57 4t49.5 11.5t38.5 16.5v-56q0 -15 -9 -26.5t-24 -19t-33.5 -12t-37.5 -4.5l49 -121q61 0 106.5 18.5t70 53t24.5 83.5v402q0 27 8.5 46t40.5 25z" />
    <glyph glyph-name="thorn" unicode="&#xfe;" horiz-adv-x="549" 
d="M513 175v174q0 52 -19 88t-58 55t-98 19q-31 0 -61.5 -5.5t-55 -12.5t-35.5 -14v221h-146v-892l146 -22v222q18 -6 39 -10.5t45 -7t51 -2.5q89 0 140.5 47.5t51.5 139.5zM368 323v-146q0 -15 -9 -27t-25.5 -18.5t-40.5 -6.5q-16 0 -34.5 2.5t-35.5 7t-27 12t-10 17.5v194
q3 1 17 4.5t36 7t45 3.5q17 0 32 -2t26.5 -7.5t18.5 -15.5t7 -25z" />
    <glyph glyph-name="ydieresis" unicode="&#xff;" horiz-adv-x="587" 
d="M199 694q-28 0 -48.5 -20.5t-20.5 -48.5t20.5 -48.5t48.5 -20.5q30 0 50 20.5t20 48.5t-20 48.5t-50 20.5zM368 693q-29 0 -49 -20t-20 -48t20 -48.5t49 -20.5t49 20.5t20 48.5t-20 48t-49 20zM559 414l-43 98q-47 0 -81.5 -17.5t-52.5 -50.5t-18 -78v-179
q0 -13 -9.5 -23.5t-25.5 -18t-34 -12t-34 -4.5q-18 0 -32.5 2.5t-25 8.5t-16 15.5t-5.5 21.5v326h-146v-348q0 -48 16 -79.5t42 -49.5t58.5 -25.5t66.5 -7.5q30 0 57 4t49.5 11.5t38.5 16.5v-56q0 -15 -9 -26.5t-24 -19t-33.5 -12t-37.5 -4.5l49 -121q61 0 106.5 18.5t70 53
t24.5 83.5v402q0 27 8.5 46t40.5 25z" />
    <glyph glyph-name="Amacron" unicode="&#x100;" horiz-adv-x="670" 
d="M444 877h-222v-107h222v107zM646 0l-205 700h-214l-202 -700h157l41 150h221l42 -150h160zM260 287l74 275l73 -275h-147z" />
    <glyph glyph-name="amacron" unicode="&#x101;" horiz-adv-x="548" 
d="M377 692h-222v-107h222v107zM363 355q-17 11 -43.5 20.5t-59 15.5t-67.5 6q-36 0 -66.5 -8.5t-52.5 -26.5t-34 -46t-12 -66v-94q0 -50 18.5 -82t52.5 -51t80 -26.5t102 -7.5q25 0 49 0.5l48 1t46.5 2t44 3.5t42.5 4v311q0 60 -14.5 98.5t-46 60.5t-82.5 31t-124 9
l-15 -83q30 0 54.5 -3.5t42.5 -11.5t27.5 -22t9.5 -35zM365 244v-125l-6 -0.5t-15.5 -1t-20.5 -1t-21.5 -1t-19.5 -0.5q-29 0 -50 3.5t-33.5 10.5t-18.5 17t-6 24v57q0 11 4 19t12 12.5t19.5 6.5t25.5 2q23 0 47 -4t45.5 -9t37.5 -10z" />
    <glyph glyph-name="Abreve" unicode="&#x102;" horiz-adv-x="670" 
d="M461 870h-99v-5q0 -10 -8 -19t-19 -9t-19 9t-8 19v5h-100v-8q0 -33 17 -61.5t46.5 -46t63.5 -17.5q35 0 63 17.5t45.5 46t17.5 61.5v8zM646 0l-205 700h-214l-202 -700h157l41 150h221l42 -150h160zM260 287l74 275l73 -275h-147z" />
    <glyph glyph-name="abreve" unicode="&#x103;" horiz-adv-x="548" 
d="M389 685h-99v-5q0 -10 -8 -19t-19 -9t-19 9t-8 19v5h-100v-8q0 -33 17 -61.5t46.5 -46t63.5 -17.5q35 0 63 17.5t45.5 46t17.5 61.5v8zM363 355q-17 11 -43.5 20.5t-59 15.5t-67.5 6q-36 0 -66.5 -8.5t-52.5 -26.5t-34 -46t-12 -66v-94q0 -50 18.5 -82t52.5 -51t80 -26.5
t102 -7.5q25 0 49 0.5l48 1t46.5 2t44 3.5t42.5 4v311q0 60 -14.5 98.5t-46 60.5t-82.5 31t-124 9l-15 -83q30 0 54.5 -3.5t42.5 -11.5t27.5 -22t9.5 -35zM365 244v-125l-6 -0.5t-15.5 -1t-20.5 -1t-21.5 -1t-19.5 -0.5q-29 0 -50 3.5t-33.5 10.5t-18.5 17t-6 24v57
q0 11 4 19t12 12.5t19.5 6.5t25.5 2q23 0 47 -4t45.5 -9t37.5 -10z" />
    <glyph glyph-name="Aogonek" unicode="&#x104;" horiz-adv-x="670" 
d="M629 6h-105v-9l-52 -74q-24 -35 -24 -66.5t19 -55t50.5 -32.5t69.5 2q9 2 25 8t34.5 12.5t33 12t18.5 7.5l-33 81l-13 -5t-31.5 -12t-35.5 -14t-26 -10t-15 0.5t-7.5 10.5t3.5 14l89 120v10zM646 0l-205 700h-214l-202 -700h157l41 150h221l42 -150h160zM260 287l74 275
l73 -275h-147z" />
    <glyph glyph-name="aogonek" unicode="&#x105;" horiz-adv-x="548" 
d="M504 11h-105v-9l-52 -74q-24 -35 -24 -66.5t19 -55t50.5 -32.5t69.5 2q9 2 25 8t34.5 12.5t33 12t18.5 7.5l-33 81l-13 -5t-31.5 -12t-35.5 -14t-26 -10t-15 0.5t-7.5 10.5t3.5 14l89 120v10zM363 355q-17 11 -43.5 20.5t-59 15.5t-67.5 6q-36 0 -66.5 -8.5t-52.5 -26.5
t-34 -46t-12 -66v-94q0 -50 18.5 -82t52.5 -51t80 -26.5t102 -7.5q25 0 49 0.5l48 1t46.5 2t44 3.5t42.5 4v311q0 60 -14.5 98.5t-46 60.5t-82.5 31t-124 9l-15 -83q30 0 54.5 -3.5t42.5 -11.5t27.5 -22t9.5 -35zM365 244v-125l-6 -0.5t-15.5 -1t-20.5 -1t-21.5 -1
t-19.5 -0.5q-29 0 -50 3.5t-33.5 10.5t-18.5 17t-6 24v57q0 11 4 19t12 12.5t19.5 6.5t25.5 2q23 0 47 -4t45.5 -9t37.5 -10z" />
    <glyph glyph-name="Cacute" unicode="&#x106;" horiz-adv-x="517" 
d="M357 819q10 13 13.5 29t-1.5 31t-22 24q-17 10 -34.5 6t-30 -16t-16.5 -28l-30 -117h66zM427 559l31 118q-45 18 -90 26.5t-90 8.5q-70 0 -124.5 -21t-86 -65t-31.5 -112v-330q0 -66 29 -109.5t84.5 -65t134.5 -21.5q48 0 99 9.5t105 25.5l-20 128q-10 -3 -38.5 -9.5
t-65.5 -11.5t-72 -5q-32 0 -57 5.5t-39.5 21.5t-14.5 48v300q0 32 17 48t45 21.5t62 5.5q33 0 63.5 -4t58.5 -12z" />
    <glyph glyph-name="cacute" unicode="&#x107;" horiz-adv-x="463" 
d="M344 634q10 13 13.5 29t-1.5 31t-22 24q-17 10 -34.5 6t-30 -16t-16.5 -28l-30 -117h66zM396 357l35 122q-38 14 -79 23t-83 10q-77 2 -130.5 -22t-80.5 -67t-27 -102v-149q0 -66 30 -105.5t84 -58t126 -20.5q42 -1 83 4t80 13l-27 129l-10 -1t-26.5 -2.5t-36 -3
t-38.5 -1.5q-26 0 -47.5 4t-37.5 12.5t-24.5 22.5t-8.5 33v111q0 26 15.5 40.5t42 20.5t59.5 5q27 -1 54 -6t47 -12z" />
    <glyph glyph-name="Ccircumflex" unicode="&#x108;" horiz-adv-x="517" 
d="M401 808l-138 124l-140 -123l60 -66l81 72l75 -71zM427 559l31 118q-45 18 -90 26.5t-90 8.5q-70 0 -124.5 -21t-86 -65t-31.5 -112v-330q0 -66 29 -109.5t84.5 -65t134.5 -21.5q48 0 99 9.5t105 25.5l-20 128q-10 -3 -38.5 -9.5t-65.5 -11.5t-72 -5q-32 0 -57 5.5
t-39.5 21.5t-14.5 48v300q0 32 17 48t45 21.5t62 5.5q33 0 63.5 -4t58.5 -12z" />
    <glyph glyph-name="ccircumflex" unicode="&#x109;" horiz-adv-x="463" 
d="M394 623l-138 124l-140 -123l60 -66l81 72l75 -71zM396 357l35 122q-38 14 -79 23t-83 10q-77 2 -130.5 -22t-80.5 -67t-27 -102v-149q0 -66 30 -105.5t84 -58t126 -20.5q42 -1 83 4t80 13l-27 129l-10 -1t-26.5 -2.5t-36 -3t-38.5 -1.5q-26 0 -47.5 4t-37.5 12.5
t-24.5 22.5t-8.5 33v111q0 26 15.5 40.5t42 20.5t59.5 5q27 -1 54 -6t47 -12z" />
    <glyph glyph-name="Cdotaccent" unicode="&#x10a;" horiz-adv-x="517" 
d="M268 900q-31 0 -53 -20t-22 -51t22 -53t53 -22t52.5 22t21.5 53t-21.5 51t-52.5 20zM427 559l31 118q-45 18 -90 26.5t-90 8.5q-70 0 -124.5 -21t-86 -65t-31.5 -112v-330q0 -66 29 -109.5t84.5 -65t134.5 -21.5q48 0 99 9.5t105 25.5l-20 128q-10 -3 -38.5 -9.5
t-65.5 -11.5t-72 -5q-32 0 -57 5.5t-39.5 21.5t-14.5 48v300q0 32 17 48t45 21.5t62 5.5q33 0 63.5 -4t58.5 -12z" />
    <glyph glyph-name="cdotaccent" unicode="&#x10b;" horiz-adv-x="463" 
d="M258 695q-31 0 -53 -20t-22 -51t22 -53t53 -22t52.5 22t21.5 53t-21.5 51t-52.5 20zM396 357l35 122q-38 14 -79 23t-83 10q-77 2 -130.5 -22t-80.5 -67t-27 -102v-149q0 -66 30 -105.5t84 -58t126 -20.5q42 -1 83 4t80 13l-27 129l-10 -1t-26.5 -2.5t-36 -3t-38.5 -1.5
q-26 0 -47.5 4t-37.5 12.5t-24.5 22.5t-8.5 33v111q0 26 15.5 40.5t42 20.5t59.5 5q27 -1 54 -6t47 -12z" />
    <glyph glyph-name="Ccaron" unicode="&#x10c;" horiz-adv-x="517" 
d="M412 865l-60 66l-81 -72l-75 71l-62 -64l138 -124zM427 559l31 118q-45 18 -90 26.5t-90 8.5q-70 0 -124.5 -21t-86 -65t-31.5 -112v-330q0 -66 29 -109.5t84.5 -65t134.5 -21.5q48 0 99 9.5t105 25.5l-20 128q-10 -3 -38.5 -9.5t-65.5 -11.5t-72 -5q-32 0 -57 5.5
t-39.5 21.5t-14.5 48v300q0 32 17 48t45 21.5t62 5.5q33 0 63.5 -4t58.5 -12z" />
    <glyph glyph-name="ccaron" unicode="&#x10d;" horiz-adv-x="463" 
d="M405 680l-60 66l-81 -72l-75 71l-62 -64l138 -124zM396 357l35 122q-38 14 -79 23t-83 10q-77 2 -130.5 -22t-80.5 -67t-27 -102v-149q0 -66 30 -105.5t84 -58t126 -20.5q42 -1 83 4t80 13l-27 129l-10 -1t-26.5 -2.5t-36 -3t-38.5 -1.5q-26 0 -47.5 4t-37.5 12.5
t-24.5 22.5t-8.5 33v111q0 26 15.5 40.5t42 20.5t59.5 5q27 -1 54 -6t47 -12z" />
    <glyph glyph-name="Dcaron" unicode="&#x10e;" horiz-adv-x="604" 
d="M436 865l-60 66l-81 -72l-75 71l-62 -64l138 -124zM305 701h-264v-701h284q84 0 137.5 25t79.5 72.5t26 112.5v270q0 72 -30.5 121.5t-89 74.5t-143.5 25zM321 131h-134v435h138q33 0 54.5 -10.5t32 -29.5t10.5 -48v-261q0 -15 -3.5 -30t-13.5 -28t-30.5 -20.5
t-53.5 -7.5z" />
    <glyph glyph-name="dcaron" unicode="&#x10f;" horiz-adv-x="557" 
d="M579 860l-60 66l-81 -72l-75 71l-62 -64l138 -124zM511 0v700h-145v-210q-43 11 -80 15.5t-76 4.5q-35 0 -67.5 -9t-58 -27.5t-40.5 -46.5t-15 -67v-203q0 -49 18.5 -81.5t52.5 -51.5t80 -27t101 -8q22 0 45 1t46.5 1.5t47.5 2t47 3.5t44 3zM366 352v-221l-5.5 -0.5
t-15 -0.5t-21 -0.5t-22.5 -0.5h-19q-32 0 -53 4t-33 11.5t-17 19t-5 27.5v127q0 13 5.5 22t15.5 14.5t23.5 8.5t30.5 3q36 0 67.5 -5.5t48.5 -8.5z" />
    <glyph glyph-name="Dcroat" unicode="&#x110;" horiz-adv-x="604" 
d="M408 877h-222v-107h222v107zM305 701h-264v-701h284q84 0 137.5 25t79.5 72.5t26 112.5v270q0 72 -30.5 121.5t-89 74.5t-143.5 25zM321 131h-134v435h138q33 0 54.5 -10.5t32 -29.5t10.5 -48v-261q0 -15 -3.5 -30t-13.5 -28t-30.5 -20.5t-53.5 -7.5z" />
    <glyph glyph-name="dcroat" unicode="&#x111;" horiz-adv-x="559" 
d="M558 553v89h-301v-89h301zM511 0v700h-145v-210q-43 11 -80 15.5t-76 4.5q-35 0 -67.5 -9t-58 -27.5t-40.5 -46.5t-15 -67v-203q0 -49 18.5 -81.5t52.5 -51.5t80 -27t101 -8q22 0 45 1t46.5 1.5t47.5 2t47 3.5t44 3zM366 352v-221l-5.5 -0.5t-15 -0.5t-21 -0.5
t-22.5 -0.5h-19q-32 0 -53 4t-33 11.5t-17 19t-5 27.5v127q0 13 5.5 22t15.5 14.5t23.5 8.5t30.5 3q36 0 67.5 -5.5t48.5 -8.5z" />
    <glyph glyph-name="Emacron" unicode="&#x112;" horiz-adv-x="495" 
d="M359 877h-222v-107h222v107zM41 0h417v131h-271l-1 164h158l45 132h-202v138h273v135h-419v-700z" />
    <glyph glyph-name="emacron" unicode="&#x113;" horiz-adv-x="527" 
d="M380 692h-222v-107h222v107zM178 157v18l322 12v159q0 56 -28.5 92.5t-79.5 54.5t-119 18t-122.5 -18.5t-86 -55.5t-31.5 -94v-210q0 -38 16 -66t45 -45.5t68 -26t86 -8.5q60 0 117.5 13t102.5 35l-42 114q-37 -14 -78 -23t-83 -10q-25 0 -41.5 2t-26.5 7t-14.5 13
t-4.5 19zM355 326v-25l-177 -7v33q0 18 7 30.5t27 19.5t57 8q35 1 53.5 -7.5t25.5 -22t7 -29.5z" />
    <glyph glyph-name="Ebreve" unicode="&#x114;" horiz-adv-x="495" 
d="M41 0h417v131h-271l-1 164h158l45 132h-202v138h273v135h-419v-700zM375 919h-99v-5q0 -10 -8 -19t-19 -9t-19 9t-8 19v5h-100v-8q0 -33 17 -61.5t46.5 -46t63.5 -17.5q35 0 63 17.5t45.5 46t17.5 61.5v8z" />
    <glyph glyph-name="ebreve" unicode="&#x115;" horiz-adv-x="529" 
d="M178 157v18l322 12v159q0 56 -28.5 92.5t-79.5 54.5t-119 18t-122.5 -18.5t-86 -55.5t-31.5 -94v-210q0 -38 16 -66t45 -45.5t68 -26t86 -8.5q60 0 117.5 13t102.5 35l-42 114q-37 -14 -78 -23t-83 -10q-25 0 -41.5 2t-26.5 7t-14.5 13t-4.5 19zM355 326v-25l-177 -7v33
q0 18 7 30.5t27 19.5t57 8q35 1 53.5 -7.5t25.5 -22t7 -29.5zM392 720h-99v-5q0 -10 -8 -19t-19 -9t-19 9t-8 19v5h-100v-8q0 -33 17 -61.5t46.5 -46t63.5 -17.5q35 0 63 17.5t45.5 46t17.5 61.5v8z" />
    <glyph glyph-name="Edotaccent" unicode="&#x116;" horiz-adv-x="495" 
d="M251 900q-31 0 -53 -20t-22 -51t22 -53t53 -22t52.5 22t21.5 53t-21.5 51t-52.5 20zM41 0h417v131h-271l-1 164h158l45 132h-202v138h273v135h-419v-700z" />
    <glyph glyph-name="edotaccent" unicode="&#x117;" horiz-adv-x="527" 
d="M267 687q-31 0 -53 -20t-22 -51t22 -53t53 -22t52.5 22t21.5 53t-21.5 51t-52.5 20zM178 157v18l322 12v159q0 56 -28.5 92.5t-79.5 54.5t-119 18t-122.5 -18.5t-86 -55.5t-31.5 -94v-210q0 -38 16 -66t45 -45.5t68 -26t86 -8.5q60 0 117.5 13t102.5 35l-42 114
q-37 -14 -78 -23t-83 -10q-25 0 -41.5 2t-26.5 7t-14.5 13t-4.5 19zM355 326v-25l-177 -7v33q0 18 7 30.5t27 19.5t57 8q35 1 53.5 -7.5t25.5 -22t7 -29.5z" />
    <glyph glyph-name="Eogonek" unicode="&#x118;" horiz-adv-x="495" 
d="M452 6h-105v-9l-52 -74q-24 -35 -24 -66.5t19 -55t50.5 -32.5t69.5 2q9 2 25 8t34.5 12.5t33 12t18.5 7.5l-33 81l-13 -5t-31.5 -12t-35.5 -14t-26 -10t-15 0.5t-7.5 10.5t3.5 14l89 120v10zM41 0h417v131h-271l-1 164h158l45 132h-202v138h273v135h-419v-700z" />
    <glyph glyph-name="eogonek" unicode="&#x119;" horiz-adv-x="527" 
d="M355 11h-105v-9l-52 -74q-24 -35 -24 -66.5t19 -55t50.5 -32.5t69.5 2q9 2 25 8t34.5 12.5t33 12t18.5 7.5l-33 81l-13 -5t-31.5 -12t-35.5 -14t-26 -10t-15 0.5t-7.5 10.5t3.5 14l89 120v10zM178 157v18l322 12v159q0 56 -28.5 92.5t-79.5 54.5t-119 18t-122.5 -18.5
t-86 -55.5t-31.5 -94v-210q0 -38 16 -66t45 -45.5t68 -26t86 -8.5q60 0 117.5 13t102.5 35l-42 114q-37 -14 -78 -23t-83 -10q-25 0 -41.5 2t-26.5 7t-14.5 13t-4.5 19zM355 326v-25l-177 -7v33q0 18 7 30.5t27 19.5t57 8q35 1 53.5 -7.5t25.5 -22t7 -29.5z" />
    <glyph glyph-name="Ecaron" unicode="&#x11a;" horiz-adv-x="495" 
d="M388 865l-60 66l-81 -72l-75 71l-62 -64l138 -124zM41 0h417v131h-271l-1 164h158l45 132h-202v138h273v135h-419v-700z" />
    <glyph glyph-name="ecaron" unicode="&#x11b;" horiz-adv-x="527" 
d="M406 680l-60 66l-81 -72l-75 71l-62 -64l138 -124zM178 157v18l322 12v159q0 56 -28.5 92.5t-79.5 54.5t-119 18t-122.5 -18.5t-86 -55.5t-31.5 -94v-210q0 -38 16 -66t45 -45.5t68 -26t86 -8.5q60 0 117.5 13t102.5 35l-42 114q-37 -14 -78 -23t-83 -10q-25 0 -41.5 2
t-26.5 7t-14.5 13t-4.5 19zM355 326v-25l-177 -7v33q0 18 7 30.5t27 19.5t57 8q35 1 53.5 -7.5t25.5 -22t7 -29.5z" />
    <glyph glyph-name="Gcircumflex" unicode="&#x11c;" horiz-adv-x="583" 
d="M420 808l-138 124l-140 -123l60 -66l81 72l75 -71zM444 559l40 118q-25 10 -57 17.5t-66 11.5t-68 4q-84 0 -141.5 -21t-87 -66t-29.5 -117v-317q0 -72 34.5 -116t94 -63.5t133.5 -19.5q16 1 41.5 3.5t51.5 9.5t43 19l6 -22h110v343h-256l32 -131h77v-16q0 -17 -9 -31
t-24.5 -22.5t-34 -13t-36.5 -4.5q-40 0 -66 7.5t-38.5 25t-12.5 46.5v292q0 34 18 50.5t49 22.5t69 6q19 0 41.5 -2t45 -5.5t40.5 -8.5z" />
    <glyph glyph-name="gcircumflex" unicode="&#x11d;" horiz-adv-x="543" 
d="M402 623l-138 124l-140 -123l60 -66l81 72l75 -71zM505 -64v565h-145v-20q-20 11 -44 17.5t-49.5 9.5t-51.5 3q-56 0 -97.5 -19t-64 -55t-22.5 -88v-174q0 -96 53 -141.5t148 -45.5q17 0 35 1.5t35.5 4t32 6.5t25.5 9v-57q0 -17 -11 -28.5t-28 -18.5t-34.5 -9.5
t-30.5 -2.5l30 -104q66 0 115.5 14.5t76.5 47t27 85.5zM360 358v-195q0 -6 -7 -12.5t-20.5 -11.5t-33 -8.5t-46.5 -3.5q-25 -1 -42 5t-25.5 18t-8.5 30v140q0 17 6 27.5t17 16t25.5 7.5t30.5 2q15 0 33 -2.5t34 -5.5t26.5 -5z" />
    <glyph glyph-name="Gbreve" unicode="&#x11e;" horiz-adv-x="583" 
d="M407 870h-99v-5q0 -10 -8 -19t-19 -9t-19 9t-8 19v5h-100v-8q0 -33 17 -61.5t46.5 -46t63.5 -17.5q35 0 63 17.5t45.5 46t17.5 61.5v8zM444 559l40 118q-25 10 -57 17.5t-66 11.5t-68 4q-84 0 -141.5 -21t-87 -66t-29.5 -117v-317q0 -72 34.5 -116t94 -63.5t133.5 -19.5
q16 1 41.5 3.5t51.5 9.5t43 19l6 -22h110v343h-256l32 -131h77v-16q0 -17 -9 -31t-24.5 -22.5t-34 -13t-36.5 -4.5q-40 0 -66 7.5t-38.5 25t-12.5 46.5v292q0 34 18 50.5t49 22.5t69 6q19 0 41.5 -2t45 -5.5t40.5 -8.5z" />
    <glyph glyph-name="gbreve" unicode="&#x11f;" horiz-adv-x="543" 
d="M390 685h-99v-5q0 -10 -8 -19t-19 -9t-19 9t-8 19v5h-100v-8q0 -33 17 -61.5t46.5 -46t63.5 -17.5q35 0 63 17.5t45.5 46t17.5 61.5v8zM505 -64v565h-145v-20q-20 11 -44 17.5t-49.5 9.5t-51.5 3q-56 0 -97.5 -19t-64 -55t-22.5 -88v-174q0 -96 53 -141.5t148 -45.5
q17 0 35 1.5t35.5 4t32 6.5t25.5 9v-57q0 -17 -11 -28.5t-28 -18.5t-34.5 -9.5t-30.5 -2.5l30 -104q66 0 115.5 14.5t76.5 47t27 85.5zM360 358v-195q0 -6 -7 -12.5t-20.5 -11.5t-33 -8.5t-46.5 -3.5q-25 -1 -42 5t-25.5 18t-8.5 30v140q0 17 6 27.5t17 16t25.5 7.5t30.5 2
q15 0 33 -2.5t34 -5.5t26.5 -5z" />
    <glyph glyph-name="Gdotaccent" unicode="&#x120;" horiz-adv-x="583" 
d="M280 900q-31 0 -53 -20t-22 -51t22 -53t53 -22t52.5 22t21.5 53t-21.5 51t-52.5 20zM444 559l40 118q-25 10 -57 17.5t-66 11.5t-68 4q-84 0 -141.5 -21t-87 -66t-29.5 -117v-317q0 -72 34.5 -116t94 -63.5t133.5 -19.5q16 1 41.5 3.5t51.5 9.5t43 19l6 -22h110v343h-256
l32 -131h77v-16q0 -17 -9 -31t-24.5 -22.5t-34 -13t-36.5 -4.5q-40 0 -66 7.5t-38.5 25t-12.5 46.5v292q0 34 18 50.5t49 22.5t69 6q19 0 41.5 -2t45 -5.5t40.5 -8.5z" />
    <glyph glyph-name="gdotaccent" unicode="&#x121;" horiz-adv-x="543" 
d="M263 686q-31 0 -53 -20t-22 -51t22 -53t53 -22t52.5 22t21.5 53t-21.5 51t-52.5 20zM505 -64v565h-145v-20q-20 11 -44 17.5t-49.5 9.5t-51.5 3q-56 0 -97.5 -19t-64 -55t-22.5 -88v-174q0 -96 53 -141.5t148 -45.5q17 0 35 1.5t35.5 4t32 6.5t25.5 9v-57
q0 -17 -11 -28.5t-28 -18.5t-34.5 -9.5t-30.5 -2.5l30 -104q66 0 115.5 14.5t76.5 47t27 85.5zM360 358v-195q0 -6 -7 -12.5t-20.5 -11.5t-33 -8.5t-46.5 -3.5q-25 -1 -42 5t-25.5 18t-8.5 30v140q0 17 6 27.5t17 16t25.5 7.5t30.5 2q15 0 33 -2.5t34 -5.5t26.5 -5z" />
    <glyph glyph-name="Gcommaaccent" unicode="&#x122;" horiz-adv-x="479" 
d="M203 -221l27 -19q-1 0 10.5 7t27 22.5t27.5 40.5t12 61q0 28 -19.5 48.5t-47.5 20.5q-29 0 -49.5 -20.5t-20.5 -48.5q0 -24 15 -42t38 -24q-3 -11 -7 -22.5t-13 -23.5zM444 559l40 118q-25 10 -57 17.5t-66 11.5t-68 4q-84 0 -141.5 -21t-87 -66t-29.5 -117v-317
q0 -72 34.5 -116t94 -63.5t133.5 -19.5q16 1 41.5 3.5t51.5 9.5t43 19l6 -22h110v343h-256l32 -131h77v-16q0 -17 -9 -31t-24.5 -22.5t-34 -13t-36.5 -4.5q-40 0 -66 7.5t-38.5 25t-12.5 46.5v292q0 34 18 50.5t49 22.5t69 6q19 0 41.5 -2t45 -5.5t40.5 -8.5z" />
    <glyph glyph-name="gcommaaccent" unicode="&#x123;" horiz-adv-x="441" 
d="M258 728l-28 19q1 0 -10.5 -7t-27 -22.5t-27.5 -40.5t-12 -61q0 -28 20 -48t48 -20q29 0 49 20t20 48q0 24 -15 42.5t-37 23.5q2 11 6.5 23t13.5 23zM505 -64v565h-145v-20q-20 11 -44 17.5t-49.5 9.5t-51.5 3q-56 0 -97.5 -19t-64 -55t-22.5 -88v-174q0 -96 53 -141.5
t148 -45.5q17 0 35 1.5t35.5 4t32 6.5t25.5 9v-57q0 -17 -11 -28.5t-28 -18.5t-34.5 -9.5t-30.5 -2.5l30 -104q66 0 115.5 14.5t76.5 47t27 85.5zM360 358v-195q0 -6 -7 -12.5t-20.5 -11.5t-33 -8.5t-46.5 -3.5q-25 -1 -42 5t-25.5 18t-8.5 30v140q0 17 6 27.5t17 16
t25.5 7.5t30.5 2q15 0 33 -2.5t34 -5.5t26.5 -5z" />
    <glyph glyph-name="Hcircumflex" unicode="&#x124;" horiz-adv-x="620" 
d="M449 808l-138 124l-140 -123l60 -66l81 72l75 -71zM433 426h-246v274h-146v-700h146v295h246v-295h145v700h-145v-274z" />
    <glyph glyph-name="hcircumflex" unicode="&#x125;" horiz-adv-x="544" 
d="M251 803l-138 124l-140 -123l60 -66l81 72l75 -71zM186 483v217h-146v-700h146v358q18 6 36 9t36.5 5t36.5 2q16 0 29.5 -2.5t23.5 -8.5t15.5 -15t5.5 -22v-326h145v344q0 40 -10 68.5t-28 47.5t-41.5 30t-50.5 16t-56 5t-56 -4.5t-49 -11t-37 -12.5z" />
    <glyph glyph-name="Hbar" unicode="&#x126;" horiz-adv-x="621" 
d="M2 518h617v92h-617v-92zM433 426h-246v274h-146v-700h146v295h246v-295h145v700h-145v-274z" />
    <glyph glyph-name="hbar" unicode="&#x127;" horiz-adv-x="559" 
d="M349 547v94h-348v-94h348zM195 483v217h-145v-700h145v358q18 6 36.5 9t37 5t35.5 2q16 0 29.5 -2.5t23.5 -8.5t15.5 -15t5.5 -22v-326h145v344q0 40 -10 68.5t-27.5 47.5t-41 30t-51 16t-56.5 5t-56 -4.5t-49 -11t-37 -12.5z" />
    <glyph glyph-name="Itilde" unicode="&#x128;" horiz-adv-x="288" 
d="M225 875v-10q0 -8 -1.5 -16t-12.5 -8q-7 0 -14.5 3.5t-13.5 6.5q-10 5 -16 8.5t-16 7.5q-24 11 -44.5 11t-37.5 -7q-22 -8 -34 -24.5t-16 -36t-4 -39.5v-13h82v11q0 10 2 17t13 7q5 0 12.5 -2.5t14.5 -6.5q5 -3 17 -9l16 -8q10 -4 21.5 -7.5t26.5 -3.5q46 0 66.5 29.5
t20.5 66.5v23h-82zM19 574l82 -2v-572h145v700h-227v-126z" />
    <glyph glyph-name="itilde" unicode="&#x129;" horiz-adv-x="224" 
d="M177 680v-10q0 -8 -1.5 -16t-12.5 -8q-7 0 -14.5 3.5t-13.5 6.5q-10 5 -16 8.5t-16 7.5q-24 11 -44.5 11t-37.5 -7q-22 -8 -34 -24.5t-16 -36t-4 -39.5v-13h82v11q0 10 2 17t13 7q5 0 12.5 -2.5t14.5 -6.5q5 -3 17 -9l16 -8q10 -4 21.5 -7.5t26.5 -3.5q46 0 66.5 29.5
t20.5 66.5v23h-82zM39 0h146v500h-146v-500z" />
    <glyph glyph-name="Imacron" unicode="&#x12a;" horiz-adv-x="288" 
d="M285 877h-222v-107h222v107zM19 574l82 -2v-572h145v700h-227v-126z" />
    <glyph glyph-name="imacron" unicode="&#x12b;" horiz-adv-x="224" 
d="M224 692h-222v-107h222v107zM39 0h146v500h-146v-500z" />
    <glyph glyph-name="Ibreve" unicode="&#x12c;" horiz-adv-x="288" 
d="M19 574l82 -2v-572h145v700h-227v-126zM271 919h-99v-5q0 -10 -8 -19t-19 -9t-19 9t-8 19v5h-100v-8q0 -33 17 -61.5t46.5 -46t63.5 -17.5q35 0 63 17.5t45.5 46t17.5 61.5v8z" />
    <glyph glyph-name="ibreve" unicode="&#x12d;" horiz-adv-x="224" 
d="M39 0h146v500h-146v-500zM239 720h-99v-5q0 -10 -8 -19t-19 -9t-19 9t-8 19v5h-100v-8q0 -33 17 -61.5t46.5 -46t63.5 -17.5q35 0 63 17.5t45.5 46t17.5 61.5v8z" />
    <glyph glyph-name="Iogonek" unicode="&#x12e;" horiz-adv-x="288" 
d="M223 6h-105v-9l-52 -74q-24 -35 -24 -66.5t19 -55t50.5 -32.5t69.5 2q9 2 25 8t34.5 12.5t33 12t18.5 7.5l-33 81l-13 -5t-31.5 -12t-35.5 -14t-26 -10t-15 0.5t-7.5 10.5t3.5 14l89 120v10zM19 574l82 -2v-572h145v700h-227v-126z" />
    <glyph glyph-name="iogonek" unicode="&#x12f;" horiz-adv-x="224" 
d="M166 11h-105v-9l-52 -74q-24 -35 -24 -66.5t19 -55t50.5 -32.5t69.5 2q9 2 25 8t34.5 12.5t33 12t18.5 7.5l-33 81l-13 -5t-31.5 -12t-35.5 -14t-26 -10t-15 0.5t-7.5 10.5t3.5 14l89 120v10zM39 0h146v500h-146v-500z" />
    <glyph glyph-name="Idotaccent" unicode="&#x130;" horiz-adv-x="288" 
d="M174 900q-31 0 -53 -20t-22 -51t22 -53t53 -22t52.5 22t21.5 53t-21.5 51t-52.5 20zM19 574l82 -2v-572h145v700h-227v-126z" />
    <glyph glyph-name="dotlessi" unicode="&#x131;" horiz-adv-x="224" 
d="M39 0h146v500h-146v-500z" />
    <glyph glyph-name="IJ" unicode="&#x132;" horiz-adv-x="669" 
d="M637 700h-220v-126l74 -2v-363q0 -20 -9 -34t-26 -23t-38.5 -14t-47.5 -5q-25 0 -47 4t-38 13t-25 23t-9 34v34h-146v-55q0 -65 34.5 -108.5t95 -66t137.5 -22.5q78 0 138 22.5t93.5 67t33.5 110.5v511zM251 700h-232v-126l86 -2v-269h146v397z" />
    <glyph glyph-name="ij" unicode="&#x133;" horiz-adv-x="552" 
d="M115 726q-32 0 -54 -20.5t-22 -52.5t22 -54t54 -22q31 0 53.5 22t22.5 54t-22.5 52.5t-53.5 20.5zM519 652q0 32 -22.5 53t-54.5 21t-53.5 -21t-21.5 -53q0 -31 21.5 -53t53.5 -22t54.5 22t22.5 53zM370 503v-319q0 -12 -8.5 -22t-23 -17t-31.5 -11t-34 -4q-16 0 -32 2.5
t-27.5 8t-18.5 15t-7 23.5v324h-146v-345q0 -39 10 -67t27.5 -47t40.5 -30t49.5 -16t53.5 -5q28 0 54.5 3.5t50 9.5t42.5 14v-51q0 -16 -10 -27t-26 -19t-35 -12t-35 -4l49 -121q62 0 108 18.5t70.5 52.5t24.5 82v564h-146z" />
    <glyph glyph-name="Jcircumflex" unicode="&#x134;" horiz-adv-x="314" 
d="M338 808l-138 124l-140 -123l60 -66l81 72l75 -71zM273 153v547h-235v-126l89 -2v-389q0 -33 -9 -55t-32.5 -33.5t-68.5 -11.5l33 -120q60 1 102.5 14.5t69 38.5t39 59.5t12.5 77.5z" />
    <glyph glyph-name="jcircumflex" unicode="&#x135;" horiz-adv-x="188" 
d="M260 623l-138 124l-140 -123l60 -66l81 72l75 -71zM263 -41v542h-235v-117l90 -8v-408q0 -24 -12 -40t-32.5 -24t-47.5 -12l34 -108q67 2 112 24.5t68 61.5t23 89z" />
    <glyph glyph-name="Kcommaaccent" unicode="&#x136;" horiz-adv-x="459" 
d="M193 -221l27 -19q-1 0 10.5 7t27 22.5t27.5 40.5t12 61q0 28 -19.5 48.5t-47.5 20.5q-29 0 -49.5 -20.5t-20.5 -48.5q0 -24 15 -42t38 -24q-3 -11 -7 -22.5t-13 -23.5zM189 448v252h-148v-700h148v229l43 51l174 -280h180l-257 400l232 300h-179z" />
    <glyph glyph-name="kcommaaccent" unicode="&#x137;" horiz-adv-x="427" 
d="M178 -216l27 -19q-1 0 10.5 7t27 22.5t27.5 40.5t12 61q0 28 -19.5 48.5t-47.5 20.5q-29 0 -49.5 -20.5t-20.5 -48.5q0 -24 15 -42t38 -24q-3 -11 -7 -22.5t-13 -23.5zM349 304l158 141l-119 84l-201 -180v351h-146v-700h146v179l48 34l149 -213h188z" />
    <glyph glyph-name="kgreenlandic" unicode="&#x138;" horiz-adv-x="597" 
d="M453 175l-111 117l236 208h-200l-192 -165v165l-146 12v-512h146v152l50 41l90 -94q24 -27 51.5 -49.5t63 -36t83.5 -13.5h55v123h-4q-21 0 -42 3.5t-40.5 14.5t-39.5 34z" />
    <glyph glyph-name="Lacute" unicode="&#x139;" horiz-adv-x="519" 
d="M203 820q10 13 13.5 29t-1.5 31t-22 24q-17 10 -34.5 6t-30 -16t-16.5 -28l-30 -117h66zM41 0h453v131h-307v569h-146v-700z" />
    <glyph glyph-name="lacute" unicode="&#x13a;" horiz-adv-x="229" 
d="M202 818q10 13 13.5 29t-1.5 31t-22 24q-17 10 -34.5 6t-30 -16t-16.5 -28l-30 -117h66zM41 0h145v700h-145v-700z" />
    <glyph glyph-name="Lcommaaccent" unicode="&#x13b;" horiz-adv-x="424" 
d="M176 -221l27 -19q-1 0 10.5 7t27 22.5t27.5 40.5t12 61q0 28 -19.5 48.5t-47.5 20.5q-29 0 -49.5 -20.5t-20.5 -48.5q0 -24 15 -42t38 -24q-3 -11 -7 -22.5t-13 -23.5zM41 0h453v131h-307v569h-146v-700z" />
    <glyph glyph-name="lcommaaccent" unicode="&#x13c;" horiz-adv-x="140" 
d="M33 -216l27 -19q-1 0 10.5 7t27 22.5t27.5 40.5t12 61q0 28 -19.5 48.5t-47.5 20.5q-29 0 -49.5 -20.5t-20.5 -48.5q0 -24 15 -42t38 -24q-3 -11 -7 -22.5t-13 -23.5zM41 0h145v700h-145v-700z" />
    <glyph glyph-name="Lcaron" unicode="&#x13d;" horiz-adv-x="519" 
d="M255 865l-60 66l-81 -72l-75 71l-62 -64l138 -124zM41 0h453v131h-307v569h-146v-700z" />
    <glyph glyph-name="lcaron" unicode="&#x13e;" horiz-adv-x="229" 
d="M252 860l-60 66l-81 -72l-75 71l-62 -64l138 -124zM41 0h145v700h-145v-700z" />
    <glyph glyph-name="Ldot" unicode="&#x13f;" horiz-adv-x="519" 
d="M346 430q-31 0 -53 -20t-22 -51t22 -53t53 -22t52.5 22t21.5 53t-21.5 51t-52.5 20zM41 0h453v131h-307v569h-146v-700z" />
    <glyph glyph-name="ldot" unicode="&#x140;" horiz-adv-x="362" 
d="M287 434q-31 0 -53 -20t-22 -51t22 -53t53 -22t52.5 22t21.5 53t-21.5 51t-52.5 20zM41 0h145v700h-145v-700z" />
    <glyph glyph-name="Lslash" unicode="&#x141;" horiz-adv-x="617" 
d="M60 258l397 143l-41 101l-395 -142zM138 0h453v131h-307v569h-146v-700z" />
    <glyph glyph-name="lslash" unicode="&#x142;" horiz-adv-x="433" 
d="M377 490l-356 -139l34 -88l354 140zM141 0h145v700h-145v-700z" />
    <glyph glyph-name="Nacute" unicode="&#x143;" horiz-adv-x="701" 
d="M435 819q10 13 13.5 29t-1.5 31t-22 24q-17 10 -34.5 6t-30 -16t-16.5 -28l-30 -117h66zM658 700h-146v-449l-326 449h-145v-700h145v439l322 -439h150v700z" />
    <glyph glyph-name="nacute" unicode="&#x144;" horiz-adv-x="544" 
d="M361 628q10 13 13.5 29t-1.5 31t-22 24q-17 10 -34.5 6t-30 -16t-16.5 -28l-30 -117h66zM368 327v-328h143v347q0 39 -10 67t-27 46.5t-39 29.5t-47 16t-50 5q-32 0 -61 -5t-53 -12t-39 -12v20h-146v-502h146v358q19 6 36 9.5t31.5 5.5t28.5 2q20 0 35.5 -3t27 -8.5
t18 -14.5t6.5 -21z" />
    <glyph glyph-name="Ncommaaccent" unicode="&#x145;" horiz-adv-x="577" 
d="M252 -221l27 -19q-1 0 10.5 7t27 22.5t27.5 40.5t12 61q0 28 -19.5 48.5t-47.5 20.5q-29 0 -49.5 -20.5t-20.5 -48.5q0 -24 15 -42t38 -24q-3 -11 -7 -22.5t-13 -23.5zM658 700h-146v-449l-326 449h-145v-700h145v439l322 -439h150v700z" />
    <glyph glyph-name="ncommaaccent" unicode="&#x146;" horiz-adv-x="443" 
d="M186 -216l27 -19q-1 0 10.5 7t27 22.5t27.5 40.5t12 61q0 28 -19.5 48.5t-47.5 20.5q-29 0 -49.5 -20.5t-20.5 -48.5q0 -24 15 -42t38 -24q-3 -11 -7 -22.5t-13 -23.5zM368 327v-328h143v347q0 39 -10 67t-27 46.5t-39 29.5t-47 16t-50 5q-32 0 -61 -5t-53 -12t-39 -12
v20h-146v-502h146v358q19 6 36 9.5t31.5 5.5t28.5 2q20 0 35.5 -3t27 -8.5t18 -14.5t6.5 -21z" />
    <glyph glyph-name="Ncaron" unicode="&#x147;" horiz-adv-x="701" 
d="M489 865l-60 66l-81 -72l-75 71l-62 -64l138 -124zM658 700h-146v-449l-326 449h-145v-700h145v439l322 -439h150v700z" />
    <glyph glyph-name="ncaron" unicode="&#x148;" horiz-adv-x="544" 
d="M416 680l-60 66l-81 -72l-75 71l-62 -64l138 -124zM368 327v-328h143v347q0 39 -10 67t-27 46.5t-39 29.5t-47 16t-50 5q-32 0 -61 -5t-53 -12t-39 -12v20h-146v-502h146v358q19 6 36 9.5t31.5 5.5t28.5 2q20 0 35.5 -3t27 -8.5t18 -14.5t6.5 -21z" />
    <glyph glyph-name="Eng" unicode="&#x14a;" horiz-adv-x="699" 
d="M656 -30v730h-146v-442l-322 442h-147v-700h146v437l322 -437v-31q0 -22 -13.5 -37t-36 -22.5t-51.5 -9.5l30 -114q68 0 117 20.5t75 61.5t26 102z" />
    <glyph glyph-name="eng" unicode="&#x14b;" horiz-adv-x="550" 
d="M512 -50v396q0 39 -9.5 67t-27 47t-40 30t-49 16t-54.5 5t-56 -5t-52 -13t-40 -15v23h-145v-501h145v356q19 5 38 9t38 5.5t37 1.5q16 0 29 -3t22.5 -9t14 -15t4.5 -22v-362q0 -23 -14 -37.5t-36 -21.5t-47 -10l51 -105q56 0 99 18.5t67.5 55t24.5 89.5z" />
    <glyph glyph-name="Omacron" unicode="&#x14c;" horiz-adv-x="598" 
d="M409 877h-222v-107h222v107zM35 502v-311q0 -66 34.5 -111t94 -68t135.5 -23q82 0 140.5 24.5t90.5 70t32 107.5v310q0 101 -67.5 158.5t-193.5 57.5q-125 0 -195.5 -55.5t-70.5 -159.5zM180 212v267q0 38 13 60.5t39.5 32t65.5 9.5q42 0 68.5 -10t39.5 -32t13 -59v-267
q0 -31 -14.5 -51.5t-41 -30.5t-64.5 -10t-64.5 9.5t-40.5 30t-14 51.5z" />
    <glyph glyph-name="omacron" unicode="&#x14d;" horiz-adv-x="536" 
d="M377 672h-222v-107h222v107zM504 183v137q0 93 -60.5 142.5t-172.5 49.5q-78 0 -131.5 -22t-81 -64.5t-27.5 -105.5v-137q0 -57 24.5 -100.5t77 -68t137.5 -24.5q116 0 175 51.5t59 141.5zM358 314v-126q0 -17 -8 -30t-26.5 -20t-53.5 -7t-56 7.5t-29.5 20.5t-8.5 29v126
q0 19 10 31.5t31 19t53 6.5t51.5 -6.5t28 -19.5t8.5 -31z" />
    <glyph glyph-name="Obreve" unicode="&#x14e;" horiz-adv-x="598" 
d="M35 502v-311q0 -66 34.5 -111t94 -68t135.5 -23q82 0 140.5 24.5t90.5 70t32 107.5v310q0 101 -67.5 158.5t-193.5 57.5q-125 0 -195.5 -55.5t-70.5 -159.5zM180 212v267q0 38 13 60.5t39.5 32t65.5 9.5q42 0 68.5 -10t39.5 -32t13 -59v-267q0 -31 -14.5 -51.5t-41 -30.5
t-64.5 -10t-64.5 9.5t-40.5 30t-14 51.5zM426 919h-99v-5q0 -10 -8 -19t-19 -9t-19 9t-8 19v5h-100v-8q0 -33 17 -61.5t46.5 -46t63.5 -17.5q35 0 63 17.5t45.5 46t17.5 61.5v8z" />
    <glyph glyph-name="obreve" unicode="&#x14f;" horiz-adv-x="536" 
d="M504 183v137q0 93 -60.5 142.5t-172.5 49.5q-78 0 -131.5 -22t-81 -64.5t-27.5 -105.5v-137q0 -57 24.5 -100.5t77 -68t137.5 -24.5q116 0 175 51.5t59 141.5zM358 314v-126q0 -17 -8 -30t-26.5 -20t-53.5 -7t-56 7.5t-29.5 20.5t-8.5 29v126q0 19 10 31.5t31 19t53 6.5
t51.5 -6.5t28 -19.5t8.5 -31zM395 720h-99v-5q0 -10 -8 -19t-19 -9t-19 9t-8 19v5h-100v-8q0 -33 17 -61.5t46.5 -46t63.5 -17.5q35 0 63 17.5t45.5 46t17.5 61.5v8z" />
    <glyph glyph-name="Ohungarumlaut" unicode="&#x150;" horiz-adv-x="598" 
d="M314 821q10 13 13.5 29t-1.5 31t-22 24t-34.5 5t-30 -16t-16.5 -28l-31 -117h67zM448 821q10 13 13.5 29t-1.5 31.5t-23 23.5q-18 10 -35 5.5t-29 -16.5t-17 -28l-30 -117h66zM35 502v-311q0 -66 34.5 -111t94 -68t135.5 -23q82 0 140.5 24.5t90.5 70t32 107.5v310
q0 101 -67.5 158.5t-193.5 57.5q-125 0 -195.5 -55.5t-70.5 -159.5zM180 212v267q0 38 13 60.5t39.5 32t65.5 9.5q42 0 68.5 -10t39.5 -32t13 -59v-267q0 -31 -14.5 -51.5t-41 -30.5t-64.5 -10t-64.5 9.5t-40.5 30t-14 51.5z" />
    <glyph glyph-name="ohungarumlaut" unicode="&#x151;" horiz-adv-x="536" 
d="M286 628q10 13 13.5 29t-1.5 31t-22 24t-34.5 5t-30 -16t-16.5 -28l-31 -117h67zM420 628q10 13 13.5 29t-1.5 31.5t-23 23.5q-18 10 -35 5.5t-29 -16.5t-17 -28l-30 -117h66zM504 183v137q0 93 -60.5 142.5t-172.5 49.5q-78 0 -131.5 -22t-81 -64.5t-27.5 -105.5v-137
q0 -57 24.5 -100.5t77 -68t137.5 -24.5q116 0 175 51.5t59 141.5zM358 314v-126q0 -17 -8 -30t-26.5 -20t-53.5 -7t-56 7.5t-29.5 20.5t-8.5 29v126q0 19 10 31.5t31 19t53 6.5t51.5 -6.5t28 -19.5t8.5 -31z" />
    <glyph glyph-name="OE" unicode="&#x152;" horiz-adv-x="874" 
d="M421 0h417v131h-271l-1 164h158l45 132h-202v138h273v135h-419v-700zM35 502v-311q0 -66 34.5 -111t94 -68t135.5 -23q82 0 140.5 24.5t90.5 70t32 107.5v310q0 101 -67.5 158.5t-193.5 57.5q-125 0 -195.5 -55.5t-70.5 -159.5zM180 212v267q0 38 13 60.5t39.5 32
t65.5 9.5q42 0 68.5 -10t39.5 -32t13 -59v-267q0 -31 -14.5 -51.5t-41 -30.5t-64.5 -10t-64.5 9.5t-40.5 30t-14 51.5z" />
    <glyph glyph-name="oe" unicode="&#x153;" horiz-adv-x="872" 
d="M504 183v137q0 93 -60.5 142.5t-172.5 49.5q-78 0 -131.5 -22t-81 -64.5t-27.5 -105.5v-137q0 -57 24.5 -100.5t77 -68t137.5 -24.5q116 0 175 51.5t59 141.5zM358 314v-126q0 -17 -8 -30t-26.5 -20t-53.5 -7t-56 7.5t-29.5 20.5t-8.5 29v126q0 19 10 31.5t31 19t53 6.5
t51.5 -6.5t28 -19.5t8.5 -31zM518 160v18l322 12v159q0 56 -28.5 92.5t-79.5 54.5t-119 18t-122.5 -18.5t-86 -55.5t-31.5 -94v-210q0 -38 16 -66t45 -45.5t68 -26t86 -8.5q60 0 117.5 13t102.5 35l-42 114q-37 -14 -78 -23t-83 -10q-25 0 -41.5 2t-26.5 7t-14.5 13t-4.5 19
zM695 329v-25l-177 -7v33q0 18 7 30.5t27 19.5t57 8q35 1 53.5 -7.5t25.5 -22t7 -29.5z" />
    <glyph glyph-name="Racute" unicode="&#x154;" horiz-adv-x="623" 
d="M390 819q10 13 13.5 29t-1.5 31t-22 24q-17 10 -34.5 6t-30 -16t-16.5 -28l-30 -117h66zM327 700h-285v-700h145v185h111h15.5t22 0.5t17.5 0.5l76 -186h164l-101 227q28 18 49 47t33.5 72t12.5 100q0 79 -22 129t-59 77t-83.5 37.5t-95.5 10.5zM312 317h-125v246h125
q31 0 54 -5t39 -17.5t24.5 -35.5t8.5 -59q0 -41 -8.5 -66.5t-24 -39t-39 -18.5t-54.5 -5z" />
    <glyph glyph-name="racute" unicode="&#x155;" horiz-adv-x="437" 
d="M199 629q10 13 13.5 29t-1.5 31t-22 24q-17 10 -34.5 6t-30 -16t-16.5 -28l-30 -117h66zM399 368l12 133q-15 6 -38 10.5t-47 4.5q-38 0 -76 -9t-69 -26v20h-142v-501h142v347q19 8 37.5 13t38 8.5t40 5t40.5 1.5q26 0 44 -3.5z" />
    <glyph glyph-name="Rcommaaccent" unicode="&#x156;" horiz-adv-x="510" 
d="M219 -221l27 -19q-1 0 10.5 7t27 22.5t27.5 40.5t12 61q0 28 -19.5 48.5t-47.5 20.5q-29 0 -49.5 -20.5t-20.5 -48.5q0 -24 15 -42t38 -24q-3 -11 -7 -22.5t-13 -23.5zM327 700h-285v-700h145v185h111h15.5t22 0.5t17.5 0.5l76 -186h164l-101 227q28 18 49 47t33.5 72
t12.5 100q0 79 -22 129t-59 77t-83.5 37.5t-95.5 10.5zM312 317h-125v246h125q31 0 54 -5t39 -17.5t24.5 -35.5t8.5 -59q0 -41 -8.5 -66.5t-24 -39t-39 -18.5t-54.5 -5z" />
    <glyph glyph-name="rcommaaccent" unicode="&#x157;" horiz-adv-x="333" 
d="M31 -216l27 -19q-1 0 10.5 7t27 22.5t27.5 40.5t12 61q0 28 -19.5 48.5t-47.5 20.5q-29 0 -49.5 -20.5t-20.5 -48.5q0 -24 15 -42t38 -24q-3 -11 -7 -22.5t-13 -23.5zM399 368l12 133q-15 6 -38 10.5t-47 4.5q-38 0 -76 -9t-69 -26v20h-142v-501h142v347q19 8 37.5 13
t38 8.5t40 5t40.5 1.5q26 0 44 -3.5z" />
    <glyph glyph-name="Rcaron" unicode="&#x158;" horiz-adv-x="623" 
d="M445 865l-60 66l-81 -72l-75 71l-62 -64l138 -124zM327 700h-285v-700h145v185h111h15.5t22 0.5t17.5 0.5l76 -186h164l-101 227q28 18 49 47t33.5 72t12.5 100q0 79 -22 129t-59 77t-83.5 37.5t-95.5 10.5zM312 317h-125v246h125q31 0 54 -5t39 -17.5t24.5 -35.5
t8.5 -59q0 -41 -8.5 -66.5t-24 -39t-39 -18.5t-54.5 -5z" />
    <glyph glyph-name="rcaron" unicode="&#x159;" horiz-adv-x="437" 
d="M361 676l-60 66l-81 -72l-75 71l-62 -64l138 -124zM399 368l12 133q-15 6 -38 10.5t-47 4.5q-38 0 -76 -9t-69 -26v20h-142v-501h142v347q19 8 37.5 13t38 8.5t40 5t40.5 1.5q26 0 44 -3.5z" />
    <glyph glyph-name="Sacute" unicode="&#x15a;" horiz-adv-x="660" 
d="M416 820q10 13 13.5 29t-1.5 31t-22 24q-17 10 -34.5 6t-30 -16t-16.5 -28l-30 -117h66zM515 556l33 117q-30 13 -64.5 21t-70 12t-70.5 4q-48 0 -97.5 -9.5t-91.5 -31t-67.5 -57.5t-25.5 -89q0 -42 17.5 -73t47 -54.5t67 -41.5t77 -32t76.5 -27t67 -27t47.5 -30.5
t17.5 -37.5t-12 -36t-33.5 -24.5t-49 -14.5t-59.5 -5q-41 0 -82 8t-77 23t-64 36l-72 -98q37 -33 84 -55.5t101 -34t109 -11.5q64 0 120 12t98.5 38t66.5 67.5t24 101.5q0 43 -18 75.5t-48 56.5t-67.5 42.5t-77.5 33t-78 27t-68 24.5t-48 26.5t-18 33.5q0 17 12.5 28
t32 17.5t43 8.5t46.5 2q30 0 59.5 -3t58.5 -9t54 -14z" />
    <glyph glyph-name="sacute" unicode="&#x15b;" horiz-adv-x="527" 
d="M348 634q10 13 13.5 29t-1.5 31t-22 24q-17 10 -34.5 6t-30 -16t-16.5 -28l-30 -117h66zM401 360l43 113q-21 12 -49.5 21.5t-61 14.5t-64.5 5q-48 0 -88 -9.5t-69 -29t-45 -47.5t-16 -65q0 -38 16 -64.5t42 -45t57.5 -30.5t62.5 -20t57 -15t42 -15t16 -20
q0 -10 -6 -16.5t-16.5 -10.5t-24.5 -6t-30 -2q-27 0 -59 6t-62 16.5t-52 25.5l-71 -92q48 -42 111.5 -65.5t131.5 -23.5q45 0 87 10.5t75.5 31.5t53 53t19.5 74q0 39 -16.5 66t-43 45t-58.5 30t-64 19.5t-59 14t-43 13.5t-16 18q0 7 7 11.5t18 6.5t22.5 2.5t19.5 0.5
q28 0 53 -3t45.5 -8t34.5 -10z" />
    <glyph glyph-name="Scircumflex" unicode="&#x15c;" horiz-adv-x="660" 
d="M471 808l-138 124l-140 -123l60 -66l81 72l75 -71zM515 556l33 117q-30 13 -64.5 21t-70 12t-70.5 4q-48 0 -97.5 -9.5t-91.5 -31t-67.5 -57.5t-25.5 -89q0 -42 17.5 -73t47 -54.5t67 -41.5t77 -32t76.5 -27t67 -27t47.5 -30.5t17.5 -37.5t-12 -36t-33.5 -24.5t-49 -14.5
t-59.5 -5q-41 0 -82 8t-77 23t-64 36l-72 -98q37 -33 84 -55.5t101 -34t109 -11.5q64 0 120 12t98.5 38t66.5 67.5t24 101.5q0 43 -18 75.5t-48 56.5t-67.5 42.5t-77.5 33t-78 27t-68 24.5t-48 26.5t-18 33.5q0 17 12.5 28t32 17.5t43 8.5t46.5 2q30 0 59.5 -3t58.5 -9
t54 -14z" />
    <glyph glyph-name="scircumflex" unicode="&#x15d;" horiz-adv-x="527" 
d="M403 623l-138 124l-140 -123l60 -66l81 72l75 -71zM401 360l43 113q-21 12 -49.5 21.5t-61 14.5t-64.5 5q-48 0 -88 -9.5t-69 -29t-45 -47.5t-16 -65q0 -38 16 -64.5t42 -45t57.5 -30.5t62.5 -20t57 -15t42 -15t16 -20q0 -10 -6 -16.5t-16.5 -10.5t-24.5 -6t-30 -2
q-27 0 -59 6t-62 16.5t-52 25.5l-71 -92q48 -42 111.5 -65.5t131.5 -23.5q45 0 87 10.5t75.5 31.5t53 53t19.5 74q0 39 -16.5 66t-43 45t-58.5 30t-64 19.5t-59 14t-43 13.5t-16 18q0 7 7 11.5t18 6.5t22.5 2.5t19.5 0.5q28 0 53 -3t45.5 -8t34.5 -10z" />
    <glyph glyph-name="Scedilla" unicode="&#x15e;" horiz-adv-x="660" 
d="M367 0h-76l-37 -62l17 -56q16 1 34.5 2t34.5 2t23 1q14 0 20 -5.5t6 -15.5q0 -6 -3 -11t-9 -7.5t-16 -2.5q-23 0 -47 2t-40.5 3.5t-17.5 1.5l-15 -73q3 -1 19 -4t40 -6t48 -3q62 0 91.5 28t29.5 75q0 37 -25.5 66t-72.5 29q-3 0 -9 0.5t-15 -0.5zM515 556l33 117
q-30 13 -64.5 21t-70 12t-70.5 4q-48 0 -97.5 -9.5t-91.5 -31t-67.5 -57.5t-25.5 -89q0 -42 17.5 -73t47 -54.5t67 -41.5t77 -32t76.5 -27t67 -27t47.5 -30.5t17.5 -37.5t-12 -36t-33.5 -24.5t-49 -14.5t-59.5 -5q-41 0 -82 8t-77 23t-64 36l-72 -98q37 -33 84 -55.5
t101 -34t109 -11.5q64 0 120 12t98.5 38t66.5 67.5t24 101.5q0 43 -18 75.5t-48 56.5t-67.5 42.5t-77.5 33t-78 27t-68 24.5t-48 26.5t-18 33.5q0 17 12.5 28t32 17.5t43 8.5t46.5 2q30 0 59.5 -3t58.5 -9t54 -14z" />
    <glyph glyph-name="scedilla" unicode="&#x15f;" horiz-adv-x="527" 
d="M300 0h-76l-37 -62l17 -56q16 1 34.5 2t34.5 2t23 1q14 0 20 -5.5t6 -15.5q0 -6 -3 -11t-9 -7.5t-16 -2.5q-23 0 -47 2t-40.5 3.5t-17.5 1.5l-15 -73q3 -1 19 -4t40 -6t48 -3q62 0 91.5 28t29.5 75q0 37 -25.5 66t-72.5 29q-3 0 -9 0.5t-15 -0.5zM401 360l43 113
q-21 12 -49.5 21.5t-61 14.5t-64.5 5q-48 0 -88 -9.5t-69 -29t-45 -47.5t-16 -65q0 -38 16 -64.5t42 -45t57.5 -30.5t62.5 -20t57 -15t42 -15t16 -20q0 -10 -6 -16.5t-16.5 -10.5t-24.5 -6t-30 -2q-27 0 -59 6t-62 16.5t-52 25.5l-71 -92q48 -42 111.5 -65.5t131.5 -23.5
q45 0 87 10.5t75.5 31.5t53 53t19.5 74q0 39 -16.5 66t-43 45t-58.5 30t-64 19.5t-59 14t-43 13.5t-16 18q0 7 7 11.5t18 6.5t22.5 2.5t19.5 0.5q28 0 53 -3t45.5 -8t34.5 -10z" />
    <glyph glyph-name="Scaron" unicode="&#x160;" horiz-adv-x="660" 
d="M471 865l-60 66l-81 -72l-75 71l-62 -64l138 -124zM515 556l33 117q-30 13 -64.5 21t-70 12t-70.5 4q-48 0 -97.5 -9.5t-91.5 -31t-67.5 -57.5t-25.5 -89q0 -42 17.5 -73t47 -54.5t67 -41.5t77 -32t76.5 -27t67 -27t47.5 -30.5t17.5 -37.5t-12 -36t-33.5 -24.5t-49 -14.5
t-59.5 -5q-41 0 -82 8t-77 23t-64 36l-72 -98q37 -33 84 -55.5t101 -34t109 -11.5q64 0 120 12t98.5 38t66.5 67.5t24 101.5q0 43 -18 75.5t-48 56.5t-67.5 42.5t-77.5 33t-78 27t-68 24.5t-48 26.5t-18 33.5q0 17 12.5 28t32 17.5t43 8.5t46.5 2q30 0 59.5 -3t58.5 -9
t54 -14z" />
    <glyph glyph-name="scaron" unicode="&#x161;" horiz-adv-x="527" 
d="M403 680l-60 66l-81 -72l-75 71l-62 -64l138 -124zM401 360l43 113q-21 12 -49.5 21.5t-61 14.5t-64.5 5q-48 0 -88 -9.5t-69 -29t-45 -47.5t-16 -65q0 -38 16 -64.5t42 -45t57.5 -30.5t62.5 -20t57 -15t42 -15t16 -20q0 -10 -6 -16.5t-16.5 -10.5t-24.5 -6t-30 -2
q-27 0 -59 6t-62 16.5t-52 25.5l-71 -92q48 -42 111.5 -65.5t131.5 -23.5q45 0 87 10.5t75.5 31.5t53 53t19.5 74q0 39 -16.5 66t-43 45t-58.5 30t-64 19.5t-59 14t-43 13.5t-16 18q0 7 7 11.5t18 6.5t22.5 2.5t19.5 0.5q28 0 53 -3t45.5 -8t34.5 -10z" />
    <glyph glyph-name="Tcedilla" unicode="&#x162;" horiz-adv-x="417" 
d="M238 1h-76l-37 -62l17 -56q16 1 34.5 2t34.5 2t23 1q14 0 20 -5.5t6 -15.5q0 -6 -3 -11t-9 -7.5t-16 -2.5q-23 0 -47 2t-40.5 3.5t-17.5 1.5l-15 -73q3 -1 19 -4t40 -6t48 -3q62 0 91.5 28t29.5 75q0 37 -25.5 66t-72.5 29q-3 0 -9 0.5t-15 -0.5zM335 564h180v136h-502
v-136h177v-564h145v564z" />
    <glyph glyph-name="tcedilla" unicode="&#x163;" horiz-adv-x="241" 
d="M157 10h-76l-37 -62l17 -56q16 1 34.5 2t34.5 2t23 1q14 0 20 -5.5t6 -15.5q0 -6 -3 -11t-9 -7.5t-16 -2.5q-23 0 -47 2t-40.5 3.5t-17.5 1.5l-15 -73q3 -1 19 -4t40 -6t48 -3q62 0 91.5 28t29.5 75q0 37 -25.5 66t-72.5 29q-3 0 -9 0.5t-15 -0.5zM186 175v185h123
l25 140h-148v200h-146v-547q0 -77 53.5 -120.5t156.5 -45.5l50 127q-34 0 -59.5 4t-40 17t-14.5 40z" />
    <glyph glyph-name="Tcaron" unicode="&#x164;" horiz-adv-x="533" 
d="M404 865l-60 66l-81 -72l-75 71l-62 -64l138 -124zM335 564h180v136h-502v-136h177v-564h145v564z" />
    <glyph glyph-name="tcaron" unicode="&#x165;" horiz-adv-x="348" 
d="M253 860l-60 66l-81 -72l-75 71l-62 -64l138 -124zM186 175v185h123l25 140h-148v200h-146v-547q0 -77 53.5 -120.5t156.5 -45.5l50 127q-34 0 -59.5 4t-40 17t-14.5 40z" />
    <glyph glyph-name="Tbar" unicode="&#x166;" horiz-adv-x="533" 
d="M15 414v-104h502v104h-502zM335 564h180v136h-502v-136h177v-564h145v564z" />
    <glyph glyph-name="tbar" unicode="&#x167;" horiz-adv-x="395" 
d="M345 208v104h-344v-104h344zM218 175v185h123l26 140h-149v200h-146v-547q0 -77 53.5 -120.5t157.5 -45.5l49 127q-34 0 -59.5 4t-40 17t-14.5 40z" />
    <glyph glyph-name="Utilde" unicode="&#x168;" horiz-adv-x="607" 
d="M366 875v-10q0 -8 -1.5 -16t-12.5 -8q-7 0 -14.5 3.5t-13.5 6.5q-10 5 -16 8.5t-16 7.5q-24 11 -44.5 11t-37.5 -7q-22 -8 -34 -24.5t-16 -36t-4 -39.5v-13h82v11q0 10 2 17t13 7q5 0 12.5 -2.5t14.5 -6.5q5 -3 17 -9l16 -8q10 -4 21.5 -7.5t26.5 -3.5q46 0 66.5 29.5
t20.5 66.5v23h-82zM566 189v511h-143v-489q0 -28 -14.5 -48t-41 -30.5t-64.5 -10.5q-39 0 -65.5 9.5t-40 29t-13.5 49.5v490h-145v-511q0 -64 34 -109t94 -68t137 -23t136 23t92.5 68t33.5 109z" />
    <glyph glyph-name="utilde" unicode="&#x169;" horiz-adv-x="549" 
d="M337 680v-10q0 -8 -1.5 -16t-12.5 -8q-7 0 -14.5 3.5t-13.5 6.5q-10 5 -16 8.5t-16 7.5q-24 11 -44.5 11t-37.5 -7q-22 -8 -34 -24.5t-16 -36t-4 -39.5v-13h82v11q0 10 2 17t13 7q5 0 12.5 -2.5t14.5 -6.5q5 -3 17 -9l16 -8q10 -4 21.5 -7.5t26.5 -3.5q46 0 66.5 29.5
t20.5 66.5v23h-82zM364 25v-25h146v501h-146v-313q0 -13 -8.5 -23.5t-23.5 -18t-34.5 -11.5t-41.5 -4q-23 0 -39.5 4.5t-25.5 15t-9 27.5v323h-146v-343q0 -39 10.5 -67t29 -47t42 -30t50 -16t53.5 -5q35 0 62 4t47 12t34 16z" />
    <glyph glyph-name="Umacron" unicode="&#x16a;" horiz-adv-x="607" 
d="M414 877h-222v-107h222v107zM566 189v511h-143v-489q0 -28 -14.5 -48t-41 -30.5t-64.5 -10.5q-39 0 -65.5 9.5t-40 29t-13.5 49.5v490h-145v-511q0 -64 34 -109t94 -68t137 -23t136 23t92.5 68t33.5 109z" />
    <glyph glyph-name="umacron" unicode="&#x16b;" horiz-adv-x="549" 
d="M384 692h-222v-107h222v107zM364 25v-25h146v501h-146v-313q0 -13 -8.5 -23.5t-23.5 -18t-34.5 -11.5t-41.5 -4q-23 0 -39.5 4.5t-25.5 15t-9 27.5v323h-146v-343q0 -39 10.5 -67t29 -47t42 -30t50 -16t53.5 -5q35 0 62 4t47 12t34 16z" />
    <glyph glyph-name="Ubreve" unicode="&#x16c;" horiz-adv-x="607" 
d="M429 870h-99v-5q0 -10 -8 -19t-19 -9t-19 9t-8 19v5h-100v-8q0 -33 17 -61.5t46.5 -46t63.5 -17.5q35 0 63 17.5t45.5 46t17.5 61.5v8zM566 189v511h-143v-489q0 -28 -14.5 -48t-41 -30.5t-64.5 -10.5q-39 0 -65.5 9.5t-40 29t-13.5 49.5v490h-145v-511q0 -64 34 -109
t94 -68t137 -23t136 23t92.5 68t33.5 109z" />
    <glyph glyph-name="ubreve" unicode="&#x16d;" horiz-adv-x="549" 
d="M400 685h-99v-5q0 -10 -8 -19t-19 -9t-19 9t-8 19v5h-100v-8q0 -33 17 -61.5t46.5 -46t63.5 -17.5q35 0 63 17.5t45.5 46t17.5 61.5v8zM364 25v-25h146v501h-146v-313q0 -13 -8.5 -23.5t-23.5 -18t-34.5 -11.5t-41.5 -4q-23 0 -39.5 4.5t-25.5 15t-9 27.5v323h-146v-343
q0 -39 10.5 -67t29 -47t42 -30t50 -16t53.5 -5q35 0 62 4t47 12t34 16z" />
    <glyph glyph-name="Uring" unicode="&#x16e;" horiz-adv-x="607" 
d="M304 942q-34 0 -62.5 -16t-45.5 -43.5t-17 -62.5q0 -33 17 -61t45.5 -45t61.5 -17q35 0 62.5 17t44 45t16.5 61q0 35 -16.5 62.5t-44 43.5t-61.5 16zM303 844q10 0 18 -8q6 -6 6 -16q0 -5 -2 -10t-6 -8q-3 -3 -7 -5t-9 -2q-4 0 -8.5 2t-8.5 5q-3 4 -5 8.5t-2 9.5
q0 6 2.5 10.5t5.5 7.5q4 3 8 4.5t8 1.5zM566 189v511h-143v-489q0 -28 -14.5 -48t-41 -30.5t-64.5 -10.5q-39 0 -65.5 9.5t-40 29t-13.5 49.5v490h-145v-511q0 -64 34 -109t94 -68t137 -23t136 23t92.5 68t33.5 109z" />
    <glyph glyph-name="uring" unicode="&#x16f;" horiz-adv-x="549" 
d="M274 760q-34 0 -62.5 -16t-45.5 -43.5t-17 -62.5q0 -33 17 -61t45.5 -45t61.5 -17q35 0 62.5 17t44 45t16.5 61q0 35 -16.5 62.5t-44 43.5t-61.5 16zM273 662q10 0 18 -8q6 -6 6 -16q0 -5 -2 -10t-6 -8q-3 -3 -7 -5t-9 -2q-4 0 -8.5 2t-8.5 5q-3 4 -5 8.5t-2 9.5
q0 6 2.5 10.5t5.5 7.5q4 3 8 4.5t8 1.5zM364 25v-25h146v501h-146v-313q0 -13 -8.5 -23.5t-23.5 -18t-34.5 -11.5t-41.5 -4q-23 0 -39.5 4.5t-25.5 15t-9 27.5v323h-146v-343q0 -39 10.5 -67t29 -47t42 -30t50 -16t53.5 -5q35 0 62 4t47 12t34 16z" />
    <glyph glyph-name="Uhungarumlaut" unicode="&#x170;" horiz-adv-x="607" 
d="M322 821q10 13 13.5 29t-1.5 31t-22 24t-34.5 5t-30 -16t-16.5 -28l-31 -117h67zM456 821q10 13 13.5 29t-1.5 31.5t-23 23.5q-18 10 -35 5.5t-29 -16.5t-17 -28l-30 -117h66zM566 189v511h-143v-489q0 -28 -14.5 -48t-41 -30.5t-64.5 -10.5q-39 0 -65.5 9.5t-40 29
t-13.5 49.5v490h-145v-511q0 -64 34 -109t94 -68t137 -23t136 23t92.5 68t33.5 109z" />
    <glyph glyph-name="uhungarumlaut" unicode="&#x171;" horiz-adv-x="549" 
d="M293 628q10 13 13.5 29t-1.5 31t-22 24t-34.5 5t-30 -16t-16.5 -28l-31 -117h67zM427 628q10 13 13.5 29t-1.5 31.5t-23 23.5q-18 10 -35 5.5t-29 -16.5t-17 -28l-30 -117h66zM364 25v-25h146v501h-146v-313q0 -13 -8.5 -23.5t-23.5 -18t-34.5 -11.5t-41.5 -4
q-23 0 -39.5 4.5t-25.5 15t-9 27.5v323h-146v-343q0 -39 10.5 -67t29 -47t42 -30t50 -16t53.5 -5q35 0 62 4t47 12t34 16z" />
    <glyph glyph-name="Uogonek" unicode="&#x172;" horiz-adv-x="607" 
d="M363 6h-105v-9l-52 -74q-24 -35 -24 -66.5t19 -55t50.5 -32.5t69.5 2q9 2 25 8t34.5 12.5t33 12t18.5 7.5l-33 81l-13 -5t-31.5 -12t-35.5 -14t-26 -10t-15 0.5t-7.5 10.5t3.5 14l89 120v10zM566 189v511h-143v-489q0 -28 -14.5 -48t-41 -30.5t-64.5 -10.5
q-39 0 -65.5 9.5t-40 29t-13.5 49.5v490h-145v-511q0 -64 34 -109t94 -68t137 -23t136 23t92.5 68t33.5 109z" />
    <glyph glyph-name="uogonek" unicode="&#x173;" horiz-adv-x="549" 
d="M497 11h-105v-9l-52 -74q-24 -35 -24 -66.5t19 -55t50.5 -32.5t69.5 2q9 2 25 8t34.5 12.5t33 12t18.5 7.5l-33 81l-13 -5t-31.5 -12t-35.5 -14t-26 -10t-15 0.5t-7.5 10.5t3.5 14l89 120v10zM364 25v-25h146v501h-146v-313q0 -13 -8.5 -23.5t-23.5 -18t-34.5 -11.5
t-41.5 -4q-23 0 -39.5 4.5t-25.5 15t-9 27.5v323h-146v-343q0 -39 10.5 -67t29 -47t42 -30t50 -16t53.5 -5q35 0 62 4t47 12t34 16z" />
    <glyph glyph-name="Wcircumflex" unicode="&#x174;" horiz-adv-x="915" 
d="M596 808l-138 124l-140 -123l60 -66l81 72l75 -71zM524 700h-132l-113 -426l-106 426h-154l177 -700h157l104 367l103 -367h157l176 700h-154l-104 -426z" />
    <glyph glyph-name="wcircumflex" unicode="&#x175;" horiz-adv-x="897" 
d="M586 623l-138 124l-140 -123l60 -66l81 72l75 -71zM521 500h-145l-98 -303l-106 303h-152l181 -500h155l91 268l91 -268h154l180 500h-151l-101 -302z" />
    <glyph glyph-name="Ycircumflex" unicode="&#x176;" horiz-adv-x="629" 
d="M451 808l-138 124l-140 -123l60 -66l81 72l75 -71zM588 157v543h-146v-283q0 -18 -10 -33.5t-28 -26.5t-41 -17.5t-48 -6.5q-49 0 -79 11t-44 32.5t-14 53.5v270h-147v-290q0 -66 32.5 -112.5t89.5 -71t128 -24.5q31 0 61 3.5t56.5 12t47.5 20.5l-1 -68q0 -21 -9.5 -35
t-25.5 -23t-35.5 -13.5t-39.5 -5.5l44 -112q112 8 160.5 52.5t48.5 123.5z" />
    <glyph glyph-name="ycircumflex" unicode="&#x177;" horiz-adv-x="587" 
d="M425 623l-138 124l-140 -123l60 -66l81 72l75 -71zM559 414l-43 98q-47 0 -81.5 -17.5t-52.5 -50.5t-18 -78v-179q0 -13 -9.5 -23.5t-25.5 -18t-34 -12t-34 -4.5q-18 0 -32.5 2.5t-25 8.5t-16 15.5t-5.5 21.5v326h-146v-348q0 -48 16 -79.5t42 -49.5t58.5 -25.5
t66.5 -7.5q30 0 57 4t49.5 11.5t38.5 16.5v-56q0 -15 -9 -26.5t-24 -19t-33.5 -12t-37.5 -4.5l49 -121q61 0 106.5 18.5t70 53t24.5 83.5v402q0 27 8.5 46t40.5 25z" />
    <glyph glyph-name="Ydieresis" unicode="&#x178;" horiz-adv-x="629" 
d="M222 889q-28 0 -48.5 -20.5t-20.5 -48.5t20.5 -48.5t48.5 -20.5q30 0 50 20.5t20 48.5t-20 48.5t-50 20.5zM391 888q-29 0 -49 -20t-20 -48t20 -48.5t49 -20.5t49 20.5t20 48.5t-20 48t-49 20zM588 157v543h-146v-283q0 -18 -10 -33.5t-28 -26.5t-41 -17.5t-48 -6.5
q-49 0 -79 11t-44 32.5t-14 53.5v270h-147v-290q0 -66 32.5 -112.5t89.5 -71t128 -24.5q31 0 61 3.5t56.5 12t47.5 20.5l-1 -68q0 -21 -9.5 -35t-25.5 -23t-35.5 -13.5t-39.5 -5.5l44 -112q112 8 160.5 52.5t48.5 123.5z" />
    <glyph glyph-name="Zacute" unicode="&#x179;" horiz-adv-x="678" 
d="M422 819q10 13 13.5 29t-1.5 31t-22 24q-17 10 -34.5 6t-30 -16t-16.5 -28l-30 -117h66zM41 700v-144l385 -1l-20 -20l-378 -396v-139h611v142l-410 1l19 18l380 394v145h-587z" />
    <glyph glyph-name="zacute" unicode="&#x17a;" horiz-adv-x="526" 
d="M345 634q10 13 13.5 29t-1.5 31t-22 24q-17 10 -34.5 6t-30 -16t-16.5 -28l-30 -117h66zM482 501h-439v-133l228 -1l-238 -229v-138h460v137l-249 1l238 231v132z" />
    <glyph glyph-name="Zdotaccent" unicode="&#x17b;" horiz-adv-x="678" 
d="M339 900q-31 0 -53 -20t-22 -51t22 -53t53 -22t52.5 22t21.5 53t-21.5 51t-52.5 20zM41 700v-144l385 -1l-20 -20l-378 -396v-139h611v142l-410 1l19 18l380 394v145h-587z" />
    <glyph glyph-name="zdotaccent" unicode="&#x17c;" horiz-adv-x="526" 
d="M262 700q-31 0 -53 -20t-22 -51t22 -53t53 -22t52.5 22t21.5 53t-21.5 51t-52.5 20zM482 501h-439v-133l228 -1l-238 -229v-138h460v137l-249 1l238 231v132z" />
    <glyph glyph-name="Zcaron" unicode="&#x17d;" horiz-adv-x="678" 
d="M477 865l-60 66l-81 -72l-75 71l-62 -64l138 -124zM41 700v-144l385 -1l-20 -20l-378 -396v-139h611v142l-410 1l19 18l380 394v145h-587z" />
    <glyph glyph-name="zcaron" unicode="&#x17e;" horiz-adv-x="526" 
d="M399 680l-60 66l-81 -72l-75 71l-62 -64l138 -124zM482 501h-439v-133l228 -1l-238 -229v-138h460v137l-249 1l238 231v132z" />
    <glyph glyph-name="Scommaaccent" unicode="&#x218;" horiz-adv-x="530" 
d="M229 -221l27 -19q-1 0 10.5 7t27 22.5t27.5 40.5t12 61q0 28 -19.5 48.5t-47.5 20.5q-29 0 -49.5 -20.5t-20.5 -48.5q0 -24 15 -42t38 -24q-3 -11 -7 -22.5t-13 -23.5zM515 556l33 117q-30 13 -64.5 21t-70 12t-70.5 4q-48 0 -97.5 -9.5t-91.5 -31t-67.5 -57.5t-25.5 -89
q0 -42 17.5 -73t47 -54.5t67 -41.5t77 -32t76.5 -27t67 -27t47.5 -30.5t17.5 -37.5t-12 -36t-33.5 -24.5t-49 -14.5t-59.5 -5q-41 0 -82 8t-77 23t-64 36l-72 -98q37 -33 84 -55.5t101 -34t109 -11.5q64 0 120 12t98.5 38t66.5 67.5t24 101.5q0 43 -18 75.5t-48 56.5
t-67.5 42.5t-77.5 33t-78 27t-68 24.5t-48 26.5t-18 33.5q0 17 12.5 28t32 17.5t43 8.5t46.5 2q30 0 59.5 -3t58.5 -9t54 -14z" />
    <glyph glyph-name="scommaaccent" unicode="&#x219;" horiz-adv-x="417" 
d="M173 -216l27 -19q-1 0 10.5 7t27 22.5t27.5 40.5t12 61q0 28 -19.5 48.5t-47.5 20.5q-29 0 -49.5 -20.5t-20.5 -48.5q0 -24 15 -42t38 -24q-3 -11 -7 -22.5t-13 -23.5zM403 360l43 113q-21 12 -49.5 21.5t-61 14.5t-64.5 5q-48 0 -88 -9.5t-69 -29t-45 -47.5t-16 -65
q0 -38 16 -64.5t42 -45t57.5 -30.5t62.5 -20t57 -15t42 -15t16 -20q0 -10 -6 -16.5t-16.5 -10.5t-24.5 -6t-30 -2q-27 0 -59 6t-62 16.5t-52 25.5l-71 -92q48 -42 111.5 -65.5t131.5 -23.5q45 0 87 10.5t75.5 31.5t53 53t19.5 74q0 39 -16.5 66t-43 45t-58.5 30t-64 19.5
t-59 14t-43 13.5t-16 18q0 7 7 11.5t18 6.5t22.5 2.5t19.5 0.5q28 0 53 -3t45.5 -8t34.5 -10z" />
    <glyph glyph-name="uni021A" unicode="&#x21a;" horiz-adv-x="533" 
d="M225 -221l27 -19q-1 0 10.5 7t27 22.5t27.5 40.5t12 61q0 28 -19.5 48.5t-47.5 20.5q-29 0 -49.5 -20.5t-20.5 -48.5q0 -24 15 -42t38 -24q-3 -11 -7 -22.5t-13 -23.5zM335 564h180v136h-502v-136h177v-564h145v564z" />
    <glyph glyph-name="uni021B" unicode="&#x21b;" horiz-adv-x="348" 
d="M136 -217l27 -19q-1 0 10.5 7t27 22.5t27.5 40.5t12 61q0 28 -19.5 48.5t-47.5 20.5q-29 0 -49.5 -20.5t-20.5 -48.5q0 -24 15 -42t38 -24q-3 -11 -7 -22.5t-13 -23.5zM186 175v185h123l25 140h-148v200h-146v-547q0 -77 53.5 -120.5t156.5 -45.5l50 127q-34 0 -59.5 4
t-40 17t-14.5 40z" />
    <glyph glyph-name="dotlessj" unicode="&#x237;" horiz-adv-x="303" 
d="M263 -41v542h-235v-117l90 -8v-408q0 -24 -12 -40t-32.5 -24t-47.5 -12l34 -108q67 2 112 24.5t68 61.5t23 89z" />
    <glyph glyph-name="circumflex" unicode="&#x2c6;" 
d="M273 658l-138 124l-140 -123l60 -66l81 72l75 -71z" />
    <glyph glyph-name="caron" unicode="&#x2c7;" 
d="M273 715l-60 66l-81 -72l-75 71l-62 -64l138 -124z" />
    <glyph glyph-name="breve" unicode="&#x2d8;" 
d="M260 720h-99v-5q0 -10 -8 -19t-19 -9t-19 9t-8 19v5h-100v-8q0 -33 17 -61.5t46.5 -46t63.5 -17.5q35 0 63 17.5t45.5 46t17.5 61.5v8z" />
    <glyph glyph-name="dotaccent" unicode="&#x2d9;" 
d="M134 790q-31 0 -53 -20t-22 -51t22 -53t53 -22t52.5 22t21.5 53t-21.5 51t-52.5 20z" />
    <glyph glyph-name="ring" unicode="&#x2da;" 
d="M135 785q-34 0 -62.5 -16t-45.5 -43.5t-17 -62.5q0 -33 17 -61t45.5 -45t61.5 -17q35 0 62.5 17t44 45t16.5 61q0 35 -16.5 62.5t-44 43.5t-61.5 16zM134 687q10 0 18 -8q6 -6 6 -16q0 -5 -2 -10t-6 -8q-3 -3 -7 -5t-9 -2q-4 0 -8.5 2t-8.5 5q-3 4 -5 8.5t-2 9.5
q0 6 2.5 10.5t5.5 7.5q4 3 8 4.5t8 1.5z" />
    <glyph glyph-name="ogonek" unicode="&#x2db;" 
d="M194 11h-105v-9l-52 -74q-24 -35 -24 -66.5t19 -55t50.5 -32.5t69.5 2q9 2 25 8t34.5 12.5t33 12t18.5 7.5l-33 81l-13 -5t-31.5 -12t-35.5 -14t-26 -10t-15 0.5t-7.5 10.5t3.5 14l89 120v10z" />
    <glyph glyph-name="tilde" unicode="&#x2dc;" 
d="M197 725v-10q0 -8 -1.5 -16t-12.5 -8q-7 0 -14.5 3.5t-13.5 6.5q-10 5 -16 8.5t-16 7.5q-24 11 -44.5 11t-37.5 -7q-22 -8 -34 -24.5t-16 -36t-4 -39.5v-13h82v11q0 10 2 17t13 7q5 0 12.5 -2.5t14.5 -6.5q5 -3 17 -9l16 -8q10 -4 21.5 -7.5t26.5 -3.5q46 0 66.5 29.5
t20.5 66.5v23h-82z" />
    <glyph glyph-name="hungarumlaut" unicode="&#x2dd;" 
d="M156 643q10 13 13.5 29t-1.5 31.5t-22 23.5q-17 10 -34 5.5t-30 -16.5t-17 -28l-31 -117h67zM290 643q10 13 13.5 29t-1.5 31.5t-23 23.5q-18 10 -35 5.5t-29.5 -16.5t-16.5 -28l-30 -117h66z" />
    <glyph glyph-name="gravecomb" unicode="&#x300;" 
d="M142 706q-3 16 -16 28.5t-30.5 16.5t-35.5 -6q-17 -9 -22 -24.5t-0.5 -31.5t13.5 -28l55 -72h67z" />
    <glyph glyph-name="acutecomb" unicode="&#x301;" 
d="M217 669q10 13 13.5 29t-1.5 31t-22 24q-17 10 -34.5 6t-30 -16t-16.5 -28l-30 -117h66z" />
    <glyph glyph-name="circumflexcomb" unicode="&#x302;" 
d="M273 658l-138 124l-140 -123l60 -66l81 72l75 -71z" />
    <glyph glyph-name="tildecomb" unicode="&#x303;" horiz-adv-x="295" 
d="M204 725v-10q0 -8 -1.5 -16t-12.5 -8q-7 0 -14.5 3.5t-13.5 6.5q-10 5 -16 8.5t-16 7.5q-24 11 -44.5 11t-37.5 -7q-22 -8 -34 -24.5t-16 -36t-4 -39.5v-13h82v11q0 10 2 17t13 7q5 0 12.5 -2.5t14.5 -6.5q5 -3 17 -9l16 -8q10 -4 21.5 -7.5t26.5 -3.5q46 0 66.5 29.5
t20.5 66.5v23h-82z" />
    <glyph glyph-name="macroncomb" unicode="&#x304;" 
d="M244 727h-222v-107h222v107z" />
    <glyph glyph-name="brevecomb" unicode="&#x306;" 
d="M260 720h-99v-5q0 -10 -8 -19t-19 -9t-19 9t-8 19v5h-100v-8q0 -33 17 -61.5t46.5 -46t63.5 -17.5q35 0 63 17.5t45.5 46t17.5 61.5v8z" />
    <glyph glyph-name="dotaccentcomb" unicode="&#x307;" 
d="M134 790q-31 0 -53 -20t-22 -51t22 -53t53 -22t52.5 22t21.5 53t-21.5 51t-52.5 20z" />
    <glyph glyph-name="dieresiscomb" unicode="&#x308;" 
d="M49 779q-28 0 -48.5 -20.5t-20.5 -48.5t20.5 -48.5t48.5 -20.5q30 0 50 20.5t20 48.5t-20 48.5t-50 20.5zM218 778q-29 0 -49 -20t-20 -48t20 -48.5t49 -20.5t49 20.5t20 48.5t-20 48t-49 20z" />
    <glyph glyph-name="ringcomb" unicode="&#x30a;" 
d="M135 785q-34 0 -62.5 -16t-45.5 -43.5t-17 -62.5q0 -33 17 -61t45.5 -45t61.5 -17q35 0 62.5 17t44 45t16.5 61q0 35 -16.5 62.5t-44 43.5t-61.5 16zM134 687q10 0 18 -8q6 -6 6 -16q0 -5 -2 -10t-6 -8q-3 -3 -7 -5t-9 -2q-4 0 -8.5 2t-8.5 5q-3 4 -5 8.5t-2 9.5
q0 6 2.5 10.5t5.5 7.5q4 3 8 4.5t8 1.5z" />
    <glyph glyph-name="hungarumlautcomb" unicode="&#x30b;" 
d="M156 643q10 13 13.5 29t-1.5 31t-22 24t-34.5 5t-30 -16t-16.5 -28l-31 -117h67zM290 643q10 13 13.5 29t-1.5 31.5t-23 23.5q-18 10 -35 5.5t-29 -16.5t-17 -28l-30 -117h66z" />
    <glyph glyph-name="caroncomb" unicode="&#x30c;" 
d="M273 715l-60 66l-81 -72l-75 71l-62 -64l138 -124z" />
    <glyph glyph-name="commaturnedabovecomb" unicode="&#x312;" 
d="M171 732l-28 19q1 0 -10.5 -7t-27 -22.5t-27.5 -40.5t-12 -61q0 -28 20 -48t48 -20q29 0 49 20t20 48q0 24 -15 42.5t-37 23.5q2 11 6.5 23t13.5 23z" />
    <glyph glyph-name="commaaccent" unicode="&#x326;" 
d="M98 -165l27 -19q-1 0 10.5 7t27 22.5t27.5 40.5t12 61q0 28 -19.5 48.5t-47.5 20.5q-29 0 -49.5 -20.5t-20.5 -48.5q0 -24 15 -42t38 -24q-3 -11 -7 -22.5t-13 -23.5z" />
    <glyph glyph-name="cedillacomb" unicode="&#x327;" 
d="M173 0h-76l-37 -62l17 -56q16 1 34.5 2t34.5 2t23 1q14 0 20 -5.5t6 -15.5q0 -6 -3 -11t-9 -7.5t-16 -2.5q-23 0 -47 2t-40.5 3.5t-17.5 1.5l-15 -73q3 -1 19 -4t40 -6t48 -3q62 0 91.5 28t29.5 75q0 37 -25.5 66t-72.5 29q-3 0 -9 0.5t-15 -0.5z" />
    <glyph glyph-name="ogonekcomb" unicode="&#x328;" 
d="M194 11h-105v-9l-52 -74q-24 -35 -24 -66.5t19 -55t50.5 -32.5t69.5 2q9 2 25 8t34.5 12.5t33 12t18.5 7.5l-33 81l-13 -5t-31.5 -12t-35.5 -14t-26 -10t-15 0.5t-7.5 10.5t3.5 14l89 120v10z" />
    <glyph glyph-name="dieresistonoscomb" unicode="&#x344;" 
d="M99 695q0 28 -18 45.5t-46 17.5q-26 0 -45 -17.5t-19 -45.5q0 -26 19 -44.5t45 -18.5q28 0 46 18.5t18 44.5zM296 695q0 28 -18.5 45.5t-45.5 17.5t-45.5 -17.5t-18.5 -45.5q0 -26 18.5 -44.5t45.5 -18.5t45.5 18.5t18.5 44.5zM221 808q10 12 13.5 28.5t-1.5 32.5t-22 24
q-18 9 -35 5t-29.5 -16t-16.5 -28l-31 -117h66z" />
    <glyph glyph-name="tonos" unicode="&#x384;" 
d="M188 669q10 13 13 29t-2 31t-21 24q-18 10 -35 6t-29.5 -16t-16.5 -28l-31 -117h67z" />
    <glyph glyph-name="dieresistonos" unicode="&#x385;" 
d="M100 695q0 28 -18 45.5t-46 17.5q-26 0 -45 -17.5t-19 -45.5q0 -26 19 -44.5t45 -18.5q28 0 46 18.5t18 44.5zM297 695q0 28 -18.5 45.5t-45.5 17.5t-45.5 -17.5t-18.5 -45.5q0 -26 18.5 -44.5t45.5 -18.5t45.5 18.5t18.5 44.5zM222 808q10 12 13.5 28.5t-1.5 32.5
t-22 24q-18 9 -35 5t-29.5 -16t-16.5 -28l-31 -117h66z" />
    <glyph glyph-name="Alphatonos" unicode="&#x386;" horiz-adv-x="670" 
d="M646 0l-205 700h-214l-202 -700h157l41 150h221l42 -150h160zM260 287l74 275l73 -275h-147zM243 769q10 13 13.5 29t-1.5 31t-22 24q-17 10 -34.5 6t-29.5 -16t-17 -28l-30 -117h66z" />
    <glyph glyph-name="Epsilontonos" unicode="&#x388;" horiz-adv-x="495" 
d="M41 0h417v131h-271l-1 164h158l45 132h-202v138h273v135h-419v-700zM66 770q10 13 13.5 29t-1.5 31t-22 24q-17 10 -34.5 6t-29.5 -16t-17 -28l-30 -117h66z" />
    <glyph glyph-name="Etatonos" unicode="&#x389;" horiz-adv-x="620" 
d="M433 426h-246v274h-146v-700h146v295h246v-295h145v700h-145v-274zM69 769q10 13 13.5 29t-1.5 31t-22 24q-17 10 -34.5 6t-29.5 -16t-17 -28l-30 -117h66z" />
    <glyph glyph-name="Iotatonos" unicode="&#x38a;" horiz-adv-x="288" 
d="M19 574l82 -2v-572h145v700h-227v-126zM47 769q10 13 13.5 29t-1.5 31t-22 24q-17 10 -34.5 6t-29.5 -16t-17 -28l-30 -117h66z" />
    <glyph glyph-name="Omicrontonos" unicode="&#x38c;" horiz-adv-x="598" 
d="M35 502v-311q0 -66 34.5 -111t94 -68t135.5 -23q82 0 140.5 24.5t90.5 70t32 107.5v310q0 101 -67.5 158.5t-193.5 57.5q-125 0 -195.5 -55.5t-70.5 -159.5zM180 212v267q0 38 13 60.5t39.5 32t65.5 9.5q42 0 68.5 -10t39.5 -32t13 -59v-267q0 -31 -14.5 -51.5t-41 -30.5
t-64.5 -10t-64.5 9.5t-40.5 30t-14 51.5zM165 769q10 13 13.5 29t-1.5 31t-22 24q-17 10 -34.5 6t-29.5 -16t-17 -28l-30 -117h66z" />
    <glyph glyph-name="Upsilontonos" unicode="&#x38e;" horiz-adv-x="629" 
d="M588 157v543h-146v-283q0 -18 -10 -33.5t-28 -26.5t-41 -17.5t-48 -6.5q-49 0 -79 11t-44 32.5t-14 53.5v270h-147v-290q0 -66 32.5 -112.5t89.5 -71t128 -24.5q31 0 61 3.5t56.5 12t47.5 20.5l-1 -68q0 -21 -9.5 -35t-25.5 -23t-35.5 -13.5t-39.5 -5.5l44 -112
q112 8 160.5 52.5t48.5 123.5zM56 769q10 13 13.5 29t-1.5 31t-22 24q-17 10 -34.5 6t-29.5 -16t-17 -28l-30 -117h66z" />
    <glyph glyph-name="Omegatonos" unicode="&#x38f;" horiz-adv-x="582" 
d="M659 262v248q0 92 -56.5 144.5t-173.5 52.5h-149q-118 0 -175 -52.5t-57 -144.5v-248q0 -20 4 -48.5t17.5 -51.5t41.5 -30h-58l-21 -132h288v131q-31 0 -55 6t-40 18t-24 30.5t-8 43.5v251q0 50 21 71.5t68 21.5h147q28 0 47 -9.5t28.5 -29.5t9.5 -54v-251
q0 -25 -8.5 -43.5t-25.5 -30.5t-41 -18t-55 -6v-131h290l-19 132h-58q25 10 38.5 26t18.5 41.5t5 62.5zM174 769q10 13 13.5 29t-1.5 31t-22 24q-17 10 -34.5 6t-29.5 -16t-17 -28l-30 -117h66z" />
    <glyph glyph-name="iotadieresistonos" unicode="&#x390;" horiz-adv-x="224" 
d="M80 611q0 28 -18 45.5t-46 17.5q-26 0 -45 -17.5t-19 -45.5q0 -26 19 -44.5t45 -18.5q28 0 46 18.5t18 44.5zM277 611q0 28 -18.5 45.5t-45.5 17.5t-45.5 -17.5t-18.5 -45.5q0 -26 18.5 -44.5t45.5 -18.5t45.5 18.5t18.5 44.5zM202 724q10 12 13.5 28.5t-1.5 32.5t-22 24
q-18 9 -35 5t-29.5 -16t-16.5 -28l-31 -117h66zM39 0h146v500h-146v-500z" />
    <glyph glyph-name="Alpha" unicode="&#x391;" horiz-adv-x="670" 
d="M646 0l-205 700h-214l-202 -700h157l41 150h221l42 -150h160zM260 287l74 275l73 -275h-147z" />
    <glyph glyph-name="Beta" unicode="&#x392;" horiz-adv-x="613" 
d="M320 700h-279v-700h293q87 0 141.5 26t80 72.5t25.5 107.5q0 47 -15.5 82t-43.5 59t-64 36q28 15 46.5 34.5t27.5 45.5t9 60q0 55 -25.5 94.5t-74.5 61t-121 21.5zM296 422h-109v153h116q30 0 49 -8.5t27.5 -24.5t8.5 -41t-8.5 -43t-29 -27t-54.5 -9zM326 121h-139v178
h135q33 0 55.5 -9t34 -28.5t11.5 -51.5q0 -36 -14.5 -55.5t-37 -26.5t-45.5 -7z" />
    <glyph glyph-name="Gamma" unicode="&#x393;" horiz-adv-x="472" 
d="M41 0h146v565h272v135h-418v-700z" />
    <glyph glyph-name="Deltagreek" unicode="&#x394;" horiz-adv-x="662" 
d="M643 0l-213 700h-203l-206 -700h622zM209 120l120 424l124 -424h-244z" />
    <glyph glyph-name="Epsilon" unicode="&#x395;" horiz-adv-x="495" 
d="M41 0h417v131h-271l-1 164h158l45 132h-202v138h273v135h-419v-700z" />
    <glyph glyph-name="Zeta" unicode="&#x396;" horiz-adv-x="678" 
d="M41 700v-144l385 -1l-20 -20l-378 -396v-139h611v142l-410 1l19 18l380 394v145h-587z" />
    <glyph glyph-name="Eta" unicode="&#x397;" horiz-adv-x="621" 
d="M433 426h-246v274h-146v-700h146v295h246v-295h145v700h-145v-274z" />
    <glyph glyph-name="Theta" unicode="&#x398;" horiz-adv-x="598" 
d="M140 416v-127h316v127h-316zM35 502v-311q0 -66 34 -111t94 -68t136 -23q81 0 140 24.5t91 70t32 107.5v310q0 101 -67.5 158.5t-193.5 57.5t-196 -55.5t-70 -159.5zM179 212v267q0 38 13.5 60.5t39.5 32t66 9.5q41 0 68 -10t39.5 -32t12.5 -59v-267q0 -31 -14 -51.5
t-40.5 -30.5t-64.5 -10t-64.5 9.5t-41 30t-14.5 51.5z" />
    <glyph glyph-name="Iota" unicode="&#x399;" horiz-adv-x="288" 
d="M19 574l82 -2v-572h145v700h-227v-126z" />
    <glyph glyph-name="Kappa" unicode="&#x39a;" horiz-adv-x="609" 
d="M189 448v252h-148v-700h148v229l43 51l174 -280h180l-257 400l232 300h-179z" />
    <glyph glyph-name="Lambda" unicode="&#x39b;" horiz-adv-x="666" 
d="M333 531l158 -531h155l-214 700h-199l-212 -700h155z" />
    <glyph glyph-name="Mu" unicode="&#x39c;" horiz-adv-x="760" 
d="M185 700h-151l-8 -700h146v362l150 -362h116l152 362v-362h144l-8 700h-149l-197 -467z" />
    <glyph glyph-name="Nu" unicode="&#x39d;" horiz-adv-x="701" 
d="M658 700h-146v-449l-326 449h-145v-700h145v439l322 -439h150v700z" />
    <glyph glyph-name="Xi" unicode="&#x39e;" horiz-adv-x="696" 
d="M24 611l86 -91q14 14 28.5 21.5t34.5 10.5t48 3h374l29 145h-421q-46 0 -80 -8.5t-58 -28t-41 -52.5zM515 289v132h-333v-132h333zM444 140h-353l-27 -140h420q45 0 79.5 9.5t60 30t41.5 52.5l-90 94q-11 -19 -29 -29t-43 -13.5t-59 -3.5z" />
    <glyph glyph-name="Omicron" unicode="&#x39f;" horiz-adv-x="598" 
d="M35 502v-311q0 -66 34.5 -111t94 -68t135.5 -23q82 0 140.5 24.5t90.5 70t32 107.5v310q0 101 -67.5 158.5t-193.5 57.5q-125 0 -195.5 -55.5t-70.5 -159.5zM180 212v267q0 38 13 60.5t39.5 32t65.5 9.5q42 0 68.5 -10t39.5 -32t13 -59v-267q0 -31 -14.5 -51.5t-41 -30.5
t-64.5 -10t-64.5 9.5t-40.5 30t-14 51.5z" />
    <glyph glyph-name="Pi" unicode="&#x3a0;" horiz-adv-x="624" 
d="M435 0h146v700h-540v-700h145v565h249v-565z" />
    <glyph glyph-name="Rho" unicode="&#x3a1;" horiz-adv-x="618" 
d="M332 700h-290v-700h145v184h143q51 0 96.5 10.5t81.5 38.5t57 79.5t21 133.5q1 76 -20 126t-57 78t-82 39t-95 11zM187 317v247h125q31 0 54 -5t39.5 -18t24.5 -36t8 -60q0 -40 -8 -65t-24 -39t-39.5 -19t-54.5 -5h-125z" />
    <glyph glyph-name="Sigma" unicode="&#x3a3;" horiz-adv-x="648" 
d="M428 131h-165l160 251l-127 188h240l48 131h-538l212 -321l-232 -380h406q74 0 122.5 26.5t71.5 80.5l-109 64q-7 -17 -17.5 -25.5t-28 -11.5t-43.5 -3z" />
    <glyph glyph-name="Tau" unicode="&#x3a4;" horiz-adv-x="533" 
d="M335 564h180v136h-502v-136h177v-564h145v564z" />
    <glyph glyph-name="Upsilon" unicode="&#x3a5;" horiz-adv-x="629" 
d="M588 157v543h-146v-283q0 -18 -10 -33.5t-28 -26.5t-41 -17.5t-48 -6.5q-49 0 -79 11t-44 32.5t-14 53.5v270h-147v-290q0 -66 32.5 -112.5t89.5 -71t128 -24.5q31 0 61 3.5t56.5 12t47.5 20.5l-1 -68q0 -21 -9.5 -35t-25.5 -23t-35.5 -13.5t-39.5 -5.5l44 -112
q112 8 160.5 52.5t48.5 123.5z" />
    <glyph glyph-name="Phi" unicode="&#x3a6;" horiz-adv-x="766" 
d="M236 627l-71 80q-68 -23 -99.5 -68.5t-31.5 -120.5v-291q0 -44 10 -83t34 -68.5t68 -46t112 -16.5h50v-35l146 -13v48h55q84 0 132.5 26t69 74.5t20.5 113.5v283q0 62 -27.5 107.5t-79 70t-122.5 24.5q-56 0 -93.5 -15.5t-59.5 -40t-31.5 -51t-9.5 -48.5v-424h-58
q-28 0 -43.5 9.5t-21.5 26.5t-6 37v307q0 39 7.5 60.5t21 33t28.5 20.5zM515 133h-61v399q0 14 5.5 26t18 19t31.5 7q30 0 46.5 -11.5t23.5 -31.5t7 -47v-288q0 -20 -6 -36.5t-22 -26.5t-43 -10z" />
    <glyph glyph-name="Chi" unicode="&#x3a7;" horiz-adv-x="743" 
d="M371 483l-152 217h-180l242 -338l-256 -362h177l169 237l169 -237h179l-258 362l241 338h-178z" />
    <glyph glyph-name="Psi" unicode="&#x3a8;" horiz-adv-x="766" 
d="M178 405v295h-145v-300q0 -60 23.5 -105.5t72.5 -70.5t125 -25h53v-199h146v199h57q81 0 129.5 25t70 70.5t21.5 105.5v153q0 51 -9 82.5t-22 49.5t-24 26l-127 -37q2 -1 7.5 -8t12.5 -20.5t12.5 -33.5t5.5 -47v-158q0 -31 -7.5 -50.5t-23 -28t-39.5 -8.5h-64v380h-146
v-380h-60q-24 0 -39.5 8t-22.5 27t-7 50z" />
    <glyph glyph-name="Omegagreek" unicode="&#x3a9;" horiz-adv-x="706" 
d="M659 262v248q0 92 -56.5 144.5t-173.5 52.5h-149q-118 0 -175 -52.5t-57 -144.5v-248q0 -20 4 -48.5t17.5 -51.5t41.5 -30h-58l-21 -132h288v131q-31 0 -55 6t-40 18t-24 30.5t-8 43.5v251q0 50 21 71.5t68 21.5h147q28 0 47 -9.5t28.5 -29.5t9.5 -54v-251
q0 -25 -8.5 -43.5t-25.5 -30.5t-41 -18t-55 -6v-131h290l-19 132h-58q25 10 38.5 26t18.5 41.5t5 62.5z" />
    <glyph glyph-name="Iotadieresis" unicode="&#x3aa;" horiz-adv-x="288" 
d="M87 889q-28 0 -48.5 -20.5t-20.5 -48.5t20.5 -48.5t48.5 -20.5q30 0 50 20.5t20 48.5t-20 48.5t-50 20.5zM256 888q-29 0 -49 -20t-20 -48t20 -48.5t49 -20.5t49 20.5t20 48.5t-20 48t-49 20zM19 574l82 -2v-572h145v700h-227v-126z" />
    <glyph glyph-name="Upsilondieresis" unicode="&#x3ab;" horiz-adv-x="629" 
d="M224 887q-28 0 -48.5 -20.5t-20.5 -48.5t20.5 -48.5t48.5 -20.5q30 0 50 20.5t20 48.5t-20 48.5t-50 20.5zM393 886q-29 0 -49 -20t-20 -48t20 -48.5t49 -20.5t49 20.5t20 48.5t-20 48t-49 20zM588 157v543h-146v-283q0 -18 -10 -33.5t-28 -26.5t-41 -17.5t-48 -6.5
q-49 0 -79 11t-44 32.5t-14 53.5v270h-147v-290q0 -66 32.5 -112.5t89.5 -71t128 -24.5q31 0 61 3.5t56.5 12t47.5 20.5l-1 -68q0 -21 -9.5 -35t-25.5 -23t-35.5 -13.5t-39.5 -5.5l44 -112q112 8 160.5 52.5t48.5 123.5z" />
    <glyph glyph-name="alphatonos" unicode="&#x3ac;" horiz-adv-x="541" 
d="M510 487l-129 27q-5 -8 -8 -16l-3 -8q-8 3 -31.5 7.5t-57.5 8t-74 3.5q-37 0 -68.5 -7.5t-55.5 -25.5t-37.5 -47.5t-13.5 -73.5v-185q0 -36 10.5 -67.5t33.5 -55.5t63 -37.5t98 -13.5q29 0 64 1t71 2t65.5 2.5t47.5 2.5l18 1v385q0 17 1.5 41.5t5.5 55.5zM178 174v164
q0 16 8 24t19.5 12t25 5t24.5 1q8 0 21.5 -1t29 -3t29.5 -3.5t22 -4.5v-246q-9 0 -21 -1t-24.5 -1h-24h-20.5q-27 0 -47 4t-31 16t-11 34zM350 627q10 13 13.5 29t-1.5 31t-22 24q-17 10 -34.5 6t-29.5 -16t-17 -28l-30 -117h66z" />
    <glyph glyph-name="epsilontonos" unicode="&#x3ad;" horiz-adv-x="488" 
d="M384 381l-12 116q-36 8 -70 12t-68 3q-62 -1 -101 -18t-59 -43.5t-24 -57.5q-4 -21 1 -43t18 -41t32 -32q-37 -19 -57 -52t-20 -76t23.5 -79.5t72.5 -58.5t125 -22q39 0 75.5 4t72 11.5t68.5 18.5l-38 127q-13 -5 -31.5 -9t-40.5 -7t-45 -4.5t-46 -1.5q-24 0 -43 3.5
t-29 11.5t-10 20q0 9 3.5 15.5t11 10.5t19 6.5t26.5 2.5h100l43 119h-117q-26 0 -41 6t-21.5 15t-6.5 19q0 11 6 17.5t17.5 10t25.5 4.5q19 1 42 0t48 -3t50 -5zM326 627q10 13 13.5 29t-1.5 31t-22 24q-17 10 -34.5 6t-29.5 -16t-17 -28l-30 -117h66z" />
    <glyph glyph-name="etatonos" unicode="&#x3ae;" horiz-adv-x="544" 
d="M366 327v-518l145 -24v561q0 39 -10 67t-27.5 47t-40.5 30t-49 16t-53 5q-30 0 -58 -5t-50.5 -13t-38.5 -15v23h-145v-501h145v357q21 7 40.5 10.5t38 5.5t34.5 1q16 0 29 -3.5t21.5 -9.5t13.5 -14.5t5 -19.5zM378 627q10 13 13.5 29t-1.5 31t-22 24q-17 10 -34.5 6
t-29.5 -16t-17 -28l-30 -117h66z" />
    <glyph glyph-name="iotatonos" unicode="&#x3af;" horiz-adv-x="224" 
d="M202 627q10 13 13 29t-2 31t-21 23q-18 10 -35 6t-29.5 -16t-16.5 -28l-31 -116h67zM39 0h146v500h-146v-500z" />
    <glyph glyph-name="upsilondieresistonos" unicode="&#x3b0;" horiz-adv-x="547" 
d="M239 610q0 28 -18 45.5t-46 17.5q-26 0 -45 -17.5t-19 -45.5q0 -26 19 -44.5t45 -18.5q28 0 46 18.5t18 44.5zM436 610q0 28 -18.5 45.5t-45.5 17.5t-45.5 -17.5t-18.5 -45.5q0 -26 18.5 -44.5t45.5 -18.5t45.5 18.5t18.5 44.5zM361 723q10 12 13.5 28.5t-1.5 32.5
t-22 24q-18 9 -35 5t-29.5 -16t-16.5 -28l-31 -117h66zM510 184v317h-146v-312q0 -18 -9 -31.5t-28 -21t-50 -7.5q-33 0 -54 8t-30.5 22t-9.5 30v312h-147v-317q0 -51 25 -95t78.5 -71.5t139.5 -27.5q117 0 174 53t57 141z" />
    <glyph glyph-name="alpha" unicode="&#x3b1;" horiz-adv-x="546" 
d="M510 487l-129 27q-5 -8 -8 -16l-3 -8q-8 3 -31.5 7.5t-57.5 8t-74 3.5q-37 0 -68.5 -7.5t-55.5 -25.5t-37.5 -47.5t-13.5 -73.5v-185q0 -36 10.5 -67.5t33.5 -55.5t63 -37.5t98 -13.5q29 0 64 1t71 2t65.5 2.5t47.5 2.5l18 1v385q0 17 1.5 41.5t5.5 55.5zM178 174v164
q0 16 8 24t19.5 12t25 5t24.5 1q8 0 21.5 -1t29 -3t29.5 -3.5t22 -4.5v-246q-9 0 -21 -1t-24.5 -1h-24h-20.5q-27 0 -47 4t-31 16t-11 34z" />
    <glyph glyph-name="beta" unicode="&#x3b2;" horiz-adv-x="539" 
d="M40 525v-717l147 -25v216q12 -2 30 -3.5t37.5 -3t37.5 -2.5t29 -1q42 0 76.5 8.5t60 26.5t39.5 48.5t14 74.5l1 132q0 41 -16.5 67t-43 39.5t-57.5 13.5h-24q35 17 55 39.5t28 49t8 54.5q0 51 -24 87t-69.5 55.5t-107.5 19.5q-77 0 -126 -23.5t-72 -64.5t-23 -91z
M187 521q0 15 8.5 25.5t24 16.5t37.5 6q17 0 31 -4t23 -13.5t9 -24.5t-6 -28t-17 -24t-28 -20.5t-38 -17.5l-44 -15v99zM187 133v162l32 4q11 1 25.5 1.5t29.5 1.5t27 1q16 0 28 -2.5t20 -7.5t12 -13.5t4 -21.5v-69q0 -15 -3.5 -26t-13 -18.5t-28 -11t-49.5 -4.5
q-7 0 -18 0.5t-22.5 1.5t-21.5 1.5t-16 0.5h-6z" />
    <glyph glyph-name="gamma" unicode="&#x3b3;" horiz-adv-x="628" 
d="M601 439l-62 89q-56 -7 -90 -25.5t-54 -53.5t-35 -91l-59 -208l-8 0.5t-19 3.5t-21 13t-15 30l-60 304h-156l84 -348q12 -49 36 -78.5t56.5 -43.5t70.5 -18l-13 -41q-5 -17 -19.5 -26t-35 -13t-43.5 -5.5t-45 -1.5l34 -129q66 -1 112 11t76 34.5t47.5 54t26.5 70.5
l104 378q9 33 21 50.5t28.5 26.5t38.5 17z" />
    <glyph glyph-name="delta" unicode="&#x3b4;" horiz-adv-x="536" 
d="M286 555h143l24 147h-187q-44 0 -83 -13.5t-63 -41t-24 -69.5q0 -32 13 -55t34 -44l19 -17q-46 -9 -75.5 -32t-43.5 -55.5t-14 -71.5v-121q0 -96 60 -144.5t176 -48.5q72 0 125.5 21.5t83 64t29.5 107.5v98q0 28 -6 50.5t-17.5 41.5t-27.5 33q-26 25 -54 44t-57.5 37
t-61.5 38q-4 3 -7 5.5t-4.5 5t-1.5 5.5q0 5 3 8.5t7.5 5t9.5 1.5zM356 274v-85q0 -18 -8.5 -31.5t-29 -20.5t-54.5 -7q-32 0 -51.5 7t-28 20.5t-8.5 31.5v96q0 17 5.5 31t17 24t31.5 16.5t49 9.5l29 -17q20 -14 30 -26t14 -23.5t4 -25.5z" />
    <glyph glyph-name="epsilon" unicode="&#x3b5;" horiz-adv-x="488" 
d="M384 381l-12 116q-36 8 -70 12t-68 3q-62 -1 -101 -18t-59 -43.5t-24 -57.5q-4 -21 1 -43t18 -41t32 -32q-37 -19 -57 -52t-20 -76t23.5 -79.5t72.5 -58.5t125 -22q39 0 75.5 4t72 11.5t68.5 18.5l-38 127q-13 -5 -31.5 -9t-40.5 -7t-45 -4.5t-46 -1.5q-24 0 -43 3.5
t-29 11.5t-10 20q0 9 3.5 15.5t11 10.5t19 6.5t26.5 2.5h100l43 119h-117q-26 0 -41 6t-21.5 15t-6.5 19q0 11 6 17.5t17.5 10t25.5 4.5q19 1 42 0t48 -3t50 -5z" />
    <glyph glyph-name="zeta" unicode="&#x3b6;" horiz-adv-x="547" 
d="M512 562l-51 139h-346v-145h157q-21 -17 -41.5 -34.5t-37 -33t-27.5 -27.5q-31 -32 -56.5 -65t-43.5 -67t-28 -69t-10 -71q0 -43 17 -78.5t49 -60.5q29 -22 69.5 -35t89 -17.5t99.5 -3.5v-185l145 -25v342q-41 0 -82 -0.5t-78 0t-67.5 5.5t-50.5 15q-21 11 -29 26.5
t-8 32.5q0 31 14.5 61.5t37.5 60.5t49.5 57t50.5 48q18 17 40 34.5t46 35.5t48 33.5t44 26.5z" />
    <glyph glyph-name="eta" unicode="&#x3b7;" horiz-adv-x="549" 
d="M366 327v-518l145 -24v561q0 39 -10 67t-27.5 47t-40.5 30t-49 16t-53 5q-30 0 -58 -5t-50.5 -13t-38.5 -15v23h-145v-501h145v357q21 7 40.5 10.5t38 5.5t34.5 1q16 0 29 -3.5t21.5 -9.5t13.5 -14.5t5 -19.5z" />
    <glyph glyph-name="theta" unicode="&#x3b8;" horiz-adv-x="547" 
d="M266 710q-64 0 -113.5 -21t-77 -57.5t-27.5 -83.5q0 -24 3.5 -44.5t13 -40t26.5 -42.5q-14 -10 -27.5 -26t-21.5 -42t-8 -65v-100q0 -94 60.5 -147t178.5 -53q121 0 179 52.5t58 147.5v321q0 95 -61.5 148t-182.5 53zM364 508v-71q-27 3 -49 7t-39 10t-30 12
q-17 9 -28 17.5t-16.5 17t-7.5 15.5t-2 13q0 13 8 22.5t25.5 15t46.5 5.5q31 0 51 -7.5t30.5 -21.5t10.5 -35zM271 130q-32 0 -52 8.5t-29.5 22.5t-9.5 30v105q0 20 4.5 30.5t15.5 16.5q25 -11 54 -18t58 -10t52 -5v-119q0 -17 -9.5 -30.5t-30 -22t-53.5 -8.5z" />
    <glyph glyph-name="iota" unicode="&#x3b9;" horiz-adv-x="224" 
d="M39 0h146v500h-146v-500z" />
    <glyph glyph-name="kappa" unicode="&#x3ba;" horiz-adv-x="609" 
d="M453 175l-111 117l236 208h-200l-192 -165v165l-146 12v-512h146v152l50 41l90 -94q24 -27 51.5 -49.5t63 -36t83.5 -13.5h55v123h-4q-21 0 -42 3.5t-40.5 14.5t-39.5 34z" />
    <glyph glyph-name="lambda" unicode="&#x3bb;" horiz-adv-x="668" 
d="M549 154l-150 397q-12 32 -31.5 59.5t-49 48t-72 32t-100.5 11.5l-44 -123q38 0 69.5 -4t54 -16t31.5 -35l17 -50q-26 -8 -47.5 -22.5t-39.5 -40t-35 -69.5l-127 -343h159l99 298q6 14 16 20.5t18.5 8.5l8.5 2l65 -176q20 -56 41.5 -91t53 -54t79.5 -29l86 79
q-22 8 -40.5 17t-33.5 27.5t-28 52.5z" />
    <glyph glyph-name="mugreek" unicode="&#x3bc;" horiz-adv-x="466" 
d="M512 151v360l-146 -13v-319q0 -14 -9.5 -25t-29 -17.5t-50.5 -7.5q-23 -1 -44 4.5t-34.5 16t-13.5 25.5v326h-145v-693l145 -24l-4 235q7 -6 20 -11.5t29.5 -9.5t33 -6t30.5 -2q25 0 48.5 5t41 12.5t23.5 15.5q7 -7 19.5 -12.5t27 -9.5t25.5 -5l70 82q-1 2 -10.5 8.5
t-18 22.5t-8.5 42z" />
    <glyph glyph-name="nu" unicode="&#x3bd;" horiz-adv-x="560" 
d="M20 501l182 -501h152l180 501h-149l-105 -330l-109 330h-151z" />
    <glyph glyph-name="xi" unicode="&#x3be;" horiz-adv-x="537" 
d="M459 555l36 147h-207q-54 0 -96.5 -18t-66.5 -52.5t-24 -84.5q0 -20 6.5 -44.5t24.5 -48t54 -44.5h-17q-30 0 -55.5 -9t-44.5 -27.5t-29.5 -46.5t-10.5 -66v-105q0 -49 16 -81t43.5 -50.5t63 -26.5t74.5 -8q21 0 43 0.5t43.5 1t38.5 1.5v-185l146 -25v349
q-27 -1 -57 -1.5t-61 -1t-61 -1t-57 -0.5q-25 0 -41.5 4.5t-26 12.5t-13.5 19.5t-4 25.5v54q0 14 4 22.5t11.5 14.5t18.5 8.5t24 2.5h203l35 130l-89 11q-28 6 -51.5 14.5t-40.5 19t-26.5 23.5t-9.5 26q0 16 11 27.5t36 11.5h157z" />
    <glyph glyph-name="omicron" unicode="&#x3bf;" horiz-adv-x="536" 
d="M504 183v137q0 93 -60.5 142.5t-172.5 49.5q-78 0 -131.5 -22t-81 -64.5t-27.5 -105.5v-137q0 -57 24.5 -100.5t77 -68t137.5 -24.5q116 0 175 51.5t59 141.5zM358 314v-126q0 -17 -8 -30t-26.5 -20t-53.5 -7t-56 7.5t-29.5 20.5t-8.5 29v126q0 19 10 31.5t31 19t53 6.5
t51.5 -6.5t28 -19.5t8.5 -31z" />
    <glyph glyph-name="pi" unicode="&#x3c0;" horiz-adv-x="571" 
d="M517 126v375h-478v-501h145v359h188v-247q0 -39 14.5 -64t33 -39t32 -20t12.5 -6l88 85q-15 8 -25 21t-10 37z" />
    <glyph glyph-name="rho" unicode="&#x3c1;" horiz-adv-x="542" 
d="M509 168v147q0 92 -60 142.5t-172 50.5q-119 0 -180 -47.5t-61 -145.5v-508l146 -24v219q13 -4 27.5 -7.5t30.5 -6t33 -4t34 -1.5q60 0 105.5 20.5t71 61.5t25.5 103zM364 308v-131q0 -18 -9 -30.5t-26.5 -19t-43.5 -6.5q-15 0 -33 2t-34 6.5t-26 12t-10 18.5v150
q0 19 10.5 30.5t31 17t48.5 5.5q29 0 50 -6t31.5 -18.5t10.5 -30.5z" />
    <glyph glyph-name="sigma1" unicode="&#x3c2;" horiz-adv-x="439" 
d="M172 235v76q0 9 4 18.5t13 17t25 12t39 4.5q21 0 40 -2t35.5 -6t28.5 -8l40 124q-21 12 -46 20t-51 12t-52 4q-58 0 -100 -13t-68.5 -36.5t-39.5 -53.5t-13 -64v-116q0 -30 9.5 -54t24.5 -42.5t31 -32t30 -23.5l66 -44q14 -9 23 -18.5t13.5 -19.5t4.5 -23q0 -10 -4.5 -19
t-11.5 -17t-14 -14l96 -65q21 17 38.5 38t28 45t10.5 51q0 33 -12.5 57.5t-30.5 42t-35 30.5l-55 38q-16 13 -31.5 23.5t-25.5 24.5t-10 33z" />
    <glyph glyph-name="sigma" unicode="&#x3c3;" horiz-adv-x="591" 
d="M591 439l-65 105q-20 -18 -48.5 -28.5t-54.5 -11.5q-26 0 -52 2t-51.5 4t-51.5 2q-43 0 -85.5 -8t-77 -29t-55.5 -57.5t-21 -93.5v-140q0 -55 25 -99t78.5 -69.5t137.5 -25.5q117 0 175 51.5t58 142.5v98q0 31 -7.5 55t-23.5 40q20 2 40.5 9t40.5 20t38 33zM357 316v-132
q0 -15 -8.5 -27.5t-28 -19t-53.5 -6.5q-33 0 -53.5 7t-30 19t-9.5 27v135q0 17 8 28t21.5 17.5t31 9t37.5 2.5q8 0 18 -0.5t21 -1t19 -1.5q7 -4 11.5 -9t7.5 -10.5t4.5 -12t2.5 -13t1 -12.5z" />
    <glyph glyph-name="tau" unicode="&#x3c4;" horiz-adv-x="462" 
d="M301 182v188h127v131h-399v-131h126v-215q0 -29 8.5 -58t28 -53t53.5 -40t85 -20l52 121q-27 4 -45 12.5t-27 24.5t-9 40z" />
    <glyph glyph-name="upsilon" unicode="&#x3c5;" horiz-adv-x="547" 
d="M510 184v317h-146v-312q0 -18 -9 -31.5t-28 -21t-50 -7.5q-33 0 -54 8t-30.5 22t-9.5 30v312h-147v-317q0 -51 25 -95t78.5 -71.5t139.5 -27.5q117 0 174 53t57 141z" />
    <glyph glyph-name="phi" unicode="&#x3c6;" horiz-adv-x="760" 
d="M32 314v-124q0 -61 24 -105t73 -68t123 -24h56v-185l145 -25v210h58q76 0 123.5 24t70 68t22.5 105v121q0 58 -27.5 102t-79.5 69.5t-127 25.5q-53 0 -95 -16.5t-66 -47t-24 -73.5v-237h-64q-17 0 -32.5 5t-25 16.5t-9.5 30.5v140q0 22 6 39.5t18.5 29.5t32.5 18l-75 91
q-63 -22 -95 -67.5t-32 -122.5zM516 134h-63v208q0 14 9.5 22t22.5 11t24 3q18 0 31.5 -5.5t23.5 -14.5t15 -20.5t5 -23.5v-128q0 -16 -8.5 -28t-24 -18t-35.5 -6z" />
    <glyph glyph-name="chi" unicode="&#x3c7;" horiz-adv-x="704" 
d="M558 -18l-125 201l225 318h-175l-134 -187l-124 187h-171l208 -316l-235 -337l136 -56l182 262l104 -162q20 -32 44.5 -55.5t55.5 -36.5t72 -13l56 109q-27 0 -47.5 11t-38 30.5t-33.5 44.5z" />
    <glyph glyph-name="psi" unicode="&#x3c8;" horiz-adv-x="762" 
d="M698 507l-138 -28q15 -19 19.5 -38.5t4.5 -54.5v-191q0 -21 -9 -34.5t-25 -19.5t-37 -6h-57v366h-145v-366h-64q-23 0 -38.5 6.5t-23 20t-7.5 33.5v306h-145v-313q0 -91 54 -143t168 -52h56v-184l145 -26v210h50q79 0 128 24t72 68t23 105v198q0 39 -5.5 67t-25.5 52z
" />
    <glyph glyph-name="omega" unicode="&#x3c9;" horiz-adv-x="767" 
d="M595 500l-73 -93q21 -6 36.5 -16.5t24 -28.5t8.5 -45v-133q0 -20 -9 -31.5t-23.5 -16.5t-31.5 -5q-19 0 -35 4t-25.5 16t-9.5 33v113h-145v-113q0 -21 -10 -33t-25.5 -16t-34.5 -4q-18 0 -33 5t-23 16.5t-8 31.5v133q0 27 8 45t23.5 28.5t35.5 16.5l-69 93
q-69 -20 -106.5 -65t-37.5 -119v-129q0 -69 24 -113t69.5 -65.5t107.5 -21.5q31 0 59 6t52.5 18.5t42.5 30.5q16 -18 40 -30.5t52.5 -18.5t58.5 -6q97 0 148 49.5t51 150.5v129q0 74 -36 118.5t-106 65.5z" />
    <glyph glyph-name="iotadieresis" unicode="&#x3ca;" horiz-adv-x="224" 
d="M29 694q-28 0 -48.5 -20.5t-20.5 -48.5t20.5 -48.5t48.5 -20.5q30 0 50 20.5t20 48.5t-20 48.5t-50 20.5zM198 693q-29 0 -49 -20t-20 -48t20 -48.5t49 -20.5t49 20.5t20 48.5t-20 48t-49 20zM39 0h146v500h-146v-500z" />
    <glyph glyph-name="upsilondieresis" unicode="&#x3cb;" horiz-adv-x="547" 
d="M189 694q-28 0 -48.5 -20.5t-20.5 -48.5t20.5 -48.5t48.5 -20.5q30 0 50 20.5t20 48.5t-20 48.5t-50 20.5zM358 693q-29 0 -49 -20t-20 -48t20 -48.5t49 -20.5t49 20.5t20 48.5t-20 48t-49 20zM510 184v317h-146v-312q0 -18 -9 -31.5t-28 -21t-50 -7.5q-33 0 -54 8
t-30.5 22t-9.5 30v312h-147v-317q0 -51 25 -95t78.5 -71.5t139.5 -27.5q117 0 174 53t57 141z" />
    <glyph glyph-name="omicrontonos" unicode="&#x3cc;" horiz-adv-x="536" 
d="M504 183v137q0 93 -60.5 142.5t-172.5 49.5q-78 0 -131.5 -22t-81 -64.5t-27.5 -105.5v-137q0 -57 24.5 -100.5t77 -68t137.5 -24.5q116 0 175 51.5t59 141.5zM358 314v-126q0 -17 -8 -30t-26.5 -20t-53.5 -7t-56 7.5t-29.5 20.5t-8.5 29v126q0 19 10 31.5t31 19t53 6.5
t51.5 -6.5t28 -19.5t8.5 -31zM357 627q10 13 13.5 29t-1.5 31t-22 24q-17 10 -34.5 6t-29.5 -16t-17 -28l-30 -117h66z" />
    <glyph glyph-name="upsilontonos" unicode="&#x3cd;" horiz-adv-x="547" 
d="M510 184v317h-146v-312q0 -18 -9 -31.5t-28 -21t-50 -7.5q-33 0 -54 8t-30.5 22t-9.5 30v312h-147v-317q0 -51 25 -95t78.5 -71.5t139.5 -27.5q117 0 174 53t57 141zM364 627q10 13 13.5 29t-1.5 31t-22 24q-17 10 -34.5 6t-29.5 -16t-17 -28l-30 -117h66z" />
    <glyph glyph-name="omegatonos" unicode="&#x3ce;" horiz-adv-x="767" 
d="M595 500l-73 -93q21 -6 36.5 -16.5t24 -28.5t8.5 -45v-133q0 -20 -9 -31.5t-23.5 -16.5t-31.5 -5q-19 0 -35 4t-25.5 16t-9.5 33v113h-145v-113q0 -21 -10 -33t-25.5 -16t-34.5 -4q-18 0 -33 5t-23 16.5t-8 31.5v133q0 27 8 45t23.5 28.5t35.5 16.5l-69 93
q-69 -20 -106.5 -65t-37.5 -119v-129q0 -69 24 -113t69.5 -65.5t107.5 -21.5q31 0 59 6t52.5 18.5t42.5 30.5q16 -18 40 -30.5t52.5 -18.5t58.5 -6q97 0 148 49.5t51 150.5v129q0 74 -36 118.5t-106 65.5zM474 627q10 13 13.5 29t-1.5 31t-22 24q-17 10 -34.5 6t-29.5 -16
t-17 -28l-30 -117h66z" />
    <glyph glyph-name="uni0400" unicode="&#x400;" horiz-adv-x="491" 
d="M253 866q-3 16 -16 28.5t-30.5 16.5t-35.5 -6q-17 -9 -22 -24.5t-0.5 -31.5t13.5 -28l55 -72h67zM41 0h417v131h-271l-1 164h158l45 132h-202v138h273v135h-419v-700z" />
    <glyph glyph-name="uni0401" unicode="&#x401;" horiz-adv-x="491" 
d="M164 889q-28 0 -48.5 -20.5t-20.5 -48.5t20.5 -48.5t48.5 -20.5q30 0 50 20.5t20 48.5t-20 48.5t-50 20.5zM333 888q-29 0 -49 -20t-20 -48t20 -48.5t49 -20.5t49 20.5t20 48.5t-20 48t-49 20zM41 0h417v131h-271l-1 164h158l45 132h-202v138h273v135h-419v-700z" />
    <glyph glyph-name="uni0402" unicode="&#x402;" horiz-adv-x="714" 
d="M488 510q-33 0 -62.5 -4t-53 -11t-37.5 -14v-116q16 5 38 8t42.5 4.5t33.5 1.5q24 0 41 -4t28 -11.5t16.5 -18.5t5.5 -24v-165q0 -19 -9.5 -29.5t-27 -15t-44.5 -4.5l41 -121q66 2 106.5 19.5t60 50t19.5 79.5v212q0 48 -17 80t-44.5 50t-63 25.5t-73.5 7.5zM341 564h180
v136h-502v-136h177v-564h145v564z" />
    <glyph glyph-name="uni0403" unicode="&#x403;" horiz-adv-x="468" 
d="M334 820q10 13 13.5 29t-1.5 31t-22 24q-17 10 -34.5 6t-30 -16t-16.5 -28l-30 -117h66zM41 0h146v565h272v135h-418v-700z" />
    <glyph glyph-name="uni0404" unicode="&#x404;" horiz-adv-x="516" 
d="M130 294h206l42 132h-248v-132zM427 559l31 118q-45 18 -90 26.5t-90 8.5q-70 0 -124.5 -21t-86 -65t-31.5 -112v-330q0 -66 29 -109.5t84.5 -65t134.5 -21.5q48 0 99 9.5t105 25.5l-20 128q-10 -3 -38.5 -9.5t-65.5 -11.5t-72 -5q-32 0 -57 5.5t-39.5 21.5t-14.5 48v300
q0 32 17 48t45 21.5t62 5.5q33 0 63.5 -4t58.5 -12z" />
    <glyph glyph-name="uni0405" unicode="&#x405;" horiz-adv-x="660" 
d="M515 556l33 117q-30 13 -64.5 21t-70 12t-70.5 4q-48 0 -97.5 -9.5t-91.5 -31t-67.5 -57.5t-25.5 -89q0 -42 17.5 -73t47 -54.5t67 -41.5t77 -32t76.5 -27t67 -27t47.5 -30.5t17.5 -37.5t-12 -36t-33.5 -24.5t-49 -14.5t-59.5 -5q-41 0 -82 8t-77 23t-64 36l-72 -98
q37 -33 84 -55.5t101 -34t109 -11.5q64 0 120 12t98.5 38t66.5 67.5t24 101.5q0 43 -18 75.5t-48 56.5t-67.5 42.5t-77.5 33t-78 27t-68 24.5t-48 26.5t-18 33.5q0 17 12.5 28t32 17.5t43 8.5t46.5 2q30 0 59.5 -3t58.5 -9t54 -14z" />
    <glyph glyph-name="uni0406" unicode="&#x406;" horiz-adv-x="270" 
d="M2 574l82 -2v-572h145v700h-227v-126z" />
    <glyph glyph-name="uni0407" unicode="&#x407;" horiz-adv-x="284" 
d="M87 889q-28 0 -48.5 -20.5t-20.5 -48.5t20.5 -48.5t48.5 -20.5q30 0 50 20.5t20 48.5t-20 48.5t-50 20.5zM256 888q-29 0 -49 -20t-20 -48t20 -48.5t49 -20.5t49 20.5t20 48.5t-20 48t-49 20zM19 574l82 -2v-572h145v700h-227v-126z" />
    <glyph glyph-name="uni0408" unicode="&#x408;" horiz-adv-x="314" 
d="M273 153v547h-235v-126l89 -2v-389q0 -33 -9 -55t-32.5 -33.5t-68.5 -11.5l33 -120q60 1 102.5 14.5t69 38.5t39 59.5t12.5 77.5z" />
    <glyph glyph-name="uni0409" unicode="&#x409;" horiz-adv-x="1045" 
d="M832 412h-153v288h-202q-56 0 -90 -13t-53.5 -34.5t-30.5 -47t-20 -49.5l-148 -393q-13 -34 -30 -54t-38 -31t-49 -21l87 -80q41 8 69.5 21.5t48.5 35.5t36 53.5t31 74.5l132 365q8 20 17 30t22 14t31 4h42v-576l13.5 -1t36.5 -2.5t52.5 -3.5t61 -3t61.5 -1q54 0 100 8
t81 27.5t54.5 52t19.5 80.5v107q0 38 -15.5 66.5t-41.5 46.5t-58.5 27t-66.5 9zM868 177q0 -15 -3.5 -26t-12 -18t-25 -11t-43.5 -4h-13.5t-21.5 0.5t-25 0.5t-25 0.5t-20 1.5v159h140q11 0 20 -2.5t15.5 -7.5t10 -12.5t3.5 -18.5v-62z" />
    <glyph glyph-name="uni040A" unicode="&#x40a;" horiz-adv-x="1021" 
d="M816 424h-205v277h-145v-277h-278v277h-146v-701h146v294h278v-294q1 0 19.5 -1t48 -2.5t65.5 -3.5t73.5 -3t71.5 -1q72 0 128 14t87.5 50.5t31.5 101.5v124q0 38 -14.5 66t-39 45t-56 25.5t-65.5 8.5zM845 182q0 -14 -4 -25t-14.5 -19t-29 -12t-46.5 -4h-21t-39 0.5
t-44 1.5t-36 1v168h179q12 0 22 -2.5t17.5 -7.5t11.5 -13.5t4 -20.5v-67z" />
    <glyph glyph-name="uni040B" unicode="&#x40b;" horiz-adv-x="715" 
d="M489 512q-22 0 -45 -3t-44 -8t-37.5 -11t-26.5 -12v-114q16 5 37.5 8t41.5 4.5t31 1.5q24 0 42 -3.5t29.5 -11t17 -18t5.5 -25.5v-320h146v347q0 48 -16 80.5t-44 50.5t-63 26t-74 8zM342 564h181v136h-503v-136h177v-564h145v564z" />
    <glyph glyph-name="uni040C" unicode="&#x40c;" horiz-adv-x="609" 
d="M371 837q10 13 13.5 29t-1.5 31t-22 24q-17 10 -34.5 6t-30 -16t-16.5 -28l-30 -117h66zM189 448v252h-148v-700h148v229l43 51l174 -280h180l-257 400l232 300h-179z" />
    <glyph glyph-name="uni040D" unicode="&#x40d;" horiz-adv-x="700" 
d="M350 884q-3 16 -16 28.5t-30.5 16.5t-35.5 -6q-17 -9 -22 -24.5t-0.5 -31.5t13.5 -28l55 -72h67zM41 700v-700h149l324 436v-436h144v700h-144l-327 -447v447h-146z" />
    <glyph glyph-name="uni040E" unicode="&#x40e;" horiz-adv-x="634" 
d="M446 867h-99v-5q0 -10 -8 -19t-19 -9t-19 9t-8 19v5h-100v-8q0 -33 17 -61.5t46.5 -46t63.5 -17.5q35 0 63 17.5t45.5 46t17.5 61.5v8zM471 700l-147 -292l-154 293l-160 -1l241 -454l-41 -80q-17 -35 -39.5 -53.5t-53 -28t-71.5 -19.5l56 -87q54 6 93 18t68.5 33t52 51
t43.5 72l269 548h-157z" />
    <glyph glyph-name="uni040F" unicode="&#x40f;" horiz-adv-x="626" 
d="M582 700h-146v-564h-247v564h-146v-700h197l9 -135h126l10 135h197v700z" />
    <glyph glyph-name="uni0410" unicode="&#x410;" horiz-adv-x="670" 
d="M646 0l-205 700h-214l-202 -700h157l41 150h221l42 -150h160zM260 287l74 275l73 -275h-147z" />
    <glyph glyph-name="uni0411" unicode="&#x411;" horiz-adv-x="554" 
d="M47 565h423v135h-423v-135zM355 411h-167v289h-146v-700l15.5 -1t41 -2.5t58 -3.5t67.5 -3t68 -1q50 0 92.5 7.5t74 26.5t49 51t17.5 82v108q0 39 -13 67t-36.5 45.5t-54 26t-66.5 8.5zM380 173q0 -13 -3 -23t-12 -17t-25 -10.5t-43 -3.5q-10 -1 -24.5 -0.5t-29.5 1
t-27 1t-20 1l-8 0.5v156h144q10 0 19 -2t15.5 -6.5t10 -12t3.5 -19.5v-65z" />
    <glyph glyph-name="uni0412" unicode="&#x412;" horiz-adv-x="613" 
d="M320 700h-279v-700h293q87 0 141.5 26t80 72.5t25.5 107.5q0 47 -15.5 82t-43.5 59t-64 36q28 15 46.5 34.5t27.5 45.5t9 60q0 55 -25.5 94.5t-74.5 61t-121 21.5zM296 422h-109v153h116q30 0 49 -8.5t27.5 -24.5t8.5 -41t-8.5 -43t-29 -27t-54.5 -9zM326 121h-139v178
h135q33 0 55.5 -9t34 -28.5t11.5 -51.5q0 -36 -14.5 -55.5t-37 -26.5t-45.5 -7z" />
    <glyph glyph-name="uni0413" unicode="&#x413;" horiz-adv-x="472" 
d="M41 0h146v565h272v135h-418v-700z" />
    <glyph glyph-name="uni0414" unicode="&#x414;" horiz-adv-x="775" 
d="M684 135v566h-217q-56 0 -93 -13t-59.5 -34.5t-35 -47t-21.5 -49.5l-162 -422h-83v-241h128l19 105h455l17 -105h130v241h-78zM538 135h-285l135 365q10 25 20.5 40.5t25.5 23t36 7.5h68v-436z" />
    <glyph glyph-name="uni0415" unicode="&#x415;" horiz-adv-x="495" 
d="M41 0h417v131h-271l-1 164h158l45 132h-202v138h273v135h-419v-700z" />
    <glyph glyph-name="uni0416" unicode="&#x416;" horiz-adv-x="892" 
d="M715 0h159l-153 351l138 349h-156l-110 -288h-76v288h-145v-288h-76l-108 288h-155l133 -349l-149 -351h160l117 281h78v-281h145v281h78z" />
    <glyph glyph-name="uni0417" unicode="&#x417;" horiz-adv-x="565" 
d="M113 426l45 -132h103q32 0 55.5 -6t39 -17t22.5 -25.5t7 -32.5q0 -29 -17 -50t-54 -32t-97 -11q-32 0 -63.5 4t-58 9.5t-43 9.5l-16.5 4l-21 -126l17.5 -5t46.5 -11.5t65.5 -11.5t73.5 -5q89 0 150 19t98 50.5t53.5 71t16.5 81.5q0 66 -30.5 110t-79.5 66
q25 16 41.5 36.5t24.5 47t8 59.5q0 55 -29 96t-83 63t-128 22q-30 0 -62 -4t-64 -12.5t-62 -20.5l40 -111q15 5 36 8.5t43 5.5t39 2q31 0 53.5 -4.5t37.5 -14t22.5 -23t7.5 -31.5q0 -25 -14.5 -43t-42.5 -27t-70 -9h-111z" />
    <glyph glyph-name="uni0418" unicode="&#x418;" horiz-adv-x="701" 
d="M41 700v-700h149l324 436v-436h144v700h-144l-327 -447v447h-146z" />
    <glyph glyph-name="uni0419" unicode="&#x419;" horiz-adv-x="700" 
d="M475 865h-99v-5q0 -10 -8 -19t-19 -9t-19 9t-8 19v5h-100v-8q0 -33 17 -61.5t46.5 -46t63.5 -17.5q35 0 63 17.5t45.5 46t17.5 61.5v8zM41 700v-700h149l324 436v-436h144v700h-144l-327 -447v447h-146z" />
    <glyph glyph-name="uni041A" unicode="&#x41a;" horiz-adv-x="609" 
d="M189 448v252h-148v-700h148v229l43 51l174 -280h180l-257 400l232 300h-179z" />
    <glyph glyph-name="uni041B" unicode="&#x41b;" horiz-adv-x="714" 
d="M475 700q-52 0 -87 -12t-57 -32.5t-35 -45.5t-22 -49l-151 -398q-13 -34 -27 -53.5t-31.5 -30.5t-42.5 -22l86 -80q49 17 79.5 39t51.5 57t41 90l133 355q10 25 20.5 36.5t24 15t30.5 3.5h47l1 -574h144v701h-205z" />
    <glyph glyph-name="uni041C" unicode="&#x41c;" horiz-adv-x="760" 
d="M185 700h-151l-8 -700h146v362l150 -362h116l152 362v-362h144l-8 700h-149l-197 -467z" />
    <glyph glyph-name="uni041D" unicode="&#x41d;" horiz-adv-x="621" 
d="M433 426h-246v274h-146v-700h146v295h246v-295h145v700h-145v-274z" />
    <glyph glyph-name="uni041E" unicode="&#x41e;" horiz-adv-x="598" 
d="M35 502v-311q0 -66 34.5 -111t94 -68t135.5 -23q82 0 140.5 24.5t90.5 70t32 107.5v310q0 101 -67.5 158.5t-193.5 57.5q-125 0 -195.5 -55.5t-70.5 -159.5zM180 212v267q0 38 13 60.5t39.5 32t65.5 9.5q42 0 68.5 -10t39.5 -32t13 -59v-267q0 -31 -14.5 -51.5t-41 -30.5
t-64.5 -10t-64.5 9.5t-40.5 30t-14 51.5z" />
    <glyph glyph-name="uni041F" unicode="&#x41f;" horiz-adv-x="623" 
d="M435 0h146v700h-540v-700h145v565h249v-565z" />
    <glyph glyph-name="uni0420" unicode="&#x420;" horiz-adv-x="618" 
d="M332 700h-290v-700h145v184h143q51 0 96.5 10.5t81.5 38.5t57 79.5t21 133.5q1 76 -20 126t-57 78t-82 39t-95 11zM187 317v247h125q31 0 54 -5t39.5 -18t24.5 -36t8 -60q0 -40 -8 -65t-24 -39t-39.5 -19t-54.5 -5h-125z" />
    <glyph glyph-name="uni0421" unicode="&#x421;" horiz-adv-x="517" 
d="M427 559l31 118q-45 18 -90 26.5t-90 8.5q-70 0 -124.5 -21t-86 -65t-31.5 -112v-330q0 -66 29 -109.5t84.5 -65t134.5 -21.5q48 0 99 9.5t105 25.5l-20 128q-10 -3 -38.5 -9.5t-65.5 -11.5t-72 -5q-32 0 -57 5.5t-39.5 21.5t-14.5 48v300q0 32 17 48t45 21.5t62 5.5
q33 0 63.5 -4t58.5 -12z" />
    <glyph glyph-name="uni0422" unicode="&#x422;" horiz-adv-x="529" 
d="M335 564h180v136h-502v-136h177v-564h145v564z" />
    <glyph glyph-name="uni0423" unicode="&#x423;" horiz-adv-x="639" 
d="M471 700l-147 -292l-154 293l-160 -1l241 -454l-41 -80q-17 -35 -39.5 -53.5t-53 -28t-71.5 -19.5l56 -87q54 6 93 18t68.5 33t52 51t43.5 72l269 548h-157z" />
    <glyph glyph-name="uni0424" unicode="&#x424;" horiz-adv-x="764" 
d="M235 627l-71 80q-68 -23 -99.5 -68.5t-31.5 -120.5v-291q0 -44 10 -83t34 -68.5t68 -46t112 -16.5h50v-35l146 -13v48h55q84 0 132.5 26t69 74.5t20.5 113.5v283q0 62 -27.5 107.5t-79 70t-122.5 24.5q-56 0 -93.5 -15.5t-59.5 -40t-31.5 -51t-9.5 -48.5v-424h-58
q-28 0 -43.5 9.5t-21.5 26.5t-6 37v307q0 39 7.5 60.5t21 33t28.5 20.5zM514 133h-61v399q0 14 5.5 26t18 19t31.5 7q30 0 46.5 -11.5t23.5 -31.5t7 -47v-288q0 -20 -6 -36.5t-22 -26.5t-43 -10z" />
    <glyph glyph-name="uni0425" unicode="&#x425;" horiz-adv-x="742" 
d="M371 483l-152 217h-180l242 -338l-256 -362h177l169 237l169 -237h179l-258 362l241 338h-178z" />
    <glyph glyph-name="uni0426" unicode="&#x426;" horiz-adv-x="726" 
d="M579 135v565h-145v-565h-248v565h-146v-700h515l19 -125h128v260h-123z" />
    <glyph glyph-name="uni0427" unicode="&#x427;" horiz-adv-x="600" 
d="M578 700h-145v-272q0 -16 -10 -30t-27.5 -24.5t-40.5 -16.5t-48 -6q-48 0 -79 9.5t-45 28.5t-14 48v263h-146v-281q0 -66 30.5 -109.5t84.5 -65.5t123 -22q31 0 59.5 2.5t56 9t56.5 19.5v-253h145v700z" />
    <glyph glyph-name="uni0428" unicode="&#x428;" horiz-adv-x="803" 
d="M616 700v-565h-140v565h-146v-565h-140v565h-146v-700h718v700h-146z" />
    <glyph glyph-name="uni0429" unicode="&#x429;" horiz-adv-x="877" 
d="M695 129v-129h14l19 -125h127v254h-160zM616 700v-565h-140v565h-146v-565h-140v565h-146v-700h718v700h-146z" />
    <glyph glyph-name="uni042A" unicode="&#x42a;" horiz-adv-x="666" 
d="M1 700v-122l160 -2h82v124h-242zM470 411h-167v289h-147v-700l15.5 -1t41 -2.5t58 -3.5t67.5 -3t68 -1q50 0 92.5 7.5t74 26.5t49 51t17.5 82v108q0 39 -13 67t-36 45.5t-54 26t-66 8.5zM494 173q0 -13 -3 -23t-12 -17t-25 -10.5t-43 -3.5q-11 -1 -25 -0.5t-29 1t-27 1
t-20 1t-7 0.5v156h143q10 0 19 -2t15.5 -6.5t10 -12t3.5 -19.5v-65z" />
    <glyph glyph-name="uni042B" unicode="&#x42b;" horiz-adv-x="785" 
d="M515 574l82 -2v-572h145v700h-227v-126zM355 411h-167v289h-146v-700l15.5 -1t41 -2.5t58 -3.5t67.5 -3t68 -1q50 0 92.5 7.5t74 26.5t49 51t17.5 82v108q0 39 -13 67t-36.5 45.5t-54 26t-66.5 8.5zM380 173q0 -13 -3 -23t-12 -17t-25 -10.5t-43 -3.5q-10 -1 -24.5 -0.5
t-29.5 1t-27 1t-20 1l-8 0.5v156h144q10 0 19 -2t15.5 -6.5t10 -12t3.5 -19.5v-65z" />
    <glyph glyph-name="uni042C" unicode="&#x42c;" horiz-adv-x="552" 
d="M355 411h-167v289h-146v-700l15.5 -1t41 -2.5t58 -3.5t67.5 -3t68 -1q50 0 92.5 7.5t74 26.5t49 51t17.5 82v108q0 39 -13 67t-36.5 45.5t-54 26t-66.5 8.5zM380 173q0 -13 -3 -23t-12 -17t-25 -10.5t-43 -3.5q-10 -1 -24.5 -0.5t-29.5 1t-27 1t-20 1l-8 0.5v156h144
q10 0 19 -2t15.5 -6.5t10 -12t3.5 -19.5v-65z" />
    <glyph glyph-name="uni042D" unicode="&#x42d;" horiz-adv-x="517" 
d="M98 560q27 7 56 10.5t60 3.5q21 0 43.5 -2.5t42 -10t31.5 -23t12 -41.5v-71h-180l40 -132h140v-89q0 -26 -9.5 -42t-25.5 -24t-36.5 -11t-42.5 -3q-36 0 -71.5 4.5t-63 10.5t-38.5 10l-19 -127q54 -16 105 -25.5t101 -9.5q49 0 93.5 10.5t78.5 33.5t53.5 60.5t19.5 91.5
v329q0 52 -19 90t-52.5 62t-77 35.5t-91.5 11.5q-46 0 -91 -8.5t-90 -26.5z" />
    <glyph glyph-name="uni042E" unicode="&#x42e;" horiz-adv-x="872" 
d="M372 416h-248v-126h248v126zM310 502v-311q0 -66 34 -111t94 -68t136 -23q81 0 140 24.5t91 70t32 107.5v310q0 101 -68 158.5t-193 57.5q-126 0 -196 -55.5t-70 -159.5zM454 212v267q0 38 13.5 60.5t39.5 32t66 9.5q41 0 67.5 -10t39.5 -32t13 -59v-267q0 -31 -14 -51.5
t-41 -30.5t-64 -10q-38 0 -65 9.5t-41 30t-14 51.5zM-29 574l82 -2v-572h145v700h-227v-126z" />
    <glyph glyph-name="uni042F" unicode="&#x42f;" horiz-adv-x="624" 
d="M308 700q-49 0 -96 -10.5t-84.5 -37.5t-59 -77t-21.5 -129q0 -57 12.5 -100t34 -72t48.5 -47l-100 -227h164l75 186q6 0 17.5 -0.5t22 -0.5h15.5h112v-185h145v700h-285zM312 317q-27 0 -48 5t-36 18.5t-23 39t-8 66.5q0 36 8 59t24 35.5t39.5 17.5t53.5 5h126v-246h-136
z" />
    <glyph glyph-name="uni0430" unicode="&#x430;" horiz-adv-x="546" 
d="M510 487l-129 27q-5 -8 -8 -16l-3 -8q-8 3 -31.5 7.5t-57.5 8t-74 3.5q-37 0 -68.5 -7.5t-55.5 -25.5t-37.5 -47.5t-13.5 -73.5v-185q0 -36 10.5 -67.5t33.5 -55.5t63 -37.5t98 -13.5q29 0 64 1t71 2t65.5 2.5t47.5 2.5l18 1v385q0 17 1.5 41.5t5.5 55.5zM178 174v164
q0 16 8 24t19.5 12t25 5t24.5 1q8 0 21.5 -1t29 -3t29.5 -3.5t22 -4.5v-246q-9 0 -21 -1t-24.5 -1h-24h-20.5q-27 0 -47 4t-31 16t-11 34z" />
    <glyph glyph-name="uni0431" unicode="&#x431;" horiz-adv-x="531" 
d="M308 510q-30 0 -54 -4t-44 -10t-38 -13v9q0 22 10.5 38t32.5 30q23 16 50 24.5t59 13.5l-29 103q-69 -7 -119.5 -27.5t-81.5 -49.5q-36 -31 -51.5 -69t-15.5 -75v-297q0 -65 27 -108t80.5 -64.5t133.5 -21.5q112 0 172.5 50.5t60.5 143.5v143q0 63 -24.5 103.5t-68 60.5
t-100.5 20zM264 378q30 0 50 -5.5t31 -17.5t11 -30v-146q0 -19 -11 -31.5t-31.5 -19t-50.5 -6.5q-29 0 -49 6.5t-31 19t-11 31.5v152q0 13 8.5 22.5t22.5 14.5t30 7.5t31 2.5z" />
    <glyph glyph-name="uni0432" unicode="&#x432;" horiz-adv-x="557" 
d="M461 273q24 17 35.5 43.5t11.5 54.5q0 39 -16 66t-45 43.5t-68.5 24t-86.5 7.5q-56 0 -103 -1.5t-81.5 -4t-53.5 -4l-19 -1.5v-501l19 -1t50 -2.5t67 -3.5t70 -3t58 -1q79 0 129.5 21t75 57.5t24.5 82.5q0 42 -17.5 73.5t-49.5 49.5zM313 388q8 0 16 -2t15 -6.5t11 -11
t4 -15.5t-6 -18.5t-20 -15.5t-38 -6h-114v74q12 0 28 0.5t34 0.5h36h34zM318 126h-23.5h-39.5t-42 0.5t-32 0.5v69h145q11 0 20.5 -2t16 -6.5t10.5 -11t4 -14.5q0 -13 -8.5 -21t-22 -11.5t-28.5 -3.5z" />
    <glyph glyph-name="uni0433" unicode="&#x433;" horiz-adv-x="387" 
d="M33 500v-500h146v365h198v135h-344z" />
    <glyph glyph-name="uni0434" unicode="&#x434;" horiz-adv-x="695" 
d="M614 135v366h-231q-56 0 -91.5 -14t-57 -37t-34 -49.5t-21.5 -50.5l-79 -215h-90v-261h128l18 125h381l17 -125h130v261h-70zM253 135l69 192q5 15 12 24t16 14t20 6.5t24 1.5h75v-238h-216z" />
    <glyph glyph-name="uni0435" unicode="&#x435;" horiz-adv-x="524" 
d="M178 157v18l322 12v159q0 56 -28.5 92.5t-79.5 54.5t-119 18t-122.5 -18.5t-86 -55.5t-31.5 -94v-210q0 -38 16 -66t45 -45.5t68 -26t86 -8.5q60 0 117.5 13t102.5 35l-42 114q-37 -14 -78 -23t-83 -10q-25 0 -41.5 2t-26.5 7t-14.5 13t-4.5 19zM355 326v-25l-177 -7v33
q0 18 7 30.5t27 19.5t57 8q35 1 53.5 -7.5t25.5 -22t7 -29.5z" />
    <glyph glyph-name="uni0436" unicode="&#x436;" horiz-adv-x="698" 
d="M684 500h-157l-50 -189h-53v189h-145v-189h-51l-48 189h-160l86 -252l-90 -248h160l52 187h51v-187h145v187h52l53 -187h153l-84 249z" />
    <glyph glyph-name="uni0437" unicode="&#x437;" horiz-adv-x="490" 
d="M100 381q24 3 49 5t48 3t42 0q11 -1 19.5 -3t15.5 -5.5t10.5 -9.5t3.5 -14q0 -10 -6.5 -19t-21.5 -15t-41 -6h-117l43 -119h99q16 0 27.5 -2.5t19 -6.5t11 -10.5t3.5 -15.5q0 -12 -10.5 -20t-28.5 -12t-44 -4q-29 0 -60 3t-57.5 8.5t-43.5 12.5l-39 -128q50 -16 103 -25
t111 -9q76 0 125.5 21.5t73.5 58t24 80.5q0 43 -19.5 76t-57.5 52q19 13 32 32t18 41t1 43q-5 31 -24.5 57.5t-58 43.5t-101.5 18q-33 1 -67.5 -3t-70.5 -12z" />
    <glyph glyph-name="uni0438" unicode="&#x438;" horiz-adv-x="560" 
d="M184 500h-145v-501h145l192 264v-264h147v501h-147l-192 -266v266z" />
    <glyph glyph-name="uni0439" unicode="&#x439;" horiz-adv-x="560" 
d="M407 681h-99v-5q0 -10 -8 -19t-19 -9t-19 9t-8 19v5h-100v-8q0 -33 17 -61.5t46.5 -46t63.5 -17.5q35 0 63 17.5t45.5 46t17.5 61.5v8zM184 500h-145v-501h145l192 264v-264h147v501h-147l-192 -266v266z" />
    <glyph glyph-name="uni043A" unicode="&#x43a;" horiz-adv-x="597" 
d="M453 175l-111 117l236 208h-200l-192 -165v165l-146 12v-512h146v152l50 41l90 -94q24 -27 51.5 -49.5t63 -36t83.5 -13.5h55v123h-4q-21 0 -42 3.5t-40.5 14.5t-39.5 34z" />
    <glyph glyph-name="uni043B" unicode="&#x43b;" horiz-adv-x="665" 
d="M396 500q-56 0 -92.5 -14t-58.5 -37t-34.5 -49t-21.5 -50l-67 -180q-12 -34 -29 -52.5t-39.5 -28.5t-54.5 -21l63 -92q55 8 94 27.5t67 55t48 91.5l62 169q8 19 17 31t23.5 17t34.5 5h69v-371h145v499h-226z" />
    <glyph glyph-name="uni043C" unicode="&#x43c;" horiz-adv-x="755" 
d="M552 500l-173 -326l-174 326h-169v-501h146v248l131 -247h130l130 247v-248h145v501h-166z" />
    <glyph glyph-name="uni043D" unicode="&#x43d;" horiz-adv-x="547" 
d="M365 326h-181v174h-147v-500h147v212h181v-212h145v500h-145v-174z" />
    <glyph glyph-name="uni043E" unicode="&#x43e;" horiz-adv-x="536" 
d="M503 183v137q0 93 -60.5 142.5t-172.5 49.5q-78 0 -131.5 -22t-81 -64.5t-27.5 -105.5v-137q0 -57 24.5 -100.5t77 -68t137.5 -24.5q116 0 175 51.5t59 141.5zM357 314v-126q0 -17 -8 -30t-26.5 -20t-53.5 -7t-56 7.5t-29.5 20.5t-8.5 29v126q0 19 10 31.5t31 19t53 6.5
t51.5 -6.5t28 -19.5t8.5 -31z" />
    <glyph glyph-name="uni043F" unicode="&#x43f;" horiz-adv-x="568" 
d="M518 126v375h-478v-501h145v359h188v-247q0 -39 14.5 -64t33 -39t32 -20t12.5 -6l88 85q-15 8 -25 21t-10 37z" />
    <glyph glyph-name="uni0440" unicode="&#x440;" horiz-adv-x="540" 
d="M509 168v147q0 92 -60 142.5t-172 50.5q-119 0 -180 -47.5t-61 -145.5v-508l146 -24v219q13 -4 27.5 -7.5t30.5 -6t33 -4t34 -1.5q60 0 105.5 20.5t71 61.5t25.5 103zM364 308v-131q0 -18 -9 -30.5t-26.5 -19t-43.5 -6.5q-15 0 -33 2t-34 6.5t-26 12t-10 18.5v150
q0 19 10.5 30.5t31 17t48.5 5.5q29 0 50 -6t31.5 -18.5t10.5 -30.5z" />
    <glyph glyph-name="uni0441" unicode="&#x441;" horiz-adv-x="463" 
d="M396 357l35 122q-38 14 -79 23t-83 10q-77 2 -130.5 -22t-80.5 -67t-27 -102v-149q0 -66 30 -105.5t84 -58t126 -20.5q42 -1 83 4t80 13l-27 129l-10 -1t-26.5 -2.5t-36 -3t-38.5 -1.5q-26 0 -47.5 4t-37.5 12.5t-24.5 22.5t-8.5 33v111q0 26 15.5 40.5t42 20.5t59.5 5
q27 -1 54 -6t47 -12z" />
    <glyph glyph-name="uni0442" unicode="&#x442;" horiz-adv-x="450" 
d="M301 182v188h127v131h-399v-131h126v-215q0 -29 8.5 -58t28 -53t53.5 -40t85 -20l52 121q-27 4 -45 12.5t-27 24.5t-9 40z" />
    <glyph glyph-name="uni0443" unicode="&#x443;" horiz-adv-x="608" 
d="M139 -209h153l296 709h-156l-129 -311l-129 311h-156l211 -499z" />
    <glyph glyph-name="uni0444" unicode="&#x444;" horiz-adv-x="746" 
d="M32 314v-124q0 -61 24 -105t73 -68t123 -24h56v-185l145 -25v210h58q76 0 123.5 24t70 68t22.5 105v121q0 58 -27.5 102t-79.5 69.5t-127 25.5q-53 0 -95 -16.5t-66 -47t-24 -73.5v-237h-64q-17 0 -32.5 5t-25 16.5t-9.5 30.5v140q0 22 6 39.5t18.5 29.5t32.5 18l-75 91
q-63 -22 -95 -67.5t-32 -122.5zM516 134h-63v208q0 14 9.5 22t22.5 11t24 3q18 0 31.5 -5.5t23.5 -14.5t15 -20.5t5 -23.5v-128q0 -16 -8.5 -28t-24 -18t-35.5 -6z" />
    <glyph glyph-name="uni0445" unicode="&#x445;" horiz-adv-x="639" 
d="M324 364l-108 137h-185l202 -253l-199 -248h185l105 132l107 -132h183l-198 249l202 252h-184z" />
    <glyph glyph-name="uni0446" unicode="&#x446;" horiz-adv-x="630" 
d="M508 500h-145v-365h-180v365h-146v-500h429l16 -125h130v260h-104v365z" />
    <glyph glyph-name="uni0447" unicode="&#x447;" horiz-adv-x="580" 
d="M363 0h146v339q0 26 12 45.5t48 25.5l-47 103q-48 0 -79 -13t-48.5 -34.5t-24.5 -46t-7 -48.5v-77q0 -12 -7.5 -23t-21 -18.5t-31.5 -12t-40 -4.5q-19 0 -34.5 3t-26.5 9t-17 15t-6 22v215h-147v-228q0 -48 17 -80t44.5 -50.5t60.5 -26.5t65 -8t60.5 4.5t50.5 11.5t33 15
v-138z" />
    <glyph glyph-name="uni0448" unicode="&#x448;" horiz-adv-x="762" 
d="M573 500v-370h-120v370h-146v-370h-118v370h-145v-500h674v500h-145z" />
    <glyph glyph-name="uni0449" unicode="&#x449;" horiz-adv-x="830" 
d="M625 130v-130h40l17 -125h128v255h-185zM573 500v-370h-120v370h-146v-370h-118v370h-145v-500h674v500h-145z" />
    <glyph glyph-name="uni044A" unicode="&#x44a;" horiz-adv-x="654" 
d="M0 500v-122l145 -2h64v124h-209zM414 332h-128v168h-146v-498l18 -1t47 -2.5t63 -3.5t65.5 -3t55.5 -1q83 0 135.5 21.5t77 61t24.5 93.5q0 60 -29.5 96t-77.5 52.5t-105 16.5zM407 126q-8 0 -23 0.5t-33 1t-35 0.5t-30 1v72h134q14 0 25 -2t18.5 -6.5t11 -11t3.5 -16.5
q0 -15 -8.5 -23t-24.5 -12t-38 -4z" />
    <glyph glyph-name="uni044B" unicode="&#x44b;" horiz-adv-x="768" 
d="M584 0h146v500h-146v-500zM314 332h-128v168h-146v-498l18 -1t47 -2.5t63 -3.5t65.5 -3t55.5 -1q83 0 135.5 21.5t77 61t24.5 93.5q0 60 -29.5 96t-77.5 52.5t-105 16.5zM307 126q-8 0 -23 0.5t-33 1t-35 0.5t-30 1v72h134q14 0 25 -2t18.5 -6.5t11 -11t3.5 -16.5
q0 -15 -8.5 -23t-24.5 -12t-38 -4z" />
    <glyph glyph-name="uni044C" unicode="&#x44c;" horiz-adv-x="552" 
d="M314 332h-128v168h-146v-498l18 -1t47 -2.5t63 -3.5t65.5 -3t55.5 -1q83 0 135.5 21.5t77 61t24.5 93.5q0 60 -29.5 96t-77.5 52.5t-105 16.5zM307 126q-8 0 -23 0.5t-33 1t-35 0.5t-30 1v72h134q14 0 25 -2t18.5 -6.5t11 -11t3.5 -16.5q0 -15 -8.5 -23t-24.5 -12t-38 -4
z" />
    <glyph glyph-name="uni044D" unicode="&#x44d;" horiz-adv-x="462" 
d="M62 370q20 7 49.5 12t56.5 6q33 1 58.5 -4.5t40.5 -18.5t15 -34v-20h-206l36 -125h170v-14q0 -22 -14.5 -35.5t-40 -19.5t-61.5 -6q-18 0 -38 1.5t-38 4.5t-28.5 4.5l-10.5 1.5l-24 -118q38 -8 79.5 -13t83.5 -4q72 2 126 20.5t84 58t30 105.5v149q0 59 -27.5 102
t-80.5 67t-131 22q-41 -1 -82 -10t-80 -23z" />
    <glyph glyph-name="uni044E" unicode="&#x44e;" horiz-adv-x="802" 
d="M110 314v-126h259v126h-259zM769 183v137q0 93 -60.5 142.5t-171.5 49.5q-78 0 -132 -22t-81.5 -64.5t-27.5 -105.5v-137q0 -57 24.5 -100.5t77.5 -68t137 -24.5q117 0 175.5 51.5t58.5 141.5zM623 314v-126q0 -17 -7.5 -30t-26.5 -20t-53 -7q-36 0 -56.5 7.5t-29 20.5
t-8.5 29v126q0 19 10 31.5t30.5 19t53.5 6.5q32 0 51 -6.5t27.5 -19.5t8.5 -31zM39 0h146v500h-146v-500z" />
    <glyph glyph-name="uni044F" unicode="&#x44f;" horiz-adv-x="563" 
d="M246 511q-71 0 -121 -20.5t-76.5 -57.5t-26.5 -86q0 -42 15.5 -70.5t37.5 -46t42 -25.5l-84 -205h161l65 183h8h8.5h7.5h96v-183h145v500l-21 1t-54.5 3t-71.5 3.5t-72.5 2.5t-58.5 1zM228 310q-11 0 -21 1.5t-17.5 5.5t-11.5 10.5t-4 15.5q0 20 18.5 27.5t44.5 8.5h24
t36 -0.5t41.5 -1t40.5 -0.5v-67h-151z" />
    <glyph glyph-name="uni0450" unicode="&#x450;" horiz-adv-x="521" 
d="M269 672q-3 16 -16 28.5t-30.5 16.5t-35.5 -6q-17 -9 -22 -24.5t-0.5 -31.5t13.5 -28l55 -72h67zM178 157v18l322 12v159q0 56 -28.5 92.5t-79.5 54.5t-119 18t-122.5 -18.5t-86 -55.5t-31.5 -94v-210q0 -38 16 -66t45 -45.5t68 -26t86 -8.5q60 0 117.5 13t102.5 35
l-42 114q-37 -14 -78 -23t-83 -10q-25 0 -41.5 2t-26.5 7t-14.5 13t-4.5 19zM355 326v-25l-177 -7v33q0 18 7 30.5t27 19.5t57 8q35 1 53.5 -7.5t25.5 -22t7 -29.5z" />
    <glyph glyph-name="uni0451" unicode="&#x451;" horiz-adv-x="521" 
d="M181 694q-28 0 -48.5 -20.5t-20.5 -48.5t20.5 -48.5t48.5 -20.5q30 0 50 20.5t20 48.5t-20 48.5t-50 20.5zM350 693q-29 0 -49 -20t-20 -48t20 -48.5t49 -20.5t49 20.5t20 48.5t-20 48t-49 20zM178 157v18l322 12v159q0 56 -28.5 92.5t-79.5 54.5t-119 18t-122.5 -18.5
t-86 -55.5t-31.5 -94v-210q0 -38 16 -66t45 -45.5t68 -26t86 -8.5q60 0 117.5 13t102.5 35l-42 114q-37 -14 -78 -23t-83 -10q-25 0 -41.5 2t-26.5 7t-14.5 13t-4.5 19zM355 326v-25l-177 -7v33q0 18 7 30.5t27 19.5t57 8q35 1 53.5 -7.5t25.5 -22t7 -29.5z" />
    <glyph glyph-name="uni0452" unicode="&#x452;" horiz-adv-x="584" 
d="M0 641v-102h372v102h-372zM345 510q-27 0 -53.5 -4.5t-49 -11t-39.5 -13.5v219h-146v-701h146v361q13 5 28 8t30 5t28.5 3t22.5 1q20 0 34.5 -3t24 -9.5t14 -15.5t4.5 -20v-359q0 -27 -14 -43t-37 -24t-51 -11l36 -109q66 0 113 22.5t72.5 61.5t25.5 90v388
q0 48 -16.5 80t-43.5 50.5t-60.5 26.5t-68.5 8z" />
    <glyph glyph-name="uni0453" unicode="&#x453;" horiz-adv-x="387" 
d="M290 626q10 13 13.5 29t-1.5 31t-22 24q-17 10 -34.5 6t-30 -16t-16.5 -28l-30 -117h66zM33 500v-500h146v365h198v135h-344z" />
    <glyph glyph-name="uni0454" unicode="&#x454;" horiz-adv-x="465" 
d="M348 189l32 121h-202v18q0 21 15.5 33.5t42 17t59.5 3.5q27 -1 54.5 -6.5t47.5 -12.5l34 116q-38 14 -79 23t-83 10q-77 2 -130.5 -22t-80.5 -67t-27 -102v-149q0 -66 30 -105.5t84 -58t126 -20.5q42 -1 83 4t80 13l-27 124q1 0 -9 -1.5t-27 -3.5t-36.5 -4t-38.5 -2
q-26 0 -47.5 3t-37.5 9.5t-24.5 17.5t-8.5 27v14h170z" />
    <glyph glyph-name="uni0455" unicode="&#x455;" horiz-adv-x="526" 
d="M405 360l43 113q-21 12 -49.5 21.5t-61 14.5t-64.5 5q-48 0 -88 -9.5t-69 -29t-45 -47.5t-16 -65q0 -38 16 -64.5t42 -45t57.5 -30.5t62.5 -20t57 -15t42 -15t16 -20q0 -10 -6 -16.5t-16.5 -10.5t-24.5 -6t-30 -2q-27 0 -59 6t-62 16.5t-52 25.5l-71 -92
q48 -42 111.5 -65.5t131.5 -23.5q45 0 87 10.5t75.5 31.5t53 53t19.5 74q0 39 -16.5 66t-43 45t-58.5 30t-64 19.5t-59 14t-43 13.5t-16 18q0 7 7 11.5t18 6.5t22.5 2.5t19.5 0.5q28 0 53 -3t45.5 -8t34.5 -10z" />
    <glyph glyph-name="uni0456" unicode="&#x456;" horiz-adv-x="233" 
d="M45 0h144v501h-144v-501zM117 725q-32 0 -53.5 -20t-21.5 -53q0 -31 21.5 -53t53.5 -22t53.5 22t21.5 53q0 33 -21.5 53t-53.5 20z" />
    <glyph glyph-name="uni0457" unicode="&#x457;" horiz-adv-x="224" 
d="M29 694q-28 0 -48.5 -20.5t-20.5 -48.5t20.5 -48.5t48.5 -20.5q30 0 50 20.5t20 48.5t-20 48.5t-50 20.5zM198 693q-29 0 -49 -20t-20 -48t20 -48.5t49 -20.5t49 20.5t20 48.5t-20 48t-49 20zM39 0h146v500h-146v-500z" />
    <glyph glyph-name="uni0458" unicode="&#x458;" horiz-adv-x="310" 
d="M263 -41v542h-235v-116l90 -9v-408q0 -24 -12 -40t-32.5 -24t-47.5 -12l34 -108q67 2 112 24.5t68 61.5t23 89zM265 651q0 32 -22 53t-53 21t-53 -21t-22 -53q0 -30 22 -52t53 -22t53 22t22 52z" />
    <glyph glyph-name="uni0459" unicode="&#x459;" horiz-adv-x="986" 
d="M755 331h-132v169h-230q-55 0 -91 -14t-58 -37t-34.5 -49t-21.5 -50l-65 -181q-12 -34 -28.5 -52.5t-39.5 -28.5t-55 -21l60 -92q60 9 100 29.5t67 56.5t46 90l62 171q5 14 12 24t16.5 15.5t21.5 8t26 2.5h67v-372l18 -1t48.5 -2.5t65.5 -3.5t68.5 -3t59.5 -1
q78 0 127 25.5t71.5 65.5t22.5 85t-17.5 77t-46.5 51.5t-65.5 28.5t-74.5 9zM742 126h-25.5t-32.5 0.5t-33 1t-28 0.5v72h133q12 0 22 -2t16.5 -6.5t10 -11.5t3.5 -16q0 -21 -18.5 -29t-47.5 -9z" />
    <glyph glyph-name="uni045A" unicode="&#x45a;" horiz-adv-x="921" 
d="M689 331h-134v169h-146v-169h-232v169h-145v-500h145v200h232v-199l19.5 -1t51 -2.5t67 -3.5t68.5 -3t57 -1q79 0 128 25t72 65t23 85q0 44 -18 76t-47.5 51.5t-66 29t-74.5 9.5zM674 127h-21t-33 0.5t-35.5 1t-29.5 0.5v71h135q12 0 22.5 -2t17.5 -6.5t11 -11t4 -15.5
q0 -15 -10 -23t-26 -11.5t-35 -3.5z" />
    <glyph glyph-name="uni045B" unicode="&#x45b;" horiz-adv-x="557" 
d="M349 547v94h-348v-94h348zM195 483v217h-145v-700h145v358q18 6 36.5 9t37 5t35.5 2q16 0 29.5 -2.5t23.5 -8.5t15.5 -15t5.5 -22v-326h145v344q0 40 -10 68.5t-27.5 47.5t-41 30t-51 16t-56.5 5t-56 -4.5t-49 -11t-37 -12.5z" />
    <glyph glyph-name="uni045C" unicode="&#x45c;" horiz-adv-x="593" 
d="M364 623q10 13 13.5 29t-1.5 31t-22 24q-17 10 -34.5 6t-30 -16t-16.5 -28l-30 -117h66zM453 175l-111 117l236 208h-200l-192 -165v165l-146 12v-512h146v152l50 41l90 -94q24 -27 51.5 -49.5t63 -36t83.5 -13.5h55v123h-4q-21 0 -42 3.5t-40.5 14.5t-39.5 34z" />
    <glyph glyph-name="uni045D" unicode="&#x45d;" horiz-adv-x="560" 
d="M287 670q-3 16 -16 28.5t-30.5 16.5t-35.5 -6q-17 -9 -22 -24.5t-0.5 -31.5t13.5 -28l55 -72h67zM184 500h-145v-501h145l192 264v-264h147v501h-147l-192 -266v266z" />
    <glyph glyph-name="uni045E" unicode="&#x45e;" horiz-adv-x="635" 
d="M436 686h-99v-5q0 -10 -8 -19t-19 -9t-19 9t-8 19v5h-100v-8q0 -33 17 -61.5t46.5 -46t63.5 -17.5q35 0 63 17.5t45.5 46t17.5 61.5v8zM139 -209h153l296 709h-156l-129 -311l-129 311h-156l211 -499z" />
    <glyph glyph-name="uni045F" unicode="&#x45f;" horiz-adv-x="542" 
d="M507 500h-146v-366h-180v366h-145v-500h163l10 -125h125l10 125h163v500z" />
    <glyph glyph-name="uni0462" unicode="&#x462;" horiz-adv-x="571" 
d="M0 641v-103h376v103h-376zM376 411h-167v289h-147v-700l15.5 -1t41 -2.5t58 -3.5t67.5 -3t68 -1q50 0 92.5 7.5t74 26.5t49 51t17.5 82v108q0 39 -13 67t-36 45.5t-54 26t-66 8.5zM400 173q0 -13 -3 -23t-11.5 -17t-25 -10.5t-43.5 -3.5q-10 -1 -24.5 -0.5l-29 1t-27 1
t-20.5 1t-7 0.5v156h143q11 0 19.5 -2t15 -6.5t10 -12t3.5 -19.5v-65z" />
    <glyph glyph-name="uni0463" unicode="&#x463;" horiz-adv-x="586" 
d="M345 332h-128v368h-146v-698l18 -1t47 -2.5t63 -3.5t65.5 -3t55.5 -1q83 0 135.5 21.5t77 61t24.5 93.5q0 60 -29.5 96t-77.5 52.5t-105 16.5zM338 126q-8 0 -23 0.5t-33 1t-35 0.5t-30 1v72h134q14 0 25 -2t18.5 -6.5t11 -11t3.5 -16.5q0 -15 -8.5 -23t-24.5 -12t-38 -4
zM1 511v-104h385v104h-385z" />
    <glyph glyph-name="uni046A" unicode="&#x46a;" horiz-adv-x="775" 
d="M548 376h-42l196 324h-637l198 -324h-45q-55 0 -96 -21t-63.5 -58.5t-22.5 -88.5v-208h142v167q0 32 7.5 50t24.5 25.5t45 7.5h54v-250h146v250h53q44 0 64 -17.5t20 -67.5v-165h144v207q0 51 -22.5 89t-64.5 59t-101 21zM384 432l-85 143h169z" />
    <glyph glyph-name="uni046B" unicode="&#x46b;" horiz-adv-x="751" 
d="M553 302h-42l178 198h-628l177 -198h-42q-56 0 -93.5 -21.5t-56.5 -57.5t-19 -79v-144h145v91q0 29 5.5 47.5t21 27t44.5 8.5h60v-174h145v174h60q27 0 43.5 -8.5t23.5 -27t7 -49.5v-89h144v144q0 44 -19 80t-57 57t-97 21zM375 320l-57 73h113z" />
    <glyph glyph-name="uni0472" unicode="&#x472;" horiz-adv-x="598" 
d="M139 416v-127h316v127h-316zM34 502v-311q0 -66 34 -111t94 -68t136 -23q81 0 140 24.5t91 70t32 107.5v310q0 101 -67.5 158.5t-193.5 57.5t-196 -55.5t-70 -159.5zM178 212v267q0 38 13.5 60.5t39.5 32t66 9.5q41 0 68 -10t39.5 -32t12.5 -59v-267q0 -31 -14 -51.5
t-40.5 -30.5t-64.5 -10t-64.5 9.5t-41 30t-14.5 51.5z" />
    <glyph glyph-name="uni0473" unicode="&#x473;" horiz-adv-x="536" 
d="M503 183v137q0 93 -60.5 142.5t-172.5 49.5q-78 0 -131.5 -22t-81 -64.5t-27.5 -105.5v-137q0 -57 24.5 -100.5t77 -68t137.5 -24.5q116 0 175 51.5t59 141.5zM357 324v-147q0 -17 -8 -29.5t-26.5 -19.5t-53.5 -7t-56 7.5t-29.5 20.5t-8.5 28v147q0 20 10 32t31 18.5
t53 6.5t51.5 -6.5t28 -19t8.5 -31.5zM75 308v-112h387v112h-387z" />
    <glyph glyph-name="uni0474" unicode="&#x474;" horiz-adv-x="666" 
d="M593 724q-41 -9 -71 -29.5t-51.5 -56t-39.5 -91.5l-105 -322l-151 475h-152l227 -700h152l177 536q11 32 22.5 52.5t27.5 33t38 20.5z" />
    <glyph glyph-name="uni0475" unicode="&#x475;" horiz-adv-x="591" 
d="M530 521q-39 -7 -67 -19t-48 -30.5t-36 -47t-31 -70.5l-65 -174l-112 320h-153l186 -501h158l126 331q12 32 26 51.5t33 31t44 19.5z" />
    <glyph glyph-name="uni0490" unicode="&#x490;" horiz-adv-x="471" 
d="M326 812l-6 -112v-56h139v168h-133zM41 0h146v565h272v135h-418v-700z" />
    <glyph glyph-name="uni0491" unicode="&#x491;" horiz-adv-x="388" 
d="M244 612l-7 -112v-54h140v166h-133zM33 500v-500h146v365h198v135h-344z" />
    <glyph glyph-name="uni0492" unicode="&#x492;" horiz-adv-x="475" 
d="M-1 318h401v96h-401v-96zM51 0h146v565h272v135h-418v-700z" />
    <glyph glyph-name="uni0493" unicode="&#x493;" horiz-adv-x="400" 
d="M0 303v-97h368v97h-368zM51 500v-500h146v365h198v135h-344z" />
    <glyph glyph-name="uni0494" unicode="&#x494;" horiz-adv-x="562" 
d="M334 509q-32 0 -63.5 -5t-57 -12.5t-39.5 -13.5v-119q13 5 31 8.5t36.5 5.5t35 3.5t26.5 1.5q22 0 37.5 -4t25.5 -12t14 -18.5t4 -23.5v-161q0 -21 -11 -32.5t-29 -16.5t-40 -5l32 -120q45 1 81 10t61 27.5t39 47.5t14 70v199q0 48 -15.5 80.5t-42.5 52t-62.5 28.5
t-76.5 9zM42 0h145v565h272v135h-417v-700z" />
    <glyph glyph-name="uni0495" unicode="&#x495;" horiz-adv-x="539" 
d="M317 303q-32 0 -64.5 -5t-58 -12t-40.5 -14v-116q13 4 29.5 7t34.5 5t33 3.5t24 1.5q22 0 37 -4t23.5 -11.5t12.5 -17.5t4 -22v-168q0 -19 -10 -30.5t-28.5 -17t-43.5 -5.5l35 -117q67 1 109.5 20t63 54.5t20.5 86.5v197q0 48 -15 80t-40 50.5t-57.5 26.5t-68.5 8z
M33 500v-500h146v365h198v135h-344z" />
    <glyph glyph-name="uni0496" unicode="&#x496;" horiz-adv-x="923" 
d="M738 130v-130h18l16 -125h126v255h-160zM715 0h159l-153 351l138 349h-156l-110 -288h-76v288h-145v-288h-76l-108 288h-155l133 -349l-149 -351h160l117 281h78v-281h145v281h78z" />
    <glyph glyph-name="uni0497" unicode="&#x497;" horiz-adv-x="707" 
d="M541 129v-129h11l16 -125h125v254h-152zM684 500h-157l-50 -189h-53v189h-145v-189h-51l-48 189h-160l86 -252l-90 -248h160l52 187h51v-187h145v187h52l53 -187h153l-84 249z" />
    <glyph glyph-name="uni0498" unicode="&#x498;" horiz-adv-x="565" 
d="M113 426l45 -132h103q32 0 55.5 -6t39 -17t22.5 -25.5t7 -32.5q0 -29 -17 -50t-54 -32t-97 -11q-32 0 -63.5 4t-58 9.5t-43 9.5l-16.5 4l-21 -126l17.5 -5t46.5 -11.5t65.5 -11.5t73.5 -5q89 0 150 19t98 50.5t53.5 71t16.5 81.5q0 66 -30.5 110t-79.5 66
q25 16 41.5 36.5t24.5 47t8 59.5q0 55 -29 96t-83 63t-128 22q-30 0 -62 -4t-64 -12.5t-62 -20.5l40 -111q15 5 36 8.5t43 5.5t39 2q31 0 53.5 -4.5t37.5 -14t22.5 -23t7.5 -31.5q0 -25 -14.5 -43t-42.5 -27t-70 -9h-111zM228 8v-7l89 -120q5 -7 3.5 -14t-7 -10.5
t-15.5 -0.5l-106 41l-33 -81l111 -40q37 -14 69 -5t51 33t19 56.5t-24 67.5l-52 74v6h-105z" />
    <glyph glyph-name="uni0499" unicode="&#x499;" horiz-adv-x="492" 
d="M207 7v-7l89 -120q5 -7 3.5 -14t-7 -10.5t-15.5 -0.5l-106 41l-33 -81l111 -40q37 -14 69 -5t51 33t19 56.5t-24 67.5l-52 74v6h-105zM100 381q24 3 49 5t48 3t42 0q11 -1 19.5 -3t15.5 -5.5t10.5 -9.5t3.5 -14q0 -10 -6.5 -19t-21.5 -15t-41 -6h-117l43 -119h99
q16 0 27.5 -2.5t19 -6.5t11 -10.5t3.5 -15.5q0 -12 -10.5 -20t-28.5 -12t-44 -4q-29 0 -60 3t-57.5 8.5t-43.5 12.5l-39 -128q50 -16 103 -25t111 -9q76 0 125.5 21.5t73.5 58t24 80.5q0 43 -19.5 76t-57.5 52q19 13 32 32t18 41t1 43q-5 31 -24.5 57.5t-58 43.5t-101.5 18
q-33 1 -67.5 -3t-70.5 -12z" />
    <glyph glyph-name="uni049A" unicode="&#x49a;" horiz-adv-x="613" 
d="M436 130v-130h15l16 -125h129v255h-160zM189 448v252h-148v-700h148v229l43 51l174 -280h180l-257 400l232 300h-179z" />
    <glyph glyph-name="uni049B" unicode="&#x49b;" horiz-adv-x="619" 
d="M591 0l-249 292l234 209h-196l-194 -168v167l-146 12v-512h146v152l51 43l161 -195h193zM436 129v-129h20l16 -125h129v254h-165z" />
    <glyph glyph-name="uni049C" unicode="&#x49c;" horiz-adv-x="727" 
d="M703 0l-214 391l164 311h-163l-130 -258h-39v74h-85v-74h-49v256h-146v-700h146v322h49v-71h85v71h43l168 -322h171z" />
    <glyph glyph-name="uni049D" unicode="&#x49d;" horiz-adv-x="644" 
d="M627 117q-17 1 -33.5 12t-34.5 39l-80 127l137 205h-157l-98 -148h-46v71h-83v-71h-48v148l-146 12v-512h146v230h48v-73h83v73l39 1l86 -138q27 -43 54 -62.5t59 -25t74 -5.5v117z" />
    <glyph glyph-name="uni04A0" unicode="&#x4a0;" horiz-adv-x="713" 
d="M1 700v-126l151 -2h64v128h-215zM295 448v252h-147v-700h147v229l44 51l174 -280h180l-257 400l232 300h-180z" />
    <glyph glyph-name="uni04A1" unicode="&#x4a1;" horiz-adv-x="711" 
d="M563 175l-111 117l236 208h-200l-192 -165v165h-296v-126l150 -2v-372h146v152l50 41l90 -94q24 -27 51.5 -49.5t63 -36t83.5 -13.5h55v123h-4q-21 0 -41.5 3.5t-40.5 14.5t-40 34z" />
    <glyph glyph-name="uni04A2" unicode="&#x4a2;" horiz-adv-x="710" 
d="M507 130v-130h34l17 -125h128v255h-179zM433 426h-246v274h-146v-700h146v295h246v-295h145v700h-145v-274z" />
    <glyph glyph-name="uni04A3" unicode="&#x4a3;" horiz-adv-x="630" 
d="M430 130v-130h40l17 -125h128v255h-185zM365 326h-181v174h-147v-500h147v212h181v-212h145v500h-145v-174z" />
    <glyph glyph-name="uni04A4" unicode="&#x4a4;" horiz-adv-x="720" 
d="M513 700v-128h62l131 2v126h-193zM433 426h-246v274h-146v-700h146v295h246v-295h145v700h-145v-274z" />
    <glyph glyph-name="uni04A5" unicode="&#x4a5;" horiz-adv-x="638" 
d="M438 500v-128h61l130 2v126h-191zM365 326h-181v174h-147v-500h147v212h181v-212h145v500h-145v-174z" />
    <glyph glyph-name="uni04AA" unicode="&#x4aa;" horiz-adv-x="513" 
d="M224 7v-7l89 -120q5 -7 3.5 -14t-7 -10.5t-15.5 -0.5l-106 41l-33 -81l111 -40q37 -14 69 -5t51 33t19 56.5t-24 67.5l-52 74v6h-105zM427 559l31 118q-45 18 -90 26.5t-90 8.5q-70 0 -124.5 -21t-86 -65t-31.5 -112v-330q0 -66 29 -109.5t84.5 -65t134.5 -21.5
q48 0 99 9.5t105 25.5l-20 128q-10 -3 -38.5 -9.5t-65.5 -11.5t-72 -5q-32 0 -57 5.5t-39.5 21.5t-14.5 48v300q0 32 17 48t45 21.5t62 5.5q33 0 63.5 -4t58.5 -12z" />
    <glyph glyph-name="uni04AB" unicode="&#x4ab;" horiz-adv-x="460" 
d="M202 7v-7l89 -120q5 -7 3.5 -14t-7 -10.5t-15.5 -0.5l-106 41l-33 -81l111 -40q37 -14 69 -5t51 33t19 56.5t-24 67.5l-52 74v6h-105zM396 357l35 122q-38 14 -79 23t-83 10q-77 2 -130.5 -22t-80.5 -67t-27 -102v-149q0 -66 30 -105.5t84 -58t126 -20.5q42 -1 83 4
t80 13l-27 129l-10 -1t-26.5 -2.5t-36 -3t-38.5 -1.5q-26 0 -47.5 4t-37.5 12.5t-24.5 22.5t-8.5 33v111q0 26 15.5 40.5t42 20.5t59.5 5q27 -1 54 -6t47 -12z" />
    <glyph glyph-name="uni04AE" unicode="&#x4ae;" horiz-adv-x="613" 
d="M377 316l224 384h-163l-134 -253l-134 253h-161l223 -384v-316h145v316z" />
    <glyph glyph-name="uni04AF" unicode="&#x4af;" horiz-adv-x="579" 
d="M554 500h-155l-107 -326l-112 326h-156l192 -500v-194l146 -24v218z" />
    <glyph glyph-name="uni04B0" unicode="&#x4b0;" horiz-adv-x="613" 
d="M128 240v-103h349v103h-349zM377 316l224 384h-163l-134 -253l-134 253h-161l223 -384v-316h145v316z" />
    <glyph glyph-name="uni04B1" unicode="&#x4b1;" horiz-adv-x="579" 
d="M104 103v-103h373v103h-373zM554 500h-155l-107 -326l-112 326h-156l192 -500v-194l146 -24v218z" />
    <glyph glyph-name="uni04B2" unicode="&#x4b2;" horiz-adv-x="747" 
d="M568 130v-130h17l17 -125h128v255h-162zM371 483l-152 217h-180l242 -338l-256 -362h177l169 237l169 -237h179l-258 362l241 338h-178z" />
    <glyph glyph-name="uni04B3" unicode="&#x4b3;" horiz-adv-x="650" 
d="M469 130v-130h17l17 -125h127v255h-161zM324 364l-108 137h-185l202 -253l-199 -248h185l105 132l107 -132h183l-198 249l202 252h-184z" />
    <glyph glyph-name="uni04B6" unicode="&#x4b6;" horiz-adv-x="708" 
d="M502 130v-130h43l17 -125h127v255h-187zM578 700h-145v-272q0 -16 -10 -30t-27.5 -24.5t-40.5 -16.5t-48 -6q-48 0 -79 9.5t-45 28.5t-14 48v263h-146v-281q0 -66 30.5 -109.5t84.5 -65.5t123 -22q31 0 59.5 2.5t56 9t56.5 19.5v-253h145v700z" />
    <glyph glyph-name="uni04B7" unicode="&#x4b7;" horiz-adv-x="629" 
d="M452 130v-130h18l16 -125h128v255h-162zM363 0h146v339q0 26 12 45.5t48 25.5l-47 103q-48 0 -79 -13t-48.5 -34.5t-24.5 -46t-7 -48.5v-77q0 -12 -7.5 -23t-21 -18.5t-31.5 -12t-40 -4.5q-19 0 -34.5 3t-26.5 9t-17 15t-6 22v215h-147v-228q0 -48 17 -80t44.5 -50.5
t60.5 -26.5t65 -8t60.5 4.5t50.5 11.5t33 15v-138z" />
    <glyph glyph-name="uni04B8" unicode="&#x4b8;" horiz-adv-x="600" 
d="M253 409v-246h95v246h-95zM578 700h-145v-272q0 -16 -10 -30t-27.5 -24.5t-40.5 -16.5t-48 -6q-48 0 -79 9.5t-45 28.5t-14 48v263h-146v-281q0 -66 30.5 -109.5t84.5 -65.5t123 -22q31 0 59.5 2.5t56 9t56.5 19.5v-253h145v700z" />
    <glyph glyph-name="uni04B9" unicode="&#x4b9;" horiz-adv-x="604" 
d="M388 0h145v339q0 26 12 45.5t49 25.5l-47 103q-49 0 -80 -13t-48.5 -34.5t-24 -46t-6.5 -48.5v-77q0 -13 -8.5 -24.5t-23.5 -19.5t-36 -12.5t-45 -4.5q-23 0 -41 3t-30.5 9t-18.5 16t-6 24v215h-147v-228q0 -48 18 -80t46.5 -50.5t62.5 -26.5t66 -8q36 0 66.5 4t55 11.5
t41.5 16.5v-139zM237 308v-272h88v272h-88z" />
    <glyph glyph-name="uni04BA" unicode="&#x4ba;" horiz-adv-x="633" 
d="M187 700h-146v-701h146v255q0 16 11 29.5t29.5 23.5t40.5 15.5t44 5.5q47 0 78 -10t46.5 -30.5t15.5 -51.5v-237h146v246q0 68 -29.5 115t-84 72t-128.5 25q-32 0 -62.5 -3.5t-57.5 -10.5t-49 -19v276z" />
    <glyph glyph-name="uni04BB" unicode="&#x4bb;" horiz-adv-x="549" 
d="M38 0h145v212q0 13 7.5 23.5t20.5 18t30.5 12t37.5 4.5t36 -3t27.5 -9.5t17.5 -16t6 -21.5v-220h146v232q0 45 -15.5 76.5t-42 51t-61.5 28.5t-74 9q-32 0 -58.5 -4.5t-46 -10t-31.5 -11.5v130h-145v-501z" />
    <glyph glyph-name="uni04C0" unicode="&#x4c0;" horiz-adv-x="288" 
d="M19 574l82 -2v-572h145v700h-227v-126z" />
    <glyph glyph-name="uni04C1" unicode="&#x4c1;" horiz-adv-x="892" 
d="M570 868h-99v-5q0 -10 -8 -19t-19 -9t-19 9t-8 19v5h-100v-8q0 -33 17 -61.5t46.5 -46t63.5 -17.5q35 0 63 17.5t45.5 46t17.5 61.5v8zM715 0h159l-153 351l138 349h-156l-110 -288h-76v288h-145v-288h-76l-108 288h-155l133 -349l-149 -351h160l117 281h78v-281h145v281
h78z" />
    <glyph glyph-name="uni04C2" unicode="&#x4c2;" horiz-adv-x="698" 
d="M478 686h-99v-5q0 -10 -8 -19t-19 -9t-19 9t-8 19v5h-100v-8q0 -33 17 -61.5t46.5 -46t63.5 -17.5q35 0 63 17.5t45.5 46t17.5 61.5v8zM684 500h-157l-50 -189h-53v189h-145v-189h-51l-48 189h-160l86 -252l-90 -248h160l52 187h51v-187h145v187h52l53 -187h153l-84 249z
" />
    <glyph glyph-name="uni04CB" unicode="&#x4cb;" horiz-adv-x="606" 
d="M324 130v-255h126l17 125h51v130h-194zM578 700h-145v-272q0 -16 -10 -30t-27.5 -24.5t-40.5 -16.5t-48 -6q-48 0 -79 9.5t-45 28.5t-14 48v263h-146v-281q0 -66 30.5 -109.5t84.5 -65.5t123 -22q31 0 59.5 2.5t56 9t56.5 19.5v-253h145v700z" />
    <glyph glyph-name="uni04CC" unicode="&#x4cc;" horiz-adv-x="574" 
d="M255 125v-250h125l18 125h35v125h-178zM363 0h140v339q0 26 13 45.5t53 25.5l-52 103q-54 0 -88 -19.5t-50 -49.5t-16 -63v-49q0 -12 -8.5 -22t-23.5 -17t-33.5 -11t-38.5 -4q-18 0 -32.5 3t-25.5 9t-16.5 15t-5.5 21v174h-147v-186q0 -48 17 -80t45 -50t62 -25.5
t68 -7.5q35 0 63 5t48 11.5t28 11.5v-179z" />
    <glyph glyph-name="uni04CF" unicode="&#x4cf;" horiz-adv-x="288" 
d="M19 574l82 -2v-572h145v700h-227v-126z" />
    <glyph glyph-name="uni04D0" unicode="&#x4d0;" horiz-adv-x="670" 
d="M461 870h-99v-5q0 -10 -8 -19t-19 -9t-19 9t-8 19v5h-100v-8q0 -33 17 -61.5t46.5 -46t63.5 -17.5q35 0 63 17.5t45.5 46t17.5 61.5v8zM646 0l-205 700h-214l-202 -700h157l41 150h221l42 -150h160zM260 287l74 275l73 -275h-147z" />
    <glyph glyph-name="uni04D1" unicode="&#x4d1;" horiz-adv-x="541" 
d="M392 686h-99v-5q0 -10 -8 -19t-19 -9t-19 9t-8 19v5h-100v-8q0 -33 17 -61.5t46.5 -46t63.5 -17.5q35 0 63 17.5t45.5 46t17.5 61.5v8zM508 487l-129 27q-5 -8 -8 -16l-3 -8q-8 3 -31.5 7.5t-57.5 8t-74 3.5q-37 0 -68.5 -7.5t-55.5 -25.5t-37.5 -47.5t-13.5 -73.5v-185
q0 -36 10.5 -67.5t33.5 -55.5t63 -37.5t98 -13.5q29 0 64 1t71 2t65.5 2.5t47.5 2.5l18 1v385q0 17 1.5 41.5t5.5 55.5zM176 174v164q0 16 8 24t19.5 12t25 5t24.5 1q8 0 21.5 -1t29 -3t29.5 -3.5t22 -4.5v-246q-9 0 -21 -1t-24.5 -1h-24h-20.5q-27 0 -47 4t-31 16t-11 34z
" />
    <glyph glyph-name="uni04D2" unicode="&#x4d2;" horiz-adv-x="670" 
d="M250 889q-28 0 -48.5 -20.5t-20.5 -48.5t20.5 -48.5t48.5 -20.5q30 0 50 20.5t20 48.5t-20 48.5t-50 20.5zM419 888q-29 0 -49 -20t-20 -48t20 -48.5t49 -20.5t49 20.5t20 48.5t-20 48t-49 20zM646 0l-205 700h-214l-202 -700h157l41 150h221l42 -150h160zM260 287
l74 275l73 -275h-147z" />
    <glyph glyph-name="uni04D3" unicode="&#x4d3;" horiz-adv-x="541" 
d="M183 694q-28 0 -48.5 -20.5t-20.5 -48.5t20.5 -48.5t48.5 -20.5q30 0 50 20.5t20 48.5t-20 48.5t-50 20.5zM352 693q-29 0 -49 -20t-20 -48t20 -48.5t49 -20.5t49 20.5t20 48.5t-20 48t-49 20zM508 487l-129 27q-5 -8 -8 -16l-3 -8q-8 3 -31.5 7.5t-57.5 8t-74 3.5
q-37 0 -68.5 -7.5t-55.5 -25.5t-37.5 -47.5t-13.5 -73.5v-185q0 -36 10.5 -67.5t33.5 -55.5t63 -37.5t98 -13.5q29 0 64 1t71 2t65.5 2.5t47.5 2.5l18 1v385q0 17 1.5 41.5t5.5 55.5zM176 174v164q0 16 8 24t19.5 12t25 5t24.5 1q8 0 21.5 -1t29 -3t29.5 -3.5t22 -4.5v-246
q-9 0 -21 -1t-24.5 -1h-24h-20.5q-27 0 -47 4t-31 16t-11 34z" />
    <glyph glyph-name="uni04D4" unicode="&#x4d4;" horiz-adv-x="927" 
d="M486 0h416v140h-272v154h154l41 132h-195v139h273v135h-547l-336 -700h164l80 171h222v-171zM326 304l118 250h41v-250h-159z" />
    <glyph glyph-name="uni04D5" unicode="&#x4d5;" horiz-adv-x="879" 
d="M363 355q-17 11 -43.5 20.5t-59 15.5t-67.5 6q-36 0 -66.5 -8.5t-52.5 -26.5t-34 -46t-12 -66v-94q0 -50 18.5 -82t52.5 -51t80 -26.5t102 -7.5q25 0 49 0.5l48 1t46.5 2t44 3.5t42.5 4v311q0 60 -14.5 98.5t-46 60.5t-82.5 31t-124 9l-15 -83q30 0 54.5 -3.5t42.5 -11.5
t27.5 -22t9.5 -35zM365 244v-125l-6 -0.5t-15.5 -1t-20.5 -1t-21.5 -1t-19.5 -0.5q-29 0 -50 3.5t-33.5 10.5t-18.5 17t-6 24v57q0 11 4 19t12 12.5t19.5 6.5t25.5 2q23 0 47 -4t45.5 -9t37.5 -10zM514 157v18l322 12v159q0 56 -28.5 92.5t-79.5 54.5t-119 18t-122.5 -18.5
t-86 -55.5t-31.5 -94v-210q0 -38 16 -66t45 -45.5t68 -26t86 -8.5q60 0 117.5 13t102.5 35l-42 114q-37 -14 -78 -23t-83 -10q-25 0 -41.5 2t-26.5 7t-14.5 13t-4.5 19zM691 326v-25l-177 -7v33q0 18 7 30.5t27 19.5t57 8q35 1 53.5 -7.5t25.5 -22t7 -29.5z" />
    <glyph glyph-name="uni04D6" unicode="&#x4d6;" horiz-adv-x="491" 
d="M378 866h-99v-5q0 -10 -8 -19t-19 -9t-19 9t-8 19v5h-100v-8q0 -33 17 -61.5t46.5 -46t63.5 -17.5q35 0 63 17.5t45.5 46t17.5 61.5v8zM41 0h417v131h-271l-1 164h158l45 132h-202v138h273v135h-419v-700z" />
    <glyph glyph-name="uni04D7" unicode="&#x4d7;" horiz-adv-x="524" 
d="M395 686h-99v-5q0 -10 -8 -19t-19 -9t-19 9t-8 19v5h-100v-8q0 -33 17 -61.5t46.5 -46t63.5 -17.5q35 0 63 17.5t45.5 46t17.5 61.5v8zM178 157v18l322 12v159q0 56 -28.5 92.5t-79.5 54.5t-119 18t-122.5 -18.5t-86 -55.5t-31.5 -94v-210q0 -38 16 -66t45 -45.5t68 -26
t86 -8.5q60 0 117.5 13t102.5 35l-42 114q-37 -14 -78 -23t-83 -10q-25 0 -41.5 2t-26.5 7t-14.5 13t-4.5 19zM355 326v-25l-177 -7v33q0 18 7 30.5t27 19.5t57 8q35 1 53.5 -7.5t25.5 -22t7 -29.5z" />
    <glyph glyph-name="uni04D8" unicode="&#x4d8;" horiz-adv-x="596" 
d="M323 711q-45 0 -91 -8.5t-91 -26.5l34 -110q15 4 36.5 7.5t45 5.5t41.5 2q39 0 65.5 -7t40 -23.5t13.5 -44.5v-136l-382 -17v-170q0 -49 18.5 -85.5t53 -61t82.5 -37t108 -12.5q76 0 135.5 20.5t94.5 63.5t35 112v330q0 51 -17.5 88.5t-49 61.5t-75.5 36t-97 12zM298 124
q-28 0 -50 5t-36.5 14.5t-22.5 23t-8 30.5v41l236 11v-54q0 -17 -7 -30t-22 -22.5t-37.5 -14t-52.5 -4.5z" />
    <glyph glyph-name="uni04D9" unicode="&#x4d9;" horiz-adv-x="524" 
d="M349 341v-18l-322 -12v-158q0 -56 28.5 -93t80 -55t118.5 -18q68 0 122.5 18.5t86 56.5t31.5 94v210q0 38 -16 65.5t-45 45t-68 26t-86 8.5q-60 0 -117.5 -13t-102.5 -35l42 -114q37 15 78 24t83 9q25 0 41.5 -2t26.5 -7t14.5 -13t4.5 -19zM172 173v24l177 7v-32
q0 -18 -7.5 -31t-26.5 -20t-57 -8q-35 0 -53.5 8t-25.5 22t-7 30z" />
    <glyph glyph-name="uni04DC" unicode="&#x4dc;" horiz-adv-x="892" 
d="M361 888q-28 0 -48.5 -20.5t-20.5 -48.5t20.5 -48.5t48.5 -20.5q30 0 50 20.5t20 48.5t-20 48.5t-50 20.5zM530 887q-29 0 -49 -20t-20 -48t20 -48.5t49 -20.5t49 20.5t20 48.5t-20 48t-49 20zM715 0h159l-153 351l138 349h-156l-110 -288h-76v288h-145v-288h-76
l-108 288h-155l133 -349l-149 -351h160l117 281h78v-281h145v281h78z" />
    <glyph glyph-name="uni04DD" unicode="&#x4dd;" horiz-adv-x="674" 
d="M267 695q-28 0 -48.5 -20.5t-20.5 -48.5t20.5 -48.5t48.5 -20.5q30 0 50 20.5t20 48.5t-20 48.5t-50 20.5zM436 694q-29 0 -49 -20t-20 -48t20 -48.5t49 -20.5t49 20.5t20 48.5t-20 48t-49 20zM684 500h-157l-50 -189h-53v189h-145v-189h-51l-48 189h-160l86 -252
l-90 -248h160l52 187h51v-187h145v187h52l53 -187h153l-84 249z" />
    <glyph glyph-name="uni04DE" unicode="&#x4de;" horiz-adv-x="565" 
d="M187 890q-28 0 -48.5 -20.5t-20.5 -48.5t20.5 -48.5t48.5 -20.5q30 0 50 20.5t20 48.5t-20 48.5t-50 20.5zM356 889q-29 0 -49 -20t-20 -48t20 -48.5t49 -20.5t49 20.5t20 48.5t-20 48t-49 20zM113 426l45 -132h103q32 0 55.5 -6t39 -17t22.5 -25.5t7 -32.5
q0 -29 -17 -50t-54 -32t-97 -11q-32 0 -63.5 4t-58 9.5t-43 9.5l-16.5 4l-21 -126l17.5 -5t46.5 -11.5t65.5 -11.5t73.5 -5q89 0 150 19t98 50.5t53.5 71t16.5 81.5q0 66 -30.5 110t-79.5 66q25 16 41.5 36.5t24.5 47t8 59.5q0 55 -29 96t-83 63t-128 22q-30 0 -62 -4
t-64 -12.5t-62 -20.5l40 -111q15 5 36 8.5t43 5.5t39 2q31 0 53.5 -4.5t37.5 -14t22.5 -23t7.5 -31.5q0 -25 -14.5 -43t-42.5 -27t-70 -9h-111z" />
    <glyph glyph-name="uni04DF" unicode="&#x4df;" horiz-adv-x="490" 
d="M160 694q-28 0 -48.5 -20.5t-20.5 -48.5t20.5 -48.5t48.5 -20.5q30 0 50 20.5t20 48.5t-20 48.5t-50 20.5zM329 693q-29 0 -49 -20t-20 -48t20 -48.5t49 -20.5t49 20.5t20 48.5t-20 48t-49 20zM100 381q24 3 49 5t48 3t42 0q11 -1 19.5 -3t15.5 -5.5t10.5 -9.5t3.5 -14
q0 -10 -6.5 -19t-21.5 -15t-41 -6h-117l43 -119h99q16 0 27.5 -2.5t19 -6.5t11 -10.5t3.5 -15.5q0 -12 -10.5 -20t-28.5 -12t-44 -4q-29 0 -60 3t-57.5 8.5t-43.5 12.5l-39 -128q50 -16 103 -25t111 -9q76 0 125.5 21.5t73.5 58t24 80.5q0 43 -19.5 76t-57.5 52q19 13 32 32
t18 41t1 43q-5 31 -24.5 57.5t-58 43.5t-101.5 18q-33 1 -67.5 -3t-70.5 -12z" />
    <glyph glyph-name="uni04E2" unicode="&#x4e2;" horiz-adv-x="700" 
d="M460 916h-222v-107h222v107zM41 700v-700h149l324 436v-436h144v700h-144l-327 -447v447h-146z" />
    <glyph glyph-name="uni04E3" unicode="&#x4e3;" horiz-adv-x="560" 
d="M392 732h-222v-107h222v107zM184 500h-145v-501h145l192 264v-264h147v501h-147l-192 -266v266z" />
    <glyph glyph-name="uni04E4" unicode="&#x4e4;" horiz-adv-x="700" 
d="M265 889q-28 0 -48.5 -20.5t-20.5 -48.5t20.5 -48.5t48.5 -20.5q30 0 50 20.5t20 48.5t-20 48.5t-50 20.5zM434 888q-29 0 -49 -20t-20 -48t20 -48.5t49 -20.5t49 20.5t20 48.5t-20 48t-49 20zM41 700v-700h149l324 436v-436h144v700h-144l-327 -447v447h-146z" />
    <glyph glyph-name="uni04E5" unicode="&#x4e5;" horiz-adv-x="560" 
d="M197 694q-28 0 -48.5 -20.5t-20.5 -48.5t20.5 -48.5t48.5 -20.5q30 0 50 20.5t20 48.5t-20 48.5t-50 20.5zM366 693q-29 0 -49 -20t-20 -48t20 -48.5t49 -20.5t49 20.5t20 48.5t-20 48t-49 20zM184 500h-145v-501h145l192 264v-264h147v501h-147l-192 -266v266z" />
    <glyph glyph-name="uni04E6" unicode="&#x4e6;" horiz-adv-x="594" 
d="M213 889q-28 0 -48.5 -20.5t-20.5 -48.5t20.5 -48.5t48.5 -20.5q30 0 50 20.5t20 48.5t-20 48.5t-50 20.5zM382 888q-29 0 -49 -20t-20 -48t20 -48.5t49 -20.5t49 20.5t20 48.5t-20 48t-49 20zM33 502v-311q0 -66 34.5 -111t94 -68t135.5 -23q82 0 140.5 24.5t90.5 70
t32 107.5v310q0 101 -67.5 158.5t-193.5 57.5q-125 0 -195.5 -55.5t-70.5 -159.5zM178 212v267q0 38 13 60.5t39.5 32t65.5 9.5q42 0 68.5 -10t39.5 -32t13 -59v-267q0 -31 -14.5 -51.5t-41 -30.5t-64.5 -10t-64.5 9.5t-40.5 30t-14 51.5z" />
    <glyph glyph-name="uni04E7" unicode="&#x4e7;" horiz-adv-x="536" 
d="M180 694q-28 0 -48.5 -20.5t-20.5 -48.5t20.5 -48.5t48.5 -20.5q30 0 50 20.5t20 48.5t-20 48.5t-50 20.5zM349 693q-29 0 -49 -20t-20 -48t20 -48.5t49 -20.5t49 20.5t20 48.5t-20 48t-49 20zM504 183v137q0 93 -60.5 142.5t-172.5 49.5q-78 0 -131.5 -22t-81 -64.5
t-27.5 -105.5v-137q0 -57 24.5 -100.5t77 -68t137.5 -24.5q116 0 175 51.5t59 141.5zM358 314v-126q0 -17 -8 -30t-26.5 -20t-53.5 -7t-56 7.5t-29.5 20.5t-8.5 29v126q0 19 10 31.5t31 19t53 6.5t51.5 -6.5t28 -19.5t8.5 -31z" />
    <glyph glyph-name="uni04E8" unicode="&#x4e8;" horiz-adv-x="594" 
d="M139 416v-127h316v127h-316zM34 502v-311q0 -66 34 -111t94 -68t136 -23q81 0 140 24.5t91 70t32 107.5v310q0 101 -67.5 158.5t-193.5 57.5t-196 -55.5t-70 -159.5zM178 212v267q0 38 13.5 60.5t39.5 32t66 9.5q41 0 68 -10t39.5 -32t12.5 -59v-267q0 -31 -14 -51.5
t-40.5 -30.5t-64.5 -10t-64.5 9.5t-41 30t-14.5 51.5z" />
    <glyph glyph-name="uni04E9" unicode="&#x4e9;" horiz-adv-x="535" 
d="M504 183v137q0 93 -60.5 142.5t-172.5 49.5q-78 0 -131.5 -22t-81 -64.5t-27.5 -105.5v-137q0 -57 24.5 -100.5t77 -68t137.5 -24.5q116 0 175 51.5t59 141.5zM358 324v-147q0 -17 -8 -29.5t-26.5 -19.5t-53.5 -7t-56 7.5t-29.5 20.5t-8.5 28v147q0 20 10 32t31 18.5
t53 6.5t51.5 -6.5t28 -19t8.5 -31.5zM76 308v-112h387v112h-387z" />
    <glyph glyph-name="uni04EE" unicode="&#x4ee;" horiz-adv-x="636" 
d="M430 915h-222v-107h222v107zM471 700l-147 -292l-154 293l-160 -1l241 -454l-41 -80q-17 -35 -39.5 -53.5t-53 -28t-71.5 -19.5l56 -87q54 6 93 18t68.5 33t52 51t43.5 72l269 548h-157z" />
    <glyph glyph-name="uni04EF" unicode="&#x4ef;" horiz-adv-x="622" 
d="M420 732h-222v-107h222v107zM139 -209h153l296 709h-156l-129 -311l-129 311h-156l211 -499z" />
    <glyph glyph-name="uni04F0" unicode="&#x4f0;" horiz-adv-x="636" 
d="M235 888q-28 0 -48.5 -20.5t-20.5 -48.5t20.5 -48.5t48.5 -20.5q30 0 50 20.5t20 48.5t-20 48.5t-50 20.5zM404 887q-29 0 -49 -20t-20 -48t20 -48.5t49 -20.5t49 20.5t20 48.5t-20 48t-49 20zM471 700l-147 -292l-154 293l-160 -1l241 -454l-41 -80q-17 -35 -39.5 -53.5
t-53 -28t-71.5 -19.5l56 -87q54 6 93 18t68.5 33t52 51t43.5 72l269 548h-157z" />
    <glyph glyph-name="uni04F1" unicode="&#x4f1;" horiz-adv-x="622" 
d="M224 695q-28 0 -48.5 -20.5t-20.5 -48.5t20.5 -48.5t48.5 -20.5q30 0 50 20.5t20 48.5t-20 48.5t-50 20.5zM393 694q-29 0 -49 -20t-20 -48t20 -48.5t49 -20.5t49 20.5t20 48.5t-20 48t-49 20zM139 -209h153l296 709h-156l-129 -311l-129 311h-156l211 -499z" />
    <glyph glyph-name="uni04F2" unicode="&#x4f2;" horiz-adv-x="636" 
d="M340 826q10 13 13.5 29t-1.5 31t-22 24t-34.5 5t-30 -16t-16.5 -28l-31 -117h67zM474 826q10 13 13.5 29t-1.5 31.5t-23 23.5q-18 10 -35 5.5t-29 -16.5t-17 -28l-30 -117h66zM471 700l-147 -292l-154 293l-160 -1l241 -454l-41 -80q-17 -35 -39.5 -53.5t-53 -28
t-71.5 -19.5l56 -87q54 6 93 18t68.5 33t52 51t43.5 72l269 548h-157z" />
    <glyph glyph-name="uni04F3" unicode="&#x4f3;" horiz-adv-x="622" 
d="M327 643q10 13 13.5 29t-1.5 31t-22 24t-34.5 5t-30 -16t-16.5 -28l-31 -117h67zM461 643q10 13 13.5 29t-1.5 31.5t-23 23.5q-18 10 -35 5.5t-29 -16.5t-17 -28l-30 -117h66zM139 -209h153l296 709h-156l-129 -311l-129 311h-156l211 -499z" />
    <glyph glyph-name="uni04F4" unicode="&#x4f4;" horiz-adv-x="600" 
d="M217 888q-28 0 -48.5 -20.5t-20.5 -48.5t20.5 -48.5t48.5 -20.5q30 0 50 20.5t20 48.5t-20 48.5t-50 20.5zM386 887q-29 0 -49 -20t-20 -48t20 -48.5t49 -20.5t49 20.5t20 48.5t-20 48t-49 20zM578 700h-145v-272q0 -16 -10 -30t-27.5 -24.5t-40.5 -16.5t-48 -6
q-48 0 -79 9.5t-45 28.5t-14 48v263h-146v-281q0 -66 30.5 -109.5t84.5 -65.5t123 -22q31 0 59.5 2.5t56 9t56.5 19.5v-253h145v700z" />
    <glyph glyph-name="uni04F5" unicode="&#x4f5;" horiz-adv-x="578" 
d="M200 695q-28 0 -48.5 -20.5t-20.5 -48.5t20.5 -48.5t48.5 -20.5q30 0 50 20.5t20 48.5t-20 48.5t-50 20.5zM369 694q-29 0 -49 -20t-20 -48t20 -48.5t49 -20.5t49 20.5t20 48.5t-20 48t-49 20zM363 0h146v339q0 26 12 45.5t48 25.5l-47 103q-48 0 -79 -13t-48.5 -34.5
t-24.5 -46t-7 -48.5v-77q0 -12 -7.5 -23t-21 -18.5t-31.5 -12t-40 -4.5q-19 0 -34.5 3t-26.5 9t-17 15t-6 22v215h-147v-228q0 -48 17 -80t44.5 -50.5t60.5 -26.5t65 -8t60.5 4.5t50.5 11.5t33 15v-138z" />
    <glyph glyph-name="uni04F6" unicode="&#x4f6;" horiz-adv-x="468" 
d="M107 130v-130h42l18 -125h115v255h-175zM41 0h146v565h272v135h-418v-700z" />
    <glyph glyph-name="uni04F7" unicode="&#x4f7;" horiz-adv-x="387" 
d="M109 130v-130h40l16 -125h117v255h-173zM33 500v-500h146v365h198v135h-344z" />
    <glyph glyph-name="uni04F8" unicode="&#x4f8;" horiz-adv-x="796" 
d="M311 889q-28 0 -48.5 -20.5t-20.5 -48.5t20.5 -48.5t48.5 -20.5q30 0 50 20.5t20 48.5t-20 48.5t-50 20.5zM480 888q-29 0 -49 -20t-20 -48t20 -48.5t49 -20.5t49 20.5t20 48.5t-20 48t-49 20zM515 574l82 -2v-572h145v700h-227v-126zM355 411h-167v289h-146v-700
l15.5 -1t41 -2.5t58 -3.5t67.5 -3t68 -1q50 0 92.5 7.5t74 26.5t49 51t17.5 82v108q0 39 -13 67t-36.5 45.5t-54 26t-66.5 8.5zM380 173q0 -13 -3 -23t-12 -17t-25 -10.5t-43 -3.5q-10 -1 -24.5 -0.5t-29.5 1t-27 1t-20 1l-8 0.5v156h144q10 0 19 -2t15.5 -6.5t10 -12
t3.5 -19.5v-65z" />
    <glyph glyph-name="uni04F9" unicode="&#x4f9;" horiz-adv-x="767" 
d="M301 695q-28 0 -48.5 -20.5t-20.5 -48.5t20.5 -48.5t48.5 -20.5q30 0 50 20.5t20 48.5t-20 48.5t-50 20.5zM470 694q-29 0 -49 -20t-20 -48t20 -48.5t49 -20.5t49 20.5t20 48.5t-20 48t-49 20zM584 0h146v500h-146v-500zM314 332h-128v168h-146v-498l18 -1t47 -2.5
t63 -3.5t65.5 -3t55.5 -1q83 0 135.5 21.5t77 61t24.5 93.5q0 60 -29.5 96t-77.5 52.5t-105 16.5zM307 126q-8 0 -23 0.5t-33 1t-35 0.5t-30 1v72h134q14 0 25 -2t18.5 -6.5t11 -11t3.5 -16.5q0 -15 -8.5 -23t-24.5 -12t-38 -4z" />
    <glyph glyph-name="uni051A" unicode="&#x51a;" horiz-adv-x="598" 
d="M362 53v128h-124v-156q0 -30 10.5 -58.5t38 -51.5t77.5 -36t130 -13l28 116q-52 -3 -84 1t-48 13t-22 24t-6 33zM35 502v-311q0 -66 34.5 -111t94 -68t135.5 -23q82 0 140.5 24.5t90.5 70t32 107.5v310q0 101 -67.5 158.5t-193.5 57.5q-125 0 -195.5 -55.5t-70.5 -159.5z
M180 212v267q0 38 13 60.5t39.5 32t65.5 9.5q42 0 68.5 -10t39.5 -32t13 -59v-267q0 -31 -14.5 -51.5t-41 -30.5t-64.5 -10t-64.5 9.5t-40.5 30t-14 51.5z" />
    <glyph glyph-name="uni051B" unicode="&#x51b;" horiz-adv-x="540" 
d="M359 10v-202l145 -21v714h-145v-22q-21 11 -45 18t-49 11t-50 4q-57 0 -98 -18t-63.5 -54t-22.5 -91v-174q0 -65 25 -106t70.5 -60.5t105.5 -19.5q27 0 50 2.5t42.5 7.5t34.5 11zM359 354v-193q0 -7 -6.5 -12.5t-19.5 -10.5t-32.5 -8.5t-46.5 -3.5q-28 0 -45 6
t-24.5 17.5t-7.5 25.5v150q0 15 6.5 24t17.5 14t25 6.5t29 1.5q16 0 33 -2t31.5 -5t25 -6t14.5 -4z" />
    <glyph glyph-name="uni051C" unicode="&#x51c;" horiz-adv-x="915" 
d="M524 700h-132l-113 -426l-106 426h-154l177 -700h157l104 367l103 -367h157l176 700h-154l-104 -426z" />
    <glyph glyph-name="uni051D" unicode="&#x51d;" horiz-adv-x="897" 
d="M521 500h-145l-98 -303l-106 303h-152l181 -500h155l91 268l91 -268h154l180 500h-151l-101 -302z" />
    <glyph glyph-name="Wgrave" unicode="&#x1e80;" horiz-adv-x="915" 
d="M463 856q-3 16 -16 28.5t-30.5 16.5t-35.5 -6q-17 -9 -22 -24.5t-0.5 -31.5t13.5 -28l55 -72h67zM524 700h-132l-113 -426l-106 426h-154l177 -700h157l104 367l103 -367h157l176 700h-154l-104 -426z" />
    <glyph glyph-name="wgrave" unicode="&#x1e81;" horiz-adv-x="897" 
d="M452 681q-3 16 -16 28.5t-30.5 16.5t-35.5 -6q-17 -9 -22 -24.5t-0.5 -31.5t13.5 -28l55 -72h67zM521 500h-145l-98 -303l-106 303h-152l181 -500h155l91 268l91 -268h154l180 500h-151l-101 -302z" />
    <glyph glyph-name="Wacute" unicode="&#x1e82;" horiz-adv-x="915" 
d="M547 819q10 13 13.5 29t-1.5 31t-22 24q-17 10 -34.5 6t-30 -16t-16.5 -28l-30 -117h66zM524 700h-132l-113 -426l-106 426h-154l177 -700h157l104 367l103 -367h157l176 700h-154l-104 -426z" />
    <glyph glyph-name="wacute" unicode="&#x1e83;" horiz-adv-x="897" 
d="M537 634q10 13 13.5 29t-1.5 31t-22 24q-17 10 -34.5 6t-30 -16t-16.5 -28l-30 -117h66zM521 500h-145l-98 -303l-106 303h-152l181 -500h155l91 268l91 -268h154l180 500h-151l-101 -302z" />
    <glyph glyph-name="Wdieresis" unicode="&#x1e84;" horiz-adv-x="915" 
d="M373 889q-28 0 -48.5 -20.5t-20.5 -48.5t20.5 -48.5t48.5 -20.5q30 0 50 20.5t20 48.5t-20 48.5t-50 20.5zM542 888q-29 0 -49 -20t-20 -48t20 -48.5t49 -20.5t49 20.5t20 48.5t-20 48t-49 20zM524 700h-132l-113 -426l-106 426h-154l177 -700h157l104 367l103 -367h157
l176 700h-154l-104 -426z" />
    <glyph glyph-name="wdieresis" unicode="&#x1e85;" horiz-adv-x="897" 
d="M364 694q-28 0 -48.5 -20.5t-20.5 -48.5t20.5 -48.5t48.5 -20.5q30 0 50 20.5t20 48.5t-20 48.5t-50 20.5zM533 693q-29 0 -49 -20t-20 -48t20 -48.5t49 -20.5t49 20.5t20 48.5t-20 48t-49 20zM521 500h-145l-98 -303l-106 303h-152l181 -500h155l91 268l91 -268h154
l180 500h-151l-101 -302z" />
    <glyph glyph-name="Ygrave" unicode="&#x1ef2;" horiz-adv-x="629" 
d="M316 859q-3 16 -16 28.5t-30.5 16.5t-35.5 -6q-17 -9 -22 -24.5t-0.5 -31.5t13.5 -28l55 -72h67zM588 157v543h-146v-283q0 -18 -10 -33.5t-28 -26.5t-41 -17.5t-48 -6.5q-49 0 -79 11t-44 32.5t-14 53.5v270h-147v-290q0 -66 32.5 -112.5t89.5 -71t128 -24.5
q31 0 61 3.5t56.5 12t47.5 20.5l-1 -68q0 -21 -9.5 -35t-25.5 -23t-35.5 -13.5t-39.5 -5.5l44 -112q112 8 160.5 52.5t48.5 123.5z" />
    <glyph glyph-name="ygrave" unicode="&#x1ef3;" horiz-adv-x="587" 
d="M297 671q-3 16 -16 28.5t-30.5 16.5t-35.5 -6q-17 -9 -22 -24.5t-0.5 -31.5t13.5 -28l55 -72h67zM559 414l-43 98q-47 0 -81.5 -17.5t-52.5 -50.5t-18 -78v-179q0 -13 -9.5 -23.5t-25.5 -18t-34 -12t-34 -4.5q-18 0 -32.5 2.5t-25 8.5t-16 15.5t-5.5 21.5v326h-146v-348
q0 -48 16 -79.5t42 -49.5t58.5 -25.5t66.5 -7.5q30 0 57 4t49.5 11.5t38.5 16.5v-56q0 -15 -9 -26.5t-24 -19t-33.5 -12t-37.5 -4.5l49 -121q61 0 106.5 18.5t70 53t24.5 83.5v402q0 27 8.5 46t40.5 25z" />
    <glyph glyph-name="endash" unicode="&#x2013;" horiz-adv-x="549" 
d="M35 292h479v122h-479v-122z" />
    <glyph glyph-name="emdash" unicode="&#x2014;" horiz-adv-x="882" 
d="M35 292h812v122h-812v-122z" />
    <glyph glyph-name="quoteleft" unicode="&#x2018;" horiz-adv-x="177" 
d="M126 712l-27 19l-11.5 -7.5t-27 -24t-27.5 -42.5t-12 -62q0 -28 19.5 -48.5t47.5 -20.5q30 0 50 20.5t20 48.5q0 24 -15 42t-38 24q3 11 8.5 24.5t12.5 26.5z" />
    <glyph glyph-name="quoteright" unicode="&#x2019;" horiz-adv-x="174" 
d="M52 546l27 -20l11.5 7.5t27 24t27.5 42.5t12 62q0 28 -19.5 48.5t-48.5 20.5t-49 -20.5t-20 -48.5q0 -23 15 -41t38 -24q-3 -11 -8 -24.5t-13 -26.5z" />
    </font>
</defs>
</svg>
