<?xml version="1.0" standalone="no"?>
<!DOCTYPE svg PUBLIC "-//W3C//DTD SVG 1.1//EN" "http://www.w3.org/Graphics/SVG/1.1/DTD/svg11.dtd" >
<svg xmlns="http://www.w3.org/2000/svg" xmlns:xlink="http://www.w3.org/1999/xlink" version="1.1">
<metadata>
Created by FontForge 20170731 at Fri Nov 25 18:45:57 2022
 By Aleksey,,,
Copyright 2018 The Advent Pro Project Authors (https://github.com/googlefonts/Advent)
</metadata>
<defs>
<font id="AdventProExpanded-Light" horiz-adv-x="267" >
  <font-face 
    font-family="Advent Pro Expanded Light"
    font-weight="300"
    font-stretch="expanded"
    units-per-em="1000"
    panose-1="0 0 0 0 0 0 0 0 0 0"
    ascent="800"
    descent="-200"
    x-height="499"
    cap-height="700"
    bbox="-67 -232.541 2142 962"
    underline-thickness="50"
    underline-position="-175"
    unicode-range="U+000D-FB04"
  />
<missing-glyph horiz-adv-x="500" 
d="M50 -232v1194h400v-1194h-400zM100 -182h300v1094h-300v-1094z" />
    <glyph glyph-name="fi" unicode="fi" horiz-adv-x="394" 
d="M354 632v42q-18 11 -41 18.5t-50.5 12t-58.5 4.5q-34 1 -64 -8.5t-53 -27.5t-35.5 -46t-12.5 -66v-561h44v459h131l17 41h-148v63q0 38 15.5 60.5t43 33t63.5 10.5q45 0 83 -10t66 -25zM354 0v500h-44v-500h44z" />
    <glyph glyph-name="fl" unicode="fl" horiz-adv-x="396" 
d="M310 631v-631h44v658q-23 17 -46.5 27.5t-48 16t-48.5 5.5q-32 0 -62.5 -8.5t-55 -26t-39 -44.5t-14.5 -64v-564h45v459h130l18 41h-148v57q0 28 10.5 48.5t28.5 32.5t40 18t45 5q22 0 48 -7t53 -23z" />
    <glyph glyph-name="ffl" unicode="ffl" horiz-adv-x="653" 
d="M568 635v-635h43v663q-21 14 -43 23.5t-45 14t-50 4.5q-26 0 -49.5 -5t-42 -14t-33.5 -22q-36 23 -73 32.5t-75 9.5q-23 0 -50.5 -7t-52.5 -23.5t-41.5 -44t-16.5 -68.5v-563h45v459h130l17 41h-147v56q0 41 17.5 65.5t47 35t64.5 8.5q19 -1 36 -5t34.5 -11t36.5 -18
q-10 -16 -16 -33.5t-6 -36.5v-561h46v459h131l18 41h-149v59q0 21 9 37.5t24 28.5t33.5 20t37.5 12q17 4 35.5 3.5t40.5 -6.5t44 -19z" />
    <glyph glyph-name="ft" unicode="ft" horiz-adv-x="533" 
d="M352 133v326h137l19 41h-156v157q-22 17 -46 28t-48.5 16t-48.5 5q-32 0 -62 -8.5t-54.5 -25.5t-38.5 -44t-14 -63v-565h44v459h129l18 41h-147v57q0 38 17.5 61t45.5 33.5t60 10.5q22 -1 49 -7t52 -24v-498q0 -39 11.5 -68t37 -48t67.5 -30l14 34q-29 10 -48 24
t-28.5 36t-9.5 52z" />
    <glyph glyph-name="w_w_w" unicode="www" horiz-adv-x="2162" 
d="M413 499h-42l-142 -450l-159 450h-46l178 -499h53l136 428l136 -428h53l180 499h-47l-159 -450zM1104 499h-42l-142 -450l-159 450h-46l178 -499h53l136 428l136 -428h53l180 499h-47l-159 -450zM1795 499h-42l-142 -450l-159 450h-46l178 -499h53l136 428l136 -428h53
l180 499h-47l-159 -450z" />
    <glyph glyph-name="t_t" unicode="tt" horiz-adv-x="429" 
d="M84 131v328h146v41h-146v200h-44v-569q0 -39 12.5 -67.5t39 -47t67.5 -29.5l13 34q-21 7 -37.5 16.5t-28 23t-17 31t-5.5 39.5zM257 130v329h136l19 41h-155v200h-44v-569q0 -61 29.5 -95.5t91.5 -48.5l13 34q-29 8 -49 21t-30.5 34.5t-10.5 53.5z" />
    <glyph glyph-name="gamma_gamma" unicode="&#x3b3;&#x3b3;" horiz-adv-x="982" 
d="M486 500h-45l-160 -466q-17 3 -31 9.5t-25.5 19t-21.5 31.5t-19 46l-120 360h-45l123 -371q12 -34 27.5 -61.5t39.5 -46t59 -27.5l-25 -73q-6 -16 -15.5 -31t-24 -27t-36 -19t-49.5 -8l9 -35q47 1 76.5 14.5t46.5 34.5t26 43t15 38zM963 484l-28 26q-32 -9 -51.5 -24
t-32 -39t-24.5 -60l-121 -353q-17 3 -31 9.5t-25.5 18.5t-21.5 31.5t-19 46.5l-120 360h-45l123 -371q11 -33 26 -61t39 -47t59 -27l-25 -73q-5 -16 -14.5 -31t-24 -27t-35 -19t-49.5 -8l9 -35q47 1 76.5 14.5t46.5 34.5t25.5 43t14.5 38l152 447q9 28 18.5 47.5t27.5 34
t50 24.5z" />
    <glyph glyph-name="gamma_kappa" unicode="&#x3b3;&#x3ba;" horiz-adv-x="997" 
d="M557 478l-8 34q-38 3 -64 -7.5t-43.5 -34t-29.5 -58.5l-131 -378q-17 2 -31 9t-25.5 19t-22 31.5t-19.5 46.5l-119 360h-44l122 -371q11 -34 27 -61.5t40 -46t58 -27.5l-25 -73q-5 -16 -14.5 -31t-24.5 -27t-36 -19t-49 -8l9 -35q47 1 76.5 14.5t46.5 34.5t26.5 43
t14.5 38l160 470q9 25 19.5 44t30.5 28t56 5zM851 116l-143 180l213 205h-62l-266 -254v255l-44 10v-512h44v189l83 75l130 -161q19 -23 42 -47t51.5 -40t65.5 -16h2v38h-4q-16 0 -34 8.5t-37.5 26t-40.5 43.5z" />
    <glyph glyph-name="lambda_lambda" unicode="&#x3bb;&#x3bb;" horiz-adv-x="973" 
d="M484 -1l-191 569q-6 16 -15 38t-26.5 42.5t-47 34t-76.5 14.5l-9 -35q28 0 48.5 -7.5t35.5 -19t24 -26.5t15 -31l24 -72q-35 -8 -58.5 -27.5t-38 -47t-25.5 -60.5l-122 -372h45l119 361q12 35 25 57t30.5 33.5t40.5 15.5l158 -467h44zM863 121l-151 447q-6 16 -15 38
t-26.5 42.5t-47 34t-76.5 14.5l-9 -35q37 0 62 -12.5t39.5 -31.5t22.5 -40l25 -72q-36 -8 -59 -27t-38 -46.5t-26 -61.5l-123 -372h44l120 361q12 36 25.5 58t31 33.5t39.5 14.5l120 -354q12 -35 24.5 -58.5t32 -38.5t51.5 -25l28 26q-33 11 -52 30t-28 40t-14 35z" />
    <glyph glyph-name="sigma_tau" unicode="&#x3c3;&#x3c4;" horiz-adv-x="875" 
d="M694 444v-311q0 -28 7 -50t25 -37.5t49 -24.5l-15 -34q-32 8 -53 21.5t-33.5 31t-17.5 41t-5 52.5v311q-53 0 -102.5 2t-89 6t-64.5 7q25 -18 38.5 -49.5t13.5 -88.5v-137q0 -89 -50.5 -141.5t-153.5 -52.5q-70 0 -117.5 25.5t-71 69t-23.5 98.5v142q0 56 18.5 92.5
t49 57t67.5 29t74 8.5q30 0 54.5 -1.5t44 -3.5t33.5 -4q59 -6 119 -10t121 -5.5t124.5 1.5t129.5 12v-43q-38 -7 -82 -10t-90 -4zM337 464q-14 2 -30.5 3.5t-33.5 2.5t-34 1q-28 0 -57 -7.5t-52.5 -23.5t-38 -43t-14.5 -68v-153q0 -44 20.5 -77t58 -51.5t88.5 -18.5
q79 0 119 41t40 107v153q0 27 -5 47t-13 35t-17 25t-17 16.5t-14 10.5z" />
    <glyph glyph-name=".notdef" horiz-adv-x="500" 
d="M50 -232v1194h400v-1194h-400zM100 -182h300v1094h-300v-1094z" />
    <glyph glyph-name=".null" horiz-adv-x="0" 
 />
    <glyph glyph-name="nonmarkingreturn" horiz-adv-x="333" 
 />
    <glyph glyph-name="NULL" horiz-adv-x="0" 
 />
    <glyph glyph-name="NULL" horiz-adv-x="0" 
 />
    <glyph glyph-name="CR" unicode="&#xd;" horiz-adv-x="424" 
 />
    <glyph glyph-name="space" unicode=" " horiz-adv-x="315" 
 />
    <glyph glyph-name="exclam" unicode="!" horiz-adv-x="138" 
d="M41 679l9 -558h37l9 559q0 15 -6.5 22.5t-20.5 7.5q-13 0 -20.5 -7t-7.5 -24zM74 51q-9 2 -17 -3t-11 -14q-2 -9 3 -17.5t13 -10.5q10 -2 18.5 3t10.5 14q3 9 -2.5 17t-14.5 11z" />
    <glyph glyph-name="quotedbl" unicode="&#x22;" horiz-adv-x="252" 
d="M166 710l11 -122h32l12 122q0 14 -8.5 21t-19 7t-19 -7t-8.5 -21zM30 710l11 -122h32l12 122q0 14 -8 21t-19 7t-19.5 -7t-8.5 -21z" />
    <glyph glyph-name="numbersign" unicode="#" horiz-adv-x="679" 
d="M435 244l45 170h167v44h-157l66 242h-44l-64 -242h-164l63 242h-44l-63 -242h-211v-44h198l-43 -170h-155v-42h143l-53 -202h44l53 202h164l-52 -202h43l53 202h223v42h-212zM392 244h-165l44 170h165z" />
    <glyph glyph-name="dollar" unicode="$" horiz-adv-x="588" 
d="M285 -114h44v932h-44v-932zM476 633l13 39q-27 13 -55.5 21t-58.5 12t-60 4q-44 0 -88.5 -9t-81 -28.5t-58.5 -51.5t-22 -78q0 -40 18.5 -69t51 -50t71.5 -37.5t81.5 -31t82 -30t72 -35t51 -46t18.5 -62.5q0 -42 -19 -71t-51 -46.5t-71 -25.5t-80 -8q-44 0 -88.5 10.5
t-83.5 30.5t-65 50l-29 -27q34 -37 76.5 -60.5t91 -34.5t101.5 -11q50 0 97 10.5t85 33.5t60.5 59t22.5 85q0 46 -18.5 79.5t-50.5 57t-72 41t-82.5 32t-82 28.5t-71.5 32t-51.5 42t-19.5 57q0 35 19.5 58.5t50.5 37.5t66.5 20.5t67.5 6.5q28 0 56.5 -4t55.5 -11.5t50 -19.5
z" />
    <glyph glyph-name="percent" unicode="%" horiz-adv-x="801" 
d="M61 0h62l603 700h-58zM198 714q-45 0 -83 -19.5t-60.5 -52.5t-22.5 -74q0 -40 22.5 -73t60 -53t82.5 -20t82.5 20t59.5 53t22 73q0 41 -22 74t-59 52.5t-82 19.5zM197 673q33 0 59.5 -14t42.5 -38t16 -53q0 -28 -16 -52t-42.5 -38.5t-59.5 -14.5q-32 0 -59.5 14.5
t-43.5 38.5t-16 52q0 29 16 53t43.5 38t59.5 14zM602 277q-44 0 -81 -19.5t-59.5 -52.5t-22.5 -73t22.5 -73.5t59.5 -53t81 -19.5q46 0 83 19.5t59 53t22 73.5t-22 73t-59 52.5t-83 19.5zM602 237q34 0 60.5 -14t42.5 -37.5t16 -53.5q0 -29 -16 -53t-42.5 -38t-60.5 -14
q-31 0 -58 14t-43 38t-16 53q0 30 16 53.5t43 37.5t58 14z" />
    <glyph glyph-name="ampersand" unicode="&#x26;" horiz-adv-x="587" 
d="M432 663l18 41h-188q-52 0 -88.5 -19.5t-54.5 -53.5t-16 -80q1 -24 10.5 -51.5t31 -52.5t56.5 -44h-22q-39 0 -67 -9.5t-46.5 -29t-27.5 -47t-9 -62.5v-95q0 -39 11 -68t30.5 -48t45.5 -30t56.5 -15.5t63.5 -3.5q28 0 62 9t65 27.5t50 48.5q10 -33 36.5 -55t71.5 -34
l11 34q-44 13 -65.5 40t-21.5 72v225h95l17 42h-112v103h-43v-104h-83q-30 0 -60.5 11t-56 30t-40.5 46t-15 59q0 52 29 83t85 31h171zM402 362v-186q0 -37 -19.5 -66.5t-54.5 -48.5t-84 -23q-52 -4 -90 8t-59.5 41t-21.5 76v90q0 35 10.5 56t28.5 32.5t40.5 16t45.5 4.5
h204z" />
    <glyph glyph-name="quotesingle" unicode="'" horiz-adv-x="207" 
d="M76 711l11 -122h32l11 122q0 14 -8 21t-19 7t-19 -7t-8 -21z" />
    <glyph glyph-name="parenleft" unicode="(" horiz-adv-x="200" 
d="M181 787l-17 30q-39 -20 -65.5 -45.5t-39.5 -60t-13 -84.5v-557q0 -45 9 -74.5t25.5 -49.5t38 -35.5t45.5 -30.5l17 32q-17 11 -33.5 24.5t-29.5 31t-20.5 41t-7.5 54.5v574q0 28 6 50t17.5 40t28.5 32.5t39 27.5z" />
    <glyph glyph-name="parenright" unicode=")" horiz-adv-x="200" 
d="M20 787l17 30q30 -16 52 -33.5t36.5 -39.5t22 -50.5t7.5 -66.5v-557q0 -45 -9 -74.5t-25.5 -49.5t-38 -35.5t-45.5 -30.5l-17 32q17 11 33.5 24.5t29.5 31t20.5 41t7.5 54.5v574q0 28 -6 50t-17.5 40t-28.5 32.5t-39 27.5z" />
    <glyph glyph-name="asterisk" unicode="*" horiz-adv-x="348" 
d="M37 623l-14 -39l114 -41l-71 -95l37 -26l69 101l74 -101l32 26l-71 95l116 41l-16 39l-115 -44v121h-43v-121z" />
    <glyph glyph-name="plus" unicode="+" horiz-adv-x="426" 
d="M237 530h-49v-138h-157v-43h157v-139h49v139h154v43h-154v138z" />
    <glyph glyph-name="comma" unicode="," horiz-adv-x="215" 
d="M76 -76l14 -11q5 5 13 14t16.5 22t14 30.5t5.5 40.5q-1 12 -9 19.5t-20 7.5q-11 0 -19 -7.5t-8 -19.5q0 -10 6.5 -18t15.5 -10q-1 -14 -7.5 -32t-21.5 -36z" />
    <glyph glyph-name="hyphen" unicode="-" horiz-adv-x="392" 
d="M34 369h320v45h-320v-45z" />
    <glyph glyph-name="period" unicode="." horiz-adv-x="130" 
d="M58 42q-9 -2 -13.5 -10t-2.5 -17q3 -9 11.5 -14t17.5 -3q9 3 14.5 11t2.5 17t-12 14t-18 2z" />
    <glyph glyph-name="slash" unicode="/" horiz-adv-x="455" 
d="M20 -114h51l365 932h-54z" />
    <glyph glyph-name="zero" unicode="0" horiz-adv-x="546" 
d="M34 504v-314q0 -67 31.5 -112t85.5 -67t121 -22q71 0 124 24t82 69t29 108v313q0 101 -61 157t-173 56q-113 0 -176 -54t-63 -158zM78 191v319q0 54 23.5 90t67 55t101.5 19q61 0 104 -18.5t66 -55t23 -89.5v-320q0 -55 -25 -91t-68.5 -53t-99.5 -17q-53 0 -96.5 18
t-69.5 53.5t-26 89.5z" />
    <glyph glyph-name="one" unicode="1" horiz-adv-x="243" 
d="M11 617l10 -31q17 3 36 9t37.5 14.5t35 18t27.5 17.5v-645h43v700h-43q-16 -19 -38 -34t-44.5 -25t-40 -16t-23.5 -8z" />
    <glyph glyph-name="two" unicode="2" horiz-adv-x="461" 
d="M47 590l40 -16q13 30 34.5 51t50.5 31.5t63 10.5q38 0 71 -14.5t53 -42t20 -65.5q0 -17 -4.5 -34.5t-15.5 -38.5t-32 -49l-295 -381v-42h394v42h-339l278 357q35 46 48 82.5t13 68.5q0 50 -27 85.5t-70 55.5t-91 19q-42 0 -79 -13t-66 -39.5t-46 -67.5z" />
    <glyph glyph-name="three" unicode="3" horiz-adv-x="491" 
d="M228 414h-23l196 247v39h-326v-45h269l-227 -286h118q52 0 93.5 -22t66 -59t24.5 -85q0 -49 -26 -88t-69.5 -61t-99.5 -22q-50 0 -92 19t-71 56l-36 -25q33 -43 84.5 -68.5t117.5 -25.5q50 0 93 16t75.5 45t50 67.5t17.5 84.5q0 64 -30.5 111.5t-83.5 74.5t-121 27z" />
    <glyph glyph-name="four" unicode="4" horiz-adv-x="536" 
d="M379 0h45v369h69l16 44h-85v287h-44v-287h-283l177 287h-48l-210 -331h364z" />
    <glyph glyph-name="five" unicode="5" horiz-adv-x="488" 
d="M110 412l28 243h260v45h-298l-41 -331h139q77 0 124.5 -23t70 -61t22.5 -84q0 -40 -15.5 -71t-43.5 -53t-62.5 -33.5t-72.5 -11.5t-69.5 7t-56 16.5t-38 17t-13.5 6.5l-16 -37q0 1 15 -7t41.5 -19t62.5 -19.5t76 -8.5q55 0 99 17.5t74.5 47t47 67.5t16.5 79
q0 69 -31.5 116.5t-90.5 72.5t-140 25z" />
    <glyph glyph-name="six" unicode="6" horiz-adv-x="539" 
d="M306 658h42v42h-40q-81 0 -143 -29.5t-97 -83t-35 -125.5v-259q0 -61 32.5 -109t87 -76t121.5 -28q50 0 93 16t76 45.5t52 68t19 83.5q0 61 -33 109t-88 75.5t-122 27.5q-37 0 -72.5 -9.5t-66.5 -30t-55 -52.5v133q0 61 28 106.5t79.5 70.5t121.5 25zM274 372
q39 0 74 -13t62 -36t42.5 -53.5t15.5 -66.5t-15 -67t-42 -54t-62 -36t-75 -13q-54 0 -98.5 22.5t-71 61t-26.5 86.5q0 35 15.5 65.5t42.5 53.5t62.5 36.5t75.5 13.5z" />
    <glyph glyph-name="seven" unicode="7" horiz-adv-x="482" 
d="M90 0l377 657v43h-441v-45h389l-375 -655h50z" />
    <glyph glyph-name="eight" unicode="8" horiz-adv-x="536" 
d="M266 709q-55 0 -99 -22.5t-70 -62t-26 -89.5q0 -30 12.5 -59t35 -52t51.5 -36q-42 -15 -74.5 -44t-50.5 -66.5t-18 -79.5q0 -61 31.5 -108.5t85.5 -74.5t121 -27q68 0 121.5 27t84.5 74.5t31 108.5q0 43 -18.5 80t-50.5 65.5t-74 43.5q48 23 74.5 60.5t26.5 87.5
q0 51 -25.5 90t-69 61.5t-99.5 22.5zM265 405q-41 0 -75 18t-55 48t-21 65q0 38 21 67.5t55.5 46.5t74.5 17q41 0 75 -17t54.5 -46.5t20.5 -67.5q0 -36 -20 -66t-54 -47.5t-76 -17.5zM265 31q-53 0 -97 22t-70.5 59.5t-26.5 84.5q0 35 15.5 65t42.5 53t62 35.5t74 12.5
q54 0 97.5 -22t69 -59.5t25.5 -84.5t-26 -84.5t-69.5 -59.5t-96.5 -22z" />
    <glyph glyph-name="nine" unicode="9" horiz-adv-x="535" 
d="M262 709q-50 0 -93.5 -16t-76.5 -45t-51.5 -67.5t-18.5 -83.5q0 -63 32.5 -110.5t87.5 -74.5t123 -27q37 0 72.5 9.5t66 30t53.5 51.5v-130q0 -59 -27.5 -105t-78 -72t-121.5 -26h-42v-44h39q80 0 142 30t97 84.5t35 127.5v256q0 61 -31.5 109t-86 75.5t-121.5 27.5z
M262 666q54 0 98 -22t70.5 -60t26.5 -87q0 -36 -15.5 -67t-42.5 -54t-62 -36t-75 -13q-39 0 -74.5 12.5t-62.5 35.5t-42.5 54t-15.5 68q0 36 15.5 67t42.5 53.5t62 35.5t75 13z" />
    <glyph glyph-name="colon" unicode=":" horiz-adv-x="133" 
d="M93 144q0 12 -8.5 19.5t-20.5 7.5q-11 0 -19.5 -7.5t-8.5 -19.5t8.5 -19.5t19.5 -7.5q12 0 20.5 7.5t8.5 19.5zM93 385q0 12 -8.5 19.5t-20.5 7.5q-11 0 -19.5 -7.5t-8.5 -19.5q0 -11 8.5 -19.5t19.5 -8.5q12 0 20.5 8.5t8.5 19.5z" />
    <glyph glyph-name="semicolon" unicode=";" horiz-adv-x="141" 
d="M37 46l14 -10q5 4 13 13t16.5 22t14 31t5.5 41q-1 13 -9 20t-20 7q-11 0 -19 -8t-8 -19q0 -10 6.5 -18t15.5 -10q-1 -14 -7 -32.5t-22 -36.5zM102 385q0 12 -8.5 19.5t-19.5 7.5t-20 -7.5t-9 -19.5q0 -11 9 -19.5t20 -8.5t19.5 8.5t8.5 19.5z" />
    <glyph glyph-name="less" unicode="&#x3c;" horiz-adv-x="413" 
d="M28 359l313 -280l34 32l-280 246l280 251l-34 29z" />
    <glyph glyph-name="equal" unicode="=" horiz-adv-x="390" 
d="M33 369h320v43h-320v-43zM33 265h320v43h-320v-43z" />
    <glyph glyph-name="greater" unicode="&#x3e;" horiz-adv-x="413" 
d="M34 608l281 -251l-281 -246l34 -32l312 280l-312 278z" />
    <glyph glyph-name="question" unicode="?" horiz-adv-x="450" 
d="M25 532h44q0 36 14 62t36.5 42t50.5 24t56 8q40 -1 75 -17t56 -45t21 -70q0 -31 -12.5 -55t-32 -45.5t-42.5 -45.5q-21 -21 -39 -39.5t-31.5 -39t-21.5 -46t-8 -61.5v-84h41v83q0 30 7 52t19.5 39.5t30.5 35t40 38.5q25 25 46 50t33.5 54.5t12.5 65.5q0 40 -16.5 72
t-44 54t-62.5 33.5t-72 11.5t-73 -10.5t-64.5 -32t-46 -55t-17.5 -79.5zM213 48q-11 0 -20 -8t-9 -20q0 -11 9 -19t20 -8t19.5 8t8.5 19q0 12 -8.5 20t-19.5 8z" />
    <glyph glyph-name="at" unicode="@" horiz-adv-x="798" 
d="M772 459l-14 32q-27 -10 -41.5 -26t-20 -40t-5.5 -58v-201q0 -50 -26 -85.5t-70 -58.5t-98 -34t-111 -11q-70 0 -127 13t-97.5 39.5t-62 67.5t-21.5 96v148q0 52 19.5 90t54 62.5t78 36.5t92.5 12q87 0 141.5 -27.5t68.5 -71.5h-202q-32 0 -60.5 -7t-50.5 -24t-35 -46.5
t-13 -73.5v-66q0 -47 15.5 -79.5t44 -51.5t67 -27t83.5 -7q19 0 44 1t51.5 2t49 2.5t36 2l13.5 0.5v332h61l12 42h-76q-7 30 -26.5 55t-51.5 43.5t-75.5 28.5t-99.5 10q-69 0 -123 -18t-90.5 -50.5t-55.5 -76.5t-19 -97v-148q0 -66 27.5 -114t76 -79.5t111 -47t132.5 -15.5
q69 0 132.5 14t114.5 43t80.5 74t29.5 106v212q0 22 4 36.5t12.5 24t20.5 15.5zM324 401h210v-292l-15 -1t-39.5 -2.5t-54.5 -3t-59 -1.5q-75 0 -114 31t-39 94v63q0 46 16 70.5t41.5 33t53.5 8.5z" />
    <glyph glyph-name="A" unicode="A" horiz-adv-x="608" 
d="M589 0l-265 700h-40l-263 -700h47l97 257h278l99 -257h47zM180 300l124 335l125 -335h-249z" />
    <glyph glyph-name="B" unicode="B" horiz-adv-x="556" 
d="M296 700h-255v-700h267q74 0 122.5 25.5t72.5 72.5t24 111q0 48 -15.5 85.5t-44 63.5t-68.5 38q28 13 47.5 34t29.5 47.5t10 56.5q0 55 -21.5 92t-64 55.5t-104.5 18.5zM304 412h-219v246h205q53 0 86 -14.5t48.5 -42t15.5 -66.5q0 -37 -16.5 -65t-46.5 -43t-73 -15z
M306 42h-221v327h227q53 0 90.5 -20t57.5 -56t20 -81q0 -55 -19.5 -93.5t-58 -57.5t-96.5 -19z" />
    <glyph glyph-name="C" unicode="C" horiz-adv-x="468" 
d="M400 646l13 31q-34 17 -75.5 25t-86.5 8q-61 0 -110 -19.5t-78 -63t-29 -116.5v-325q0 -69 26 -112t76 -63.5t123 -20.5q43 0 89 8.5t94 24.5l-11 37q-31 -10 -61.5 -17t-57 -10.5t-49.5 -3.5q-59 0 -100.5 15t-62.5 50t-21 94v326q0 56 22 90.5t64 50t101 15.5
q31 0 65.5 -5.5t68.5 -18.5z" />
    <glyph glyph-name="D" unicode="D" horiz-adv-x="549" 
d="M260 700h-219v-700h239q80 0 132 23.5t77.5 69.5t25.5 114v268q0 69 -28 119.5t-84.5 78t-142.5 27.5zM270 40h-185v620h186q70 0 113.5 -23t64.5 -63t21 -91v-278q0 -44 -13 -75.5t-38 -51t-62.5 -29t-86.5 -9.5z" />
    <glyph glyph-name="E" unicode="E" horiz-adv-x="446" 
d="M41 0h374v40h-329v329h230l14 43h-244v247h331v41h-376v-700z" />
    <glyph glyph-name="F" unicode="F" horiz-adv-x="433" 
d="M417 700h-376v-700h45v369h227l18 43h-245v246h331v42z" />
    <glyph glyph-name="G" unicode="G" horiz-adv-x="527" 
d="M407 644l13 32q-24 11 -51.5 18.5t-57 11t-59.5 3.5q-73 0 -121.5 -24t-72.5 -70t-24 -112v-312q0 -67 26.5 -111.5t76 -67t117.5 -22.5q41 0 79 9t68.5 26.5t48.5 41.5l3 -67h42v300h-225l16 -43h166v-71q0 -36 -15 -64.5t-42 -48.5t-63 -30.5t-79 -10.5q-56 0 -95 18.5
t-59.5 53.5t-20.5 85v318q0 57 21.5 92.5t63.5 53t104 17.5q21 0 44.5 -2.5t48 -8t47.5 -15.5z" />
    <glyph glyph-name="H" unicode="H" horiz-adv-x="566" 
d="M480 412h-395v288h-44v-700h44v369h395v-369h43v700h-43v-288z" />
    <glyph glyph-name="I" unicode="I" horiz-adv-x="187" 
d="M18 662l87 -2v-660h43v700h-130v-38z" />
    <glyph glyph-name="J" unicode="J" horiz-adv-x="209" 
d="M168 122v578h-130v-38l85 -2v-542q0 -41 -13 -68t-34.5 -40.5t-49.5 -15.5l10 -31q38 3 63.5 16.5t40.5 35t21.5 49t6.5 58.5z" />
    <glyph glyph-name="K" unicode="K" horiz-adv-x="509" 
d="M85 346v354h-44v-700h44v277l76 92l272 -369h55l-297 407l241 293h-54z" />
    <glyph glyph-name="L" unicode="L" horiz-adv-x="468" 
d="M41 0h406v40h-362v660h-44v-700z" />
    <glyph glyph-name="M" unicode="M" horiz-adv-x="686" 
d="M85 700h-44v-700h44v581l233 -581h45l236 581v-581h44v700h-44l-259 -635z" />
    <glyph glyph-name="N" unicode="N" horiz-adv-x="639" 
d="M596 700h-44v-626l-467 626h-44v-700h44v626l467 -626h44v700z" />
    <glyph glyph-name="O" unicode="O" horiz-adv-x="543" 
d="M34 504v-314q0 -67 31.5 -112t85.5 -67t121 -22q71 0 124 24t82 69t29 108v313q0 101 -61 157t-173 56q-113 0 -176 -54t-63 -158zM78 191v319q0 54 23.5 90t67 55t101.5 19q61 0 104 -18.5t66 -55t23 -89.5v-320q0 -55 -25 -91t-68.5 -53t-99.5 -17q-53 0 -96.5 18
t-69.5 53.5t-26 89.5z" />
    <glyph glyph-name="P" unicode="P" horiz-adv-x="559" 
d="M315 700h-274v-700h45v257h226q56 0 97 13t67.5 39.5t40 69.5t13.5 102q0 58 -14 100t-41 68t-67 38.5t-93 12.5zM86 300v358h232q38 0 69 -9t52.5 -29.5t33.5 -54.5t12 -84q0 -54 -12 -90t-34.5 -55.5t-53.5 -27.5t-70 -8h-229z" />
    <glyph glyph-name="Q" unicode="Q" horiz-adv-x="543" 
d="M294 48v126h-44v-126q0 -40 11.5 -69t35 -47.5t59 -27t83.5 -8.5l5 38q-37 0 -65 6t-46.5 19.5t-28.5 35t-10 53.5zM34 504v-314q0 -67 31.5 -112t85.5 -67t121 -22q71 0 124 24t82 69t29 108v313q0 101 -61 157t-173 56q-113 0 -176 -54t-63 -158zM78 191v319
q0 54 23.5 90t67 55t101.5 19q61 0 104 -18.5t66 -55t23 -89.5v-320q0 -55 -25 -91t-68.5 -53t-99.5 -17q-53 0 -96.5 18t-69.5 53.5t-26 89.5z" />
    <glyph glyph-name="R" unicode="R" horiz-adv-x="564" 
d="M315 700h-274v-700h45v257h226q10 0 19.5 0.5t18.5 1.5t17 2l120 -261h46l-123 272q42 13 68.5 40t39 68.5t12.5 100.5q0 58 -13.5 100t-40.5 68t-67.5 38.5t-93.5 12.5zM317 300h-231v358h233q38 0 68.5 -9t52.5 -29.5t34 -54.5t12 -84q0 -54 -12 -89.5t-34 -55.5
t-53 -28t-70 -8z" />
    <glyph glyph-name="S" unicode="S" horiz-adv-x="587" 
d="M475 633l12 39q-26 13 -55 21t-58.5 12t-60.5 4q-44 0 -88.5 -9t-81 -28.5t-58.5 -51.5t-22 -78q0 -40 19 -69t51 -50t71.5 -37.5t81.5 -31t82 -30t72 -35t50.5 -46t18.5 -62.5q0 -42 -18.5 -71t-50.5 -46.5t-71.5 -25.5t-80.5 -8q-43 0 -87.5 10.5t-83.5 30.5t-66 50
l-28 -27q34 -37 76 -60.5t91 -34.5t102 -11q49 0 96 10.5t85 33.5t61 59t23 85q0 46 -19 79.5t-51 57t-71.5 41t-82.5 32t-82.5 28.5t-71.5 32t-51 42t-19 57q0 35 19 58.5t50 37.5t66.5 20.5t68.5 6.5q28 0 56 -4t55.5 -11.5t50.5 -19.5z" />
    <glyph glyph-name="T" unicode="T" horiz-adv-x="465" 
d="M251 660h207v40h-452v-40h202v-660h43v660z" />
    <glyph glyph-name="U" unicode="U" horiz-adv-x="550" 
d="M511 186v514h-45v-514q0 -51 -24.5 -86t-68 -52t-98.5 -17t-98.5 17.5t-69 52t-25.5 85.5v514h-44v-514q0 -65 30 -109t84 -66t124 -22q69 0 122 22.5t83 66.5t30 108z" />
    <glyph glyph-name="V" unicode="V" horiz-adv-x="570" 
d="M14 700l242 -700h55l241 700h-46l-222 -646l-223 646h-47z" />
    <glyph glyph-name="W" unicode="W" horiz-adv-x="818" 
d="M438 700h-59l-142 -644l-173 644h-48l192 -700h63l138 622l139 -622h62l189 700h-47l-170 -644z" />
    <glyph glyph-name="X" unicode="X" horiz-adv-x="620" 
d="M310 398l-212 302h-53l238 -342l-258 -358h56l229 316l229 -316h57l-258 358l238 342h-52z" />
    <glyph glyph-name="Y" unicode="Y" horiz-adv-x="570" 
d="M530 153v547h-45v-274q0 -36 -18 -62.5t-47.5 -43t-66 -24.5t-72.5 -8q-64 0 -110.5 18.5t-71.5 55.5t-25 94v244h-44v-245q0 -65 28 -112t82 -72.5t130 -25.5q48 0 90 10.5t75 28.5t50 40v-171q0 -31 -6.5 -53t-18 -37t-27 -24.5t-32.5 -14.5l11 -31q56 9 87 49.5
t31 110.5z" />
    <glyph glyph-name="Z" unicode="Z" horiz-adv-x="604" 
d="M40 700v-39l470 -1l-20 -24l-463 -597v-39h547v39l-491 1l20 23l464 598v39h-527z" />
    <glyph glyph-name="bracketleft" unicode="[" horiz-adv-x="250" 
d="M97 774l133 7v37h-183v-932h183v36l-133 7v845z" />
    <glyph glyph-name="backslash" unicode="\" horiz-adv-x="452" 
d="M380 -114h53l-365 932h-50z" />
    <glyph glyph-name="bracketright" unicode="]" horiz-adv-x="251" 
d="M21 -114h182v932h-182v-37l133 -7v-845l-133 -7v-36z" />
    <glyph glyph-name="asciicircum" unicode="^" 
d="M261 775l-125 125l-130 -126l31 -31l99 96l94 -94z" />
    <glyph glyph-name="underscore" unicode="_" horiz-adv-x="384" 
d="M33 -44h320v44h-320v-44z" />
    <glyph glyph-name="grave" unicode="`" 
d="M107 721q-3 8 -9 13.5t-13.5 6.5t-15.5 -3q-6 -4 -9 -11t-1.5 -14.5t5.5 -14.5l55 -86h31z" />
    <glyph glyph-name="a" unicode="a" horiz-adv-x="495" 
d="M415 349q-29 14 -64 26.5t-73 20t-76 7.5q-42 0 -74.5 -9.5t-55.5 -28t-34.5 -47t-11.5 -65.5v-86q0 -53 17.5 -88t49.5 -54.5t78 -27.5t102 -7q15 0 38.5 1t49.5 2.5t48.5 3t36.5 2.5t13 1v307q0 60 -13.5 99t-42 61.5t-73 32t-105.5 9.5l-2 -35q36 0 70.5 -5t62 -18
t43.5 -38t16 -64zM415 310v-273l-8.5 -1t-23 -1.5t-33.5 -2t-39.5 -2.5t-40.5 -2q-60 -1 -99 7.5t-61.5 27.5t-31.5 46t-9 61v81q0 33 11 55t29 35t41.5 18.5t47.5 5.5q38 0 75 -7.5t73 -20t69 -27.5z" />
    <glyph glyph-name="b" unicode="b" horiz-adv-x="504" 
d="M85 473v227h-44v-700q-1 0 13 -1t37 -2.5t48.5 -3t49 -2.5t38.5 -1q57 -1 102.5 6.5t78 27.5t49.5 55t17 88v192q0 37 -14 65.5t-40 47t-61 28.5t-76 10q-39 0 -74 -5t-66 -13.5t-58 -18.5zM85 36v397q31 12 63 21t66 14t72 5q25 0 50.5 -6t47 -19t34 -36t12.5 -57v-185
q0 -35 -8.5 -61.5t-31 -45t-61.5 -27.5t-98 -8q-25 0 -50 1.5t-46 3t-34.5 2.5t-15.5 1z" />
    <glyph glyph-name="c" unicode="c" horiz-adv-x="420" 
d="M377 442l12 36q-36 15 -75 23.5t-77 8.5q-70 0 -116.5 -23.5t-69.5 -66.5t-23 -103v-143q1 -67 27.5 -107t75 -58.5t113.5 -19.5q37 -1 75 3.5t72 12.5l-9 40q-1 0 -12.5 -2.5t-30 -5.5t-42.5 -5t-51 -2q-41 1 -73.5 9t-55.5 25.5t-34 46.5t-11 72v129q1 49 19 84.5
t55 54.5t92 19q34 -1 70.5 -8t68.5 -20z" />
    <glyph glyph-name="d" unicode="d" horiz-adv-x="506" 
d="M462 0v700h-44v-227q-40 15 -89.5 26t-107.5 11q-41 0 -76 -10t-61.5 -29t-41 -47t-14.5 -65v-192q0 -53 17.5 -88t50.5 -55t79 -27.5t103 -6.5q14 0 37 1t49 2.5t48.5 3t36.5 2.5t13 1zM418 433v-396l-8.5 -1t-23 -2t-33.5 -2.5t-39 -2.5t-40 -1q-59 -1 -98.5 8
t-62 27.5t-32 45t-9.5 61.5v185q0 34 13.5 56.5t35.5 36t47.5 19.5t48.5 6q58 0 107 -11.5t94 -28.5z" />
    <glyph glyph-name="e" unicode="e" horiz-adv-x="467" 
d="M75 132v75l362 17v119q0 58 -24.5 94.5t-69 54.5t-104.5 18t-107 -18t-74 -55.5t-27 -96.5v-207q0 -43 14.5 -70.5t40.5 -44t62 -23.5t78 -7q44 0 92.5 12.5t89.5 34.5l-17 34q-43 -20 -84.5 -31.5t-84.5 -11.5q-31 0 -57.5 5.5t-46.5 17.5t-31.5 32.5t-11.5 50.5z
M392 348v-85l-317 -13v88q0 45 20.5 75t57 45t85.5 15q44 0 78.5 -14t55 -41.5t20.5 -69.5z" />
    <glyph glyph-name="f" unicode="f" horiz-adv-x="276" 
d="M239 669l8 38q-6 2 -14 2.5t-16 0.5h-15q-28 0 -56.5 -7t-52.5 -24.5t-39 -48t-15 -77.5v-553h44v459h130l18 41h-148v53q0 33 9 56t25.5 36.5t39 19.5t48.5 6h16.5t17.5 -2z" />
    <glyph glyph-name="g" unicode="g" horiz-adv-x="486" 
d="M446 -64v564h-44v-47q-26 18 -57 30.5t-62.5 19t-58.5 7.5q-61 2 -104.5 -16.5t-66.5 -55t-23 -90.5v-174q0 -92 50 -139t145 -47q25 0 52 6t52 16.5t44 25.5t29 32v-131q0 -26 -8 -45t-20.5 -32t-28 -21.5t-33.5 -15.5l13 -34q43 12 70 31t39 47.5t12 68.5zM402 405
v-240q0 -33 -15.5 -59t-41.5 -43t-58 -25.5t-66 -8.5q-44 1 -77 16t-51.5 44.5t-18.5 75.5v182q0 36 13.5 60.5t36 38.5t49.5 19.5t55 4.5q19 0 43.5 -4.5t49.5 -13t46 -20.5t35 -27z" />
    <glyph glyph-name="h" unicode="h" horiz-adv-x="489" 
d="M85 469v231h-44v-700h44v435q23 11 50 19t55.5 12.5t56.5 5.5q33 0 63 -5t53.5 -19t36.5 -38.5t13 -62.5v-347h44v349q0 37 -10 64.5t-28.5 46t-44 30t-57 16.5t-67.5 4q-28 0 -58.5 -6t-58 -15t-48.5 -20z" />
    <glyph glyph-name="i" unicode="i" horiz-adv-x="121" 
d="M38 0h44v501h-44v-501zM61 710q-11 0 -19.5 -8t-8.5 -20q0 -11 8.5 -19.5t19.5 -8.5q12 0 20 8.5t8 19.5q0 12 -8 20t-20 8z" />
    <glyph glyph-name="j" unicode="j" horiz-adv-x="205" 
d="M156 -65v566h-127v-41h83v-524q0 -28 -9.5 -50t-28.5 -37.5t-50 -25.5l13 -34q43 13 69 31t38 46t12 69zM163 682q0 12 -8 19.5t-20 7.5t-20.5 -7.5t-8.5 -19.5q0 -11 8.5 -19.5t20.5 -8.5t20 8.5t8 19.5z" />
    <glyph glyph-name="k" unicode="k" horiz-adv-x="472" 
d="M200 363l161 127l-30 30l-245 -196v376h-45v-700h45v274l81 62l231 -336h55z" />
    <glyph glyph-name="l" unicode="l" horiz-adv-x="128" 
d="M41 0h44v700h-44v-700z" />
    <glyph glyph-name="m" unicode="m" horiz-adv-x="798" 
d="M720 345v-345h42v347q0 47 -13.5 78.5t-38.5 50t-59.5 26.5t-77.5 7q-30 -1 -63 -8t-63.5 -19t-54.5 -28q-16 21 -40 33.5t-53.5 17.5t-64.5 4q-28 -1 -55 -6.5t-51 -14.5t-45 -20v32h-45v-500h45v433q23 11 45 19t47 13t53 6q33 1 61 -5t48.5 -20.5t32 -39.5t11.5 -62
v-344h42v345q0 24 -3.5 44.5t-11.5 36.5q26 14 53 23.5t54 15t52 6.5q33 1 60.5 -4.5t48 -19.5t32.5 -39t12 -63z" />
    <glyph glyph-name="n" unicode="n" horiz-adv-x="490" 
d="M410 343v-343h43v344q0 38 -10 66t-29 47.5t-44.5 31t-57 17t-65.5 4.5q-28 0 -57.5 -5.5t-57 -14.5t-50.5 -21v32h-44v-501h44v435q23 11 49 18.5t54.5 12.5t56.5 5q33 1 63.5 -5t54 -20.5t37 -39.5t13.5 -63z" />
    <glyph glyph-name="o" unicode="o" horiz-adv-x="475" 
d="M445 183v135q0 94 -53 144t-153 50q-66 0 -113.5 -21.5t-72.5 -64.5t-25 -108v-135q0 -55 23.5 -98.5t71 -69t118.5 -25.5q102 0 153 51.5t51 141.5zM401 319v-142q0 -46 -18 -79t-54 -51t-88 -18t-90 18.5t-58.5 51.5t-20.5 78v142q0 52 20 86t57.5 51t91.5 17
q51 0 86.5 -16.5t54.5 -50.5t19 -87z" />
    <glyph glyph-name="p" unicode="p" horiz-adv-x="488" 
d="M455 175v171q0 55 -22.5 92t-65 56t-104.5 16q-30 -1 -61 -8t-61 -20t-57 -31v49h-45v-694l45 -18v280q14 -23 42 -41.5t64 -28.5t73 -10q93 0 142.5 48t49.5 139zM411 344v-177q0 -46 -18 -76.5t-50.5 -46t-77.5 -16.5q-34 -1 -66 8t-58 26.5t-41.5 43.5t-15.5 59v239
q21 21 51 35.5t63 22.5t60 9q29 1 56.5 -5t49.5 -20.5t34.5 -39.5t12.5 -62z" />
    <glyph glyph-name="q" unicode="q" horiz-adv-x="483" 
d="M401 69v-264l45 -17v712h-45v-47q-28 19 -58.5 31.5t-61 19t-57.5 7.5q-62 3 -105 -15t-66 -55t-23 -92v-174q0 -63 22.5 -104t66 -61.5t106.5 -20.5q34 0 68.5 9.5t63.5 27.5t44 43zM401 405v-239q0 -34 -14.5 -59.5t-40 -43t-56.5 -26t-64 -8.5q-46 0 -80 15t-53 45.5
t-19 76.5v182q0 38 13.5 62.5t36 38.5t49.5 19t54 4q22 0 47 -5.5t49.5 -14t45 -20.5t32.5 -27z" />
    <glyph glyph-name="r" unicode="r" horiz-adv-x="366" 
d="M341 471l3 38q-4 1 -18 3t-32 1q-57 -2 -109 -15.5t-103 -33.5v37h-44v-501h44v418q25 11 52 21t54.5 17.5t54 12t49.5 4.5q17 1 31 0t18 -2z" />
    <glyph glyph-name="s" unicode="s" horiz-adv-x="459" 
d="M365 446l17 31q-18 10 -41.5 18t-49.5 12.5t-55 4.5q-33 0 -65.5 -7t-58.5 -22.5t-42 -39t-16 -56.5q0 -34 18 -57.5t47.5 -40t65.5 -29.5t71.5 -25t65 -27t47.5 -36t18 -50q0 -26 -14 -44.5t-37 -30.5t-50 -18t-53 -6q-36 0 -68.5 8t-60.5 24t-53 40l-25 -27
q39 -41 93 -63t115 -22q36 0 70.5 8.5t62.5 25.5t45 44t17 63q0 37 -18 62.5t-47.5 43.5t-65.5 31t-71.5 25t-64.5 26t-47.5 32.5t-18.5 45.5q0 23 13.5 39.5t36 26.5t48.5 14.5t50 4.5q21 0 43 -4t42 -10t36 -15z" />
    <glyph glyph-name="t" unicode="t" horiz-adv-x="256" 
d="M83 130v329h135l20 41h-155v200h-44v-569q0 -61 29.5 -95.5t90.5 -48.5l14 34q-29 8 -49 21t-30.5 34.5t-10.5 53.5z" />
    <glyph glyph-name="u" unicode="u" horiz-adv-x="491" 
d="M407 68v-68h45v501h-45v-329q0 -28 -12 -53t-35 -44t-53.5 -30.5t-66.5 -12.5q-48 -1 -84.5 11.5t-56.5 42.5t-20 81v334h-44v-343q0 -39 10 -67.5t29 -48t45 -31t56 -16.5t64 -5q32 1 64 9.5t59.5 25.5t44.5 43z" />
    <glyph glyph-name="v" unicode="v" horiz-adv-x="474" 
d="M18 501l189 -501h53l191 501h-47l-170 -451l-171 451h-45z" />
    <glyph glyph-name="w" unicode="w" horiz-adv-x="778" 
d="M408 499h-42l-142 -450l-159 450h-46l178 -499h53l136 428l136 -428h53l180 499h-47l-159 -450z" />
    <glyph glyph-name="x" unicode="x" horiz-adv-x="467" 
d="M236 287l-149 213h-54l176 -250l-178 -250h54l151 212l148 -212h54l-176 250l176 250h-51z" />
    <glyph glyph-name="y" unicode="y" horiz-adv-x="513" 
d="M484 480l-18 32q-22 -9 -35 -23.5t-18.5 -33.5t-5.5 -43v-239q0 -28 -12.5 -53t-34 -44t-51 -30.5t-62.5 -12.5t-63 4t-54 18.5t-37.5 39t-13.5 64.5v342h-44v-345q0 -49 15.5 -81.5t43.5 -50.5t65 -25.5t80 -7.5q32 1 64 10t59.5 26t44.5 43v-133q0 -22 -5 -40
t-16 -31.5t-27.5 -23.5t-39.5 -18l14 -34q42 12 68 30t38 46.5t12 69.5v475q0 33 9 47t24 22z" />
    <glyph glyph-name="z" unicode="z" horiz-adv-x="468" 
d="M420 501h-381v-38l322 -1l-331 -422v-40h410v39l-353 1l333 422v39z" />
    <glyph glyph-name="braceleft" unicode="{" horiz-adv-x="282" 
d="M169 517v113q0 32 7.5 56.5t18.5 41.5t24 28t24 17.5t18 10.5l-18 39q-1 -1 -13.5 -6t-30.5 -16.5t-36.5 -33t-30.5 -55t-12 -82.5v-113q0 -21 -3.5 -41t-9.5 -40q-6 -19 -22.5 -38t-43.5 -37l-12 -8l12 -8q27 -18 43.5 -36.5t22.5 -38.5q6 -19 9.5 -39t3.5 -41v-114
q0 -48 12 -81.5t30 -55.5t36 -34t31 -17t14 -6l19 40q-7 4 -18.5 10.5t-24.5 17.5t-24 28t-18.5 41.5t-7.5 56.5v114q0 21 -3 41.5t-8 41.5q-12 41 -65 80q26 20 42.5 40t22.5 40q5 21 8 42t3 42z" />
    <glyph glyph-name="bar" unicode="|" horiz-adv-x="145" 
d="M47 -114h49v932h-49v-932z" />
    <glyph glyph-name="braceright" unicode="}" horiz-adv-x="287" 
d="M40 823l-18 -39q7 -4 18.5 -10.5t24 -17.5t24.5 -28t19 -41.5t7 -56.5v-113q0 -28 4.5 -56t20.5 -55t50 -53q-34 -26 -50 -53t-20.5 -54.5t-4.5 -55.5v-114q0 -32 -7 -56t-19 -41.5t-25 -28.5t-24.5 -17.5t-18.5 -10.5l18 -40q1 1 14.5 6t31.5 17t36 34t30.5 55.5
t12.5 81.5v114q0 28 4.5 54t21 51.5t52.5 49.5l12 8l-12 8q-36 25 -52.5 50t-21 51.5t-4.5 54.5v113q0 48 -12 81.5t-30 55.5t-36.5 34t-31.5 16.5t-14 5.5z" />
    <glyph glyph-name="asciitilde" unicode="~" 
d="M286 307l-20 32q-14 -14 -29 -20.5t-33 -7.5q-23 1 -46 10t-46.5 18.5t-49.5 9.5q-19 0 -38.5 -8.5t-41.5 -30.5l19 -33q18 17 34 23.5t32 4.5q23 0 46 -9l46 -18t47 -10q19 0 38.5 8.5t41.5 30.5z" />
    <glyph glyph-name="uni00A0" unicode="&#xa0;" horiz-adv-x="280" 
 />
    <glyph glyph-name="exclamdown" unicode="&#xa1;" horiz-adv-x="138" 
d="M96 30l-9 560h-37l-10 -559q0 -15 7.5 -23t20.5 -8q14 0 21 7.5t7 22.5zM96 682q0 12 -8.5 19.5t-19.5 7.5t-20 -7.5t-9 -19.5q0 -11 9 -19.5t20 -8.5t19.5 8.5t8.5 19.5z" />
    <glyph glyph-name="cent" unicode="&#xa2;" horiz-adv-x="420" 
d="M211 -114h44v737h-44v-737zM377 442l12 36q-36 15 -75 23.5t-77 8.5q-70 0 -116.5 -23.5t-69.5 -66.5t-23 -103v-143q1 -67 27.5 -107t75 -58.5t113.5 -19.5q37 -1 75 3.5t72 12.5l-9 40q-1 0 -12.5 -2.5t-30 -5.5t-42.5 -5t-51 -2q-41 1 -73.5 9t-55.5 25.5t-34 46.5
t-11 72v129q1 49 19 84.5t55 54.5t92 19q34 -1 70.5 -8t68.5 -20z" />
    <glyph glyph-name="sterling" unicode="&#xa3;" horiz-adv-x="472" 
d="M134 42h-100v-42h404v42h-154q42 20 65 58t22 80q0 39 -18.5 76t-50.5 71l-25 25h161v45h-207l-45 47q-17 17 -34 37t-28 43t-10 47q1 27 16.5 48t42 33.5t59.5 15.5q39 2 78.5 -7t74.5 -29l16 38q-25 13 -53.5 22t-57 13t-55.5 3q-34 -1 -64.5 -11t-53.5 -28t-36 -43
t-13 -56q-1 -41 23 -78.5t61 -75.5l19 -19h-137v-45h183l51 -52q19 -19 32 -39t19.5 -40.5t6.5 -41.5q-1 -34 -17 -60.5t-43 -43.5t-61 -25t-71 -8z" />
    <glyph glyph-name="currency" unicode="&#xa4;" horiz-adv-x="498" 
d="M373 370l89 84l-31 27l-89 -83q-18 15 -42.5 23t-50.5 8q-28 0 -52 -7.5t-44 -23.5l-89 83l-30 -27l88 -84q-15 -17 -23 -39.5t-8 -46.5q0 -25 9 -47.5t23 -40.5l-89 -82l30 -29l90 83q19 -14 43.5 -22t51.5 -8q26 0 49.5 8t43.5 22l89 -83l31 29l-89 82q15 18 23.5 40.5
t8.5 47.5q0 24 -8.5 46.5t-23.5 39.5zM249 178q-31 0 -57.5 14t-41.5 38.5t-15 53.5t15 52.5t41.5 37.5t57.5 14t56 -14t40 -37.5t15 -52.5t-15 -53.5t-40 -38.5t-56 -14z" />
    <glyph glyph-name="yen" unicode="&#xa5;" horiz-adv-x="578" 
d="M309 342l245 358h-52l-215 -312l-213 312h-51l243 -359v-341h43v342zM128 204h320v43h-320v-43zM128 100h320v43h-320v-43z" />
    <glyph glyph-name="section" unicode="&#xa7;" horiz-adv-x="477" 
d="M364 633l18 31q-19 10 -42 18t-49.5 12.5t-55.5 4.5q-33 0 -65 -7t-58.5 -22.5t-42 -39t-15.5 -56.5q0 -31 15 -53t40 -39q-25 -15 -40 -39t-15 -56q0 -34 18 -57.5t47.5 -40t65.5 -29.5t71.5 -25t65 -27t47.5 -36t18 -50q0 -26 -14 -44.5t-37 -30.5t-50 -18t-53 -6
q-36 0 -68.5 8t-60.5 24t-53 40l-25 -27q39 -41 93 -63t115 -22q36 0 70.5 8.5t62.5 25.5t45 44t17 63q0 30 -12.5 52.5t-33.5 39.5q21 17 33.5 40.5t12.5 54.5q0 37 -18.5 62.5t-48 43.5t-65 31t-71 25t-65.5 26t-47.5 32.5t-17.5 45.5q0 23 13.5 39.5t35.5 26.5t48 14.5
t50 4.5q21 0 43 -4t42.5 -10t35.5 -15zM345 240q-29 16 -63 28t-66.5 23t-59.5 24t-43.5 31t-16.5 44q0 18 8 31.5t21 22.5t28 16q28 -13 60.5 -24t63.5 -22.5t55.5 -25.5t39.5 -33.5t15 -45.5q0 -23 -11.5 -40t-30.5 -29z" />
    <glyph glyph-name="dieresis" unicode="&#xa8;" 
d="M54 736q-11 0 -19 -8t-8 -20q0 -11 8 -19t19 -8q12 0 20 8t8 19q0 12 -8 20t-20 8zM213 736q-12 0 -19.5 -8t-7.5 -20q0 -11 7.5 -19t19.5 -8t20 8t8 19q0 12 -8 20t-20 8z" />
    <glyph glyph-name="copyright" unicode="&#xa9;" horiz-adv-x="774" 
d="M743 187v139q0 64 -26.5 112t-74.5 80.5t-113 48.5t-143 16t-143 -16t-112.5 -48t-73.5 -80t-26 -112v-140q0 -65 26 -113t74 -79.5t113 -47.5t142 -16q78 0 143 16t113 47.5t74.5 79.5t26.5 113zM698 308v-105q0 -61 -21 -105t-61 -71.5t-98 -40.5t-132 -13t-131.5 13
t-97 40.5t-60.5 71.5t-21 104v108q0 62 21 106t60.5 71.5t97 40.5t131.5 13t132 -13t98 -41.5t61 -72.5t21 -106zM548 391l14 30q-35 17 -76 25.5t-85 8.5q-56 0 -98 -15t-69 -43q-25 -26 -37.5 -62.5t-12.5 -82.5q0 -57 18.5 -96.5t54.5 -62.5q28 -18 65.5 -26.5t83.5 -8.5
q44 0 90 8.5t94 24.5l-13 35q-24 -7 -46.5 -12.5t-44 -9t-40.5 -5t-35 -1.5q-40 0 -71.5 6.5t-54.5 21.5q-28 19 -42.5 51t-14.5 79q0 40 11.5 69t33.5 49q24 21 59.5 31t81.5 10q15 0 31.5 -1.5t34 -4.5t35 -7.5t33.5 -10.5z" />
    <glyph glyph-name="ordfeminine" unicode="&#xaa;" horiz-adv-x="369" 
d="M329 390v28v36v38v35.5v27.5q0 44 -11.5 74t-33.5 47q-14 12 -35 19t-47 10.5t-58 3.5l-4 -34q36 0 64 -4.5t45 -16.5q18 -11 26 -29t8 -40q-40 23 -75.5 34t-65.5 12q-39 0 -65 -15.5t-38.5 -41t-12.5 -56.5q0 -34 10 -60t31 -43.5t54.5 -26.5t79.5 -9q26 1 58 4t70 7z
M281 545v-124q-9 -1 -28.5 -2.5t-44 -2.5t-47.5 1.5t-39 9.5q-19 9 -31 21.5t-17.5 28.5t-5.5 37q0 23 7.5 41t23.5 28.5t40 10.5q30 0 67 -13t75 -36z" />
    <glyph glyph-name="guillemotleft" unicode="&#xab;" horiz-adv-x="582" 
d="M349 267l176 -159l-31 -29l-211 188l211 188l33 -30zM103 267l174 -159l-32 -29l-210 188l210 188l34 -30z" />
    <glyph glyph-name="sfthyphen" unicode="&#xad;" horiz-adv-x="392" 
d="M34 369h320v45h-320v-45z" />
    <glyph glyph-name="registered" unicode="&#xae;" horiz-adv-x="780" 
d="M743 187v139q0 64 -26.5 112t-74.5 80.5t-113 48.5t-143 16t-143 -16t-112.5 -48t-73.5 -80t-26 -112v-140q0 -65 26 -113t74 -79.5t113 -47.5t142 -16q78 0 143 16t113 47.5t74.5 79.5t26.5 113zM697 308v-105q0 -61 -21 -105t-60.5 -71.5t-97.5 -40.5t-132 -13
t-131.5 13t-97 40.5t-60.5 71.5t-21 104v108q0 62 21 106t60.5 71.5t97 40.5t131.5 13t132 -13t97.5 -41.5t60.5 -72.5t21 -106zM445 443h-241v-384h43v130h200l74 -130h52l-79 137q48 10 69.5 41.5t20.5 80.5q-1 41 -13.5 65.5t-33 37.5t-44.5 17.5t-48 4.5zM451 233h-204
v167h204q31 0 51 -8.5t30 -26.5t10 -48q0 -43 -22.5 -63.5t-68.5 -20.5z" />
    <glyph glyph-name="overscore" unicode="&#xaf;" 
d="M244 677h-221v-44h221v44z" />
    <glyph glyph-name="degree" unicode="&#xb0;" horiz-adv-x="349" 
d="M320 565q0 40 -19.5 73t-52.5 52.5t-73 19.5t-73.5 -19.5t-53.5 -52.5t-20 -73t20 -73t53.5 -53t73.5 -20t73 20t52.5 53t19.5 73zM175 670q29 0 52.5 -14t37.5 -38t14 -53q0 -28 -14 -52t-37.5 -38.5t-52.5 -14.5t-53.5 14.5t-38.5 38.5t-14 52q0 29 14 53t38.5 38
t53.5 14z" />
    <glyph glyph-name="plusminus" unicode="&#xb1;" horiz-adv-x="430" 
d="M35 384h157v-137h-159v-45h360v45h-153v137h155v42h-155v139h-48v-139h-157v-42z" />
    <glyph glyph-name="acute" unicode="&#xb4;" 
d="M198 685q5 8 6 15t-1.5 14t-10.5 11q-7 4 -14 3t-13 -6t-9 -13l-42 -110h30z" />
    <glyph glyph-name="mu" unicode="&#xb5;" horiz-adv-x="511" 
d="M454 87v423l-45 -9v-354q0 -39 -20.5 -65t-54 -39t-75.5 -13q-56 0 -95.5 18t-59.5 46t-20 58v349h-45v-694l45 -17v268q5 -8 17.5 -19.5t34 -23.5t53 -19.5t73.5 -7.5q33 0 63 8t54 22.5t35 33.5q7 -21 16 -32.5t17 -17t11 -7.5l24 26q-5 4 -11.5 12t-11.5 22t-5 32z
" />
    <glyph glyph-name="paragraph" unicode="&#xb6;" horiz-adv-x="682" 
d="M247 259h227v-258h44v659h78v-659h44v701h-395q-54 0 -94.5 -12t-67.5 -38t-40 -68t-13 -102q0 -59 13 -101.5t39.5 -69.5t68 -39.5t96.5 -12.5zM240 660h234v-359h-229q-39 0 -70.5 8t-54.5 28t-35 55.5t-12 89.5q0 68 20 106.5t57.5 55t89.5 16.5z" />
    <glyph glyph-name="periodcentered" unicode="&#xb7;" horiz-adv-x="163" 
d="M73 302q-9 -2 -13.5 -10t-2.5 -17q3 -9 11.5 -14t17.5 -3q9 3 14.5 11t2.5 17t-12 14t-18 2z" />
    <glyph glyph-name="cedilla" unicode="&#xb8;" 
d="M161 7h-40l-37 -62l8 -27q13 2 25 3t23 1.5t21 0.5q28 0 45.5 -12t17.5 -39q0 -24 -11 -36.5t-27.5 -17t-32.5 -4.5q-17 -1 -34 1t-30.5 5t-23.5 5l-10 -38q7 -1 22.5 -4t36 -5.5t43.5 -2.5q42 1 74.5 25t32.5 70q0 41 -26.5 68t-75.5 25h-12t-15 -1z" />
    <glyph glyph-name="ordmasculine" unicode="&#xba;" horiz-adv-x="383" 
d="M344 503v83q0 61 -38.5 93t-111.5 32t-114 -31t-41 -94v-83q0 -36 17 -64t51.5 -44t86.5 -16q75 0 112.5 33.5t37.5 90.5zM307 584v-80q0 -42 -27.5 -66t-85.5 -24q-38 0 -64.5 11t-40 31.5t-13.5 47.5v80q0 46 30 69t88 23q36 0 61.5 -10t38.5 -30.5t13 -51.5z" />
    <glyph glyph-name="guillemotright" unicode="&#xbb;" horiz-adv-x="559" 
d="M213 267l-176 -159l31 -29l211 188l-211 188l-33 -30zM459 267l-175 -159l32 -29l211 188l-211 188l-33 -30z" />
    <glyph glyph-name="questiondown" unicode="&#xbf;" horiz-adv-x="453" 
d="M424 163h-44q0 -35 -13 -61t-35.5 -43t-50.5 -25t-56 -7q-40 0 -75 16.5t-56.5 46t-21.5 69.5q0 31 12 55.5t32 46.5t44 44q20 21 38.5 40t32 39t21 46t7.5 61v84h-41v-82q0 -31 -7 -53t-19.5 -39.5t-30 -35t-40.5 -39.5q-25 -24 -46 -49t-33.5 -53.5t-12.5 -66.5
q0 -41 16.5 -72.5t45 -53.5t64.5 -33.5t73 -11.5t71.5 10.5t63 32t45 55t16.5 79.5zM237 702q-11 0 -19 -8t-8 -20q0 -11 8 -19t19 -8q12 0 20.5 8t8.5 19q0 12 -8.5 20t-20.5 8z" />
    <glyph glyph-name="Agrave" unicode="&#xc0;" horiz-adv-x="608" 
d="M277 868q-3 8 -9 13.5t-13.5 6.5t-15.5 -3q-6 -4 -9 -11t-1.5 -14.5t5.5 -14.5l55 -86h31zM589 0l-265 700h-40l-263 -700h47l97 257h278l99 -257h47zM180 300l124 335l125 -335h-249z" />
    <glyph glyph-name="Aacute" unicode="&#xc1;" horiz-adv-x="608" 
d="M378 844q5 8 6 15t-1.5 14t-10.5 11q-7 4 -14 3t-13 -6t-9 -13l-42 -110h30zM589 0l-265 700h-40l-263 -700h47l97 257h278l99 -257h47zM180 300l124 335l125 -335h-249z" />
    <glyph glyph-name="Acircumflex" unicode="&#xc2;" horiz-adv-x="608" 
d="M432 772l-126 124l-129 -125l30 -30l99 94l94 -93zM589 0l-265 700h-40l-263 -700h47l97 257h278l99 -257h47zM180 300l124 335l125 -335h-249z" />
    <glyph glyph-name="Atilde" unicode="&#xc3;" horiz-adv-x="608" 
d="M381 865v-15q0 -13 -4 -25t-18 -11q-10 0 -20.5 7t-14.5 9q-10 8 -20 14.5t-21 11.5q-16 9 -36 10t-36 -10q-10 -7 -15.5 -18t-7.5 -23t-2 -23v-15h40v15q0 7 1.5 17t6.5 15q9 5 18.5 2.5t17.5 -7.5q9 -5 18.5 -12.5t20.5 -13.5q12 -7 24.5 -13t27.5 -6q32 0 46 24t14 52
v15h-40zM589 0l-265 700h-40l-263 -700h47l97 257h278l99 -257h47zM180 300l124 335l125 -335h-249z" />
    <glyph glyph-name="Adieresis" unicode="&#xc4;" horiz-adv-x="608" 
d="M225 846q-11 0 -19 -8t-8 -20q0 -11 8 -19t19 -8q12 0 20 8t8 19q0 12 -8 20t-20 8zM384 846q-12 0 -19.5 -8t-7.5 -20q0 -11 7.5 -19t19.5 -8t20 8t8 19q0 12 -8 20t-20 8zM589 0l-265 700h-40l-263 -700h47l97 257h278l99 -257h47zM180 300l124 335l125 -335h-249z" />
    <glyph glyph-name="Aring" unicode="&#xc5;" horiz-adv-x="608" 
d="M304 902q-31 0 -57.5 -15t-42 -40.5t-15.5 -57.5t15.5 -58t42 -41t57.5 -15t56.5 15t41 41t15.5 58t-15.5 57.5t-41 40.5t-56.5 15zM304 866q32 0 55 -23q22 -22 22 -54q0 -16 -6 -30.5t-16 -25.5q-12 -10 -25.5 -16t-29.5 -6t-30 6t-25 16q-11 11 -17.5 25.5t-6.5 30.5
t6 30t16 25q12 11 26.5 16.5t30.5 5.5zM589 0l-265 700h-40l-263 -700h47l97 257h278l99 -257h47zM180 300l124 335l125 -335h-249z" />
    <glyph glyph-name="AE" unicode="&#xc6;" horiz-adv-x="836" 
d="M432 0h374v40h-330v329h217l16 45h-233v244h330v42h-481l-306 -700h47l112 256h254v-256zM197 300l156 358h79v-358h-235z" />
    <glyph glyph-name="Ccedilla" unicode="&#xc7;" horiz-adv-x="468" 
d="M267 7h-40l-37 -62l8 -27q13 2 25 3t23 1.5t21 0.5q28 0 45.5 -12t17.5 -39q0 -24 -11 -36.5t-27.5 -17t-32.5 -4.5q-17 -1 -34 1t-30.5 5t-23.5 5l-10 -38q7 -1 22.5 -4t36 -5.5t43.5 -2.5q42 1 74.5 25t32.5 70q0 41 -26.5 68t-75.5 25h-12t-15 -1zM400 646l13 31
q-34 17 -75.5 25t-86.5 8q-61 0 -110 -19.5t-78 -63t-29 -116.5v-325q0 -69 26 -112t76 -63.5t123 -20.5q43 0 89 8.5t94 24.5l-11 37q-31 -10 -61.5 -17t-57 -10.5t-49.5 -3.5q-59 0 -100.5 15t-62.5 50t-21 94v326q0 56 22 90.5t64 50t101 15.5q31 0 65.5 -5.5t68.5 -18.5
z" />
    <glyph glyph-name="Egrave" unicode="&#xc8;" horiz-adv-x="446" 
d="M198 867q-3 8 -9 13.5t-13.5 6.5t-15.5 -3q-6 -4 -9 -11t-1.5 -14.5t5.5 -14.5l55 -86h31zM41 0h374v40h-329v329h230l14 43h-244v247h331v41h-376v-700z" />
    <glyph glyph-name="Eacute" unicode="&#xc9;" horiz-adv-x="446" 
d="M290 843q5 8 6 15t-1.5 14t-10.5 11q-7 4 -14 3t-13 -6t-9 -13l-42 -110h30zM41 0h374v40h-329v329h230l14 43h-244v247h331v41h-376v-700z" />
    <glyph glyph-name="Ecircumflex" unicode="&#xca;" horiz-adv-x="446" 
d="M353 772l-126 124l-129 -125l30 -30l99 94l94 -93zM41 0h374v40h-329v329h230l14 43h-244v247h331v41h-376v-700z" />
    <glyph glyph-name="Edieresis" unicode="&#xcb;" horiz-adv-x="446" 
d="M145 846q-11 0 -19 -8t-8 -20q0 -11 8 -19t19 -8q12 0 20 8t8 19q0 12 -8 20t-20 8zM304 846q-12 0 -19.5 -8t-7.5 -20q0 -11 7.5 -19t19.5 -8t20 8t8 19q0 12 -8 20t-20 8zM41 0h374v40h-329v329h230l14 43h-244v247h331v41h-376v-700z" />
    <glyph glyph-name="Igrave" unicode="&#xcc;" horiz-adv-x="190" 
d="M98 869q-3 8 -9 13.5t-13.5 6.5t-15.5 -3q-6 -4 -9 -11t-1.5 -14.5t5.5 -14.5l55 -86h31zM18 662l87 -2v-660h43v700h-130v-38z" />
    <glyph glyph-name="Iacute" unicode="&#xcd;" horiz-adv-x="190" 
d="M196 844q5 8 6 15t-1.5 14t-10.5 11q-7 4 -14 3t-13 -6t-9 -13l-42 -110h30zM18 662l87 -2v-660h43v700h-130v-38z" />
    <glyph glyph-name="Icircumflex" unicode="&#xce;" horiz-adv-x="190" 
d="M253 772l-126 124l-129 -125l30 -30l99 94l94 -93zM18 662l87 -2v-660h43v700h-130v-38z" />
    <glyph glyph-name="Idieresis" unicode="&#xcf;" horiz-adv-x="190" 
d="M42 846q-11 0 -19 -8t-8 -20q0 -11 8 -19t19 -8q12 0 20 8t8 19q0 12 -8 20t-20 8zM201 846q-12 0 -19.5 -8t-7.5 -20q0 -11 7.5 -19t19.5 -8t20 8t8 19q0 12 -8 20t-20 8zM18 662l87 -2v-660h43v700h-130v-38z" />
    <glyph glyph-name="Eth" unicode="&#xd0;" horiz-adv-x="549" 
d="M62 369h242l15 43h-257v-43zM260 700h-219v-700h239q80 0 132 23.5t77.5 69.5t25.5 114v268q0 69 -28 119.5t-84.5 78t-142.5 27.5zM270 40h-185v620h186q70 0 113.5 -23t64.5 -63t21 -91v-278q0 -44 -13 -75.5t-38 -51t-62.5 -29t-86.5 -9.5z" />
    <glyph glyph-name="Ntilde" unicode="&#xd1;" horiz-adv-x="639" 
d="M396 865v-15q0 -13 -4 -25t-18 -11q-10 0 -20.5 7t-14.5 9q-10 8 -20 14.5t-21 11.5q-16 9 -36 10t-36 -10q-10 -7 -15.5 -18t-7.5 -23t-2 -23v-15h40v15q0 7 1.5 17t6.5 15q9 5 18.5 2.5t17.5 -7.5q9 -5 18.5 -12.5t20.5 -13.5q12 -7 24.5 -13t27.5 -6q32 0 46 24t14 52
v15h-40zM596 700h-44v-626l-467 626h-44v-700h44v626l467 -626h44v700z" />
    <glyph glyph-name="Ograve" unicode="&#xd2;" horiz-adv-x="543" 
d="M245 868q-3 8 -9 13.5t-13.5 6.5t-15.5 -3q-6 -4 -9 -11t-1.5 -14.5t5.5 -14.5l55 -86h31zM34 504v-314q0 -67 31.5 -112t85.5 -67t121 -22q71 0 124 24t82 69t29 108v313q0 101 -61 157t-173 56q-113 0 -176 -54t-63 -158zM78 191v319q0 54 23.5 90t67 55t101.5 19
q61 0 104 -18.5t66 -55t23 -89.5v-320q0 -55 -25 -91t-68.5 -53t-99.5 -17q-53 0 -96.5 18t-69.5 53.5t-26 89.5z" />
    <glyph glyph-name="Oacute" unicode="&#xd3;" horiz-adv-x="543" 
d="M336 844q5 8 6 15t-1.5 14t-10.5 11q-7 4 -14 3t-13 -6t-9 -13l-42 -110h30zM34 504v-314q0 -67 31.5 -112t85.5 -67t121 -22q71 0 124 24t82 69t29 108v313q0 101 -61 157t-173 56q-113 0 -176 -54t-63 -158zM78 191v319q0 54 23.5 90t67 55t101.5 19q61 0 104 -18.5
t66 -55t23 -89.5v-320q0 -55 -25 -91t-68.5 -53t-99.5 -17q-53 0 -96.5 18t-69.5 53.5t-26 89.5z" />
    <glyph glyph-name="Ocircumflex" unicode="&#xd4;" horiz-adv-x="543" 
d="M398 772l-126 124l-129 -125l30 -30l99 94l94 -93zM34 504v-314q0 -67 31.5 -112t85.5 -67t121 -22q71 0 124 24t82 69t29 108v313q0 101 -61 157t-173 56q-113 0 -176 -54t-63 -158zM78 191v319q0 54 23.5 90t67 55t101.5 19q61 0 104 -18.5t66 -55t23 -89.5v-320
q0 -55 -25 -91t-68.5 -53t-99.5 -17q-53 0 -96.5 18t-69.5 53.5t-26 89.5z" />
    <glyph glyph-name="Otilde" unicode="&#xd5;" horiz-adv-x="543" 
d="M349 865v-15q0 -13 -4 -25t-18 -11q-10 0 -20.5 7t-14.5 9q-10 8 -20 14.5t-21 11.5q-16 9 -36 10t-36 -10q-10 -7 -15.5 -18t-7.5 -23t-2 -23v-15h40v15q0 7 1.5 17t6.5 15q9 5 18.5 2.5t17.5 -7.5q9 -5 18.5 -12.5t20.5 -13.5q12 -7 24.5 -13t27.5 -6q32 0 46 24t14 52
v15h-40zM34 504v-314q0 -67 31.5 -112t85.5 -67t121 -22q71 0 124 24t82 69t29 108v313q0 101 -61 157t-173 56q-113 0 -176 -54t-63 -158zM78 191v319q0 54 23.5 90t67 55t101.5 19q61 0 104 -18.5t66 -55t23 -89.5v-320q0 -55 -25 -91t-68.5 -53t-99.5 -17q-53 0 -96.5 18
t-69.5 53.5t-26 89.5z" />
    <glyph glyph-name="Odieresis" unicode="&#xd6;" horiz-adv-x="543" 
d="M191 846q-11 0 -19 -8t-8 -20q0 -11 8 -19t19 -8q12 0 20 8t8 19q0 12 -8 20t-20 8zM350 846q-12 0 -19.5 -8t-7.5 -20q0 -11 7.5 -19t19.5 -8t20 8t8 19q0 12 -8 20t-20 8zM34 504v-314q0 -67 31.5 -112t85.5 -67t121 -22q71 0 124 24t82 69t29 108v313q0 101 -61 157
t-173 56q-113 0 -176 -54t-63 -158zM78 191v319q0 54 23.5 90t67 55t101.5 19q61 0 104 -18.5t66 -55t23 -89.5v-320q0 -55 -25 -91t-68.5 -53t-99.5 -17q-53 0 -96.5 18t-69.5 53.5t-26 89.5z" />
    <glyph glyph-name="multiply" unicode="&#xd7;" horiz-adv-x="339" 
d="M170 365l-108 128l-31 -26l110 -135l-109 -131l32 -29l106 127l103 -127l33 30l-108 130l109 134l-32 27z" />
    <glyph glyph-name="Oslash" unicode="&#xd8;" horiz-adv-x="543" 
d="M57 -1h51l376 701h-47zM34 504v-314q0 -67 31.5 -112t85.5 -67t121 -22q71 0 124 24t82 69t29 108v313q0 101 -61 157t-173 56q-113 0 -176 -54t-63 -158zM78 191v319q0 54 23.5 90t67 55t101.5 19q61 0 104 -18.5t66 -55t23 -89.5v-320q0 -55 -25 -91t-68.5 -53
t-99.5 -17q-53 0 -96.5 18t-69.5 53.5t-26 89.5z" />
    <glyph glyph-name="Ugrave" unicode="&#xd9;" horiz-adv-x="550" 
d="M248 868q-3 8 -9 13.5t-13.5 6.5t-15.5 -3q-6 -4 -9 -11t-1.5 -14.5t5.5 -14.5l55 -86h31zM511 186v514h-45v-514q0 -51 -24.5 -86t-68 -52t-98.5 -17t-98.5 17.5t-69 52t-25.5 85.5v514h-44v-514q0 -65 30 -109t84 -66t124 -22q69 0 122 22.5t83 66.5t30 108z" />
    <glyph glyph-name="Uacute" unicode="&#xda;" horiz-adv-x="550" 
d="M340 838q5 8 6 15t-1.5 14t-10.5 11q-7 4 -14 3t-13 -6t-9 -13l-42 -110h30zM511 186v514h-45v-514q0 -51 -24.5 -86t-68 -52t-98.5 -17t-98.5 17.5t-69 52t-25.5 85.5v514h-44v-514q0 -65 30 -109t84 -66t124 -22q69 0 122 22.5t83 66.5t30 108z" />
    <glyph glyph-name="Ucircumflex" unicode="&#xdb;" horiz-adv-x="550" 
d="M402 772l-126 124l-129 -125l30 -30l99 94l94 -93zM511 186v514h-45v-514q0 -51 -24.5 -86t-68 -52t-98.5 -17t-98.5 17.5t-69 52t-25.5 85.5v514h-44v-514q0 -65 30 -109t84 -66t124 -22q69 0 122 22.5t83 66.5t30 108z" />
    <glyph glyph-name="Udieresis" unicode="&#xdc;" horiz-adv-x="550" 
d="M196 846q-11 0 -19 -8t-8 -20q0 -11 8 -19t19 -8q12 0 20 8t8 19q0 12 -8 20t-20 8zM355 846q-12 0 -19.5 -8t-7.5 -20q0 -11 7.5 -19t19.5 -8t20 8t8 19q0 12 -8 20t-20 8zM511 186v514h-45v-514q0 -51 -24.5 -86t-68 -52t-98.5 -17t-98.5 17.5t-69 52t-25.5 85.5v514
h-44v-514q0 -65 30 -109t84 -66t124 -22q69 0 122 22.5t83 66.5t30 108z" />
    <glyph glyph-name="Yacute" unicode="&#xdd;" horiz-adv-x="570" 
d="M347 838q5 8 6 15t-1.5 14t-10.5 11q-7 4 -14 3t-13 -6t-9 -13l-42 -110h30zM530 153v547h-45v-274q0 -36 -18 -62.5t-47.5 -43t-66 -24.5t-72.5 -8q-64 0 -110.5 18.5t-71.5 55.5t-25 94v244h-44v-245q0 -65 28 -112t82 -72.5t130 -25.5q48 0 90 10.5t75 28.5t50 40
v-171q0 -31 -6.5 -53t-18 -37t-27 -24.5t-32.5 -14.5l11 -31q56 9 87 49.5t31 110.5z" />
    <glyph glyph-name="Thorn" unicode="&#xde;" horiz-adv-x="559" 
d="M315 614h-229v86h-45v-700h45v171h226q56 0 97 13t67.5 40t40 69.5t13.5 101.5t-14 101t-41 68t-67 38t-93 12zM86 214v358h232q38 0 69 -9t52.5 -29t33.5 -54.5t12 -84.5q0 -54 -12 -89.5t-34.5 -55.5t-53.5 -28t-70 -8h-229z" />
    <glyph glyph-name="germandbls" unicode="&#xdf;" horiz-adv-x="516" 
d="M84 0v544q0 40 12 65t36 37t59 12q27 0 48.5 -11t34.5 -29.5t14 -38.5q0 -18 -7 -34.5t-23 -26.5t-44 -10q-11 -18 -15 -36t-3 -34q2 -29 20.5 -53.5t46.5 -46t59.5 -42.5t59 -44t44.5 -49.5t17 -59.5q0 -24 -9.5 -44.5t-27.5 -35.5t-44 -23.5t-58 -8.5q-22 0 -42.5 3.5
t-38 8.5t-32 12t-24.5 14l-21 -33q16 -11 41 -22.5t57 -18.5t70 -6q37 1 68.5 11.5t55.5 29.5t37.5 47t13.5 64q0 39 -17 70t-45 56.5t-58.5 47t-59 41.5t-47.5 41t-22 44q-1 11 1.5 21t9.5 21h4h9.5h9.5h4q19 8 31 22.5t17 33t5 37.5q-1 31 -18 59.5t-48.5 47t-77.5 17.5
q-34 -1 -61 -10t-46.5 -28t-30 -49t-10.5 -72v-541h45z" />
    <glyph glyph-name="agrave" unicode="&#xe0;" horiz-adv-x="495" 
d="M216 664q-3 8 -9 13.5t-13.5 6.5t-15.5 -3q-6 -4 -9 -11t-1.5 -14.5t5.5 -14.5l55 -86h31zM415 349q-29 14 -64 26.5t-73 20t-76 7.5q-42 0 -74.5 -9.5t-55.5 -28t-34.5 -47t-11.5 -65.5v-86q0 -53 17.5 -88t49.5 -54.5t78 -27.5t102 -7q15 0 38.5 1t49.5 2.5t48.5 3
t36.5 2.5t13 1v307q0 60 -13.5 99t-42 61.5t-73 32t-105.5 9.5l-2 -35q36 0 70.5 -5t62 -18t43.5 -38t16 -64zM415 310v-273l-8.5 -1t-23 -1.5t-33.5 -2t-39.5 -2.5t-40.5 -2q-60 -1 -99 7.5t-61.5 27.5t-31.5 46t-9 61v81q0 33 11 55t29 35t41.5 18.5t47.5 5.5
q38 0 75 -7.5t73 -20t69 -27.5z" />
    <glyph glyph-name="aacute" unicode="&#xe1;" horiz-adv-x="495" 
d="M309 639q5 8 6 15t-1.5 14t-10.5 11q-7 4 -14 3t-13 -6t-9 -13l-42 -110h30zM415 349q-29 14 -64 26.5t-73 20t-76 7.5q-42 0 -74.5 -9.5t-55.5 -28t-34.5 -47t-11.5 -65.5v-86q0 -53 17.5 -88t49.5 -54.5t78 -27.5t102 -7q15 0 38.5 1t49.5 2.5t48.5 3t36.5 2.5t13 1
v307q0 60 -13.5 99t-42 61.5t-73 32t-105.5 9.5l-2 -35q36 0 70.5 -5t62 -18t43.5 -38t16 -64zM415 310v-273l-8.5 -1t-23 -1.5t-33.5 -2t-39.5 -2.5t-40.5 -2q-60 -1 -99 7.5t-61.5 27.5t-31.5 46t-9 61v81q0 33 11 55t29 35t41.5 18.5t47.5 5.5q38 0 75 -7.5t73 -20
t69 -27.5z" />
    <glyph glyph-name="acircumflex" unicode="&#xe2;" horiz-adv-x="495" 
d="M368 588l-126 124l-129 -125l30 -30l99 94l94 -93zM415 349q-29 14 -64 26.5t-73 20t-76 7.5q-42 0 -74.5 -9.5t-55.5 -28t-34.5 -47t-11.5 -65.5v-86q0 -53 17.5 -88t49.5 -54.5t78 -27.5t102 -7q15 0 38.5 1t49.5 2.5t48.5 3t36.5 2.5t13 1v307q0 60 -13.5 99t-42 61.5
t-73 32t-105.5 9.5l-2 -35q36 0 70.5 -5t62 -18t43.5 -38t16 -64zM415 310v-273l-8.5 -1t-23 -1.5t-33.5 -2t-39.5 -2.5t-40.5 -2q-60 -1 -99 7.5t-61.5 27.5t-31.5 46t-9 61v81q0 33 11 55t29 35t41.5 18.5t47.5 5.5q38 0 75 -7.5t73 -20t69 -27.5z" />
    <glyph glyph-name="atilde" unicode="&#xe3;" horiz-adv-x="495" 
d="M322 670v-15q0 -13 -4 -25t-18 -11q-10 0 -20.5 7t-14.5 9q-10 8 -20 14.5t-21 11.5q-16 9 -36 10t-36 -10q-10 -7 -15.5 -18t-7.5 -23t-2 -23v-15h40v15q0 7 1.5 17t6.5 15q9 5 18.5 2.5t17.5 -7.5q9 -5 18.5 -12.5t20.5 -13.5q12 -7 24.5 -13t27.5 -6q32 0 46 24t14 52
v15h-40zM415 349q-29 14 -64 26.5t-73 20t-76 7.5q-42 0 -74.5 -9.5t-55.5 -28t-34.5 -47t-11.5 -65.5v-86q0 -53 17.5 -88t49.5 -54.5t78 -27.5t102 -7q15 0 38.5 1t49.5 2.5t48.5 3t36.5 2.5t13 1v307q0 60 -13.5 99t-42 61.5t-73 32t-105.5 9.5l-2 -35q36 0 70.5 -5
t62 -18t43.5 -38t16 -64zM415 310v-273l-8.5 -1t-23 -1.5t-33.5 -2t-39.5 -2.5t-40.5 -2q-60 -1 -99 7.5t-61.5 27.5t-31.5 46t-9 61v81q0 33 11 55t29 35t41.5 18.5t47.5 5.5q38 0 75 -7.5t73 -20t69 -27.5z" />
    <glyph glyph-name="adieresis" unicode="&#xe4;" horiz-adv-x="495" 
d="M164 651q-11 0 -19 -8t-8 -20q0 -11 8 -19t19 -8q12 0 20 8t8 19q0 12 -8 20t-20 8zM323 651q-12 0 -19.5 -8t-7.5 -20q0 -11 7.5 -19t19.5 -8t20 8t8 19q0 12 -8 20t-20 8zM415 349q-29 14 -64 26.5t-73 20t-76 7.5q-42 0 -74.5 -9.5t-55.5 -28t-34.5 -47t-11.5 -65.5
v-86q0 -53 17.5 -88t49.5 -54.5t78 -27.5t102 -7q15 0 38.5 1t49.5 2.5t48.5 3t36.5 2.5t13 1v307q0 60 -13.5 99t-42 61.5t-73 32t-105.5 9.5l-2 -35q36 0 70.5 -5t62 -18t43.5 -38t16 -64zM415 310v-273l-8.5 -1t-23 -1.5t-33.5 -2t-39.5 -2.5t-40.5 -2q-60 -1 -99 7.5
t-61.5 27.5t-31.5 46t-9 61v81q0 33 11 55t29 35t41.5 18.5t47.5 5.5q38 0 75 -7.5t73 -20t69 -27.5z" />
    <glyph glyph-name="aring" unicode="&#xe5;" horiz-adv-x="495" 
d="M241 699q-31 0 -57.5 -15t-42 -40.5t-15.5 -57.5t15.5 -58t42 -41t57.5 -15t56.5 15t41 41t15.5 58t-15.5 57.5t-41 40.5t-56.5 15zM241 663q32 0 55 -23q22 -22 22 -54q0 -16 -6 -30.5t-16 -25.5q-12 -10 -25.5 -16t-29.5 -6t-30 6t-25 16q-11 11 -17.5 25.5t-6.5 30.5
t6 30t16 25q12 11 26.5 16.5t30.5 5.5zM415 349q-29 14 -64 26.5t-73 20t-76 7.5q-42 0 -74.5 -9.5t-55.5 -28t-34.5 -47t-11.5 -65.5v-86q0 -53 17.5 -88t49.5 -54.5t78 -27.5t102 -7q15 0 38.5 1t49.5 2.5t48.5 3t36.5 2.5t13 1v307q0 60 -13.5 99t-42 61.5t-73 32
t-105.5 9.5l-2 -35q36 0 70.5 -5t62 -18t43.5 -38t16 -64zM415 310v-273l-8.5 -1t-23 -1.5t-33.5 -2t-39.5 -2.5t-40.5 -2q-60 -1 -99 7.5t-61.5 27.5t-31.5 46t-9 61v81q0 33 11 55t29 35t41.5 18.5t47.5 5.5q38 0 75 -7.5t73 -20t69 -27.5z" />
    <glyph glyph-name="ae" unicode="&#xe6;" horiz-adv-x="855" 
d="M415 349q-29 14 -64 26.5t-73 20t-76 7.5q-42 0 -74.5 -9.5t-55.5 -28t-34.5 -47t-11.5 -65.5v-86q0 -53 17.5 -88t49.5 -54.5t78 -27.5t102 -7q15 0 38.5 1t49.5 2.5t48.5 3t36.5 2.5t13 1v307q0 60 -13.5 99t-42 61.5t-73 32t-105.5 9.5l-2 -35q36 0 70.5 -5t62 -18
t43.5 -38t16 -64zM415 310v-273l-8.5 -1t-23 -1.5t-33.5 -2t-39.5 -2.5t-40.5 -2q-60 -1 -99 7.5t-61.5 27.5t-31.5 46t-9 61v81q0 33 11 55t29 35t41.5 18.5t47.5 5.5q38 0 75 -7.5t73 -20t69 -27.5zM462 132v75l362 17v119q0 58 -24.5 94.5t-69 54.5t-104.5 18t-107 -18
t-74 -55.5t-27 -96.5v-207q0 -43 14.5 -70.5t40.5 -44t62 -23.5t78 -7q44 0 92.5 12.5t89.5 34.5l-17 34q-43 -20 -84.5 -31.5t-84.5 -11.5q-31 0 -57.5 5.5t-46.5 17.5t-31.5 32.5t-11.5 50.5zM779 348v-85l-317 -13v88q0 45 20.5 75t57 45t85.5 15q44 0 78.5 -14t55 -41.5
t20.5 -69.5z" />
    <glyph glyph-name="ccedilla" unicode="&#xe7;" horiz-adv-x="420" 
d="M243 12h-40l-37 -62l8 -27q13 2 25 3t23 1.5t21 0.5q28 0 45.5 -12t17.5 -39q0 -24 -11 -36.5t-27.5 -17t-32.5 -4.5q-17 -1 -34 1t-30.5 5t-23.5 5l-10 -38q7 -1 22.5 -4t36 -5.5t43.5 -2.5q42 1 74.5 25t32.5 70q0 41 -26.5 68t-75.5 25h-12t-15 -1zM377 442l12 36
q-36 15 -75 23.5t-77 8.5q-70 0 -116.5 -23.5t-69.5 -66.5t-23 -103v-143q1 -67 27.5 -107t75 -58.5t113.5 -19.5q37 -1 75 3.5t72 12.5l-9 40q-1 0 -12.5 -2.5t-30 -5.5t-42.5 -5t-51 -2q-41 1 -73.5 9t-55.5 25.5t-34 46.5t-11 72v129q1 49 19 84.5t55 54.5t92 19
q34 -1 70.5 -8t68.5 -20z" />
    <glyph glyph-name="egrave" unicode="&#xe8;" horiz-adv-x="467" 
d="M207 664q-3 8 -9 13.5t-13.5 6.5t-15.5 -3q-6 -4 -9 -11t-1.5 -14.5t5.5 -14.5l55 -86h31zM75 132v75l362 17v119q0 58 -24.5 94.5t-69 54.5t-104.5 18t-107 -18t-74 -55.5t-27 -96.5v-207q0 -43 14.5 -70.5t40.5 -44t62 -23.5t78 -7q44 0 92.5 12.5t89.5 34.5l-17 34
q-43 -20 -84.5 -31.5t-84.5 -11.5q-31 0 -57.5 5.5t-46.5 17.5t-31.5 32.5t-11.5 50.5zM392 348v-85l-317 -13v88q0 45 20.5 75t57 45t85.5 15q44 0 78.5 -14t55 -41.5t20.5 -69.5z" />
    <glyph glyph-name="eacute" unicode="&#xe9;" horiz-adv-x="467" 
d="M298 650q5 8 6 15t-1.5 14t-10.5 11q-7 4 -14 3t-13 -6t-9 -13l-42 -110h30zM75 132v75l362 17v119q0 58 -24.5 94.5t-69 54.5t-104.5 18t-107 -18t-74 -55.5t-27 -96.5v-207q0 -43 14.5 -70.5t40.5 -44t62 -23.5t78 -7q44 0 92.5 12.5t89.5 34.5l-17 34
q-43 -20 -84.5 -31.5t-84.5 -11.5q-31 0 -57.5 5.5t-46.5 17.5t-31.5 32.5t-11.5 50.5zM392 348v-85l-317 -13v88q0 45 20.5 75t57 45t85.5 15q44 0 78.5 -14t55 -41.5t20.5 -69.5z" />
    <glyph glyph-name="ecircumflex" unicode="&#xea;" horiz-adv-x="467" 
d="M361 587l-126 124l-129 -125l30 -30l99 94l94 -93zM75 132v75l362 17v119q0 58 -24.5 94.5t-69 54.5t-104.5 18t-107 -18t-74 -55.5t-27 -96.5v-207q0 -43 14.5 -70.5t40.5 -44t62 -23.5t78 -7q44 0 92.5 12.5t89.5 34.5l-17 34q-43 -20 -84.5 -31.5t-84.5 -11.5
q-31 0 -57.5 5.5t-46.5 17.5t-31.5 32.5t-11.5 50.5zM392 348v-85l-317 -13v88q0 45 20.5 75t57 45t85.5 15q44 0 78.5 -14t55 -41.5t20.5 -69.5z" />
    <glyph glyph-name="edieresis" unicode="&#xeb;" horiz-adv-x="467" 
d="M155 651q-11 0 -19 -8t-8 -20q0 -11 8 -19t19 -8q12 0 20 8t8 19q0 12 -8 20t-20 8zM314 651q-12 0 -19.5 -8t-7.5 -20q0 -11 7.5 -19t19.5 -8t20 8t8 19q0 12 -8 20t-20 8zM75 132v75l362 17v119q0 58 -24.5 94.5t-69 54.5t-104.5 18t-107 -18t-74 -55.5t-27 -96.5v-207
q0 -43 14.5 -70.5t40.5 -44t62 -23.5t78 -7q44 0 92.5 12.5t89.5 34.5l-17 34q-43 -20 -84.5 -31.5t-84.5 -11.5q-31 0 -57.5 5.5t-46.5 17.5t-31.5 32.5t-11.5 50.5zM392 348v-85l-317 -13v88q0 45 20.5 75t57 45t85.5 15q44 0 78.5 -14t55 -41.5t20.5 -69.5z" />
    <glyph glyph-name="igrave" unicode="&#xec;" horiz-adv-x="122" 
d="M34 678q-3 8 -9 13.5t-13.5 6.5t-15.5 -3q-6 -4 -9 -11t-1.5 -14.5t5.5 -14.5l55 -86h31zM38 0h44v500h-44v-500z" />
    <glyph glyph-name="iacute" unicode="&#xed;" horiz-adv-x="122" 
d="M131 650q5 8 6 15t-1.5 14t-10.5 11q-7 4 -14 3t-13 -6t-9 -13l-42 -110h30zM38 0h44v500h-44v-500z" />
    <glyph glyph-name="icircumflex" unicode="&#xee;" horiz-adv-x="122" 
d="M188 587l-126 124l-129 -125l30 -30l99 94l94 -93zM38 0h44v500h-44v-500z" />
    <glyph glyph-name="idieresis" unicode="&#xef;" horiz-adv-x="122" 
d="M-19 651q-11 0 -19 -8t-8 -20q0 -11 8 -19t19 -8q12 0 20 8t8 19q0 12 -8 20t-20 8zM140 651q-12 0 -19.5 -8t-7.5 -20q0 -11 7.5 -19t19.5 -8t20 8t8 19q0 12 -8 20t-20 8zM38 0h44v500h-44v-500z" />
    <glyph glyph-name="eth" unicode="&#xf0;" horiz-adv-x="469" 
d="M344 656q-28 18 -61.5 29.5t-74.5 15.5l-8 -25q13 -2 32 -7t40.5 -14.5t43.5 -24.5l-116 -104l22 -23l119 106q24 -22 40.5 -55t16.5 -79v-123q-10 19 -29 33.5t-44 25.5t-52 17t-54 6q-93 0 -143 -46.5t-50 -140.5v-61q0 -93 53.5 -144t153.5 -51t154.5 49t54.5 146v283
q0 32 -8.5 62t-24 57t-39.5 47l51 45l-23 24zM231 32q-50 0 -86 16t-55.5 49.5t-19.5 86.5v71q0 47 18 77.5t50.5 45t77.5 15.5q34 1 66.5 -7.5t58.5 -26t41.5 -43t15.5 -59.5v-73q0 -52 -19.5 -85.5t-57 -50t-90.5 -16.5z" />
    <glyph glyph-name="ntilde" unicode="&#xf1;" horiz-adv-x="490" 
d="M326 670v-15q0 -13 -4 -25t-18 -11q-10 0 -20.5 7t-14.5 9q-10 8 -20 14.5t-21 11.5q-16 9 -36 10t-36 -10q-10 -7 -15.5 -18t-7.5 -23t-2 -23v-15h40v15q0 7 1.5 17t6.5 15q9 5 18.5 2.5t17.5 -7.5q9 -5 18.5 -12.5t20.5 -13.5q12 -7 24.5 -13t27.5 -6q32 0 46 24t14 52
v15h-40zM410 343v-343h43v344q0 38 -10 66t-29 47.5t-44.5 31t-57 17t-65.5 4.5q-28 0 -57.5 -5.5t-57 -14.5t-50.5 -21v32h-44v-501h44v435q23 11 49 18.5t54.5 12.5t56.5 5q33 1 63.5 -5t54 -20.5t37 -39.5t13.5 -63z" />
    <glyph glyph-name="ograve" unicode="&#xf2;" horiz-adv-x="475" 
d="M210 686q-3 8 -9 13.5t-13.5 6.5t-15.5 -3q-6 -4 -9 -11t-1.5 -14.5t5.5 -14.5l55 -86h31zM445 183v135q0 94 -53 144t-153 50q-66 0 -113.5 -21.5t-72.5 -64.5t-25 -108v-135q0 -55 23.5 -98.5t71 -69t118.5 -25.5q102 0 153 51.5t51 141.5zM401 319v-142q0 -46 -18 -79
t-54 -51t-88 -18t-90 18.5t-58.5 51.5t-20.5 78v142q0 52 20 86t57.5 51t91.5 17q51 0 86.5 -16.5t54.5 -50.5t19 -87z" />
    <glyph glyph-name="oacute" unicode="&#xf3;" horiz-adv-x="475" 
d="M302 650q5 8 6 15t-1.5 14t-10.5 11q-7 4 -14 3t-13 -6t-9 -13l-42 -110h30zM445 183v135q0 94 -53 144t-153 50q-66 0 -113.5 -21.5t-72.5 -64.5t-25 -108v-135q0 -55 23.5 -98.5t71 -69t118.5 -25.5q102 0 153 51.5t51 141.5zM401 319v-142q0 -46 -18 -79t-54 -51
t-88 -18t-90 18.5t-58.5 51.5t-20.5 78v142q0 52 20 86t57.5 51t91.5 17q51 0 86.5 -16.5t54.5 -50.5t19 -87z" />
    <glyph glyph-name="ocircumflex" unicode="&#xf4;" horiz-adv-x="475" 
d="M365 587l-126 124l-129 -125l30 -30l99 94l94 -93zM445 183v135q0 94 -53 144t-153 50q-66 0 -113.5 -21.5t-72.5 -64.5t-25 -108v-135q0 -55 23.5 -98.5t71 -69t118.5 -25.5q102 0 153 51.5t51 141.5zM401 319v-142q0 -46 -18 -79t-54 -51t-88 -18t-90 18.5t-58.5 51.5
t-20.5 78v142q0 52 20 86t57.5 51t91.5 17q51 0 86.5 -16.5t54.5 -50.5t19 -87z" />
    <glyph glyph-name="otilde" unicode="&#xf5;" horiz-adv-x="475" 
d="M315 670v-15q0 -13 -4 -25t-18 -11q-10 0 -20.5 7t-14.5 9q-10 8 -20 14.5t-21 11.5q-16 9 -36 10t-36 -10q-10 -7 -15.5 -18t-7.5 -23t-2 -23v-15h40v15q0 7 1.5 17t6.5 15q9 5 18.5 2.5t17.5 -7.5q9 -5 18.5 -12.5t20.5 -13.5q12 -7 24.5 -13t27.5 -6q32 0 46 24t14 52
v15h-40zM445 183v135q0 94 -53 144t-153 50q-66 0 -113.5 -21.5t-72.5 -64.5t-25 -108v-135q0 -55 23.5 -98.5t71 -69t118.5 -25.5q102 0 153 51.5t51 141.5zM401 319v-142q0 -46 -18 -79t-54 -51t-88 -18t-90 18.5t-58.5 51.5t-20.5 78v142q0 52 20 86t57.5 51t91.5 17
q51 0 86.5 -16.5t54.5 -50.5t19 -87z" />
    <glyph glyph-name="odieresis" unicode="&#xf6;" horiz-adv-x="475" 
d="M157 651q-11 0 -19 -8t-8 -20q0 -11 8 -19t19 -8q12 0 20 8t8 19q0 12 -8 20t-20 8zM316 651q-12 0 -19.5 -8t-7.5 -20q0 -11 7.5 -19t19.5 -8t20 8t8 19q0 12 -8 20t-20 8zM445 183v135q0 94 -53 144t-153 50q-66 0 -113.5 -21.5t-72.5 -64.5t-25 -108v-135
q0 -55 23.5 -98.5t71 -69t118.5 -25.5q102 0 153 51.5t51 141.5zM401 319v-142q0 -46 -18 -79t-54 -51t-88 -18t-90 18.5t-58.5 51.5t-20.5 78v142q0 52 20 86t57.5 51t91.5 17q51 0 86.5 -16.5t54.5 -50.5t19 -87z" />
    <glyph glyph-name="divide" unicode="&#xf7;" horiz-adv-x="381" 
d="M29 362h320v43h-320v-43zM190 541q-12 0 -20 -8.5t-8 -20.5q0 -11 8 -19t20 -8t20 8t8 19q0 12 -8 20.5t-20 8.5zM190 283q-12 0 -20 -8t-8 -20t8 -19.5t20 -7.5t20 7.5t8 19.5t-8 20t-20 8z" />
    <glyph glyph-name="oslash" unicode="&#xf8;" horiz-adv-x="475" 
d="M398 514h-48l-262 -534h47zM445 183v135q0 94 -53 144t-153 50q-66 0 -113.5 -21.5t-72.5 -64.5t-25 -108v-135q0 -55 23.5 -98.5t71 -69t118.5 -25.5q102 0 153 51.5t51 141.5zM401 319v-142q0 -46 -18 -79t-54 -51t-88 -18t-90 18.5t-58.5 51.5t-20.5 78v142
q0 52 20 86t57.5 51t91.5 17q51 0 86.5 -16.5t54.5 -50.5t19 -87z" />
    <glyph glyph-name="ugrave" unicode="&#xf9;" horiz-adv-x="491" 
d="M218 684q-3 8 -9 13.5t-13.5 6.5t-15.5 -3q-6 -4 -9 -11t-1.5 -14.5t5.5 -14.5l55 -86h31zM407 68v-68h45v501h-45v-329q0 -28 -12 -53t-35 -44t-53.5 -30.5t-66.5 -12.5q-48 -1 -84.5 11.5t-56.5 42.5t-20 81v334h-44v-343q0 -39 10 -67.5t29 -48t45 -31t56 -16.5t64 -5
q32 1 64 9.5t59.5 25.5t44.5 43z" />
    <glyph glyph-name="uacute" unicode="&#xfa;" horiz-adv-x="491" 
d="M310 650q5 8 6 15t-1.5 14t-10.5 11q-7 4 -14 3t-13 -6t-9 -13l-42 -110h30zM407 68v-68h45v501h-45v-329q0 -28 -12 -53t-35 -44t-53.5 -30.5t-66.5 -12.5q-48 -1 -84.5 11.5t-56.5 42.5t-20 81v334h-44v-343q0 -39 10 -67.5t29 -48t45 -31t56 -16.5t64 -5q32 1 64 9.5
t59.5 25.5t44.5 43z" />
    <glyph glyph-name="ucircumflex" unicode="&#xfb;" horiz-adv-x="491" 
d="M372 587l-126 124l-129 -125l30 -30l99 94l94 -93zM407 68v-68h45v501h-45v-329q0 -28 -12 -53t-35 -44t-53.5 -30.5t-66.5 -12.5q-48 -1 -84.5 11.5t-56.5 42.5t-20 81v334h-44v-343q0 -39 10 -67.5t29 -48t45 -31t56 -16.5t64 -5q32 1 64 9.5t59.5 25.5t44.5 43z" />
    <glyph glyph-name="udieresis" unicode="&#xfc;" horiz-adv-x="491" 
d="M163 651q-11 0 -19 -8t-8 -20q0 -11 8 -19t19 -8q12 0 20 8t8 19q0 12 -8 20t-20 8zM322 651q-12 0 -19.5 -8t-7.5 -20q0 -11 7.5 -19t19.5 -8t20 8t8 19q0 12 -8 20t-20 8zM407 68v-68h45v501h-45v-329q0 -28 -12 -53t-35 -44t-53.5 -30.5t-66.5 -12.5
q-48 -1 -84.5 11.5t-56.5 42.5t-20 81v334h-44v-343q0 -39 10 -67.5t29 -48t45 -31t56 -16.5t64 -5q32 1 64 9.5t59.5 25.5t44.5 43z" />
    <glyph glyph-name="yacute" unicode="&#xfd;" horiz-adv-x="513" 
d="M318 650q5 8 6 15t-1.5 14t-10.5 11q-7 4 -14 3t-13 -6t-9 -13l-42 -110h30zM484 480l-18 32q-22 -9 -35 -23.5t-18.5 -33.5t-5.5 -43v-239q0 -28 -12.5 -53t-34 -44t-51 -30.5t-62.5 -12.5t-63 4t-54 18.5t-37.5 39t-13.5 64.5v342h-44v-345q0 -49 15.5 -81.5
t43.5 -50.5t65 -25.5t80 -7.5q32 1 64 10t59.5 26t44.5 43v-133q0 -22 -5 -40t-16 -31.5t-27.5 -23.5t-39.5 -18l14 -34q42 12 68 30t38 46.5t12 69.5v475q0 33 9 47t24 22z" />
    <glyph glyph-name="thorn" unicode="&#xfe;" horiz-adv-x="488" 
d="M455 175v171q0 55 -22.5 92t-65 56t-104.5 16q-30 -1 -61 -8t-61 -20t-57 -31v249h-45v-894l45 -18v280q14 -23 42 -41.5t64 -28.5t73 -10q93 0 142.5 48t49.5 139zM411 344v-177q0 -46 -18 -76.5t-50.5 -46t-77.5 -16.5q-34 -1 -66 8t-58 26.5t-41.5 43.5t-15.5 59v239
q21 21 51 35.5t63 22.5t60 9q29 1 56.5 -5t49.5 -20.5t34.5 -39.5t12.5 -62z" />
    <glyph glyph-name="ydieresis" unicode="&#xff;" horiz-adv-x="513" 
d="M173 651q-11 0 -19 -8t-8 -20q0 -11 8 -19t19 -8q12 0 20 8t8 19q0 12 -8 20t-20 8zM332 651q-12 0 -19.5 -8t-7.5 -20q0 -11 7.5 -19t19.5 -8t20 8t8 19q0 12 -8 20t-20 8zM484 480l-18 32q-22 -9 -35 -23.5t-18.5 -33.5t-5.5 -43v-239q0 -28 -12.5 -53t-34 -44
t-51 -30.5t-62.5 -12.5t-63 4t-54 18.5t-37.5 39t-13.5 64.5v342h-44v-345q0 -49 15.5 -81.5t43.5 -50.5t65 -25.5t80 -7.5q32 1 64 10t59.5 26t44.5 43v-133q0 -22 -5 -40t-16 -31.5t-27.5 -23.5t-39.5 -18l14 -34q42 12 68 30t38 46.5t12 69.5v475q0 33 9 47t24 22z" />
    <glyph glyph-name="Amacron" unicode="&#x100;" horiz-adv-x="610" 
d="M414 827h-221v-44h221v44zM589 0l-265 700h-40l-263 -700h47l97 257h278l99 -257h47zM180 300l124 335l125 -335h-249z" />
    <glyph glyph-name="amacron" unicode="&#x101;" horiz-adv-x="495" 
d="M355 642h-221v-44h221v44zM415 349q-29 14 -64 26.5t-73 20t-76 7.5q-42 0 -74.5 -9.5t-55.5 -28t-34.5 -47t-11.5 -65.5v-86q0 -53 17.5 -88t49.5 -54.5t78 -27.5t102 -7q15 0 38.5 1t49.5 2.5t48.5 3t36.5 2.5t13 1v307q0 60 -13.5 99t-42 61.5t-73 32t-105.5 9.5
l-2 -35q36 0 70.5 -5t62 -18t43.5 -38t16 -64zM415 310v-273l-8.5 -1t-23 -1.5t-33.5 -2t-39.5 -2.5t-40.5 -2q-60 -1 -99 7.5t-61.5 27.5t-31.5 46t-9 61v81q0 33 11 55t29 35t41.5 18.5t47.5 5.5q38 0 75 -7.5t73 -20t69 -27.5z" />
    <glyph glyph-name="Abreve" unicode="&#x102;" horiz-adv-x="608" 
d="M394 854h-37v-7q0 -31 -21.5 -53.5t-53.5 -22.5q-31 0 -54 22.5t-23 53.5v7h-37v-7q0 -31 15.5 -56.5t41.5 -41t57 -15.5t56.5 15.5t40.5 41t15 56.5v7zM589 0l-265 700h-40l-263 -700h47l97 257h278l99 -257h47zM180 300l124 335l125 -335h-249z" />
    <glyph glyph-name="abreve" unicode="&#x103;" horiz-adv-x="495" 
d="M334 669h-37v-7q0 -31 -21.5 -53.5t-53.5 -22.5q-31 0 -54 22.5t-23 53.5v7h-37v-7q0 -31 15.5 -56.5t41.5 -41t57 -15.5t56.5 15.5t40.5 41t15 56.5v7zM415 349q-29 14 -64 26.5t-73 20t-76 7.5q-42 0 -74.5 -9.5t-55.5 -28t-34.5 -47t-11.5 -65.5v-86q0 -53 17.5 -88
t49.5 -54.5t78 -27.5t102 -7q15 0 38.5 1t49.5 2.5t48.5 3t36.5 2.5t13 1v307q0 60 -13.5 99t-42 61.5t-73 32t-105.5 9.5l-2 -35q36 0 70.5 -5t62 -18t43.5 -38t16 -64zM415 310v-273l-8.5 -1t-23 -1.5t-33.5 -2t-39.5 -2.5t-40.5 -2q-60 -1 -99 7.5t-61.5 27.5t-31.5 46
t-9 61v81q0 33 11 55t29 35t41.5 18.5t47.5 5.5q38 0 75 -7.5t73 -20t69 -27.5z" />
    <glyph glyph-name="Aogonek" unicode="&#x104;" horiz-adv-x="608" 
d="M580 6h-35v-8l-67 -103q-16 -25 -15.5 -49t14.5 -42t38 -26t56 0q5 1 21.5 6.5t34.5 12t30.5 11l12.5 4.5l-14 33l-7 -2.5t-19 -7t-28 -10t-34 -12.5q-27 -9 -46 -1t-23.5 27.5t9.5 42.5l72 115v9zM589 0l-265 700h-40l-263 -700h47l97 257h278l99 -257h47zM180 300
l124 335l125 -335h-249z" />
    <glyph glyph-name="aogonek" unicode="&#x105;" horiz-adv-x="495" 
d="M454 11h-35v-8l-67 -103q-16 -25 -15.5 -49t14.5 -42t38 -26t56 0q5 1 21.5 6.5t34.5 12t30.5 11l12.5 4.5l-14 33l-7 -2.5t-19 -7t-28 -10t-34 -12.5q-27 -9 -46 -1t-23.5 27.5t9.5 42.5l72 115v9zM415 349q-29 14 -64 26.5t-73 20t-76 7.5q-42 0 -74.5 -9.5t-55.5 -28
t-34.5 -47t-11.5 -65.5v-86q0 -53 17.5 -88t49.5 -54.5t78 -27.5t102 -7q15 0 38.5 1t49.5 2.5t48.5 3t36.5 2.5t13 1v307q0 60 -13.5 99t-42 61.5t-73 32t-105.5 9.5l-2 -35q36 0 70.5 -5t62 -18t43.5 -38t16 -64zM415 310v-273l-8.5 -1t-23 -1.5t-33.5 -2t-39.5 -2.5
t-40.5 -2q-60 -1 -99 7.5t-61.5 27.5t-31.5 46t-9 61v81q0 33 11 55t29 35t41.5 18.5t47.5 5.5q38 0 75 -7.5t73 -20t69 -27.5z" />
    <glyph glyph-name="Cacute" unicode="&#x106;" horiz-adv-x="468" 
d="M301 838q5 8 6 15t-1.5 14t-10.5 11q-7 4 -14 3t-13 -6t-9 -13l-42 -110h30zM400 646l13 31q-34 17 -75.5 25t-86.5 8q-61 0 -110 -19.5t-78 -63t-29 -116.5v-325q0 -69 26 -112t76 -63.5t123 -20.5q43 0 89 8.5t94 24.5l-11 37q-31 -10 -61.5 -17t-57 -10.5t-49.5 -3.5
q-59 0 -100.5 15t-62.5 50t-21 94v326q0 56 22 90.5t64 50t101 15.5q31 0 65.5 -5.5t68.5 -18.5z" />
    <glyph glyph-name="cacute" unicode="&#x107;" horiz-adv-x="420" 
d="M282 650q5 8 6 15t-1.5 14t-10.5 11q-7 4 -14 3t-13 -6t-9 -13l-42 -110h30zM377 442l12 36q-36 15 -75 23.5t-77 8.5q-70 0 -116.5 -23.5t-69.5 -66.5t-23 -103v-143q1 -67 27.5 -107t75 -58.5t113.5 -19.5q37 -1 75 3.5t72 12.5l-9 40q-1 0 -12.5 -2.5t-30 -5.5
t-42.5 -5t-51 -2q-41 1 -73.5 9t-55.5 25.5t-34 46.5t-11 72v129q1 49 19 84.5t55 54.5t92 19q34 -1 70.5 -8t68.5 -20z" />
    <glyph glyph-name="Ccircumflex" unicode="&#x108;" horiz-adv-x="468" 
d="M366 772l-126 124l-129 -125l30 -30l99 94l94 -93zM400 646l13 31q-34 17 -75.5 25t-86.5 8q-61 0 -110 -19.5t-78 -63t-29 -116.5v-325q0 -69 26 -112t76 -63.5t123 -20.5q43 0 89 8.5t94 24.5l-11 37q-31 -10 -61.5 -17t-57 -10.5t-49.5 -3.5q-59 0 -100.5 15t-62.5 50
t-21 94v326q0 56 22 90.5t64 50t101 15.5q31 0 65.5 -5.5t68.5 -18.5z" />
    <glyph glyph-name="ccircumflex" unicode="&#x109;" horiz-adv-x="420" 
d="M354 587l-126 124l-129 -125l30 -30l99 94l94 -93zM377 442l12 36q-36 15 -75 23.5t-77 8.5q-70 0 -116.5 -23.5t-69.5 -66.5t-23 -103v-143q1 -67 27.5 -107t75 -58.5t113.5 -19.5q37 -1 75 3.5t72 12.5l-9 40q-1 0 -12.5 -2.5t-30 -5.5t-42.5 -5t-51 -2q-41 1 -73.5 9
t-55.5 25.5t-34 46.5t-11 72v129q1 49 19 84.5t55 54.5t92 19q34 -1 70.5 -8t68.5 -20z" />
    <glyph glyph-name="Cdotaccent" unicode="&#x10a;" horiz-adv-x="468" 
d="M241 855q-12 0 -20 -8.5t-8 -20.5q0 -11 8 -19.5t20 -8.5t19.5 8.5t7.5 19.5q0 12 -7.5 20.5t-19.5 8.5zM400 646l13 31q-34 17 -75.5 25t-86.5 8q-61 0 -110 -19.5t-78 -63t-29 -116.5v-325q0 -69 26 -112t76 -63.5t123 -20.5q43 0 89 8.5t94 24.5l-11 37
q-31 -10 -61.5 -17t-57 -10.5t-49.5 -3.5q-59 0 -100.5 15t-62.5 50t-21 94v326q0 56 22 90.5t64 50t101 15.5q31 0 65.5 -5.5t68.5 -18.5z" />
    <glyph glyph-name="cdotaccent" unicode="&#x10b;" horiz-adv-x="420" 
d="M229 660q-12 0 -20 -8.5t-8 -20.5q0 -11 8 -19.5t20 -8.5t19.5 8.5t7.5 19.5q0 12 -7.5 20.5t-19.5 8.5zM377 442l12 36q-36 15 -75 23.5t-77 8.5q-70 0 -116.5 -23.5t-69.5 -66.5t-23 -103v-143q1 -67 27.5 -107t75 -58.5t113.5 -19.5q37 -1 75 3.5t72 12.5l-9 40
q-1 0 -12.5 -2.5t-30 -5.5t-42.5 -5t-51 -2q-41 1 -73.5 9t-55.5 25.5t-34 46.5t-11 72v129q1 49 19 84.5t55 54.5t92 19q34 -1 70.5 -8t68.5 -20z" />
    <glyph glyph-name="Ccaron" unicode="&#x10c;" horiz-adv-x="468" 
d="M372 864l-30 30l-98 -94l-96 93l-31 -31l127 -123zM400 646l13 31q-34 17 -75.5 25t-86.5 8q-61 0 -110 -19.5t-78 -63t-29 -116.5v-325q0 -69 26 -112t76 -63.5t123 -20.5q43 0 89 8.5t94 24.5l-11 37q-31 -10 -61.5 -17t-57 -10.5t-49.5 -3.5q-59 0 -100.5 15t-62.5 50
t-21 94v326q0 56 22 90.5t64 50t101 15.5q31 0 65.5 -5.5t68.5 -18.5z" />
    <glyph glyph-name="ccaron" unicode="&#x10d;" horiz-adv-x="420" 
d="M360 679l-30 30l-98 -94l-96 93l-31 -31l127 -123zM377 442l12 36q-36 15 -75 23.5t-77 8.5q-70 0 -116.5 -23.5t-69.5 -66.5t-23 -103v-143q1 -67 27.5 -107t75 -58.5t113.5 -19.5q37 -1 75 3.5t72 12.5l-9 40q-1 0 -12.5 -2.5t-30 -5.5t-42.5 -5t-51 -2q-41 1 -73.5 9
t-55.5 25.5t-34 46.5t-11 72v129q1 49 19 84.5t55 54.5t92 19q34 -1 70.5 -8t68.5 -20z" />
    <glyph glyph-name="Dcaron" unicode="&#x10e;" horiz-adv-x="550" 
d="M403 864l-30 30l-98 -94l-96 93l-31 -31l127 -123zM260 700h-219v-700h239q80 0 132 23.5t77.5 69.5t25.5 114v268q0 69 -28 119.5t-84.5 78t-142.5 27.5zM270 40h-185v620h186q70 0 113.5 -23t64.5 -63t21 -91v-278q0 -44 -13 -75.5t-38 -51t-62.5 -29t-86.5 -9.5z" />
    <glyph glyph-name="dcaron" unicode="&#x10f;" horiz-adv-x="506" 
d="M569 859l-30 30l-98 -94l-96 93l-31 -31l127 -123zM462 0v700h-44v-227q-40 15 -89.5 26t-107.5 11q-41 0 -76 -10t-61.5 -29t-41 -47t-14.5 -65v-192q0 -53 17.5 -88t50.5 -55t79 -27.5t103 -6.5q14 0 37 1t49 2.5t48.5 3t36.5 2.5t13 1zM418 433v-396l-8.5 -1t-23 -2
t-33.5 -2.5t-39 -2.5t-40 -1q-59 -1 -98.5 8t-62 27.5t-32 45t-9.5 61.5v185q0 34 13.5 56.5t35.5 36t47.5 19.5t48.5 6q58 0 107 -11.5t94 -28.5z" />
    <glyph glyph-name="Dcroat" unicode="&#x110;" horiz-adv-x="550" 
d="M382 827h-221v-44h221v44zM260 700h-219v-700h239q80 0 132 23.5t77.5 69.5t25.5 114v268q0 69 -28 119.5t-84.5 78t-142.5 27.5zM270 40h-185v620h186q70 0 113.5 -23t64.5 -63t21 -91v-278q0 -44 -13 -75.5t-38 -51t-62.5 -29t-86.5 -9.5z" />
    <glyph glyph-name="dcroat" unicode="&#x111;" horiz-adv-x="506" 
d="M509 575v42h-256v-42h256zM462 0v700h-44v-227q-40 15 -89.5 26t-107.5 11q-41 0 -76 -10t-61.5 -29t-41 -47t-14.5 -65v-192q0 -53 17.5 -88t50.5 -55t79 -27.5t103 -6.5q14 0 37 1t49 2.5t48.5 3t36.5 2.5t13 1zM418 433v-396l-8.5 -1t-23 -2t-33.5 -2.5t-39 -2.5
t-40 -1q-59 -1 -98.5 8t-62 27.5t-32 45t-9.5 61.5v185q0 34 13.5 56.5t35.5 36t47.5 19.5t48.5 6q58 0 107 -11.5t94 -28.5z" />
    <glyph glyph-name="Emacron" unicode="&#x112;" horiz-adv-x="446" 
d="M335 827h-221v-44h221v44zM41 0h374v40h-329v329h230l14 43h-244v247h331v41h-376v-700z" />
    <glyph glyph-name="emacron" unicode="&#x113;" horiz-adv-x="467" 
d="M344 642h-221v-44h221v44zM75 132v75l362 17v119q0 58 -24.5 94.5t-69 54.5t-104.5 18t-107 -18t-74 -55.5t-27 -96.5v-207q0 -43 14.5 -70.5t40.5 -44t62 -23.5t78 -7q44 0 92.5 12.5t89.5 34.5l-17 34q-43 -20 -84.5 -31.5t-84.5 -11.5q-31 0 -57.5 5.5t-46.5 17.5
t-31.5 32.5t-11.5 50.5zM392 348v-85l-317 -13v88q0 45 20.5 75t57 45t85.5 15q44 0 78.5 -14t55 -41.5t20.5 -69.5z" />
    <glyph glyph-name="Ebreve" unicode="&#x114;" horiz-adv-x="446" 
d="M41 0h374v40h-329v329h230l14 43h-244v247h331v41h-376v-700zM337 903h-37v-7q0 -31 -21.5 -53.5t-53.5 -22.5q-31 0 -54 22.5t-23 53.5v7h-37v-7q0 -31 15.5 -56.5t41.5 -41t57 -15.5t56.5 15.5t40.5 41t15 56.5v7z" />
    <glyph glyph-name="ebreve" unicode="&#x115;" horiz-adv-x="467" 
d="M75 132v75l362 17v119q0 58 -24.5 94.5t-69 54.5t-104.5 18t-107 -18t-74 -55.5t-27 -96.5v-207q0 -43 14.5 -70.5t40.5 -44t62 -23.5t78 -7q44 0 92.5 12.5t89.5 34.5l-17 34q-43 -20 -84.5 -31.5t-84.5 -11.5q-31 0 -57.5 5.5t-46.5 17.5t-31.5 32.5t-11.5 50.5z
M392 348v-85l-317 -13v88q0 45 20.5 75t57 45t85.5 15q44 0 78.5 -14t55 -41.5t20.5 -69.5zM347 704h-37v-7q0 -31 -21.5 -53.5t-53.5 -22.5q-31 0 -54 22.5t-23 53.5v7h-37v-7q0 -31 15.5 -56.5t41.5 -41t57 -15.5t56.5 15.5t40.5 41t15 56.5v7z" />
    <glyph glyph-name="Edotaccent" unicode="&#x116;" horiz-adv-x="446" 
d="M225 855q-12 0 -20 -8.5t-8 -20.5q0 -11 8 -19.5t20 -8.5t19.5 8.5t7.5 19.5q0 12 -7.5 20.5t-19.5 8.5zM41 0h374v40h-329v329h230l14 43h-244v247h331v41h-376v-700z" />
    <glyph glyph-name="edotaccent" unicode="&#x117;" horiz-adv-x="467" 
d="M234 653q-12 0 -20 -8.5t-8 -20.5q0 -11 8 -19.5t20 -8.5t19.5 8.5t7.5 19.5q0 12 -7.5 20.5t-19.5 8.5zM75 132v75l362 17v119q0 58 -24.5 94.5t-69 54.5t-104.5 18t-107 -18t-74 -55.5t-27 -96.5v-207q0 -43 14.5 -70.5t40.5 -44t62 -23.5t78 -7q44 0 92.5 12.5
t89.5 34.5l-17 34q-43 -20 -84.5 -31.5t-84.5 -11.5q-31 0 -57.5 5.5t-46.5 17.5t-31.5 32.5t-11.5 50.5zM392 348v-85l-317 -13v88q0 45 20.5 75t57 45t85.5 15q44 0 78.5 -14t55 -41.5t20.5 -69.5z" />
    <glyph glyph-name="Eogonek" unicode="&#x118;" horiz-adv-x="446" 
d="M410 6h-35v-8l-67 -103q-16 -25 -15.5 -49t14.5 -42t38 -26t56 0q5 1 21.5 6.5t34.5 12t30.5 11l12.5 4.5l-14 33l-7 -2.5t-19 -7t-28 -10t-34 -12.5q-27 -9 -46 -1t-23.5 27.5t9.5 42.5l72 115v9zM41 0h374v40h-329v329h230l14 43h-244v247h331v41h-376v-700z" />
    <glyph glyph-name="eogonek" unicode="&#x119;" horiz-adv-x="467" 
d="M293 10h-35v-8l-67 -103q-16 -25 -15.5 -49t14.5 -42t38 -26t56 0q5 1 21.5 6.5t34.5 12t30.5 11l12.5 4.5l-14 33l-7 -2.5t-19 -7t-28 -10t-34 -12.5q-27 -9 -46 -1t-23.5 27.5t9.5 42.5l72 115v9zM75 132v75l362 17v119q0 58 -24.5 94.5t-69 54.5t-104.5 18t-107 -18
t-74 -55.5t-27 -96.5v-207q0 -43 14.5 -70.5t40.5 -44t62 -23.5t78 -7q44 0 92.5 12.5t89.5 34.5l-17 34q-43 -20 -84.5 -31.5t-84.5 -11.5q-31 0 -57.5 5.5t-46.5 17.5t-31.5 32.5t-11.5 50.5zM392 348v-85l-317 -13v88q0 45 20.5 75t57 45t85.5 15q44 0 78.5 -14t55 -41.5
t20.5 -69.5z" />
    <glyph glyph-name="Ecaron" unicode="&#x11a;" horiz-adv-x="446" 
d="M354 864l-30 30l-98 -94l-96 93l-31 -31l127 -123zM41 0h374v40h-329v329h230l14 43h-244v247h331v41h-376v-700z" />
    <glyph glyph-name="ecaron" unicode="&#x11b;" horiz-adv-x="467" 
d="M362 679l-30 30l-98 -94l-96 93l-31 -31l127 -123zM75 132v75l362 17v119q0 58 -24.5 94.5t-69 54.5t-104.5 18t-107 -18t-74 -55.5t-27 -96.5v-207q0 -43 14.5 -70.5t40.5 -44t62 -23.5t78 -7q44 0 92.5 12.5t89.5 34.5l-17 34q-43 -20 -84.5 -31.5t-84.5 -11.5
q-31 0 -57.5 5.5t-46.5 17.5t-31.5 32.5t-11.5 50.5zM392 348v-85l-317 -13v88q0 45 20.5 75t57 45t85.5 15q44 0 78.5 -14t55 -41.5t20.5 -69.5z" />
    <glyph glyph-name="Gcircumflex" unicode="&#x11c;" horiz-adv-x="527" 
d="M380 772l-126 124l-129 -125l30 -30l99 94l94 -93zM407 644l13 32q-24 11 -51.5 18.5t-57 11t-59.5 3.5q-73 0 -121.5 -24t-72.5 -70t-24 -112v-312q0 -67 26.5 -111.5t76 -67t117.5 -22.5q41 0 79 9t68.5 26.5t48.5 41.5l3 -67h42v300h-225l16 -43h166v-71
q0 -36 -15 -64.5t-42 -48.5t-63 -30.5t-79 -10.5q-56 0 -95 18.5t-59.5 53.5t-20.5 85v318q0 57 21.5 92.5t63.5 53t104 17.5q21 0 44.5 -2.5t48 -8t47.5 -15.5z" />
    <glyph glyph-name="gcircumflex" unicode="&#x11d;" horiz-adv-x="486" 
d="M369 587l-126 124l-129 -125l30 -30l99 94l94 -93zM446 -64v564h-44v-47q-26 18 -57 30.5t-62.5 19t-58.5 7.5q-61 2 -104.5 -16.5t-66.5 -55t-23 -90.5v-174q0 -92 50 -139t145 -47q25 0 52 6t52 16.5t44 25.5t29 32v-131q0 -26 -8 -45t-20.5 -32t-28 -21.5t-33.5 -15.5
l13 -34q43 12 70 31t39 47.5t12 68.5zM402 405v-240q0 -33 -15.5 -59t-41.5 -43t-58 -25.5t-66 -8.5q-44 1 -77 16t-51.5 44.5t-18.5 75.5v182q0 36 13.5 60.5t36 38.5t49.5 19.5t55 4.5q19 0 43.5 -4.5t49.5 -13t46 -20.5t35 -27z" />
    <glyph glyph-name="Gbreve" unicode="&#x11e;" horiz-adv-x="527" 
d="M343 854h-37v-7q0 -31 -21.5 -53.5t-53.5 -22.5q-31 0 -54 22.5t-23 53.5v7h-37v-7q0 -31 15.5 -56.5t41.5 -41t57 -15.5t56.5 15.5t40.5 41t15 56.5v7zM407 644l13 32q-24 11 -51.5 18.5t-57 11t-59.5 3.5q-73 0 -121.5 -24t-72.5 -70t-24 -112v-312q0 -67 26.5 -111.5
t76 -67t117.5 -22.5q41 0 79 9t68.5 26.5t48.5 41.5l3 -67h42v300h-225l16 -43h166v-71q0 -36 -15 -64.5t-42 -48.5t-63 -30.5t-79 -10.5q-56 0 -95 18.5t-59.5 53.5t-20.5 85v318q0 57 21.5 92.5t63.5 53t104 17.5q21 0 44.5 -2.5t48 -8t47.5 -15.5z" />
    <glyph glyph-name="gbreve" unicode="&#x11f;" horiz-adv-x="486" 
d="M331 669h-37v-7q0 -31 -21.5 -53.5t-53.5 -22.5q-31 0 -54 22.5t-23 53.5v7h-37v-7q0 -31 15.5 -56.5t41.5 -41t57 -15.5t56.5 15.5t40.5 41t15 56.5v7zM446 -64v564h-44v-47q-26 18 -57 30.5t-62.5 19t-58.5 7.5q-61 2 -104.5 -16.5t-66.5 -55t-23 -90.5v-174
q0 -92 50 -139t145 -47q25 0 52 6t52 16.5t44 25.5t29 32v-131q0 -26 -8 -45t-20.5 -32t-28 -21.5t-33.5 -15.5l13 -34q43 12 70 31t39 47.5t12 68.5zM402 405v-240q0 -33 -15.5 -59t-41.5 -43t-58 -25.5t-66 -8.5q-44 1 -77 16t-51.5 44.5t-18.5 75.5v182q0 36 13.5 60.5
t36 38.5t49.5 19.5t55 4.5q19 0 43.5 -4.5t49.5 -13t46 -20.5t35 -27z" />
    <glyph glyph-name="Gdotaccent" unicode="&#x120;" horiz-adv-x="527" 
d="M260 855q-12 0 -20 -8.5t-8 -20.5q0 -11 8 -19.5t20 -8.5t19.5 8.5t7.5 19.5q0 12 -7.5 20.5t-19.5 8.5zM407 644l13 32q-24 11 -51.5 18.5t-57 11t-59.5 3.5q-73 0 -121.5 -24t-72.5 -70t-24 -112v-312q0 -67 26.5 -111.5t76 -67t117.5 -22.5q41 0 79 9t68.5 26.5
t48.5 41.5l3 -67h42v300h-225l16 -43h166v-71q0 -36 -15 -64.5t-42 -48.5t-63 -30.5t-79 -10.5q-56 0 -95 18.5t-59.5 53.5t-20.5 85v318q0 57 21.5 92.5t63.5 53t104 17.5q21 0 44.5 -2.5t48 -8t47.5 -15.5z" />
    <glyph glyph-name="gdotaccent" unicode="&#x121;" horiz-adv-x="486" 
d="M241 641q-12 0 -20 -8.5t-8 -20.5q0 -11 8 -19.5t20 -8.5t19.5 8.5t7.5 19.5q0 12 -7.5 20.5t-19.5 8.5zM446 -64v564h-44v-47q-26 18 -57 30.5t-62.5 19t-58.5 7.5q-61 2 -104.5 -16.5t-66.5 -55t-23 -90.5v-174q0 -92 50 -139t145 -47q25 0 52 6t52 16.5t44 25.5t29 32
v-131q0 -26 -8 -45t-20.5 -32t-28 -21.5t-33.5 -15.5l13 -34q43 12 70 31t39 47.5t12 68.5zM402 405v-240q0 -33 -15.5 -59t-41.5 -43t-58 -25.5t-66 -8.5q-44 1 -77 16t-51.5 44.5t-18.5 75.5v182q0 36 13.5 60.5t36 38.5t49.5 19.5t55 4.5q19 0 43.5 -4.5t49.5 -13
t46 -20.5t35 -27z" />
    <glyph glyph-name="Gcommaaccent" unicode="&#x122;" horiz-adv-x="479" 
d="M208 -187l14 -10q5 4 12.5 13t16 22t14 31t5.5 40q0 13 -8 20.5t-20 7.5t-19.5 -8t-7.5 -20q0 -10 6 -18t16 -10q-2 -14 -8 -32t-21 -36zM407 644l13 32q-24 11 -51.5 18.5t-57 11t-59.5 3.5q-73 0 -121.5 -24t-72.5 -70t-24 -112v-312q0 -67 26.5 -111.5t76 -67
t117.5 -22.5q41 0 79 9t68.5 26.5t48.5 41.5l3 -67h42v300h-225l16 -43h166v-71q0 -36 -15 -64.5t-42 -48.5t-63 -30.5t-79 -10.5q-56 0 -95 18.5t-59.5 53.5t-20.5 85v318q0 57 21.5 92.5t63.5 53t104 17.5q21 0 44.5 -2.5t48 -8t47.5 -15.5z" />
    <glyph glyph-name="gcommaaccent" unicode="&#x123;" horiz-adv-x="441" 
d="M252 702l-14 10q-5 -4 -13 -13t-16 -22t-13.5 -31t-5.5 -40q0 -12 8 -19.5t20 -7.5t19.5 8t7.5 19t-6 18.5t-15 8.5q2 15 7.5 33.5t20.5 35.5zM446 -64v564h-44v-47q-26 18 -57 30.5t-62.5 19t-58.5 7.5q-61 2 -104.5 -16.5t-66.5 -55t-23 -90.5v-174q0 -92 50 -139
t145 -47q25 0 52 6t52 16.5t44 25.5t29 32v-131q0 -26 -8 -45t-20.5 -32t-28 -21.5t-33.5 -15.5l13 -34q43 12 70 31t39 47.5t12 68.5zM402 405v-240q0 -33 -15.5 -59t-41.5 -43t-58 -25.5t-66 -8.5q-44 1 -77 16t-51.5 44.5t-18.5 75.5v182q0 36 13.5 60.5t36 38.5
t49.5 19.5t55 4.5q19 0 43.5 -4.5t49.5 -13t46 -20.5t35 -27z" />
    <glyph glyph-name="Hcircumflex" unicode="&#x124;" horiz-adv-x="566" 
d="M410 772l-126 124l-129 -125l30 -30l99 94l94 -93zM480 412h-395v288h-44v-700h44v369h395v-369h43v700h-43v-288z" />
    <glyph glyph-name="hcircumflex" unicode="&#x125;" horiz-adv-x="489" 
d="M194 730l-126 124l-129 -125l30 -30l99 94l94 -93zM85 469v231h-44v-700h44v435q23 11 50 19t55.5 12.5t56.5 5.5q33 0 63 -5t53.5 -19t36.5 -38.5t13 -62.5v-347h44v349q0 37 -10 64.5t-28.5 46t-44 30t-57 16.5t-67.5 4q-28 0 -58.5 -6t-58 -15t-48.5 -20z" />
    <glyph glyph-name="Hbar" unicode="&#x126;" horiz-adv-x="566" 
d="M4 500h559v44h-559v-44zM480 412h-395v288h-44v-700h44v369h395v-369h43v700h-43v-288z" />
    <glyph glyph-name="hbar" unicode="&#x127;" horiz-adv-x="490" 
d="M270 575v42h-269v-42h269zM85 469v231h-44v-700h44v435q23 11 49.5 19t55.5 12.5t57 5.5q33 0 63 -5t53.5 -19t36.5 -38.5t13 -62.5v-347h44v349q0 37 -10 64.5t-28.5 46t-44 30t-57 16.5t-67.5 4q-28 0 -58.5 -6t-58 -15t-48.5 -20z" />
    <glyph glyph-name="Itilde" unicode="&#x128;" horiz-adv-x="190" 
d="M173 865v-15q0 -13 -4 -25t-18 -11q-10 0 -20.5 7t-14.5 9q-10 8 -20 14.5t-21 11.5q-16 9 -36 10t-36 -10q-10 -7 -15.5 -18t-7.5 -23t-2 -23v-15h40v15q0 7 1.5 17t6.5 15q9 5 18.5 2.5t17.5 -7.5q9 -5 18.5 -12.5t20.5 -13.5q12 -7 24.5 -13t27.5 -6q32 0 46 24t14 52
v15h-40zM18 662l87 -2v-660h43v700h-130v-38z" />
    <glyph glyph-name="itilde" unicode="&#x129;" horiz-adv-x="122" 
d="M136 670v-15q0 -13 -4 -25t-18 -11q-10 0 -20.5 7t-14.5 9q-10 8 -20 14.5t-21 11.5q-16 9 -36 10t-36 -10q-10 -7 -15.5 -18t-7.5 -23t-2 -23v-15h40v15q0 7 1.5 17t6.5 15q9 5 18.5 2.5t17.5 -7.5q9 -5 18.5 -12.5t20.5 -13.5q12 -7 24.5 -13t27.5 -6q32 0 46 24t14 52
v15h-40zM39 0h44v500h-44v-500z" />
    <glyph glyph-name="Imacron" unicode="&#x12a;" horiz-adv-x="190" 
d="M235 827h-221v-44h221v44zM18 662l87 -2v-660h43v700h-130v-38z" />
    <glyph glyph-name="imacron" unicode="&#x12b;" horiz-adv-x="122" 
d="M171 642h-221v-44h221v44zM38 0h44v500h-44v-500z" />
    <glyph glyph-name="Ibreve" unicode="&#x12c;" horiz-adv-x="187" 
d="M18 662l87 -2v-660h43v700h-130v-38zM207 903h-37v-7q0 -31 -21.5 -53.5t-53.5 -22.5q-31 0 -54 22.5t-23 53.5v7h-37v-7q0 -31 15.5 -56.5t41.5 -41t57 -15.5t56.5 15.5t40.5 41t15 56.5v7z" />
    <glyph glyph-name="ibreve" unicode="&#x12d;" horiz-adv-x="122" 
d="M38 0h44v500h-44v-500zM174 704h-37v-7q0 -31 -21.5 -53.5t-53.5 -22.5q-31 0 -54 22.5t-23 53.5v7h-37v-7q0 -31 15.5 -56.5t41.5 -41t57 -15.5t56.5 15.5t40.5 41t15 56.5v7z" />
    <glyph glyph-name="Iogonek" unicode="&#x12e;" horiz-adv-x="190" 
d="M146 6h-35v-8l-67 -103q-16 -25 -15.5 -49t14.5 -42t38 -26t56 0q5 1 21.5 6.5t34.5 12t30.5 11l12.5 4.5l-14 33l-7 -2.5t-19 -7t-28 -10t-34 -12.5q-27 -9 -46 -1t-23.5 27.5t9.5 42.5l72 115v9zM18 662l87 -2v-660h43v700h-130v-38z" />
    <glyph glyph-name="iogonek" unicode="&#x12f;" horiz-adv-x="122" 
d="M77 9h-35v-8l-67 -103q-16 -25 -15.5 -49t14.5 -42t38 -26t56 0q5 1 21.5 6.5t34.5 12t30.5 11l12.5 4.5l-14 33l-7 -2.5t-19 -7t-28 -10t-34 -12.5q-27 -9 -46 -1t-23.5 27.5t9.5 42.5l72 115v9zM38 0h44v500h-44v-500z" />
    <glyph glyph-name="Idotaccent" unicode="&#x130;" horiz-adv-x="190" 
d="M123 855q-12 0 -20 -8.5t-8 -20.5q0 -11 8 -19.5t20 -8.5t19.5 8.5t7.5 19.5q0 12 -7.5 20.5t-19.5 8.5zM18 662l87 -2v-660h43v700h-130v-38z" />
    <glyph glyph-name="dotlessi" unicode="&#x131;" horiz-adv-x="122" 
d="M38 0h44v500h-44v-500z" />
    <glyph glyph-name="IJ" unicode="&#x132;" horiz-adv-x="619" 
d="M577 700h-128v-39l86 -2v-473q0 -40 -14 -69t-40 -48.5t-61 -29t-78 -9.5q-41 0 -76.5 9.5t-62.5 28.5t-42 48.5t-15 69.5v41h-44v-42q0 -66 30.5 -109.5t84.5 -65t126 -21.5q71 0 123.5 22t81.5 65.5t29 108.5v515zM146 700h-129v-39l85 -2v-388h44v429z" />
    <glyph glyph-name="ij" unicode="&#x133;" horiz-adv-x="512" 
d="M69 710q-11 0 -19.5 -8t-8.5 -20q0 -11 8.5 -19.5t19.5 -8.5q12 0 20.5 8.5t8.5 19.5q0 12 -8.5 20t-20.5 8zM468 682q0 12 -8.5 19.5t-20.5 7.5q-11 0 -19 -7.5t-8 -19.5q0 -11 8 -19.5t19 -8.5q12 0 20.5 8.5t8.5 19.5zM420 502v-329q0 -28 -12.5 -53t-34.5 -44
t-50.5 -30.5t-62.5 -12.5q-33 -1 -63.5 4.5t-54 19.5t-37.5 39t-14 64v341h-45v-344q0 -39 10.5 -67t29.5 -47.5t44.5 -30.5t56.5 -16t64 -5q32 1 64.5 10t60 26t44.5 43v-133q0 -23 -5.5 -41t-16.5 -31.5t-28 -23t-39 -17.5l14 -34q42 13 68 30.5t38 45.5t12 70v566h-43z
" />
    <glyph glyph-name="Jcircumflex" unicode="&#x134;" horiz-adv-x="209" 
d="M240 772l-126 124l-129 -125l30 -30l99 94l94 -93zM168 122v578h-130v-38l85 -2v-542q0 -41 -13 -68t-34.5 -40.5t-49.5 -15.5l10 -31q38 3 63.5 16.5t40.5 35t21.5 49t6.5 58.5z" />
    <glyph glyph-name="jcircumflex" unicode="&#x135;" horiz-adv-x="188" 
d="M248 587l-126 124l-129 -125l30 -30l99 94l94 -93zM156 -63v564h-128v-41h84v-524q0 -29 -10 -50.5t-29.5 -37t-49.5 -25.5l14 -34q44 12 70 31t37.5 47.5t11.5 69.5z" />
    <glyph glyph-name="Kcommaaccent" unicode="&#x136;" horiz-adv-x="459" 
d="M198 -187l14 -10q5 4 12.5 13t16 22t14 31t5.5 40q0 13 -8 20.5t-20 7.5t-19.5 -8t-7.5 -20q0 -10 6 -18t16 -10q-2 -14 -8 -32t-21 -36zM85 346v354h-44v-700h44v277l76 92l272 -369h55l-297 407l241 293h-54z" />
    <glyph glyph-name="kcommaaccent" unicode="&#x137;" horiz-adv-x="427" 
d="M183 -182l14 -10q5 4 12.5 13t16 22t14 31t5.5 40q0 13 -8 20.5t-20 7.5t-19.5 -8t-7.5 -20q0 -10 6 -18t16 -10q-2 -14 -8 -32t-21 -36zM200 363l161 127l-30 30l-245 -196v376h-45v-700h45v274l81 62l231 -336h55z" />
    <glyph glyph-name="kgreenlandic" unicode="&#x138;" horiz-adv-x="479" 
d="M340 116l-143 180l213 205h-62l-266 -254v255l-44 10v-512h44v189l84 75l129 -161q19 -23 42 -47t52 -40t65 -16h2v38h-4q-15 0 -33.5 8.5t-38 26t-40.5 43.5z" />
    <glyph glyph-name="Lacute" unicode="&#x139;" horiz-adv-x="468" 
d="M135 835q5 8 6 15t-1.5 14t-10.5 11q-7 4 -14 3t-13 -6t-9 -13l-42 -110h30zM41 0h406v40h-362v660h-44v-700z" />
    <glyph glyph-name="lacute" unicode="&#x13a;" horiz-adv-x="128" 
d="M135 830q5 8 6 15t-1.5 14t-10.5 11q-7 4 -14 3t-13 -6t-9 -13l-42 -110h30zM41 0h44v700h-44v-700z" />
    <glyph glyph-name="Lcommaaccent" unicode="&#x13b;" horiz-adv-x="424" 
d="M181 -187l14 -10q5 4 12.5 13t16 22t14 31t5.5 40q0 13 -8 20.5t-20 7.5t-19.5 -8t-7.5 -20q0 -10 6 -18t16 -10q-2 -14 -8 -32t-21 -36zM41 0h406v40h-362v660h-44v-700z" />
    <glyph glyph-name="lcommaaccent" unicode="&#x13c;" horiz-adv-x="140" 
d="M38 -182l14 -10q5 4 12.5 13t16 22t14 31t5.5 40q0 13 -8 20.5t-20 7.5t-19.5 -8t-7.5 -20q0 -10 6 -18t16 -10q-2 -14 -8 -32t-21 -36zM41 0h44v700h-44v-700z" />
    <glyph glyph-name="Lcaron" unicode="&#x13d;" horiz-adv-x="468" 
d="M197 864l-30 30l-98 -94l-96 93l-31 -31l127 -123zM41 0h406v40h-362v660h-44v-700z" />
    <glyph glyph-name="lcaron" unicode="&#x13e;" horiz-adv-x="128" 
d="M192 859l-30 30l-98 -94l-96 93l-31 -31l127 -123zM41 0h44v700h-44v-700z" />
    <glyph glyph-name="Ldot" unicode="&#x13f;" horiz-adv-x="468" 
d="M259 382q-12 0 -20 -8.5t-8 -20.5q0 -11 8 -19.5t20 -8.5t19.5 8.5t7.5 19.5q0 12 -7.5 20.5t-19.5 8.5zM41 0h406v40h-362v660h-44v-700z" />
    <glyph glyph-name="ldot" unicode="&#x140;" horiz-adv-x="172" 
d="M146 389q-12 0 -20 -8.5t-8 -20.5q0 -11 8 -19.5t20 -8.5t19.5 8.5t7.5 19.5q0 12 -7.5 20.5t-19.5 8.5zM41 0h44v700h-44v-700z" />
    <glyph glyph-name="Lslash" unicode="&#x141;" horiz-adv-x="561" 
d="M34 320l325 131l-17 39l-324 -131zM134 0h406v40h-362v660h-44v-700z" />
    <glyph glyph-name="lslash" unicode="&#x142;" horiz-adv-x="370" 
d="M333 489l-315 -132l16 -38l316 131zM162 0h44v700h-44v-700z" />
    <glyph glyph-name="Nacute" unicode="&#x143;" horiz-adv-x="639" 
d="M384 835q5 8 6 15t-1.5 14t-10.5 11q-7 4 -14 3t-13 -6t-9 -13l-42 -110h30zM596 700h-44v-626l-467 626h-44v-700h44v626l467 -626h44v700z" />
    <glyph glyph-name="nacute" unicode="&#x144;" horiz-adv-x="490" 
d="M313 650q5 8 6 15t-1.5 14t-10.5 11q-7 4 -14 3t-13 -6t-9 -13l-42 -110h30zM410 343v-343h43v344q0 38 -10 66t-29 47.5t-44.5 31t-57 17t-65.5 4.5q-28 0 -57.5 -5.5t-57 -14.5t-50.5 -21v32h-44v-501h44v435q23 11 49 18.5t54.5 12.5t56.5 5q33 1 63.5 -5t54 -20.5
t37 -39.5t13.5 -63z" />
    <glyph glyph-name="Ncommaaccent" unicode="&#x145;" horiz-adv-x="577" 
d="M257 -187l14 -10q5 4 12.5 13t16 22t14 31t5.5 40q0 13 -8 20.5t-20 7.5t-19.5 -8t-7.5 -20q0 -10 6 -18t16 -10q-2 -14 -8 -32t-21 -36zM596 700h-44v-626l-467 626h-44v-700h44v626l467 -626h44v700z" />
    <glyph glyph-name="ncommaaccent" unicode="&#x146;" horiz-adv-x="443" 
d="M191 -182l14 -10q5 4 12.5 13t16 22t14 31t5.5 40q0 13 -8 20.5t-20 7.5t-19.5 -8t-7.5 -20q0 -10 6 -18t16 -10q-2 -14 -8 -32t-21 -36zM410 343v-343h43v344q0 38 -10 66t-29 47.5t-44.5 31t-57 17t-65.5 4.5q-28 0 -57.5 -5.5t-57 -14.5t-50.5 -21v32h-44v-501h44v435
q23 11 49 18.5t54.5 12.5t56.5 5q33 1 63.5 -5t54 -20.5t37 -39.5t13.5 -63z" />
    <glyph glyph-name="Ncaron" unicode="&#x147;" horiz-adv-x="639" 
d="M448 864l-30 30l-98 -94l-96 93l-31 -31l127 -123zM596 700h-44v-626l-467 626h-44v-700h44v626l467 -626h44v700z" />
    <glyph glyph-name="ncaron" unicode="&#x148;" horiz-adv-x="490" 
d="M376 679l-30 30l-98 -94l-96 93l-31 -31l127 -123zM410 343v-343h43v344q0 38 -10 66t-29 47.5t-44.5 31t-57 17t-65.5 4.5q-28 0 -57.5 -5.5t-57 -14.5t-50.5 -21v32h-44v-501h44v435q23 11 49 18.5t54.5 12.5t56.5 5q33 1 63.5 -5t54 -20.5t37 -39.5t13.5 -63z" />
    <glyph glyph-name="Eng" unicode="&#x14a;" horiz-adv-x="636" 
d="M593 -60v760h-43v-623l-465 623h-44v-700h44v625l465 -624v-61q0 -30 -10.5 -52.5t-30.5 -37.5t-49 -26l11 -34q43 12 70 30.5t39.5 47.5t12.5 72z" />
    <glyph glyph-name="eng" unicode="&#x14b;" horiz-adv-x="490" 
d="M453 -63v412q0 37 -10 64.5t-29 46.5t-44.5 30t-56.5 16t-66 4q-29 0 -59 -6t-57.5 -15t-48.5 -20v31h-44v-500h44v435q22 11 48 19t55 12.5t59 5.5q33 0 63 -5t53 -19t36 -38.5t13 -62.5v-410q0 -29 -9.5 -50.5t-29.5 -36.5t-51 -25l15 -35q43 13 69.5 31.5t38 46.5
t11.5 69z" />
    <glyph glyph-name="Omacron" unicode="&#x14c;" horiz-adv-x="543" 
d="M382 827h-221v-44h221v44zM34 504v-314q0 -67 31.5 -112t85.5 -67t121 -22q71 0 124 24t82 69t29 108v313q0 101 -61 157t-173 56q-113 0 -176 -54t-63 -158zM78 191v319q0 54 23.5 90t67 55t101.5 19q61 0 104 -18.5t66 -55t23 -89.5v-320q0 -55 -25 -91t-68.5 -53
t-99.5 -17q-53 0 -96.5 18t-69.5 53.5t-26 89.5z" />
    <glyph glyph-name="omacron" unicode="&#x14d;" horiz-adv-x="475" 
d="M348 642h-221v-44h221v44zM445 183v135q0 94 -53 144t-153 50q-66 0 -113.5 -21.5t-72.5 -64.5t-25 -108v-135q0 -55 23.5 -98.5t71 -69t118.5 -25.5q102 0 153 51.5t51 141.5zM401 319v-142q0 -46 -18 -79t-54 -51t-88 -18t-90 18.5t-58.5 51.5t-20.5 78v142q0 52 20 86
t57.5 51t91.5 17q51 0 86.5 -16.5t54.5 -50.5t19 -87z" />
    <glyph glyph-name="Obreve" unicode="&#x14e;" horiz-adv-x="543" 
d="M34 504v-314q0 -67 31.5 -112t85.5 -67t121 -22q71 0 124 24t82 69t29 108v313q0 101 -61 157t-173 56q-113 0 -176 -54t-63 -158zM78 191v319q0 54 23.5 90t67 55t101.5 19q61 0 104 -18.5t66 -55t23 -89.5v-320q0 -55 -25 -91t-68.5 -53t-99.5 -17q-53 0 -96.5 18
t-69.5 53.5t-26 89.5zM385 903h-37v-7q0 -31 -21.5 -53.5t-53.5 -22.5q-31 0 -54 22.5t-23 53.5v7h-37v-7q0 -31 15.5 -56.5t41.5 -41t57 -15.5t56.5 15.5t40.5 41t15 56.5v7z" />
    <glyph glyph-name="obreve" unicode="&#x14f;" horiz-adv-x="475" 
d="M445 183v135q0 94 -53 144t-153 50q-66 0 -113.5 -21.5t-72.5 -64.5t-25 -108v-135q0 -55 23.5 -98.5t71 -69t118.5 -25.5q102 0 153 51.5t51 141.5zM401 319v-142q0 -46 -18 -79t-54 -51t-88 -18t-90 18.5t-58.5 51.5t-20.5 78v142q0 52 20 86t57.5 51t91.5 17
q51 0 86.5 -16.5t54.5 -50.5t19 -87zM351 704h-37v-7q0 -31 -21.5 -53.5t-53.5 -22.5q-31 0 -54 22.5t-23 53.5v7h-37v-7q0 -31 15.5 -56.5t41.5 -41t57 -15.5t56.5 15.5t40.5 41t15 56.5v7z" />
    <glyph glyph-name="Ohungarumlaut" unicode="&#x150;" horiz-adv-x="543" 
d="M282 838q5 7 6 14.5t-2 14.5t-10 11t-14.5 3t-13 -6t-9.5 -14l-43 -108h31zM393 838q5 7 6 14.5t-1.5 14.5t-10.5 11q-7 4 -14.5 3t-13.5 -6t-8 -14l-42 -108h30zM34 504v-314q0 -67 31.5 -112t85.5 -67t121 -22q71 0 124 24t82 69t29 108v313q0 101 -61 157t-173 56
q-113 0 -176 -54t-63 -158zM78 191v319q0 54 23.5 90t67 55t101.5 19q61 0 104 -18.5t66 -55t23 -89.5v-320q0 -55 -25 -91t-68.5 -53t-99.5 -17q-53 0 -96.5 18t-69.5 53.5t-26 89.5z" />
    <glyph glyph-name="ohungarumlaut" unicode="&#x151;" horiz-adv-x="475" 
d="M248 653q5 7 6 14.5t-2 14.5t-10 11t-14.5 3t-13 -6t-9.5 -14l-43 -108h31zM359 653q5 7 6 14.5t-1.5 14.5t-10.5 11q-7 4 -14.5 3t-13.5 -6t-8 -14l-42 -108h30zM445 183v135q0 94 -53 144t-153 50q-66 0 -113.5 -21.5t-72.5 -64.5t-25 -108v-135q0 -55 23.5 -98.5
t71 -69t118.5 -25.5q102 0 153 51.5t51 141.5zM401 319v-142q0 -46 -18 -79t-54 -51t-88 -18t-90 18.5t-58.5 51.5t-20.5 78v142q0 52 20 86t57.5 51t91.5 17q51 0 86.5 -16.5t54.5 -50.5t19 -87z" />
    <glyph glyph-name="OE" unicode="&#x152;" horiz-adv-x="870" 
d="M463 0h374v40h-329v329h230l14 43h-244v247h331v41h-376v-700zM34 504v-314q0 -67 31.5 -112t85.5 -67t121 -22q71 0 124 24t82 69t29 108v313q0 101 -61 157t-173 56q-113 0 -176 -54t-63 -158zM78 191v319q0 54 23.5 90t67 55t101.5 19q61 0 104 -18.5t66 -55t23 -89.5
v-320q0 -55 -25 -91t-68.5 -53t-99.5 -17q-53 0 -96.5 18t-69.5 53.5t-26 89.5z" />
    <glyph glyph-name="oe" unicode="&#x153;" horiz-adv-x="843" 
d="M445 183v135q0 94 -53 144t-153 50q-66 0 -113.5 -21.5t-72.5 -64.5t-25 -108v-135q0 -55 23.5 -98.5t71 -69t118.5 -25.5q102 0 153 51.5t51 141.5zM401 319v-142q0 -46 -18 -79t-54 -51t-88 -18t-90 18.5t-58.5 51.5t-20.5 78v142q0 52 20 86t57.5 51t91.5 17
q51 0 86.5 -16.5t54.5 -50.5t19 -87zM446 132v75l362 17v119q0 58 -24.5 94.5t-69 54.5t-104.5 18t-107 -18t-74 -55.5t-27 -96.5v-207q0 -43 14.5 -70.5t40.5 -44t62 -23.5t78 -7q44 0 92.5 12.5t89.5 34.5l-17 34q-43 -20 -84.5 -31.5t-84.5 -11.5q-31 0 -57.5 5.5
t-46.5 17.5t-31.5 32.5t-11.5 50.5zM763 348v-85l-317 -13v88q0 45 20.5 75t57 45t85.5 15q44 0 78.5 -14t55 -41.5t20.5 -69.5z" />
    <glyph glyph-name="Racute" unicode="&#x154;" horiz-adv-x="565" 
d="M346 835q5 8 6 15t-1.5 14t-10.5 11q-7 4 -14 3t-13 -6t-9 -13l-42 -110h30zM315 700h-274v-700h45v257h226q10 0 19.5 0.5t18.5 1.5t17 2l120 -261h46l-123 272q42 13 68.5 40t39 68.5t12.5 100.5q0 58 -13.5 100t-40.5 68t-67.5 38.5t-93.5 12.5zM317 300h-231v358h233
q38 0 68.5 -9t52.5 -29.5t34 -54.5t12 -84q0 -54 -12 -89.5t-34 -55.5t-53 -28t-70 -8z" />
    <glyph glyph-name="racute" unicode="&#x155;" horiz-adv-x="366" 
d="M132 650q5 8 6 15t-1.5 14t-10.5 11q-7 4 -14 3t-13 -6t-9 -13l-42 -110h30zM341 471l3 38q-4 1 -18 3t-32 1q-57 -2 -109 -15.5t-103 -33.5v37h-44v-501h44v418q25 11 52 21t54.5 17.5t54 12t49.5 4.5q17 1 31 0t18 -2z" />
    <glyph glyph-name="Rcommaaccent" unicode="&#x156;" horiz-adv-x="510" 
d="M224 -187l14 -10q5 4 12.5 13t16 22t14 31t5.5 40q0 13 -8 20.5t-20 7.5t-19.5 -8t-7.5 -20q0 -10 6 -18t16 -10q-2 -14 -8 -32t-21 -36zM315 700h-274v-700h45v257h226q10 0 19.5 0.5t18.5 1.5t17 2l120 -261h46l-123 272q42 13 68.5 40t39 68.5t12.5 100.5
q0 58 -13.5 100t-40.5 68t-67.5 38.5t-93.5 12.5zM317 300h-231v358h233q38 0 68.5 -9t52.5 -29.5t34 -54.5t12 -84q0 -54 -12 -89.5t-34 -55.5t-53 -28t-70 -8z" />
    <glyph glyph-name="rcommaaccent" unicode="&#x157;" horiz-adv-x="333" 
d="M36 -182l14 -10q5 4 12.5 13t16 22t14 31t5.5 40q0 13 -8 20.5t-20 7.5t-19.5 -8t-7.5 -20q0 -10 6 -18t16 -10q-2 -14 -8 -32t-21 -36zM341 471l3 38q-4 1 -18 3t-32 1q-57 -2 -109 -15.5t-103 -33.5v37h-44v-501h44v418q25 11 52 21t54.5 17.5t54 12t49.5 4.5
q17 1 31 0t18 -2z" />
    <glyph glyph-name="Rcaron" unicode="&#x158;" horiz-adv-x="565" 
d="M409 864l-30 30l-98 -94l-96 93l-31 -31l127 -123zM315 700h-274v-700h45v257h226q10 0 19.5 0.5t18.5 1.5t17 2l120 -261h46l-123 272q42 13 68.5 40t39 68.5t12.5 100.5q0 58 -13.5 100t-40.5 68t-67.5 38.5t-93.5 12.5zM317 300h-231v358h233q38 0 68.5 -9t52.5 -29.5
t34 -54.5t12 -84q0 -54 -12 -89.5t-34 -55.5t-53 -28t-70 -8z" />
    <glyph glyph-name="rcaron" unicode="&#x159;" horiz-adv-x="366" 
d="M314 679l-30 30l-98 -94l-96 93l-31 -31l127 -123zM341 471l3 38q-4 1 -18 3t-32 1q-57 -2 -109 -15.5t-103 -33.5v37h-44v-501h44v418q25 11 52 21t54.5 17.5t54 12t49.5 4.5q17 1 31 0t18 -2z" />
    <glyph glyph-name="Sacute" unicode="&#x15a;" horiz-adv-x="587" 
d="M359 838q5 8 6 15t-1.5 14t-10.5 11q-7 4 -14 3t-13 -6t-9 -13l-42 -110h30zM475 633l12 39q-26 13 -55 21t-58.5 12t-60.5 4q-44 0 -88.5 -9t-81 -28.5t-58.5 -51.5t-22 -78q0 -40 19 -69t51 -50t71.5 -37.5t81.5 -31t82 -30t72 -35t50.5 -46t18.5 -62.5
q0 -42 -18.5 -71t-50.5 -46.5t-71.5 -25.5t-80.5 -8q-43 0 -87.5 10.5t-83.5 30.5t-66 50l-28 -27q34 -37 76 -60.5t91 -34.5t102 -11q49 0 96 10.5t85 33.5t61 59t23 85q0 46 -19 79.5t-51 57t-71.5 41t-82.5 32t-82.5 28.5t-71.5 32t-51 42t-19 57q0 35 19 58.5t50 37.5
t66.5 20.5t68.5 6.5q28 0 56 -4t55.5 -11.5t50.5 -19.5z" />
    <glyph glyph-name="sacute" unicode="&#x15b;" horiz-adv-x="459" 
d="M295 650q5 8 6 15t-1.5 14t-10.5 11q-7 4 -14 3t-13 -6t-9 -13l-42 -110h30zM365 446l17 31q-18 10 -41.5 18t-49.5 12.5t-55 4.5q-33 0 -65.5 -7t-58.5 -22.5t-42 -39t-16 -56.5q0 -34 18 -57.5t47.5 -40t65.5 -29.5t71.5 -25t65 -27t47.5 -36t18 -50q0 -26 -14 -44.5
t-37 -30.5t-50 -18t-53 -6q-36 0 -68.5 8t-60.5 24t-53 40l-25 -27q39 -41 93 -63t115 -22q36 0 70.5 8.5t62.5 25.5t45 44t17 63q0 37 -18 62.5t-47.5 43.5t-65.5 31t-71.5 25t-64.5 26t-47.5 32.5t-18.5 45.5q0 23 13.5 39.5t36 26.5t48.5 14.5t50 4.5q21 0 43 -4t42 -10
t36 -15z" />
    <glyph glyph-name="Scircumflex" unicode="&#x15c;" horiz-adv-x="587" 
d="M421 772l-126 124l-129 -125l30 -30l99 94l94 -93zM475 633l12 39q-26 13 -55 21t-58.5 12t-60.5 4q-44 0 -88.5 -9t-81 -28.5t-58.5 -51.5t-22 -78q0 -40 19 -69t51 -50t71.5 -37.5t81.5 -31t82 -30t72 -35t50.5 -46t18.5 -62.5q0 -42 -18.5 -71t-50.5 -46.5
t-71.5 -25.5t-80.5 -8q-43 0 -87.5 10.5t-83.5 30.5t-66 50l-28 -27q34 -37 76 -60.5t91 -34.5t102 -11q49 0 96 10.5t85 33.5t61 59t23 85q0 46 -19 79.5t-51 57t-71.5 41t-82.5 32t-82.5 28.5t-71.5 32t-51 42t-19 57q0 35 19 58.5t50 37.5t66.5 20.5t68.5 6.5q28 0 56 -4
t55.5 -11.5t50.5 -19.5z" />
    <glyph glyph-name="scircumflex" unicode="&#x15d;" horiz-adv-x="459" 
d="M357 587l-126 124l-129 -125l30 -30l99 94l94 -93zM365 446l17 31q-18 10 -41.5 18t-49.5 12.5t-55 4.5q-33 0 -65.5 -7t-58.5 -22.5t-42 -39t-16 -56.5q0 -34 18 -57.5t47.5 -40t65.5 -29.5t71.5 -25t65 -27t47.5 -36t18 -50q0 -26 -14 -44.5t-37 -30.5t-50 -18t-53 -6
q-36 0 -68.5 8t-60.5 24t-53 40l-25 -27q39 -41 93 -63t115 -22q36 0 70.5 8.5t62.5 25.5t45 44t17 63q0 37 -18 62.5t-47.5 43.5t-65.5 31t-71.5 25t-64.5 26t-47.5 32.5t-18.5 45.5q0 23 13.5 39.5t36 26.5t48.5 14.5t50 4.5q21 0 43 -4t42 -10t36 -15z" />
    <glyph glyph-name="Scedilla" unicode="&#x15e;" horiz-adv-x="587" 
d="M318 7h-40l-37 -62l8 -27q13 2 25 3t23 1.5t21 0.5q28 0 45.5 -12t17.5 -39q0 -24 -11 -36.5t-27.5 -17t-32.5 -4.5q-17 -1 -34 1t-30.5 5t-23.5 5l-10 -38q7 -1 22.5 -4t36 -5.5t43.5 -2.5q42 1 74.5 25t32.5 70q0 41 -26.5 68t-75.5 25h-12t-15 -1zM475 633l12 39
q-26 13 -55 21t-58.5 12t-60.5 4q-44 0 -88.5 -9t-81 -28.5t-58.5 -51.5t-22 -78q0 -40 19 -69t51 -50t71.5 -37.5t81.5 -31t82 -30t72 -35t50.5 -46t18.5 -62.5q0 -42 -18.5 -71t-50.5 -46.5t-71.5 -25.5t-80.5 -8q-43 0 -87.5 10.5t-83.5 30.5t-66 50l-28 -27
q34 -37 76 -60.5t91 -34.5t102 -11q49 0 96 10.5t85 33.5t61 59t23 85q0 46 -19 79.5t-51 57t-71.5 41t-82.5 32t-82.5 28.5t-71.5 32t-51 42t-19 57q0 35 19 58.5t50 37.5t66.5 20.5t68.5 6.5q28 0 56 -4t55.5 -11.5t50.5 -19.5z" />
    <glyph glyph-name="scedilla" unicode="&#x15f;" horiz-adv-x="459" 
d="M253 7h-40l-37 -62l8 -27q13 2 25 3t23 1.5t21 0.5q28 0 45.5 -12t17.5 -39q0 -24 -11 -36.5t-27.5 -17t-32.5 -4.5q-17 -1 -34 1t-30.5 5t-23.5 5l-10 -38q7 -1 22.5 -4t36 -5.5t43.5 -2.5q42 1 74.5 25t32.5 70q0 41 -26.5 68t-75.5 25h-12t-15 -1zM365 446l17 31
q-18 10 -41.5 18t-49.5 12.5t-55 4.5q-33 0 -65.5 -7t-58.5 -22.5t-42 -39t-16 -56.5q0 -34 18 -57.5t47.5 -40t65.5 -29.5t71.5 -25t65 -27t47.5 -36t18 -50q0 -26 -14 -44.5t-37 -30.5t-50 -18t-53 -6q-36 0 -68.5 8t-60.5 24t-53 40l-25 -27q39 -41 93 -63t115 -22
q36 0 70.5 8.5t62.5 25.5t45 44t17 63q0 37 -18 62.5t-47.5 43.5t-65.5 31t-71.5 25t-64.5 26t-47.5 32.5t-18.5 45.5q0 23 13.5 39.5t36 26.5t48.5 14.5t50 4.5q21 0 43 -4t42 -10t36 -15z" />
    <glyph glyph-name="Scaron" unicode="&#x160;" horiz-adv-x="587" 
d="M421 864l-30 30l-98 -94l-96 93l-31 -31l127 -123zM475 633l12 39q-26 13 -55 21t-58.5 12t-60.5 4q-44 0 -88.5 -9t-81 -28.5t-58.5 -51.5t-22 -78q0 -40 19 -69t51 -50t71.5 -37.5t81.5 -31t82 -30t72 -35t50.5 -46t18.5 -62.5q0 -42 -18.5 -71t-50.5 -46.5
t-71.5 -25.5t-80.5 -8q-43 0 -87.5 10.5t-83.5 30.5t-66 50l-28 -27q34 -37 76 -60.5t91 -34.5t102 -11q49 0 96 10.5t85 33.5t61 59t23 85q0 46 -19 79.5t-51 57t-71.5 41t-82.5 32t-82.5 28.5t-71.5 32t-51 42t-19 57q0 35 19 58.5t50 37.5t66.5 20.5t68.5 6.5q28 0 56 -4
t55.5 -11.5t50.5 -19.5z" />
    <glyph glyph-name="scaron" unicode="&#x161;" horiz-adv-x="459" 
d="M359 679l-30 30l-98 -94l-96 93l-31 -31l127 -123zM365 446l17 31q-18 10 -41.5 18t-49.5 12.5t-55 4.5q-33 0 -65.5 -7t-58.5 -22.5t-42 -39t-16 -56.5q0 -34 18 -57.5t47.5 -40t65.5 -29.5t71.5 -25t65 -27t47.5 -36t18 -50q0 -26 -14 -44.5t-37 -30.5t-50 -18t-53 -6
q-36 0 -68.5 8t-60.5 24t-53 40l-25 -27q39 -41 93 -63t115 -22q36 0 70.5 8.5t62.5 25.5t45 44t17 63q0 37 -18 62.5t-47.5 43.5t-65.5 31t-71.5 25t-64.5 26t-47.5 32.5t-18.5 45.5q0 23 13.5 39.5t36 26.5t48.5 14.5t50 4.5q21 0 43 -4t42 -10t36 -15z" />
    <glyph glyph-name="Tcedilla" unicode="&#x162;" horiz-adv-x="417" 
d="M226 8h-40l-37 -62l8 -27q13 2 25 3t23 1.5t21 0.5q28 0 45.5 -12t17.5 -39q0 -24 -11 -36.5t-27.5 -17t-32.5 -4.5q-17 -1 -34 1t-30.5 5t-23.5 5l-10 -38q7 -1 22.5 -4t36 -5.5t43.5 -2.5q42 1 74.5 25t32.5 70q0 41 -26.5 68t-75.5 25h-12t-15 -1zM251 660h207v40
h-452v-40h202v-660h43v660z" />
    <glyph glyph-name="tcedilla" unicode="&#x163;" horiz-adv-x="241" 
d="M145 17h-40l-37 -62l8 -27q13 2 25 3t23 1.5t21 0.5q28 0 45.5 -12t17.5 -39q0 -24 -11 -36.5t-27.5 -17t-32.5 -4.5q-17 -1 -34 1t-30.5 5t-23.5 5l-10 -38q7 -1 22.5 -4t36 -5.5t43.5 -2.5q42 1 74.5 25t32.5 70q0 41 -26.5 68t-75.5 25h-12t-15 -1zM83 130v329h135
l20 41h-155v200h-44v-569q0 -61 29.5 -95.5t90.5 -48.5l14 34q-29 8 -49 21t-30.5 34.5t-10.5 53.5z" />
    <glyph glyph-name="Tcaron" unicode="&#x164;" horiz-adv-x="465" 
d="M361 864l-30 30l-98 -94l-96 93l-31 -31l127 -123zM251 660h207v40h-452v-40h202v-660h43v660z" />
    <glyph glyph-name="tcaron" unicode="&#x165;" horiz-adv-x="262" 
d="M192 859l-30 30l-98 -94l-96 93l-31 -31l127 -123zM83 130v329h135l20 41h-155v200h-44v-569q0 -61 29.5 -95.5t90.5 -48.5l14 34q-29 8 -49 21t-30.5 34.5t-10.5 53.5z" />
    <glyph glyph-name="Tbar" unicode="&#x166;" horiz-adv-x="465" 
d="M8 379v-42h450v42h-450zM251 660h207v40h-452v-40h202v-660h43v660z" />
    <glyph glyph-name="tbar" unicode="&#x167;" horiz-adv-x="294" 
d="M252 315v41h-251v-41h251zM114 130v329h136l19 41h-155v200h-44v-569q0 -61 29.5 -95.5t91.5 -48.5l13 34q-29 8 -49 21t-30.5 34.5t-10.5 53.5z" />
    <glyph glyph-name="Utilde" unicode="&#x168;" horiz-adv-x="550" 
d="M353 865v-15q0 -13 -4 -25t-18 -11q-10 0 -20.5 7t-14.5 9q-10 8 -20 14.5t-21 11.5q-16 9 -36 10t-36 -10q-10 -7 -15.5 -18t-7.5 -23t-2 -23v-15h40v15q0 7 1.5 17t6.5 15q9 5 18.5 2.5t17.5 -7.5q9 -5 18.5 -12.5t20.5 -13.5q12 -7 24.5 -13t27.5 -6q32 0 46 24t14 52
v15h-40zM511 186v514h-45v-514q0 -51 -24.5 -86t-68 -52t-98.5 -17t-98.5 17.5t-69 52t-25.5 85.5v514h-44v-514q0 -65 30 -109t84 -66t124 -22q69 0 122 22.5t83 66.5t30 108z" />
    <glyph glyph-name="utilde" unicode="&#x169;" horiz-adv-x="491" 
d="M322 670v-15q0 -13 -4 -25t-18 -11q-10 0 -20.5 7t-14.5 9q-10 8 -20 14.5t-21 11.5q-16 9 -36 10t-36 -10q-10 -7 -15.5 -18t-7.5 -23t-2 -23v-15h40v15q0 7 1.5 17t6.5 15q9 5 18.5 2.5t17.5 -7.5q9 -5 18.5 -12.5t20.5 -13.5q12 -7 24.5 -13t27.5 -6q32 0 46 24t14 52
v15h-40zM407 68v-68h45v501h-45v-329q0 -28 -12 -53t-35 -44t-53.5 -30.5t-66.5 -12.5q-48 -1 -84.5 11.5t-56.5 42.5t-20 81v334h-44v-343q0 -39 10 -67.5t29 -48t45 -31t56 -16.5t64 -5q32 1 64 9.5t59.5 25.5t44.5 43z" />
    <glyph glyph-name="Umacron" unicode="&#x16a;" horiz-adv-x="550" 
d="M386 827h-221v-44h221v44zM511 186v514h-45v-514q0 -51 -24.5 -86t-68 -52t-98.5 -17t-98.5 17.5t-69 52t-25.5 85.5v514h-44v-514q0 -65 30 -109t84 -66t124 -22q69 0 122 22.5t83 66.5t30 108z" />
    <glyph glyph-name="umacron" unicode="&#x16b;" horiz-adv-x="491" 
d="M355 642h-221v-44h221v44zM407 68v-68h45v501h-45v-329q0 -28 -12 -53t-35 -44t-53.5 -30.5t-66.5 -12.5q-48 -1 -84.5 11.5t-56.5 42.5t-20 81v334h-44v-343q0 -39 10 -67.5t29 -48t45 -31t56 -16.5t64 -5q32 1 64 9.5t59.5 25.5t44.5 43z" />
    <glyph glyph-name="Ubreve" unicode="&#x16c;" horiz-adv-x="550" 
d="M365 854h-37v-7q0 -31 -21.5 -53.5t-53.5 -22.5q-31 0 -54 22.5t-23 53.5v7h-37v-7q0 -31 15.5 -56.5t41.5 -41t57 -15.5t56.5 15.5t40.5 41t15 56.5v7zM511 186v514h-45v-514q0 -51 -24.5 -86t-68 -52t-98.5 -17t-98.5 17.5t-69 52t-25.5 85.5v514h-44v-514
q0 -65 30 -109t84 -66t124 -22q69 0 122 22.5t83 66.5t30 108z" />
    <glyph glyph-name="ubreve" unicode="&#x16d;" horiz-adv-x="491" 
d="M337 669h-37v-7q0 -31 -21.5 -53.5t-53.5 -22.5q-31 0 -54 22.5t-23 53.5v7h-37v-7q0 -31 15.5 -56.5t41.5 -41t57 -15.5t56.5 15.5t40.5 41t15 56.5v7zM407 68v-68h45v501h-45v-329q0 -28 -12 -53t-35 -44t-53.5 -30.5t-66.5 -12.5q-48 -1 -84.5 11.5t-56.5 42.5t-20 81
v334h-44v-343q0 -39 10 -67.5t29 -48t45 -31t56 -16.5t64 -5q32 1 64 9.5t59.5 25.5t44.5 43z" />
    <glyph glyph-name="Uring" unicode="&#x16e;" horiz-adv-x="550" 
d="M275 927q-31 0 -57.5 -15t-42 -40.5t-15.5 -57.5t15.5 -58t42 -41t57.5 -15t56.5 15t41 41t15.5 58t-15.5 57.5t-41 40.5t-56.5 15zM275 891q32 0 55 -23q22 -22 22 -54q0 -16 -6 -30.5t-16 -25.5q-12 -10 -25.5 -16t-29.5 -6t-30 6t-25 16q-11 11 -17.5 25.5t-6.5 30.5
t6 30t16 25q12 11 26.5 16.5t30.5 5.5zM511 186v514h-45v-514q0 -51 -24.5 -86t-68 -52t-98.5 -17t-98.5 17.5t-69 52t-25.5 85.5v514h-44v-514q0 -65 30 -109t84 -66t124 -22q69 0 122 22.5t83 66.5t30 108z" />
    <glyph glyph-name="uring" unicode="&#x16f;" horiz-adv-x="491" 
d="M245 750q-31 0 -57.5 -15t-42 -40.5t-15.5 -57.5t15.5 -58t42 -41t57.5 -15t56.5 15t41 41t15.5 58t-15.5 57.5t-41 40.5t-56.5 15zM245 714q32 0 55 -23q22 -22 22 -54q0 -16 -6 -30.5t-16 -25.5q-12 -10 -25.5 -16t-29.5 -6t-30 6t-25 16q-11 11 -17.5 25.5t-6.5 30.5
t6 30t16 25q12 11 26.5 16.5t30.5 5.5zM407 68v-68h45v501h-45v-329q0 -28 -12 -53t-35 -44t-53.5 -30.5t-66.5 -12.5q-48 -1 -84.5 11.5t-56.5 42.5t-20 81v334h-44v-343q0 -39 10 -67.5t29 -48t45 -31t56 -16.5t64 -5q32 1 64 9.5t59.5 25.5t44.5 43z" />
    <glyph glyph-name="Uhungarumlaut" unicode="&#x170;" horiz-adv-x="550" 
d="M286 838q5 7 6 14.5t-2 14.5t-10 11t-14.5 3t-13 -6t-9.5 -14l-43 -108h31zM397 838q5 7 6 14.5t-1.5 14.5t-10.5 11q-7 4 -14.5 3t-13.5 -6t-8 -14l-42 -108h30zM511 186v514h-45v-514q0 -51 -24.5 -86t-68 -52t-98.5 -17t-98.5 17.5t-69 52t-25.5 85.5v514h-44v-514
q0 -65 30 -109t84 -66t124 -22q69 0 122 22.5t83 66.5t30 108z" />
    <glyph glyph-name="uhungarumlaut" unicode="&#x171;" horiz-adv-x="491" 
d="M256 653q5 7 6 14.5t-2 14.5t-10 11t-14.5 3t-13 -6t-9.5 -14l-43 -108h31zM367 653q5 7 6 14.5t-1.5 14.5t-10.5 11q-7 4 -14.5 3t-13.5 -6t-8 -14l-42 -108h30zM407 68v-68h45v501h-45v-329q0 -28 -12 -53t-35 -44t-53.5 -30.5t-66.5 -12.5q-48 -1 -84.5 11.5
t-56.5 42.5t-20 81v334h-44v-343q0 -39 10 -67.5t29 -48t45 -31t56 -16.5t64 -5q32 1 64 9.5t59.5 25.5t44.5 43z" />
    <glyph glyph-name="Uogonek" unicode="&#x172;" horiz-adv-x="550" 
d="M315 6h-35v-8l-67 -103q-16 -25 -15.5 -49t14.5 -42t38 -26t56 0q5 1 21.5 6.5t34.5 12t30.5 11l12.5 4.5l-14 33l-7 -2.5t-19 -7t-28 -10t-34 -12.5q-27 -9 -46 -1t-23.5 27.5t9.5 42.5l72 115v9zM511 186v514h-45v-514q0 -51 -24.5 -86t-68 -52t-98.5 -17t-98.5 17.5
t-69 52t-25.5 85.5v514h-44v-514q0 -65 30 -109t84 -66t124 -22q69 0 122 22.5t83 66.5t30 108z" />
    <glyph glyph-name="uogonek" unicode="&#x173;" horiz-adv-x="491" 
d="M446 11h-35v-8l-67 -103q-16 -25 -15.5 -49t14.5 -42t38 -26t56 0q5 1 21.5 6.5t34.5 12t30.5 11l12.5 4.5l-14 33l-7 -2.5t-19 -7t-28 -10t-34 -12.5q-27 -9 -46 -1t-23.5 27.5t9.5 42.5l72 115v9zM407 68v-68h45v501h-45v-329q0 -28 -12 -53t-35 -44t-53.5 -30.5
t-66.5 -12.5q-48 -1 -84.5 11.5t-56.5 42.5t-20 81v334h-44v-343q0 -39 10 -67.5t29 -48t45 -31t56 -16.5t64 -5q32 1 64 9.5t59.5 25.5t44.5 43z" />
    <glyph glyph-name="Wcircumflex" unicode="&#x174;" horiz-adv-x="818" 
d="M536 773l-126 124l-129 -125l30 -30l99 94l94 -93zM438 700h-59l-142 -644l-173 644h-48l192 -700h63l138 622l139 -622h62l189 700h-47l-170 -644z" />
    <glyph glyph-name="wcircumflex" unicode="&#x175;" horiz-adv-x="778" 
d="M516 587l-126 124l-129 -125l30 -30l99 94l94 -93zM408 499h-42l-142 -450l-159 450h-46l178 -499h53l136 428l136 -428h53l180 499h-47l-159 -450z" />
    <glyph glyph-name="Ycircumflex" unicode="&#x176;" horiz-adv-x="570" 
d="M411 772l-126 124l-129 -125l30 -30l99 94l94 -93zM530 153v547h-45v-274q0 -36 -18 -62.5t-47.5 -43t-66 -24.5t-72.5 -8q-64 0 -110.5 18.5t-71.5 55.5t-25 94v244h-44v-245q0 -65 28 -112t82 -72.5t130 -25.5q48 0 90 10.5t75 28.5t50 40v-171q0 -31 -6.5 -53t-18 -37
t-27 -24.5t-32.5 -14.5l11 -31q56 9 87 49.5t31 110.5z" />
    <glyph glyph-name="ycircumflex" unicode="&#x177;" horiz-adv-x="513" 
d="M380 587l-126 124l-129 -125l30 -30l99 94l94 -93zM484 480l-18 32q-22 -9 -35 -23.5t-18.5 -33.5t-5.5 -43v-239q0 -28 -12.5 -53t-34 -44t-51 -30.5t-62.5 -12.5t-63 4t-54 18.5t-37.5 39t-13.5 64.5v342h-44v-345q0 -49 15.5 -81.5t43.5 -50.5t65 -25.5t80 -7.5
q32 1 64 10t59.5 26t44.5 43v-133q0 -22 -5 -40t-16 -31.5t-27.5 -23.5t-39.5 -18l14 -34q42 12 68 30t38 46.5t12 69.5v475q0 33 9 47t24 22z" />
    <glyph glyph-name="Ydieresis" unicode="&#x178;" horiz-adv-x="570" 
d="M203 846q-11 0 -19 -8t-8 -20q0 -11 8 -19t19 -8q12 0 20 8t8 19q0 12 -8 20t-20 8zM362 846q-12 0 -19.5 -8t-7.5 -20q0 -11 7.5 -19t19.5 -8t20 8t8 19q0 12 -8 20t-20 8zM530 153v547h-45v-274q0 -36 -18 -62.5t-47.5 -43t-66 -24.5t-72.5 -8q-64 0 -110.5 18.5
t-71.5 55.5t-25 94v244h-44v-245q0 -65 28 -112t82 -72.5t130 -25.5q48 0 90 10.5t75 28.5t50 40v-171q0 -31 -6.5 -53t-18 -37t-27 -24.5t-32.5 -14.5l11 -31q56 9 87 49.5t31 110.5z" />
    <glyph glyph-name="Zacute" unicode="&#x179;" horiz-adv-x="604" 
d="M367 838q5 8 6 15t-1.5 14t-10.5 11q-7 4 -14 3t-13 -6t-9 -13l-42 -110h30zM40 700v-39l470 -1l-20 -24l-463 -597v-39h547v39l-491 1l20 23l464 598v39h-527z" />
    <glyph glyph-name="zacute" unicode="&#x17a;" horiz-adv-x="468" 
d="M299 650q5 8 6 15t-1.5 14t-10.5 11q-7 4 -14 3t-13 -6t-9 -13l-42 -110h30zM420 501h-381v-38l322 -1l-331 -422v-40h410v39l-353 1l333 422v39z" />
    <glyph glyph-name="Zdotaccent" unicode="&#x17b;" horiz-adv-x="604" 
d="M302 855q-12 0 -20 -8.5t-8 -20.5q0 -11 8 -19.5t20 -8.5t19.5 8.5t7.5 19.5q0 12 -7.5 20.5t-19.5 8.5zM40 700v-39l470 -1l-20 -24l-463 -597v-39h547v39l-491 1l20 23l464 598v39h-527z" />
    <glyph glyph-name="zdotaccent" unicode="&#x17c;" horiz-adv-x="468" 
d="M234 680q-12 0 -20 -8.5t-8 -20.5q0 -11 8 -19.5t20 -8.5t19.5 8.5t7.5 19.5q0 12 -7.5 20.5t-19.5 8.5zM420 501h-381v-38l322 -1l-331 -422v-40h410v39l-353 1l333 422v39z" />
    <glyph glyph-name="Zcaron" unicode="&#x17d;" horiz-adv-x="604" 
d="M431 864l-30 30l-98 -94l-96 93l-31 -31l127 -123zM40 700v-39l470 -1l-20 -24l-463 -597v-39h547v39l-491 1l20 23l464 598v39h-527z" />
    <glyph glyph-name="zcaron" unicode="&#x17e;" horiz-adv-x="468" 
d="M363 679l-30 30l-98 -94l-96 93l-31 -31l127 -123zM420 501h-381v-38l322 -1l-331 -422v-40h410v39l-353 1l333 422v39z" />
    <glyph glyph-name="Scommaaccent" unicode="&#x218;" horiz-adv-x="530" 
d="M234 -187l14 -10q5 4 12.5 13t16 22t14 31t5.5 40q0 13 -8 20.5t-20 7.5t-19.5 -8t-7.5 -20q0 -10 6 -18t16 -10q-2 -14 -8 -32t-21 -36zM475 633l12 39q-26 13 -55 21t-58.5 12t-60.5 4q-44 0 -88.5 -9t-81 -28.5t-58.5 -51.5t-22 -78q0 -40 19 -69t51 -50t71.5 -37.5
t81.5 -31t82 -30t72 -35t50.5 -46t18.5 -62.5q0 -42 -18.5 -71t-50.5 -46.5t-71.5 -25.5t-80.5 -8q-43 0 -87.5 10.5t-83.5 30.5t-66 50l-28 -27q34 -37 76 -60.5t91 -34.5t102 -11q49 0 96 10.5t85 33.5t61 59t23 85q0 46 -19 79.5t-51 57t-71.5 41t-82.5 32t-82.5 28.5
t-71.5 32t-51 42t-19 57q0 35 19 58.5t50 37.5t66.5 20.5t68.5 6.5q28 0 56 -4t55.5 -11.5t50.5 -19.5z" />
    <glyph glyph-name="scommaaccent" unicode="&#x219;" horiz-adv-x="417" 
d="M178 -182l14 -10q5 4 12.5 13t16 22t14 31t5.5 40q0 13 -8 20.5t-20 7.5t-19.5 -8t-7.5 -20q0 -10 6 -18t16 -10q-2 -14 -8 -32t-21 -36zM365 446l17 31q-18 10 -41.5 18t-49.5 12.5t-55 4.5q-33 0 -65.5 -7t-58.5 -22.5t-42 -39t-16 -56.5q0 -34 18 -57.5t47.5 -40
t65.5 -29.5t71.5 -25t65 -27t47.5 -36t18 -50q0 -26 -14 -44.5t-37 -30.5t-50 -18t-53 -6q-36 0 -68.5 8t-60.5 24t-53 40l-25 -27q39 -41 93 -63t115 -22q36 0 70.5 8.5t62.5 25.5t45 44t17 63q0 37 -18 62.5t-47.5 43.5t-65.5 31t-71.5 25t-64.5 26t-47.5 32.5t-18.5 45.5
q0 23 13.5 39.5t36 26.5t48.5 14.5t50 4.5q21 0 43 -4t42 -10t36 -15z" />
    <glyph glyph-name="uni021A" unicode="&#x21a;" horiz-adv-x="465" 
d="M195 -187l14 -10q5 4 12.5 13t16 22t14 31t5.5 40q0 13 -8 20.5t-20 7.5t-19.5 -8t-7.5 -20q0 -10 6 -18t16 -10q-2 -14 -8 -32t-21 -36zM251 660h207v40h-452v-40h202v-660h43v660z" />
    <glyph glyph-name="uni021B" unicode="&#x21b;" horiz-adv-x="262" 
d="M105 -182l14 -10q5 4 12.5 13t16 22t14 31t5.5 40q0 13 -8 20.5t-20 7.5t-19.5 -8t-7.5 -20q0 -10 6 -18t16 -10q-2 -14 -8 -32t-21 -36zM83 130v329h135l20 41h-155v200h-44v-569q0 -61 29.5 -95.5t90.5 -48.5l14 34q-29 8 -49 21t-30.5 34.5t-10.5 53.5z" />
    <glyph glyph-name="dotlessj" unicode="&#x237;" horiz-adv-x="195" 
d="M156 -63v564h-128v-41h84v-524q0 -29 -10 -50.5t-29.5 -37t-49.5 -25.5l14 -34q44 12 70 31t37.5 47.5t11.5 69.5z" />
    <glyph glyph-name="circumflex" unicode="&#x2c6;" 
d="M261 622l-126 124l-129 -125l30 -30l99 94l94 -93z" />
    <glyph glyph-name="caron" unicode="&#x2c7;" 
d="M261 714l-31 30l-98 -94l-95 93l-31 -31l126 -123z" />
    <glyph glyph-name="breve" unicode="&#x2d8;" 
d="M246 704h-37v-7q0 -31 -21.5 -53.5t-53.5 -22.5q-31 0 -54 22.5t-23 53.5v7h-37v-7q0 -31 15.5 -56.5t41.5 -41t57 -15.5t56.5 15.5t40.5 41t15 56.5v7z" />
    <glyph glyph-name="dotaccent" unicode="&#x2d9;" 
d="M134 745q-12 0 -20 -8.5t-8 -20.5q0 -11 8 -19.5t20 -8.5t19.5 8.5t7.5 19.5q0 12 -7.5 20.5t-19.5 8.5z" />
    <glyph glyph-name="ring" unicode="&#x2da;" 
d="M134 775q-31 0 -57.5 -15t-42 -40.5t-15.5 -57.5t15.5 -58t42 -41t57.5 -15t56.5 15t41 41t15.5 58t-15.5 57.5t-41 40.5t-56.5 15zM134 739q32 0 55 -23q22 -22 22 -54q0 -16 -6 -30.5t-16 -25.5q-12 -10 -25.5 -16t-29.5 -6t-30 6t-25 16q-11 11 -17.5 25.5t-6.5 30.5
t6 30t16 25q12 11 26.5 16.5t30.5 5.5z" />
    <glyph glyph-name="ogonek" unicode="&#x2db;" 
d="M156 11h-35v-8l-67 -103q-16 -25 -15.5 -49t14.5 -42t38 -26t56 0q5 1 21.5 6.5t34.5 12t30.5 11l12.5 4.5l-14 33l-7 -2.5t-19 -7t-28 -10t-34 -12.5q-27 -9 -46 -1t-23.5 27.5t9.5 42.5l72 115v9z" />
    <glyph glyph-name="tilde" unicode="&#x2dc;" horiz-adv-x="278" 
d="M211 715v-15q0 -13 -4 -25t-18 -11q-10 0 -20.5 7t-14.5 9q-10 8 -20 14.5t-21 11.5q-16 9 -36 10t-36 -10q-10 -7 -15.5 -18t-7.5 -23t-2 -23v-15h40v15q0 7 1.5 17t6.5 15q9 5 18.5 2.5t17.5 -7.5q9 -5 18.5 -12.5t20.5 -13.5q12 -7 24.5 -13t27.5 -6q32 0 46 24t14 52
v15h-40z" />
    <glyph glyph-name="hungarumlaut" unicode="&#x2dd;" 
d="M145 668q5 7 6 14.5t-2 14.5t-10 11t-14.5 3t-13.5 -6t-9 -14l-43 -108h31zM256 668q5 7 6 14.5t-1.5 14.5t-10.5 11q-7 4 -14.5 3t-13.5 -6t-8 -14l-42 -108h30z" />
    <glyph glyph-name="gravecomb" unicode="&#x300;" 
d="M107 721q-3 8 -9 13.5t-13.5 6.5t-15.5 -3q-6 -4 -9 -11t-1.5 -14.5t5.5 -14.5l55 -86h31z" />
    <glyph glyph-name="acutecomb" unicode="&#x301;" 
d="M198 685q5 8 6 15t-1.5 14t-10.5 11q-7 4 -14 3t-13 -6t-9 -13l-42 -110h30z" />
    <glyph glyph-name="circumflexcomb" unicode="&#x302;" 
d="M261 622l-126 124l-129 -125l30 -30l99 94l94 -93z" />
    <glyph glyph-name="tildecomb" unicode="&#x303;" 
d="M211 715v-15q0 -13 -4 -25t-18 -11q-10 0 -20.5 7t-14.5 9q-10 8 -20 14.5t-21 11.5q-16 9 -36 10t-36 -10q-10 -7 -15.5 -18t-7.5 -23t-2 -23v-15h40v15q0 7 1.5 17t6.5 15q9 5 18.5 2.5t17.5 -7.5q9 -5 18.5 -12.5t20.5 -13.5q12 -7 24.5 -13t27.5 -6q32 0 46 24t14 52
v15h-40z" />
    <glyph glyph-name="macroncomb" unicode="&#x304;" 
d="M244 677h-221v-44h221v44z" />
    <glyph glyph-name="brevecomb" unicode="&#x306;" horiz-adv-x="245" 
d="M224 704h-37v-7q0 -31 -21.5 -53.5t-53.5 -22.5q-31 0 -54 22.5t-23 53.5v7h-37v-7q0 -31 15.5 -56.5t41.5 -41t57 -15.5t56.5 15.5t40.5 41t15 56.5v7z" />
    <glyph glyph-name="dotaccentcomb" unicode="&#x307;" 
d="M134 745q-12 0 -20 -8.5t-8 -20.5q0 -11 8 -19.5t20 -8.5t19.5 8.5t7.5 19.5q0 12 -7.5 20.5t-19.5 8.5z" />
    <glyph glyph-name="dieresiscomb" unicode="&#x308;" 
d="M54 736q-11 0 -19 -8t-8 -20q0 -11 8 -19t19 -8q12 0 20 8t8 19q0 12 -8 20t-20 8zM213 736q-12 0 -19.5 -8t-7.5 -20q0 -11 7.5 -19t19.5 -8t20 8t8 19q0 12 -8 20t-20 8z" />
    <glyph glyph-name="ringcomb" unicode="&#x30a;" 
d="M134 775q-31 0 -57.5 -15t-42 -40.5t-15.5 -57.5t15.5 -58t42 -41t57.5 -15t56.5 15t41 41t15.5 58t-15.5 57.5t-41 40.5t-56.5 15zM134 739q32 0 55 -23q22 -22 22 -54q0 -16 -6 -30.5t-16 -25.5q-12 -10 -25.5 -16t-29.5 -6t-30 6t-25 16q-11 11 -17.5 25.5t-6.5 30.5
t6 30t16 25q12 11 26.5 16.5t30.5 5.5z" />
    <glyph glyph-name="hungarumlautcomb" unicode="&#x30b;" 
d="M145 668q5 7 6 14.5t-2 14.5t-10 11t-14.5 3t-13 -6t-9.5 -14l-43 -108h31zM256 668q5 7 6 14.5t-1.5 14.5t-10.5 11q-7 4 -14.5 3t-13.5 -6t-8 -14l-42 -108h30z" />
    <glyph glyph-name="caroncomb" unicode="&#x30c;" horiz-adv-x="245" 
d="M239 714l-30 30l-98 -94l-96 93l-31 -31l127 -123z" />
    <glyph glyph-name="commaturnedabovecomb" unicode="&#x312;" 
d="M165 706l-14 10q-5 -4 -13 -13t-16 -22t-13.5 -31t-5.5 -40q0 -12 8 -19.5t20 -7.5t19.5 8t7.5 19t-6 18.5t-15 8.5q2 15 7.5 33.5t20.5 35.5z" />
    <glyph glyph-name="commaaccent" unicode="&#x326;" 
d="M103 -187l14 -10q5 4 12.5 13t16 22t14 31t5.5 40q0 13 -8 20.5t-20 7.5t-19.5 -8t-7.5 -20q0 -10 6 -18t16 -10q-2 -14 -8 -32t-21 -36z" />
    <glyph glyph-name="cedillacomb" unicode="&#x327;" 
d="M161 7h-40l-37 -62l8 -27q13 2 25 3t23 1.5t21 0.5q28 0 45.5 -12t17.5 -39q0 -24 -11 -36.5t-27.5 -17t-32.5 -4.5q-17 -1 -34 1t-30.5 5t-23.5 5l-10 -38q7 -1 22.5 -4t36 -5.5t43.5 -2.5q42 1 74.5 25t32.5 70q0 41 -26.5 68t-75.5 25h-12t-15 -1z" />
    <glyph glyph-name="ogonekcomb" unicode="&#x328;" 
d="M156 11h-35v-8l-67 -103q-16 -25 -15.5 -49t14.5 -42t38 -26t56 0q5 1 21.5 6.5t34.5 12t30.5 11l12.5 4.5l-14 33l-7 -2.5t-19 -7t-28 -10t-34 -12.5q-27 -9 -46 -1t-23.5 27.5t9.5 42.5l72 115v9z" />
    <glyph glyph-name="dieresistonoscomb" unicode="&#x344;" 
d="M82 692q0 12 -8 19.5t-20 7.5q-11 0 -20 -7.5t-9 -19.5q0 -11 9 -19.5t20 -8.5q12 0 20 8.5t8 19.5zM241 692q0 12 -8.5 19.5t-20.5 7.5q-11 0 -19 -7.5t-8 -19.5q0 -11 8 -19.5t19 -8.5q12 0 20.5 8.5t8.5 19.5zM204 820q4 7 5 14t-1.5 13.5t-9.5 10.5t-14.5 3t-13.5 -6
t-9 -13l-42 -109h31z" />
    <glyph glyph-name="tonos" unicode="&#x384;" 
d="M192 685q5 7 6 14.5t-1.5 14.5t-10.5 11q-7 4 -14 3t-13 -6t-9 -13l-42 -110h30z" />
    <glyph glyph-name="dieresistonos" unicode="&#x385;" 
d="M82 692q0 12 -8 19.5t-20 7.5q-11 0 -20 -7.5t-9 -19.5q0 -11 9 -19.5t20 -8.5q12 0 20 8.5t8 19.5zM241 692q0 12 -8.5 19.5t-20.5 7.5q-11 0 -19 -7.5t-8 -19.5q0 -11 8 -19.5t19 -8.5q12 0 20.5 8.5t8.5 19.5zM196 820q4 7 5 14t-1.5 13.5t-9.5 10.5t-14.5 3t-13.5 -6
t-9 -13l-42 -109h31z" />
    <glyph glyph-name="Alphatonos" unicode="&#x386;" horiz-adv-x="608" 
d="M589 0l-265 700h-40l-263 -700h47l97 257h278l99 -257h47zM180 300l124 335l125 -335h-249zM256 788q5 7 6 14.5t-1.5 14.5t-10.5 11q-7 4 -14 3t-13 -6t-9 -13l-42 -110h30z" />
    <glyph glyph-name="Epsilontonos" unicode="&#x388;" horiz-adv-x="446" 
d="M41 0h374v40h-329v329h230l14 43h-244v247h331v41h-376v-700zM39 787q5 7 6 14.5t-1.5 14.5t-10.5 11q-7 4 -14 3t-13 -6t-9 -13l-42 -110h30z" />
    <glyph glyph-name="Etatonos" unicode="&#x389;" horiz-adv-x="566" 
d="M480 412h-395v288h-44v-700h44v369h395v-369h43v700h-43v-288zM47 788q5 7 6 14.5t-1.5 14.5t-10.5 11q-7 4 -14 3t-13 -6t-9 -13l-42 -110h30z" />
    <glyph glyph-name="Iotatonos" unicode="&#x38a;" horiz-adv-x="190" 
d="M18 662l87 -2v-660h43v700h-130v-38zM34 788q5 7 6 14.5t-1.5 14.5t-10.5 11q-7 4 -14 3t-13 -6t-9 -13l-42 -110h30z" />
    <glyph glyph-name="Omicrontonos" unicode="&#x38c;" horiz-adv-x="543" 
d="M34 504v-314q0 -67 31.5 -112t85.5 -67t121 -22q71 0 124 24t82 69t29 108v313q0 101 -61 157t-173 56q-113 0 -176 -54t-63 -158zM78 191v319q0 54 23.5 90t67 55t101.5 19q61 0 104 -18.5t66 -55t23 -89.5v-320q0 -55 -25 -91t-68.5 -53t-99.5 -17q-53 0 -96.5 18
t-69.5 53.5t-26 89.5zM139 785q5 7 6 14.5t-1.5 14.5t-10.5 11q-7 4 -14 3t-13 -6t-9 -13l-42 -110h30z" />
    <glyph glyph-name="Upsilontonos" unicode="&#x38e;" horiz-adv-x="570" 
d="M530 153v547h-45v-274q0 -36 -18 -62.5t-47.5 -43t-66 -24.5t-72.5 -8q-64 0 -110.5 18.5t-71.5 55.5t-25 94v244h-44v-245q0 -65 28 -112t82 -72.5t130 -25.5q48 0 90 10.5t75 28.5t50 40v-171q0 -31 -6.5 -53t-18 -37t-27 -24.5t-32.5 -14.5l11 -31q56 9 87 49.5
t31 110.5zM32 788q5 7 6 14.5t-1.5 14.5t-10.5 11q-7 4 -14 3t-13 -6t-9 -13l-42 -110h30z" />
    <glyph glyph-name="Omegatonos" unicode="&#x38f;" horiz-adv-x="582" 
d="M596 193v309q0 94 -50.5 149.5t-156.5 55.5h-135q-106 0 -156.5 -55.5t-50.5 -149.5v-309q0 -38 11 -68t33 -51t52 -34h-97l-14 -41h257v41q-41 1 -76.5 9.5t-63 26.5t-43 47t-15.5 70v315q0 77 44 117.5t119 40.5h135q50 0 86.5 -18t57.5 -53.5t21 -86.5v-315
q0 -41 -16.5 -69.5t-45 -47t-64.5 -27t-75 -9.5v-41h258l-13 41h-100q32 13 53.5 34t33 51t11.5 68zM149 785q5 7 6 14.5t-1.5 14.5t-10.5 11q-7 4 -14 3t-13 -6t-9 -13l-42 -110h30z" />
    <glyph glyph-name="iotadieresistonos" unicode="&#x390;" horiz-adv-x="122" 
d="M9 608q0 12 -8 19.5t-20 7.5q-11 0 -20 -7.5t-9 -19.5q0 -11 9 -19.5t20 -8.5q12 0 20 8.5t8 19.5zM168 608q0 12 -8.5 19.5t-20.5 7.5q-11 0 -19 -7.5t-8 -19.5q0 -11 8 -19.5t19 -8.5q12 0 20.5 8.5t8.5 19.5zM131 736q4 7 5 14t-1.5 13.5t-9.5 10.5t-14.5 3t-13.5 -6
t-9 -13l-42 -109h31zM38 0h44v500h-44v-500z" />
    <glyph glyph-name="Alpha" unicode="&#x391;" horiz-adv-x="608" 
d="M589 0l-265 700h-40l-263 -700h47l97 257h278l99 -257h47zM180 300l124 335l125 -335h-249z" />
    <glyph glyph-name="Beta" unicode="&#x392;" horiz-adv-x="557" 
d="M296 700h-255v-700h267q74 0 122.5 25.5t72.5 72.5t24 111q0 48 -15.5 85.5t-44 63.5t-68.5 38q28 13 47.5 34t29.5 47.5t10 56.5q0 55 -21.5 92t-64 55.5t-104.5 18.5zM304 412h-219v246h205q53 0 86 -14.5t48.5 -42t15.5 -66.5q0 -37 -16.5 -65t-46.5 -43t-73 -15z
M306 42h-221v327h227q53 0 90.5 -20t57.5 -56t20 -81q0 -55 -19.5 -93.5t-58 -57.5t-96.5 -19z" />
    <glyph glyph-name="Gamma" unicode="&#x393;" horiz-adv-x="423" 
d="M41 0h44v658h332v42h-376v-700z" />
    <glyph glyph-name="Deltagreek" unicode="&#x394;" horiz-adv-x="608" 
d="M589 0l-263 700h-45l-259 -700h567zM84 40l220 600l223 -600h-443z" />
    <glyph glyph-name="Epsilon" unicode="&#x395;" horiz-adv-x="446" 
d="M41 0h374v40h-329v329h230l14 43h-244v247h331v41h-376v-700z" />
    <glyph glyph-name="Zeta" unicode="&#x396;" horiz-adv-x="605" 
d="M40 700v-39l470 -1l-20 -24l-463 -597v-39h547v39l-491 1l20 23l464 598v39h-527z" />
    <glyph glyph-name="Eta" unicode="&#x397;" horiz-adv-x="566" 
d="M480 412h-395v288h-44v-700h44v369h395v-369h43v700h-43v-288z" />
    <glyph glyph-name="Theta" unicode="&#x398;" horiz-adv-x="543" 
d="M73 373v-44h395v44h-395zM34 504v-314q0 -67 31.5 -112t85.5 -67t121 -22q71 0 124 24t82 69t29 108v313q0 101 -61 157t-173 56q-113 0 -176 -54t-63 -158zM78 191v319q0 54 23.5 90t67 55t101.5 19q61 0 104 -18.5t66 -55t23 -89.5v-320q0 -55 -25 -91t-68.5 -53
t-99.5 -17q-53 0 -96.5 18t-69.5 53.5t-26 89.5z" />
    <glyph glyph-name="Iota" unicode="&#x399;" horiz-adv-x="190" 
d="M18 662l87 -2v-660h43v700h-130v-38z" />
    <glyph glyph-name="Kappa" unicode="&#x39a;" horiz-adv-x="509" 
d="M85 346v354h-44v-700h44v277l76 92l272 -369h55l-297 407l241 293h-54z" />
    <glyph glyph-name="Lambda" unicode="&#x39b;" horiz-adv-x="609" 
d="M303 637l239 -637h47l-263 700h-44l-262 -700h47z" />
    <glyph glyph-name="Mu" unicode="&#x39c;" horiz-adv-x="686" 
d="M85 700h-44v-700h44v581l233 -581h45l236 581v-581h44v700h-44l-259 -635z" />
    <glyph glyph-name="Nu" unicode="&#x39d;" horiz-adv-x="639" 
d="M596 700h-44v-626l-467 626h-44v-700h44v626l467 -626h44v700z" />
    <glyph glyph-name="Xi" unicode="&#x39e;" horiz-adv-x="627" 
d="M23 595l35 -13q10 27 26 44.5t39.5 25.5t56.5 8h360l18 40h-374q-44 0 -76 -10.5t-52.5 -33.5t-32.5 -61zM465 319v44h-299v-44h299zM439 42h-359l-18 -42h373q46 0 77.5 11t52 35t32.5 61l-35 13q-11 -27 -27 -44t-39.5 -25.5t-56.5 -8.5z" />
    <glyph glyph-name="Omicron" unicode="&#x39f;" horiz-adv-x="543" 
d="M34 504v-314q0 -67 31.5 -112t85.5 -67t121 -22q71 0 124 24t82 69t29 108v313q0 101 -61 157t-173 56q-113 0 -176 -54t-63 -158zM78 191v319q0 54 23.5 90t67 55t101.5 19q61 0 104 -18.5t66 -55t23 -89.5v-320q0 -55 -25 -91t-68.5 -53t-99.5 -17q-53 0 -96.5 18
t-69.5 53.5t-26 89.5z" />
    <glyph glyph-name="Pi" unicode="&#x3a0;" horiz-adv-x="569" 
d="M480 0h46v700h-485v-700h45v655h394v-655z" />
    <glyph glyph-name="Rho" unicode="&#x3a1;" horiz-adv-x="559" 
d="M315 700h-274v-700h45v257h226q56 0 97 13t67.5 39.5t40 69.5t13.5 102q0 58 -14 100t-41 68t-67 38.5t-93 12.5zM86 300v358h232q38 0 69 -9t52.5 -29.5t33.5 -54.5t12 -84q0 -54 -12 -90t-34.5 -55.5t-53.5 -27.5t-70 -8h-229z" />
    <glyph glyph-name="Sigma" unicode="&#x3a3;" horiz-adv-x="582" 
d="M384 40h-280l229 346l-205 272h382l16 42h-483l236 -315l-254 -385h364q66 0 105.5 25.5t57.5 81.5l-36 12q-9 -28 -27.5 -45.5t-45 -25.5t-59.5 -8z" />
    <glyph glyph-name="Tau" unicode="&#x3a4;" horiz-adv-x="465" 
d="M251 660h207v40h-452v-40h202v-660h43v660z" />
    <glyph glyph-name="Upsilon" unicode="&#x3a5;" horiz-adv-x="570" 
d="M530 153v547h-45v-274q0 -36 -18 -62.5t-47.5 -43t-66 -24.5t-72.5 -8q-64 0 -110.5 18.5t-71.5 55.5t-25 94v244h-44v-245q0 -65 28 -112t82 -72.5t130 -25.5q48 0 90 10.5t75 28.5t50 40v-171q0 -31 -6.5 -53t-18 -37t-27 -24.5t-32.5 -14.5l11 -31q56 9 87 49.5
t31 110.5z" />
    <glyph glyph-name="Phi" unicode="&#x3a6;" horiz-adv-x="660" 
d="M185 671l-20 35q-66 -19 -99 -66t-33 -123v-290q0 -45 12.5 -81.5t38.5 -62.5t66 -39.5t94 -13.5h62v-60l44 -5v65h67q73 0 119 24.5t67.5 68.5t21.5 104v282q0 62 -23.5 107.5t-69 70t-111.5 23.5q-26 0 -47 -7.5t-36.5 -21.5t-23.5 -34.5t-8 -46.5v-532h-61
q-50 0 -88 17t-59.5 51t-21.5 84v297q0 43 12 74.5t36.5 51.5t60.5 28zM417 68h-67v527q0 24 9 40.5t26.5 25t41.5 9.5q46 0 81 -18.5t55 -52.5t20 -82v-298q0 -50 -20.5 -84t-57.5 -50.5t-88 -16.5z" />
    <glyph glyph-name="Chi" unicode="&#x3a7;" horiz-adv-x="620" 
d="M310 398l-212 302h-53l238 -342l-258 -358h56l229 316l229 -316h57l-258 358l238 342h-52z" />
    <glyph glyph-name="Psi" unicode="&#x3a8;" horiz-adv-x="660" 
d="M77 404v296h-44v-291q0 -61 22.5 -105.5t68.5 -67.5t116 -23h64v-213h45v213h71q72 0 117 23t67 67.5t22 105.5v158q0 43 -9 71t-23 45t-29 26l-35 -14q5 -3 13.5 -10t17.5 -20.5t15.5 -35.5t6.5 -54v-171q0 -51 -20.5 -85t-57 -50t-86.5 -16h-70v447h-45v-447h-62
q-49 0 -86.5 15.5t-58 49.5t-20.5 86z" />
    <glyph glyph-name="Omegagreek" unicode="&#x3a9;" horiz-adv-x="643" 
d="M596 193v309q0 94 -50.5 149.5t-156.5 55.5h-135q-106 0 -156.5 -55.5t-50.5 -149.5v-309q0 -38 11 -68t33 -51t52 -34h-97l-14 -41h257v41q-41 1 -76.5 9.5t-63 26.5t-43 47t-15.5 70v315q0 77 44 117.5t119 40.5h135q50 0 86.5 -18t57.5 -53.5t21 -86.5v-315
q0 -41 -16.5 -69.5t-45 -47t-64.5 -27t-75 -9.5v-41h258l-13 41h-100q32 13 53.5 34t33 51t11.5 68z" />
    <glyph glyph-name="Iotadieresis" unicode="&#x3aa;" horiz-adv-x="190" 
d="M42 846q-11 0 -19 -8t-8 -20q0 -11 8 -19t19 -8q12 0 20 8t8 19q0 12 -8 20t-20 8zM201 846q-12 0 -19.5 -8t-7.5 -20q0 -11 7.5 -19t19.5 -8t20 8t8 19q0 12 -8 20t-20 8zM18 662l87 -2v-660h43v700h-130v-38z" />
    <glyph glyph-name="Upsilondieresis" unicode="&#x3ab;" horiz-adv-x="570" 
d="M202 845q-11 0 -19 -8t-8 -20q0 -11 8 -19t19 -8q12 0 20 8t8 19q0 12 -8 20t-20 8zM361 845q-12 0 -19.5 -8t-7.5 -20q0 -11 7.5 -19t19.5 -8t20 8t8 19q0 12 -8 20t-20 8zM530 153v547h-45v-274q0 -36 -18 -62.5t-47.5 -43t-66 -24.5t-72.5 -8q-64 0 -110.5 18.5
t-71.5 55.5t-25 94v244h-44v-245q0 -65 28 -112t82 -72.5t130 -25.5q48 0 90 10.5t75 28.5t50 40v-171q0 -31 -6.5 -53t-18 -37t-27 -24.5t-32.5 -14.5l11 -31q56 9 87 49.5t31 110.5z" />
    <glyph glyph-name="alphatonos" unicode="&#x3ac;" horiz-adv-x="485" 
d="M449 487l-34 15q-5 -9 -8.5 -22.5t-4.5 -17.5q-31 13 -65.5 23.5t-69.5 16.5t-66 6q-33 0 -63.5 -7t-54.5 -23.5t-38 -46.5t-14 -76v-191q0 -48 15.5 -81t44 -52t67.5 -27.5t85 -7.5q18 0 44 1t53 2t50.5 2.5t37.5 2t13 0.5v407q0 31 4 53.5zM74 163v189q0 37 11 59.5
t29 34.5t40 16.5t43 4.5q20 0 43.5 -3t49.5 -8.5t53 -14t54 -20.5v-379l-15 -1t-39.5 -2t-54.5 -2.5t-60 -1.5q-49 0 -83.5 14t-52.5 42.5t-18 71.5zM309 648q5 7 6 14.5t-1.5 14.5t-10.5 11q-7 4 -14 3t-13 -6t-9 -13l-42 -110h30z" />
    <glyph glyph-name="epsilontonos" unicode="&#x3ad;" horiz-adv-x="439" 
d="M336 455v42q-31 8 -59.5 11t-54.5 3q-59 0 -97.5 -19t-57 -48t-18.5 -63q0 -19 7.5 -39t23 -35.5t39.5 -24.5q-47 -15 -72 -50.5t-25 -81.5q0 -41 20.5 -78.5t65.5 -60t119 -22.5q32 0 66 4.5t65.5 12.5t56.5 17l-13 41q-13 -5 -31.5 -10t-40.5 -10.5t-47 -9t-50 -3.5
q-50 0 -88 14t-58.5 40.5t-20.5 61.5q0 30 12 51t31.5 34.5t43 20t47.5 6.5h120l15 42h-147q-27 0 -48 11t-33.5 29.5t-11.5 41.5q0 27 15 45t40 29.5t56 13.5q17 1 37.5 0.5t44 -4.5t48.5 -12zM287 648q5 7 6 14.5t-1.5 14.5t-10.5 11q-7 4 -14 3t-13 -6t-9 -13l-42 -110
h30z" />
    <glyph glyph-name="etatonos" unicode="&#x3ae;" horiz-adv-x="490" 
d="M410 347v-540l43 -18v560q0 37 -10 64.5t-28.5 46t-44 30t-57 16.5t-66.5 4q-28 0 -58.5 -6t-58 -15t-48.5 -20v32h-44v-501h44v435q23 11 49.5 19t55.5 12.5t57 5.5q33 0 63 -5t53 -19t36.5 -39t13.5 -62zM316 648q5 7 6 14.5t-1.5 14.5t-10.5 11q-7 4 -14 3t-13 -6
t-9 -13l-42 -110h30z" />
    <glyph glyph-name="iotatonos" unicode="&#x3af;" horiz-adv-x="122" 
d="M129 649q5 6 6 13.5t-2 14.5t-10 11q-8 4 -15 3t-12.5 -5.5t-8.5 -13.5l-43 -109h31zM38 0h44v500h-44v-500z" />
    <glyph glyph-name="upsilondieresistonos" unicode="&#x3b0;" horiz-adv-x="487" 
d="M191 607q0 12 -8 19.5t-20 7.5q-11 0 -20 -7.5t-9 -19.5q0 -11 9 -19.5t20 -8.5q12 0 20 8.5t8 19.5zM350 607q0 12 -8.5 19.5t-20.5 7.5q-11 0 -19 -7.5t-8 -19.5q0 -11 8 -19.5t19 -8.5q12 0 20.5 8.5t8.5 19.5zM313 735q4 7 5 14t-1.5 13.5t-9.5 10.5t-14.5 3
t-13.5 -6t-9 -13l-42 -109h31zM451 185v316h-43v-323q0 -45 -18 -78.5t-53.5 -52t-88.5 -18.5q-51 0 -89 19t-59 52.5t-21 77.5v323h-45v-316q0 -55 23.5 -99t71 -70t117.5 -26q102 0 153.5 52.5t51.5 142.5z" />
    <glyph glyph-name="alpha" unicode="&#x3b1;" horiz-adv-x="485" 
d="M449 487l-34 15q-5 -9 -8.5 -22.5t-4.5 -17.5q-31 13 -65.5 23.5t-69.5 16.5t-66 6q-33 0 -63.5 -7t-54.5 -23.5t-38 -46.5t-14 -76v-191q0 -48 15.5 -81t44 -52t67.5 -27.5t85 -7.5q18 0 44 1t53 2t50.5 2.5t37.5 2t13 0.5v407q0 31 4 53.5zM74 163v189q0 37 11 59.5
t29 34.5t40 16.5t43 4.5q20 0 43.5 -3t49.5 -8.5t53 -14t54 -20.5v-379l-15 -1t-39.5 -2t-54.5 -2.5t-60 -1.5q-49 0 -83.5 14t-52.5 42.5t-18 71.5z" />
    <glyph glyph-name="beta" unicode="&#x3b2;" horiz-adv-x="489" 
d="M39 526v-721l45 -18v214q15 -2 35 -4t41 -3.5t38.5 -2.5t26.5 -1q57 0 100.5 8t73 28t45 54.5t15.5 87.5v88q0 51 -18 84.5t-51 49.5t-79 15h-20q37 19 58.5 43t31 50t9.5 51q1 46 -18.5 80.5t-57 54t-90.5 19.5q-58 0 -99.5 -23t-63.5 -63.5t-22 -90.5zM84 530
q0 37 16.5 66t47.5 46t73 17q39 0 67 -14.5t43 -39.5t14 -57q0 -29 -13.5 -53.5t-36 -43t-51.5 -31.5t-62 -19l-98 -15v144zM84 40v301l80 13q21 3 43.5 6t44.5 5t40 2q25 0 47.5 -6t40 -19.5t27.5 -35.5t10 -54v-82q0 -32 -7 -58.5t-26.5 -45.5t-57 -29t-96.5 -9
q-17 1 -37 2.5t-39.5 3t-35.5 3t-25.5 2.5t-8.5 1z" />
    <glyph glyph-name="gamma" unicode="&#x3b3;" horiz-adv-x="559" 
d="M538 484l-28 26q-31 -9 -50.5 -24t-32.5 -39t-25 -60l-121 -353q-17 3 -30.5 9.5t-25.5 18.5t-22 31.5t-19 46.5l-119 360h-45l122 -371q11 -33 26.5 -61t39.5 -47t59 -27l-25 -73q-6 -16 -15 -31t-23.5 -27t-35.5 -19t-49 -8l8 -35q47 1 76.5 14.5t46.5 34.5t26 43
t14 38l152 447q9 28 19 47.5t27.5 34t49.5 24.5z" />
    <glyph glyph-name="delta" unicode="&#x3b4;" horiz-adv-x="478" 
d="M260 662h120l16 38h-131q-35 0 -64 -11.5t-46 -33.5t-18 -54q0 -22 11 -44t36 -43l11 -9q-55 -14 -92.5 -38.5t-56 -62.5t-18.5 -92v-132q0 -92 52 -141.5t159 -49.5q70 0 116 21t69 63.5t23 106.5v102q0 25 -4.5 49t-16.5 47t-36 42q-18 21 -41 37.5t-47.5 32
t-49.5 30.5q-17 11 -33.5 21.5t-27 25t-10.5 36.5q0 20 11 33.5t28.5 19.5t39.5 6zM403 297v-123q0 -47 -18 -79.5t-54 -49.5t-92 -17q-53 0 -91 17.5t-57.5 50t-19.5 77.5v140q0 25 7.5 50.5t26.5 48.5t53 39.5t86 23.5l56 -30q32 -18 55 -40.5t35.5 -49t12.5 -58.5z" />
    <glyph glyph-name="epsilon" unicode="&#x3b5;" horiz-adv-x="439" 
d="M336 455v42q-31 8 -59.5 11t-54.5 3q-59 0 -97.5 -19t-57 -48t-18.5 -63q0 -19 7.5 -39t23 -35.5t39.5 -24.5q-47 -15 -72 -50.5t-25 -81.5q0 -41 20.5 -78.5t65.5 -60t119 -22.5q32 0 66 4.5t65.5 12.5t56.5 17l-13 41q-13 -5 -31.5 -10t-40.5 -10.5t-47 -9t-50 -3.5
q-50 0 -88 14t-58.5 40.5t-20.5 61.5q0 30 12 51t31.5 34.5t43 20t47.5 6.5h120l15 42h-147q-27 0 -48 11t-33.5 29.5t-11.5 41.5q0 27 15 45t40 29.5t56 13.5q17 1 37.5 0.5t44 -4.5t48.5 -12z" />
    <glyph glyph-name="zeta" unicode="&#x3b6;" horiz-adv-x="453" 
d="M425 662l-15 38h-306v-38h250q-26 -21 -52 -44.5t-50.5 -47.5t-46.5 -48q-32 -33 -63.5 -72.5t-57.5 -82t-41 -88t-17 -92.5q0 -42 14 -77.5t42 -59.5q30 -25 75 -38.5t102 -16.5t123 3v-193l44 -16v253q-59 -6 -107.5 -7t-86 3.5t-65 14t-45.5 23.5q-26 21 -38.5 48
t-12.5 60q2 45 18 88t41 83.5t55.5 77.5t59.5 70q30 32 58 58.5t52.5 46.5t43 33.5t26.5 20.5z" />
    <glyph glyph-name="eta" unicode="&#x3b7;" horiz-adv-x="490" 
d="M410 347v-540l43 -18v560q0 37 -10 64.5t-28.5 46t-44 30t-57 16.5t-66.5 4q-28 0 -58.5 -6t-58 -15t-48.5 -20v32h-44v-501h44v435q23 11 49.5 19t55.5 12.5t57 5.5q33 0 63 -5t53 -19t36.5 -39t13.5 -62z" />
    <glyph glyph-name="theta" unicode="&#x3b8;" horiz-adv-x="488" 
d="M240 709q-61 0 -103 -20.5t-63.5 -54.5t-21.5 -76q0 -12 2.5 -29.5t11 -37t25.5 -40.5q-19 -15 -32.5 -35t-20.5 -46t-7 -58v-125q0 -92 53 -142.5t159 -50.5q103 0 155.5 47.5t52.5 145.5v319q0 97 -52 150t-159 53zM407 507v-116q-48 0 -88.5 4.5t-72 13t-54.5 18.5
q-30 16 -48.5 33t-28.5 35.5t-13.5 34.5t-3.5 28q0 32 17 56.5t49.5 39t76.5 14.5q49 0 86.5 -16.5t58.5 -52t21 -92.5zM242 33q-53 0 -90 17t-57 49.5t-20 77.5v135q0 39 13 64.5t34 42.5q25 -19 64 -34t94 -22.5t127 -6.5v-178q0 -48 -18 -80t-54.5 -48.5t-92.5 -16.5z
" />
    <glyph glyph-name="iota" unicode="&#x3b9;" horiz-adv-x="122" 
d="M38 0h44v500h-44v-500z" />
    <glyph glyph-name="kappa" unicode="&#x3ba;" horiz-adv-x="479" 
d="M340 116l-143 180l213 205h-62l-266 -254v255l-44 10v-512h44v189l84 75l129 -161q19 -23 42 -47t52 -40t65 -16h2v38h-4q-15 0 -33.5 8.5t-38 26t-40.5 43.5z" />
    <glyph glyph-name="lambda" unicode="&#x3bb;" horiz-adv-x="557" 
d="M447 121l-152 447q-5 16 -14 38t-26.5 42.5t-47.5 34t-77 14.5l-9 -35q38 0 63 -12.5t39.5 -31.5t21.5 -40l25 -72q-35 -8 -58.5 -27t-38 -46.5t-26.5 -61.5l-122 -372h44l119 361q12 36 26 58t31.5 33.5t39.5 14.5l119 -354q12 -35 25 -58.5t32.5 -38.5t51.5 -25l27 26
q-33 11 -51.5 30t-27.5 40t-14 35z" />
    <glyph glyph-name="mugreek" unicode="&#x3bc;" horiz-adv-x="466" 
d="M454 87v423l-45 -9v-354q0 -39 -20.5 -65t-54 -39t-75.5 -13q-56 0 -95.5 18t-59.5 46t-20 58v349h-45v-694l45 -17v268q5 -8 17.5 -19.5t34 -23.5t53 -19.5t73.5 -7.5q33 0 63 8t54 22.5t35 33.5q7 -21 16 -32.5t17 -17t11 -7.5l24 26q-5 4 -11.5 12t-11.5 22t-5 32z
" />
    <glyph glyph-name="nu" unicode="&#x3bd;" horiz-adv-x="480" 
d="M18 501l189 -501h53l191 501h-47l-170 -451l-171 451h-45z" />
    <glyph glyph-name="xi" unicode="&#x3be;" horiz-adv-x="474" 
d="M408 661l18 41h-173q-52 0 -87 -19.5t-52.5 -53.5t-17.5 -77q1 -26 12.5 -54.5t35 -53t58.5 -39.5h-19q-39 0 -68 -10.5t-48.5 -29.5t-29 -46.5t-9.5 -61.5v-90q0 -53 15 -87.5t45 -54.5t74 -28t101 -7q13 1 33 2t42.5 2t42.5 3v-193l44 -16v253q-15 -2 -36.5 -3.5
t-45.5 -3.5t-45.5 -3.5t-36.5 -1.5q-60 -2 -97 7t-57 27.5t-27.5 45.5t-7.5 60v86q0 32 10.5 53t28 33.5t40 18t47.5 5.5h132l11 35l-35 5q-34 6 -64 18.5t-52 31t-34.5 42.5t-12.5 53q0 52 29.5 81.5t84.5 29.5h151z" />
    <glyph glyph-name="omicron" unicode="&#x3bf;" horiz-adv-x="475" 
d="M445 183v135q0 94 -53 144t-153 50q-66 0 -113.5 -21.5t-72.5 -64.5t-25 -108v-135q0 -55 23.5 -98.5t71 -69t118.5 -25.5q102 0 153 51.5t51 141.5zM401 319v-142q0 -46 -18 -79t-54 -51t-88 -18t-90 18.5t-58.5 51.5t-20.5 78v142q0 52 20 86t57.5 51t91.5 17
q51 0 86.5 -16.5t54.5 -50.5t19 -87z" />
    <glyph glyph-name="pi" unicode="&#x3c0;" horiz-adv-x="517" 
d="M461 73v427h-423v-500h44v459h336v-381q0 -21 7 -35.5t16.5 -24t18 -14.5t10.5 -7l23 27q-14 9 -23 21t-9 28z" />
    <glyph glyph-name="rho" unicode="&#x3c1;" horiz-adv-x="483" 
d="M452 169v145q0 93 -53 143.5t-153 50.5t-155.5 -48.5t-55.5 -145.5v-508l45 -18v275q10 -18 29 -33t43.5 -26t52 -16.5t54.5 -5.5q63 0 106 21t65 62.5t22 103.5zM407 315v-154q0 -46 -17.5 -76t-50.5 -45.5t-78 -16.5q-33 0 -65 8t-58 25.5t-42 43.5t-16 59v156
q0 52 19.5 85.5t57 50t91.5 16.5q49 0 85 -16t55 -49.5t19 -86.5z" />
    <glyph glyph-name="sigma1" unicode="&#x3c2;" horiz-adv-x="376" 
d="M67 285v66q0 31 12.5 53.5t33.5 36t47.5 20t52.5 5.5q27 0 51 -6t42 -13t24 -11l18 35q1 -1 -17.5 7.5t-51 17.5t-76.5 9q-34 0 -66.5 -9.5t-58.5 -29.5t-41 -50t-15 -71v-60q0 -22 4 -41t13.5 -35t25.5 -32t40 -32l107 -77q21 -15 35.5 -28.5t21.5 -27.5t7 -34
q0 -19 -11.5 -36t-30 -31t-38.5 -25l19 -29q27 14 50 32.5t37.5 41.5t14.5 52q0 31 -12.5 53t-33 39.5t-43.5 33.5l-95 67q-26 19 -40.5 35.5t-20 34t-5.5 39.5z" />
    <glyph glyph-name="sigma" unicode="&#x3c3;" horiz-adv-x="489" 
d="M487 522l-25 21q-19 -16 -41.5 -26t-42.5 -13q-16 -2 -36.5 0t-46.5 5t-59 3q-36 0 -73 -8.5t-67.5 -29t-49 -57t-18.5 -92.5v-142q0 -55 23.5 -98.5t70.5 -69t118 -25.5q102 0 152.5 52.5t50.5 140.5v140q0 58 -14.5 89.5t-37.5 50.5q19 4 37 12t33 20t26 27zM399 332
v-156q0 -44 -17.5 -77.5t-53 -51.5t-88.5 -18q-50 0 -87.5 18.5t-58.5 51.5t-21 77v153q0 41 14.5 68t38.5 43.5t52.5 23.5t57.5 7q16 0 33.5 -1.5t34 -3.5t31.5 -4q5 -4 13 -10t17 -16t16.5 -24t12.5 -33.5t5 -46.5z" />
    <glyph glyph-name="tau" unicode="&#x3c4;" horiz-adv-x="386" 
d="M211 133v325h151v42h-341v-42h145v-325q0 -30 5.5 -53t18 -41t33.5 -31t53 -21l14 34q-30 9 -47.5 25t-24.5 38t-7 49z" />
    <glyph glyph-name="upsilon" unicode="&#x3c5;" horiz-adv-x="487" 
d="M451 185v316h-43v-323q0 -45 -18 -78.5t-53.5 -52t-88.5 -18.5q-51 0 -89 19t-59 52.5t-21 77.5v323h-45v-316q0 -55 23.5 -99t71 -70t117.5 -26q102 0 153.5 52.5t51.5 142.5z" />
    <glyph glyph-name="phi" unicode="&#x3c6;" horiz-adv-x="652" 
d="M29 315v-129q0 -60 23 -103.5t70.5 -66.5t118.5 -23h60v-187l44 -18v205h69q71 0 117 23t68 66.5t22 104.5v121q0 61 -23 106t-68.5 69.5t-111.5 24.5q-35 0 -61.5 -13.5t-41 -38t-14.5 -56.5v-368h-60q-50 0 -87.5 16t-59 48t-21.5 81v139q0 45 13 76t37.5 50t57.5 26
l-20 36q-65 -19 -98.5 -65t-33.5 -124zM414 32h-69v362q0 23 10 39.5t28 25t42 8.5q35 0 63.5 -11.5t48.5 -32t31.5 -47.5t11.5 -58v-139q0 -48 -20 -81t-57 -49.5t-89 -16.5z" />
    <glyph glyph-name="chi" unicode="&#x3c7;" horiz-adv-x="528" 
d="M406 -101l-138 251l204 350h-50l-178 -304l-171 304h-49l195 -348l-198 -336l40 -19l182 310l121 -222q19 -32 39.5 -54t46 -32.5t55.5 -10.5l20 30q-30 4 -51 12.5t-37.5 25.5t-30.5 43z" />
    <glyph glyph-name="psi" unicode="&#x3c8;" horiz-adv-x="657" 
d="M589 506l-45 -14q23 -20 30 -44.5t7 -59.5v-211q0 -48 -21 -80.5t-58.5 -48.5t-87.5 -16h-62v468h-44v-468h-69q-50 0 -87 17t-57.5 50t-20.5 80v321h-42v-313q0 -91 50.5 -142.5t156.5 -51.5h69v-187l44 -17v204h62q72 0 118.5 23.5t69.5 66.5t23 104v200
q0 37 -6.5 65.5t-29.5 53.5z" />
    <glyph glyph-name="omega" unicode="&#x3c9;" horiz-adv-x="663" 
d="M511 499l-22 -34q31 -9 52.5 -27t33 -46.5t11.5 -70.5v-145q0 -50 -16 -83t-45 -49t-70 -16q-33 0 -55 12.5t-33.5 37.5t-12.5 63v156h-45v-156q-1 -38 -13 -63t-34.5 -37.5t-56.5 -12.5q-40 0 -69.5 15.5t-46 48t-16.5 83.5v146q0 42 12 70.5t34.5 46.5t53.5 27l-20 34
q-62 -19 -92.5 -64.5t-30.5 -117.5v-133q0 -68 19.5 -111t59.5 -64.5t101 -21.5q25 0 49 7t43.5 22.5t28.5 37.5q9 -22 28 -37.5t43.5 -22.5t50.5 -7q89 0 133 49t44 150v131q0 73 -30 118t-89 64z" />
    <glyph glyph-name="iotadieresis" unicode="&#x3ca;" horiz-adv-x="122" 
d="M-19 651q-11 0 -19 -8t-8 -20q0 -11 8 -19t19 -8q12 0 20 8t8 19q0 12 -8 20t-20 8zM140 651q-12 0 -19.5 -8t-7.5 -20q0 -11 7.5 -19t19.5 -8t20 8t8 19q0 12 -8 20t-20 8zM38 0h44v500h-44v-500z" />
    <glyph glyph-name="upsilondieresis" unicode="&#x3cb;" horiz-adv-x="487" 
d="M164 651q-11 0 -19 -8t-8 -20q0 -11 8 -19t19 -8q12 0 20 8t8 19q0 12 -8 20t-20 8zM323 651q-12 0 -19.5 -8t-7.5 -20q0 -11 7.5 -19t19.5 -8t20 8t8 19q0 12 -8 20t-20 8zM451 185v316h-43v-323q0 -45 -18 -78.5t-53.5 -52t-88.5 -18.5q-51 0 -89 19t-59 52.5t-21 77.5
v323h-45v-316q0 -55 23.5 -99t71 -70t117.5 -26q102 0 153.5 52.5t51.5 142.5z" />
    <glyph glyph-name="omicrontonos" unicode="&#x3cc;" horiz-adv-x="475" 
d="M445 183v135q0 94 -53 144t-153 50q-66 0 -113.5 -21.5t-72.5 -64.5t-25 -108v-135q0 -55 23.5 -98.5t71 -69t118.5 -25.5q102 0 153 51.5t51 141.5zM401 319v-142q0 -46 -18 -79t-54 -51t-88 -18t-90 18.5t-58.5 51.5t-20.5 78v142q0 52 20 86t57.5 51t91.5 17
q51 0 86.5 -16.5t54.5 -50.5t19 -87zM305 648q5 7 6 14.5t-1.5 14.5t-10.5 11q-7 4 -14 3t-13 -6t-9 -13l-42 -110h30z" />
    <glyph glyph-name="upsilontonos" unicode="&#x3cd;" horiz-adv-x="487" 
d="M451 185v316h-43v-323q0 -45 -18 -78.5t-53.5 -52t-88.5 -18.5q-51 0 -89 19t-59 52.5t-21 77.5v323h-45v-316q0 -55 23.5 -99t71 -70t117.5 -26q102 0 153.5 52.5t51.5 142.5zM313 648q5 7 6 14.5t-1.5 14.5t-10.5 11q-7 4 -14 3t-13 -6t-9 -13l-42 -110h30z" />
    <glyph glyph-name="omegatonos" unicode="&#x3ce;" horiz-adv-x="663" 
d="M511 499l-22 -34q31 -9 52.5 -27t33 -46.5t11.5 -70.5v-145q0 -50 -16 -83t-45 -49t-70 -16q-33 0 -55 12.5t-33.5 37.5t-12.5 63v156h-45v-156q-1 -38 -13 -63t-34.5 -37.5t-56.5 -12.5q-40 0 -69.5 15.5t-46 48t-16.5 83.5v146q0 42 12 70.5t34.5 46.5t53.5 27l-20 34
q-62 -19 -92.5 -64.5t-30.5 -117.5v-133q0 -68 19.5 -111t59.5 -64.5t101 -21.5q25 0 49 7t43.5 22.5t28.5 37.5q9 -22 28 -37.5t43.5 -22.5t50.5 -7q89 0 133 49t44 150v131q0 73 -30 118t-89 64zM400 648q5 7 6 14.5t-1.5 14.5t-10.5 11q-7 4 -14 3t-13 -6t-9 -13
l-42 -110h30z" />
    <glyph glyph-name="uni0400" unicode="&#x400;" horiz-adv-x="445" 
d="M198 867q-3 8 -9 13.5t-13.5 6.5t-15.5 -3q-6 -4 -9 -11t-1.5 -14.5t5.5 -14.5l55 -86h31zM41 0h374v40h-329v329h230l14 43h-244v247h331v41h-376v-700z" />
    <glyph glyph-name="uni0401" unicode="&#x401;" horiz-adv-x="445" 
d="M145 846q-11 0 -19 -8t-8 -20q0 -11 8 -19t19 -8q12 0 20 8t8 19q0 12 -8 20t-20 8zM304 846q-12 0 -19.5 -8t-7.5 -20q0 -11 7.5 -19t19.5 -8t20 8t8 19q0 12 -8 20t-20 8zM41 0h374v40h-329v329h230l14 43h-244v247h331v41h-376v-700z" />
    <glyph glyph-name="uni0402" unicode="&#x402;" horiz-adv-x="649" 
d="M417 509q-30 0 -61 -5.5t-58.5 -15t-47.5 -20.5v-34q25 12 52 20t54.5 12.5t54.5 4.5q32 0 61 -6.5t50.5 -21t34 -39.5t12.5 -62v-211q0 -29 -10.5 -51t-31 -36t-49.5 -24l15 -34q42 11 68 30t38.5 47.5t12.5 67.5v214q0 44 -14 75.5t-40 51t-61.5 28.5t-79.5 9zM251 660
h207v40h-453v-40h203v-660h43v660z" />
    <glyph glyph-name="uni0403" unicode="&#x403;" horiz-adv-x="421" 
d="M293 843q5 8 6 15t-1.5 14t-10.5 11q-7 4 -14 3t-13 -6t-9 -13l-42 -110h30zM41 0h44v658h332v42h-376v-700z" />
    <glyph glyph-name="uni0404" unicode="&#x404;" horiz-adv-x="468" 
d="M72 370h223l13 42h-236v-42zM400 646l13 31q-34 17 -75.5 25t-86.5 8q-61 0 -110 -19.5t-78 -63t-29 -116.5v-325q0 -69 26 -112t76 -63.5t123 -20.5q43 0 89 8.5t94 24.5l-11 37q-31 -10 -61.5 -17t-57 -10.5t-49.5 -3.5q-59 0 -100.5 15t-62.5 50t-21 94v326
q0 56 22 90.5t64 50t101 15.5q31 0 65.5 -5.5t68.5 -18.5z" />
    <glyph glyph-name="uni0405" unicode="&#x405;" horiz-adv-x="587" 
d="M475 633l12 39q-26 13 -55 21t-58.5 12t-60.5 4q-44 0 -88.5 -9t-81 -28.5t-58.5 -51.5t-22 -78q0 -40 19 -69t51 -50t71.5 -37.5t81.5 -31t82 -30t72 -35t50.5 -46t18.5 -62.5q0 -42 -18.5 -71t-50.5 -46.5t-71.5 -25.5t-80.5 -8q-43 0 -87.5 10.5t-83.5 30.5t-66 50
l-28 -27q34 -37 76 -60.5t91 -34.5t102 -11q49 0 96 10.5t85 33.5t61 59t23 85q0 46 -19 79.5t-51 57t-71.5 41t-82.5 32t-82.5 28.5t-71.5 32t-51 42t-19 57q0 35 19 58.5t50 37.5t66.5 20.5t68.5 6.5q28 0 56 -4t55.5 -11.5t50.5 -19.5z" />
    <glyph glyph-name="uni0406" unicode="&#x406;" horiz-adv-x="190" 
d="M18 662l87 -2v-660h43v700h-130v-38z" />
    <glyph glyph-name="uni0407" unicode="&#x407;" horiz-adv-x="190" 
d="M42 846q-11 0 -19 -8t-8 -20q0 -11 8 -19t19 -8q12 0 20 8t8 19q0 12 -8 20t-20 8zM201 846q-12 0 -19.5 -8t-7.5 -20q0 -11 7.5 -19t19.5 -8t20 8t8 19q0 12 -8 20t-20 8zM18 662l87 -2v-660h43v700h-130v-38z" />
    <glyph glyph-name="uni0408" unicode="&#x408;" horiz-adv-x="209" 
d="M168 122v578h-130v-38l85 -2v-542q0 -41 -13 -68t-34.5 -40.5t-49.5 -15.5l10 -31q38 3 63.5 16.5t40.5 35t21.5 49t6.5 58.5z" />
    <glyph glyph-name="uni0409" unicode="&#x409;" horiz-adv-x="946" 
d="M741 411h-216v289h-97q-46 0 -75.5 -14t-47.5 -35t-27.5 -43.5t-14.5 -39.5l-152 -446q-4 -14 -14 -35.5t-29 -41t-52 -30.5l28 -25q24 7 40.5 17t28.5 24.5t21.5 34.5t17.5 46l159 464q8 22 21 40.5t36.5 30.5t60.5 12h52v-661q-1 0 13.5 -1t37 -2.5t48.5 -3t50 -2.5
t39 -1q56 0 102 8.5t78 28.5t49 54.5t17 87.5v84q0 36 -11.5 65t-34 50.5t-55 33t-73.5 11.5zM873 168q0 -31 -9 -57.5t-29.5 -45.5t-57 -29t-91.5 -10q-10 0 -29.5 1t-42 2.5t-42.5 2.5t-33 2t-14 1v333h219q25 0 48 -6.5t41 -21t29 -36.5t11 -54v-82z" />
    <glyph glyph-name="uni040A" unicode="&#x40a;" horiz-adv-x="926" 
d="M721 413h-215v288h-43v-288h-376v288h-46v-700h46v369h376v-369l14.5 -1t37 -3t48.5 -3.5t49.5 -2.5t39.5 -1q77 0 131.5 15t83.5 53t29 109v87q0 37 -11.5 66t-33.5 49.5t-54.5 32t-75.5 11.5zM854 170q0 -40 -11 -67.5t-35 -43.5t-62 -23.5t-90 -7.5q-27 0 -52.5 1
t-46.5 2.5t-34.5 2.5t-16.5 1v335h221q25 0 47.5 -6.5t40.5 -20.5t28.5 -36.5t10.5 -54.5v-82z" />
    <glyph glyph-name="uni040B" unicode="&#x40b;" horiz-adv-x="649" 
d="M416 510q-23 0 -45.5 -3t-45 -9t-42 -13.5t-34.5 -15.5v-34q26 12 52.5 20t54 12.5t53.5 4.5q32 0 60.5 -6.5t50.5 -21t35 -38.5t13 -60v-346h44v348q0 44 -14 75t-40 50t-62 28t-80 9zM251 660h207v40h-452v-40h202v-660h43v660z" />
    <glyph glyph-name="uni040C" unicode="&#x40c;" horiz-adv-x="508" 
d="M290 851q5 8 6 15t-1.5 14t-10.5 11q-7 4 -14 3t-13 -6t-9 -13l-42 -110h30zM85 346v354h-44v-700h44v277l76 92l272 -369h55l-297 407l241 293h-54z" />
    <glyph glyph-name="uni040D" unicode="&#x40d;" horiz-adv-x="639" 
d="M293 874q-3 8 -9 13.5t-13.5 6.5t-15.5 -3q-6 -4 -9 -11t-1.5 -14.5t5.5 -14.5l55 -86h31zM41 700v-700h44l466 626v-626h45v700h-45l-466 -626v626h-44z" />
    <glyph glyph-name="uni040E" unicode="&#x40e;" horiz-adv-x="545" 
d="M363 854h-37v-7q0 -31 -21.5 -53.5t-53.5 -22.5q-31 0 -54 22.5t-23 53.5v7h-37v-7q0 -31 15.5 -56.5t41.5 -41t57 -15.5t56.5 15.5t40.5 41t15 56.5v7zM485 700l-210 -394l-219 394h-49l244 -440l-73 -139q-8 -14 -22.5 -35t-38 -41t-59.5 -31l26 -25q27 7 46 17
t34 24.5t28.5 34.5t27.5 46l314 589h-49z" />
    <glyph glyph-name="uni040F" unicode="&#x40f;" horiz-adv-x="571" 
d="M528 700h-45v-656h-396v656h-44v-700h221l2 -104h38l2 104h222v700z" />
    <glyph glyph-name="uni0410" unicode="&#x410;" horiz-adv-x="608" 
d="M589 0l-265 700h-40l-263 -700h47l97 257h278l99 -257h47zM180 300l124 335l125 -335h-249z" />
    <glyph glyph-name="uni0411" unicode="&#x411;" horiz-adv-x="506" 
d="M48 658h376v42h-376v-42zM306 412h-220v288h-43v-701q-1 0 13 -1t37 -2.5t48.5 -3t49 -2.5t39.5 -1q57 0 102.5 7.5t78 27t49 54t16.5 88.5v88q0 36 -11 65.5t-33 50t-53.5 31.5t-72.5 11zM433 168q0 -41 -11.5 -68.5t-35.5 -43.5t-62 -22.5t-91 -6.5q-19 0 -38.5 1
t-38 2t-34 2.5t-25 2.5t-11.5 1v333h223q24 0 46.5 -6.5t39.5 -20t27.5 -35.5t10.5 -55v-84z" />
    <glyph glyph-name="uni0412" unicode="&#x412;" horiz-adv-x="557" 
d="M296 700h-255v-700h267q74 0 122.5 25.5t72.5 72.5t24 111q0 48 -15.5 85.5t-44 63.5t-68.5 38q28 13 47.5 34t29.5 47.5t10 56.5q0 55 -21.5 92t-64 55.5t-104.5 18.5zM304 412h-219v246h205q53 0 86 -14.5t48.5 -42t15.5 -66.5q0 -37 -16.5 -65t-46.5 -43t-73 -15z
M306 42h-221v327h227q53 0 90.5 -20t57.5 -56t20 -81q0 -55 -19.5 -93.5t-58 -57.5t-96.5 -19z" />
    <glyph glyph-name="uni0413" unicode="&#x413;" horiz-adv-x="425" 
d="M41 0h44v658h332v42h-376v-700z" />
    <glyph glyph-name="uni0414" unicode="&#x414;" horiz-adv-x="609" 
d="M535 43v657h-116q-46 0 -76 -14t-48 -35t-28 -43.5t-16 -39.5l-178 -525h-62v-143h36l7 99h500l7 -99h37v143h-63zM491 43h-374l182 533q7 21 21 39.5t38 31t62 12.5h71v-616z" />
    <glyph glyph-name="uni0415" unicode="&#x415;" horiz-adv-x="446" 
d="M41 0h374v40h-329v329h230l14 43h-244v247h331v41h-376v-700z" />
    <glyph glyph-name="uni0416" unicode="&#x416;" horiz-adv-x="759" 
d="M681 0h55l-256 355l237 345h-51l-226 -324h-40v324h-44v-324h-39l-224 324h-51l237 -345l-257 -355h56l240 332h38v-332h44v332h40z" />
    <glyph glyph-name="uni0417" unicode="&#x417;" horiz-adv-x="512" 
d="M113 412l15 -44h99q48 0 87 -9.5t67.5 -29t44 -49t15.5 -69.5q0 -55 -28 -96t-81.5 -63.5t-131.5 -22.5q-33 0 -64 5t-55.5 10.5t-39 10.5l-14.5 5l-11 -37l15.5 -5t41.5 -12t58.5 -12t66.5 -5q80 0 134.5 19t88 50.5t48.5 71.5t15 82q0 70 -37 114.5t-101 65.5
q44 18 67 42.5t31 52t8 51.5q0 45 -22 84.5t-69.5 63.5t-123.5 24q-43 0 -76.5 -6.5t-56 -15t-29.5 -11.5l15 -31q8 4 29.5 9.5t49 10t55.5 4.5q41 0 74.5 -8t58 -24t38 -41.5t13.5 -60.5q0 -39 -21 -66.5t-55.5 -42.5t-75.5 -15h-143z" />
    <glyph glyph-name="uni0418" unicode="&#x418;" horiz-adv-x="638" 
d="M41 700v-700h44l466 626v-626h45v700h-45l-466 -626v626h-44z" />
    <glyph glyph-name="uni0419" unicode="&#x419;" horiz-adv-x="638" 
d="M410 854h-37v-7q0 -31 -21.5 -53.5t-53.5 -22.5q-31 0 -54 22.5t-23 53.5v7h-37v-7q0 -31 15.5 -56.5t41.5 -41t57 -15.5t56.5 15.5t40.5 41t15 56.5v7zM41 700v-700h44l466 626v-626h45v700h-45l-466 -626v626h-44z" />
    <glyph glyph-name="uni041A" unicode="&#x41a;" horiz-adv-x="509" 
d="M85 346v354h-44v-700h44v277l76 92l272 -369h55l-297 407l241 293h-54z" />
    <glyph glyph-name="uni041B" unicode="&#x41b;" horiz-adv-x="592" 
d="M439 700q-44 0 -73.5 -14.5t-47 -35.5t-27 -43.5t-15.5 -38.5l-151 -446q-5 -14 -15 -35.5t-29 -41t-52 -30.5l29 -25q32 10 51.5 25t32 38.5t24.5 58.5l157 462q8 22 21.5 41t37.5 31.5t60 12.5h74v-659h44v700h-121z" />
    <glyph glyph-name="uni041C" unicode="&#x41c;" horiz-adv-x="686" 
d="M85 700h-44v-700h44v581l233 -581h45l236 581v-581h44v700h-44l-259 -635z" />
    <glyph glyph-name="uni041D" unicode="&#x41d;" horiz-adv-x="566" 
d="M480 412h-395v288h-44v-700h44v369h395v-369h43v700h-43v-288z" />
    <glyph glyph-name="uni041E" unicode="&#x41e;" horiz-adv-x="543" 
d="M34 504v-314q0 -67 31.5 -112t85.5 -67t121 -22q71 0 124 24t82 69t29 108v313q0 101 -61 157t-173 56q-113 0 -176 -54t-63 -158zM78 191v319q0 54 23.5 90t67 55t101.5 19q61 0 104 -18.5t66 -55t23 -89.5v-320q0 -55 -25 -91t-68.5 -53t-99.5 -17q-53 0 -96.5 18
t-69.5 53.5t-26 89.5z" />
    <glyph glyph-name="uni041F" unicode="&#x41f;" horiz-adv-x="569" 
d="M480 0h46v700h-485v-700h45v655h394v-655z" />
    <glyph glyph-name="uni0420" unicode="&#x420;" horiz-adv-x="559" 
d="M315 700h-274v-700h45v257h226q56 0 97 13t67.5 39.5t40 69.5t13.5 102q0 58 -14 100t-41 68t-67 38.5t-93 12.5zM86 300v358h232q38 0 69 -9t52.5 -29.5t33.5 -54.5t12 -84q0 -54 -12 -90t-34.5 -55.5t-53.5 -27.5t-70 -8h-229z" />
    <glyph glyph-name="uni0421" unicode="&#x421;" horiz-adv-x="468" 
d="M400 646l13 31q-34 17 -75.5 25t-86.5 8q-61 0 -110 -19.5t-78 -63t-29 -116.5v-325q0 -69 26 -112t76 -63.5t123 -20.5q43 0 89 8.5t94 24.5l-11 37q-31 -10 -61.5 -17t-57 -10.5t-49.5 -3.5q-59 0 -100.5 15t-62.5 50t-21 94v326q0 56 22 90.5t64 50t101 15.5
q31 0 65.5 -5.5t68.5 -18.5z" />
    <glyph glyph-name="uni0422" unicode="&#x422;" horiz-adv-x="465" 
d="M251 660h207v40h-452v-40h202v-660h43v660z" />
    <glyph glyph-name="uni0423" unicode="&#x423;" horiz-adv-x="542" 
d="M485 700l-210 -394l-219 394h-49l244 -440l-73 -139q-8 -14 -22.5 -35t-38 -41t-59.5 -31l26 -25q27 7 46 17t34 24.5t28.5 34.5t27.5 46l314 589h-49z" />
    <glyph glyph-name="uni0424" unicode="&#x424;" horiz-adv-x="658" 
d="M185 671l-20 35q-66 -19 -99 -66t-33 -123v-290q0 -45 12.5 -81.5t38.5 -62.5t66 -39.5t94 -13.5h62v-60l44 -5v65h67q73 0 119 24.5t67.5 68.5t21.5 104v282q0 62 -23.5 107.5t-69 70t-111.5 23.5q-26 0 -47 -7.5t-36.5 -21.5t-23.5 -34.5t-8 -46.5v-532h-61
q-50 0 -88 17t-59.5 51t-21.5 84v297q0 43 12 74.5t36.5 51.5t60.5 28zM417 68h-67v527q0 24 9 40.5t26.5 25t41.5 9.5q46 0 81 -18.5t55 -52.5t20 -82v-298q0 -50 -20.5 -84t-57.5 -50.5t-88 -16.5z" />
    <glyph glyph-name="uni0425" unicode="&#x425;" horiz-adv-x="620" 
d="M310 398l-212 302h-53l238 -342l-258 -358h56l229 316l229 -316h57l-258 358l238 342h-52z" />
    <glyph glyph-name="uni0426" unicode="&#x426;" horiz-adv-x="597" 
d="M525 44v656h-44v-656h-396v656h-45v-700h488l6 -99h37v143h-46z" />
    <glyph glyph-name="uni0427" unicode="&#x427;" horiz-adv-x="545" 
d="M523 700h-45v-272q0 -37 -18.5 -64t-48 -43.5t-66 -24.5t-72.5 -8q-64 0 -111 17.5t-71.5 54.5t-24.5 95v245h-43v-248q0 -66 27.5 -112t81.5 -70.5t131 -24.5q49 0 91 11t74.5 29.5t49.5 39.5v-325h45v700z" />
    <glyph glyph-name="uni0428" unicode="&#x428;" horiz-adv-x="711" 
d="M625 700v-656h-246v656h-45v-656h-246v656h-44v-700h626v700h-45z" />
    <glyph glyph-name="uni0429" unicode="&#x429;" horiz-adv-x="737" 
d="M644 44v-44h26l6 -99h37v143h-69zM625 700v-656h-246v656h-45v-656h-246v656h-44v-700h626v700h-45z" />
    <glyph glyph-name="uni042A" unicode="&#x42a;" horiz-adv-x="569" 
d="M0 700v-38l108 -3h22v41h-130zM371 412h-220v288h-43v-701q-1 0 13.5 -1t37 -2.5t48 -3t49 -2.5t39.5 -1q57 0 102.5 7.5t78 27t49 54t16.5 88.5v88q0 36 -11 65.5t-33 50t-53.5 31.5t-72.5 11zM498 168q0 -41 -11.5 -68.5t-35.5 -43.5t-62 -22.5t-91 -6.5q-19 0 -38.5 1
t-38 2t-34 2.5t-25 2.5t-11.5 1v333h223q25 0 47 -6.5t39.5 -20t27.5 -35.5t10 -55v-84z" />
    <glyph glyph-name="uni042B" unicode="&#x42b;" horiz-adv-x="647" 
d="M471 662l87 -2v-660h43v700h-130v-38zM306 412h-220v288h-43v-701q-1 0 13 -1t37 -2.5t48.5 -3t49 -2.5t39.5 -1q57 0 102.5 7.5t78 27t49 54t16.5 88.5v88q0 36 -11 65.5t-33 50t-53.5 31.5t-72.5 11zM433 168q0 -41 -11.5 -68.5t-35.5 -43.5t-62 -22.5t-91 -6.5
q-19 0 -38.5 1t-38 2t-34 2.5t-25 2.5t-11.5 1v333h223q24 0 46.5 -6.5t39.5 -20t27.5 -35.5t10.5 -55v-84z" />
    <glyph glyph-name="uni042C" unicode="&#x42c;" horiz-adv-x="503" 
d="M306 412h-220v288h-43v-701q-1 0 13 -1t37 -2.5t48.5 -3t49 -2.5t39.5 -1q57 0 102.5 7.5t78 27t49 54t16.5 88.5v88q0 36 -11 65.5t-33 50t-53.5 31.5t-72.5 11zM433 168q0 -41 -11.5 -68.5t-35.5 -43.5t-62 -22.5t-91 -6.5q-19 0 -38.5 1t-38 2t-34 2.5t-25 2.5
t-11.5 1v333h223q24 0 46.5 -6.5t39.5 -20t27.5 -35.5t10.5 -55v-84z" />
    <glyph glyph-name="uni042D" unicode="&#x42d;" horiz-adv-x="470" 
d="M76 646q33 13 67.5 18.5t66.5 5.5q41 0 75 -8.5t59 -26.5t39 -48t14 -72v-103h-230l15 -42h215v-185q0 -42 -12.5 -71.5t-36.5 -48t-57 -27.5t-74 -9q-25 0 -53 3.5t-58 10.5t-62 17l-10 -37q47 -16 93 -24.5t90 -8.5q50 0 91.5 11t71 34t46 59.5t16.5 88.5v329
q0 51 -16 88t-45 61.5t-69.5 36.5t-89.5 12q-44 0 -83.5 -8t-76.5 -25z" />
    <glyph glyph-name="uni042E" unicode="&#x42e;" horiz-adv-x="761" 
d="M276 374h-148v-45h148v45zM253 504v-314q0 -67 31.5 -112t85.5 -67t121 -22q71 0 124 24t82.5 69t29.5 108v313q0 101 -61.5 157t-173.5 56t-175.5 -54t-63.5 -158zM297 191v319q0 54 23.5 90t67 55t102.5 19q60 0 103.5 -18.5t66.5 -55t23 -89.5v-320q0 -55 -25.5 -91
t-69 -53t-99.5 -17q-53 0 -96.5 18t-69.5 53.5t-26 89.5zM18 662l88 -2v-660h43v700h-131v-38z" />
    <glyph glyph-name="uni042F" unicode="&#x42f;" horiz-adv-x="565" 
d="M258 700q-54 0 -94 -12.5t-67 -38.5t-40.5 -68t-13.5 -100q0 -59 12.5 -100.5t39.5 -68.5t68 -40l-124 -272h47l119 261l18 -2t18.5 -1.5t19.5 -0.5h226v-257h45v700h-274zM255 300q-38 0 -69 8t-53 28t-34 55.5t-12 89.5q0 50 12 84t33.5 54.5t52.5 29.5t69 9h233v-358
h-232z" />
    <glyph glyph-name="uni0430" unicode="&#x430;" horiz-adv-x="490" 
d="M449 487l-34 15q-5 -9 -8.5 -22.5t-4.5 -17.5q-31 13 -65.5 23.5t-69.5 16.5t-66 6q-33 0 -63.5 -7t-54.5 -23.5t-38 -46.5t-14 -76v-191q0 -48 15.5 -81t44 -52t67.5 -27.5t85 -7.5q18 0 44 1t53 2t50.5 2.5t37.5 2t13 0.5v407q0 31 4 53.5zM74 163v189q0 37 11 59.5
t29 34.5t40 16.5t43 4.5q20 0 43.5 -3t49.5 -8.5t53 -14t54 -20.5v-379l-15 -1t-39.5 -2t-54.5 -2.5t-60 -1.5q-49 0 -83.5 14t-52.5 42.5t-18 71.5z" />
    <glyph glyph-name="uni0431" unicode="&#x431;" horiz-adv-x="474" 
d="M248 512q-39 0 -74 -10t-62 -28t-41 -44v48q0 44 14 75t36 54q20 20 56.5 40.5t89.5 30.5l-5 24q-56 -6 -101 -27.5t-73 -49.5q-31 -31 -46 -69.5t-15 -83.5v-287q0 -62 24 -105t71 -66t115 -23q102 0 155 51t53 143v137q0 62 -23 104t-66.5 64t-107.5 22zM244 471
q47 0 82 -15.5t54.5 -47.5t19.5 -79v-144q0 -50 -18 -84.5t-53.5 -51.5t-89.5 -17q-53 0 -91 17.5t-57.5 51.5t-19.5 84v141q0 35 13 62t36 45.5t55 28t69 9.5z" />
    <glyph glyph-name="uni0432" unicode="&#x432;" horiz-adv-x="496" 
d="M363 284q33 13 52.5 41t19.5 60q0 27 -11 50t-32.5 40t-54.5 26.5t-79 9.5q-44 0 -84 -1.5t-71.5 -3.5t-49.5 -3.5l-18 -1.5v-501q1 0 15 -1t37.5 -2.5t52.5 -3.5t60 -3t61 -1q73 0 118.5 22t66 59t20.5 80q0 48 -27.5 83.5t-75.5 50.5zM253 472q24 0 48.5 -3.5t44.5 -13
t31.5 -26.5t11.5 -43q0 -24 -15 -43.5t-39 -30.5t-50 -11h-207v164q5 1 22.5 2t43 2t54.5 2t55 1zM254 31q-31 0 -61 0.5t-54.5 2t-40.5 2.5t-20 1v222h204q25 0 50 -6.5t45 -20t32.5 -34.5t12.5 -51q0 -35 -21 -61.5t-58.5 -40.5t-88.5 -14z" />
    <glyph glyph-name="uni0433" unicode="&#x433;" horiz-adv-x="352" 
d="M33 500v-500h44v459h266v41h-310z" />
    <glyph glyph-name="uni0434" unicode="&#x434;" horiz-adv-x="556" 
d="M489 44v456h-151q-46 0 -75.5 -14t-47 -35t-27 -43.5t-15.5 -39.5l-110 -324h-53v-143h36l7 99h448l7 -99h37v143h-56zM108 44l113 332q6 16 14 30.5t21.5 26.5t34 19t51.5 7h103v-415h-337z" />
    <glyph glyph-name="uni0435" unicode="&#x435;" horiz-adv-x="467" 
d="M75 132v75l362 17v119q0 58 -24.5 94.5t-69 54.5t-104.5 18t-107 -18t-74 -55.5t-27 -96.5v-207q0 -43 14.5 -70.5t40.5 -44t62 -23.5t78 -7q44 0 92.5 12.5t89.5 34.5l-17 34q-43 -20 -84.5 -31.5t-84.5 -11.5q-31 0 -57.5 5.5t-46.5 17.5t-31.5 32.5t-11.5 50.5z
M392 348v-85l-317 -13v88q0 45 20.5 75t57 45t85.5 15q44 0 78.5 -14t55 -41.5t20.5 -69.5z" />
    <glyph glyph-name="uni0436" unicode="&#x436;" horiz-adv-x="596" 
d="M578 500h-51l-157 -228h-49v228h-44v-228h-46l-153 228h-54l173 -250l-180 -250h53l163 229h44v-229h44v229h48l156 -229h53l-171 250z" />
    <glyph glyph-name="uni0437" unicode="&#x437;" horiz-adv-x="441" 
d="M101 455q25 8 48.5 12t44 4.5t36.5 -0.5q24 -2 44.5 -8.5t35.5 -18t23.5 -26.5t8.5 -35q0 -23 -12 -41.5t-33 -29.5t-48 -11h-148l16 -42h118q25 0 49 -6.5t44 -20t32 -34.5t12 -51q0 -35 -21 -61.5t-58.5 -40.5t-88.5 -14q-34 0 -66 6t-58.5 13.5t-44.5 13.5l-13 -41
q38 -14 89 -24t99 -10q74 0 119 22.5t65.5 60t20.5 78.5q0 47 -25.5 82t-72.5 50q25 9 40.5 24.5t23 35.5t7.5 39q0 34 -18.5 63t-57 48t-97.5 19q-26 0 -54.5 -3t-59.5 -11v-42z" />
    <glyph glyph-name="uni0438" unicode="&#x438;" horiz-adv-x="490" 
d="M82 500h-44v-500h52l320 437v-437h43v500h-51l-320 -436v436z" />
    <glyph glyph-name="uni0439" unicode="&#x439;" horiz-adv-x="492" 
d="M337 668h-37v-7q0 -31 -21.5 -53.5t-53.5 -22.5q-31 0 -54 22.5t-23 53.5v7h-37v-7q0 -31 15.5 -56.5t41.5 -41t57 -15.5t56.5 15.5t40.5 41t15 56.5v7zM82 500h-44v-500h52l320 437v-437h43v500h-51l-320 -436v436z" />
    <glyph glyph-name="uni043A" unicode="&#x43a;" horiz-adv-x="479" 
d="M340 116l-143 180l213 205h-62l-266 -254v255l-44 10v-512h44v189l84 75l129 -161q19 -23 42 -47t52 -40t65 -16h2v38h-4q-15 0 -33.5 8.5t-38 26t-40.5 43.5z" />
    <glyph glyph-name="uni043B" unicode="&#x43b;" horiz-adv-x="532" 
d="M345 500q-47 0 -77 -14t-48 -35.5t-28 -43.5t-15 -39l-83 -246q-5 -14 -15 -35t-28.5 -41t-50.5 -31l28 -25q31 10 50.5 25t32.5 39t25 58l90 266q8 22 22 40t38 29.5t61 11.5h101v-459h43v500h-146z" />
    <glyph glyph-name="uni043C" unicode="&#x43c;" horiz-adv-x="653" 
d="M562 500l-236 -453l-237 453h-53v-500h44v426l224 -426h45l221 426v-426h44v500h-52z" />
    <glyph glyph-name="uni043D" unicode="&#x43d;" horiz-adv-x="489" 
d="M408 293h-327v207h-44v-500h44v251h327v-251h44v500h-44v-207z" />
    <glyph glyph-name="uni043E" unicode="&#x43e;" horiz-adv-x="475" 
d="M445 183v135q0 94 -53 144t-153 50q-66 0 -113.5 -21.5t-72.5 -64.5t-25 -108v-135q0 -55 23.5 -98.5t71 -69t118.5 -25.5q102 0 153 51.5t51 141.5zM401 319v-142q0 -46 -18 -79t-54 -51t-88 -18t-90 18.5t-58.5 51.5t-20.5 78v142q0 52 20 86t57.5 51t91.5 17
q51 0 86.5 -16.5t54.5 -50.5t19 -87z" />
    <glyph glyph-name="uni043F" unicode="&#x43f;" horiz-adv-x="519" 
d="M462 73v427h-423v-500h44v459h336v-381q0 -21 7 -35.5t16.5 -24t18 -14.5t10.5 -7l23 27q-14 9 -23 21t-9 28z" />
    <glyph glyph-name="uni0440" unicode="&#x440;" horiz-adv-x="485" 
d="M452 169v145q0 93 -53 143.5t-153 50.5t-155.5 -48.5t-55.5 -145.5v-508l45 -18v275q10 -18 29 -33t43.5 -26t52 -16.5t54.5 -5.5q63 0 106 21t65 62.5t22 103.5zM407 315v-154q0 -46 -17.5 -76t-50.5 -45.5t-78 -16.5q-33 0 -65 8t-58 25.5t-42 43.5t-16 59v156
q0 52 19.5 85.5t57 50t91.5 16.5q49 0 85 -16t55 -49.5t19 -86.5z" />
    <glyph glyph-name="uni0441" unicode="&#x441;" horiz-adv-x="420" 
d="M377 442l12 36q-36 15 -75 23.5t-77 8.5q-70 0 -116.5 -23.5t-69.5 -66.5t-23 -103v-143q1 -67 27.5 -107t75 -58.5t113.5 -19.5q37 -1 75 3.5t72 12.5l-9 40q-1 0 -12.5 -2.5t-30 -5.5t-42.5 -5t-51 -2q-41 1 -73.5 9t-55.5 25.5t-34 46.5t-11 72v129q1 49 19 84.5
t55 54.5t92 19q34 -1 70.5 -8t68.5 -20z" />
    <glyph glyph-name="uni0442" unicode="&#x442;" horiz-adv-x="386" 
d="M211 133v325h151v42h-341v-42h145v-325q0 -30 5.5 -53t18 -41t33.5 -31t53 -21l14 34q-30 9 -47.5 25t-24.5 38t-7 49z" />
    <glyph glyph-name="uni0443" unicode="&#x443;" horiz-adv-x="543" 
d="M127 -209h47l349 709h-49l-205 -419l-203 419h-50l229 -469z" />
    <glyph glyph-name="uni0444" unicode="&#x444;" horiz-adv-x="651" 
d="M29 315v-129q0 -60 23 -103.5t70.5 -66.5t118.5 -23h60v-187l44 -18v205h69q71 0 117 23t68 66.5t22 104.5v121q0 61 -23 106t-68.5 69.5t-111.5 24.5q-35 0 -61.5 -13.5t-41 -38t-14.5 -56.5v-368h-60q-50 0 -87.5 16t-59 48t-21.5 81v139q0 45 13 76t37.5 50t57.5 26
l-20 36q-65 -19 -98.5 -65t-33.5 -124zM414 32h-69v362q0 23 10 39.5t28 25t42 8.5q35 0 63.5 -11.5t48.5 -32t31.5 -47.5t11.5 -58v-139q0 -48 -20 -81t-57 -49.5t-89 -16.5z" />
    <glyph glyph-name="uni0445" unicode="&#x445;" horiz-adv-x="467" 
d="M236 287l-149 213h-54l176 -250l-178 -250h54l151 212l148 -212h54l-176 250l176 250h-51z" />
    <glyph glyph-name="uni0446" unicode="&#x446;" horiz-adv-x="514" 
d="M453 500h-44v-456h-328v456h-44v-500h415l8 -99h36v143h-43v456z" />
    <glyph glyph-name="uni0447" unicode="&#x447;" horiz-adv-x="490" 
d="M407 0h43v411q0 33 9 47t25 22l-20 32q-16 -7 -27 -17t-18 -22.5t-9.5 -28t-2.5 -32.5v-122q0 -30 -14 -56t-37.5 -45t-53.5 -29.5t-64 -10.5q-30 0 -59 6t-52.5 20t-37 39t-13.5 62v224h-44v-225q0 -47 15 -79.5t42 -51.5t62.5 -27.5t77.5 -8.5q35 0 69.5 9t63 26.5
t45.5 42.5v-186z" />
    <glyph glyph-name="uni0448" unicode="&#x448;" horiz-adv-x="681" 
d="M592 500v-456h-230v456h-45v-456h-229v456h-44v-500h592v500h-44z" />
    <glyph glyph-name="uni0449" unicode="&#x449;" horiz-adv-x="698" 
d="M621 44v-44h14l7 -99h36v143h-57zM592 500v-456h-230v456h-45v-456h-229v456h-44v-500h592v500h-44z" />
    <glyph glyph-name="uni044A" unicode="&#x44a;" horiz-adv-x="571" 
d="M0 500v-38l108 -3h22v41h-130zM371 303h-219v197h-44v-497q4 0 20 -1.5t39.5 -3t51.5 -3t58.5 -2.5t58.5 -1q75 0 119.5 22.5t64.5 59.5t20 79q0 48 -22 81.5t-60 51t-87 17.5zM330 34q-31 0 -61 0.5t-55.5 2t-41.5 2t-20 1.5v220h220q24 0 46 -6t39.5 -19t28 -34
t10.5 -51q0 -35 -20.5 -61.5t-58 -40.5t-87.5 -14z" />
    <glyph glyph-name="uni044B" unicode="&#x44b;" horiz-adv-x="616" 
d="M532 0h44v500h-44v-500zM303 303h-219v197h-44v-497q4 0 20 -1.5t39.5 -3t51.5 -3t58.5 -2.5t58.5 -1q74 0 119 22.5t65 59.5t20 79q0 48 -22 81.5t-60.5 51t-86.5 17.5zM261 34q-31 0 -61 0.5t-55 2t-41 2t-20 1.5v220h220q24 0 46 -6t39.5 -19t28 -34t10.5 -51
q0 -35 -21 -61.5t-58 -40.5t-88 -14z" />
    <glyph glyph-name="uni044C" unicode="&#x44c;" horiz-adv-x="504" 
d="M303 303h-219v197h-44v-497q4 0 20 -1.5t39.5 -3t51.5 -3t58.5 -2.5t58.5 -1q74 0 119 22.5t65 59.5t20 79q0 48 -22 81.5t-60.5 51t-86.5 17.5zM261 34q-31 0 -61 0.5t-55 2t-41 2t-20 1.5v220h220q24 0 46 -6t39.5 -19t28 -34t10.5 -51q0 -35 -21 -61.5t-58 -40.5
t-88 -14z" />
    <glyph glyph-name="uni044D" unicode="&#x44d;" horiz-adv-x="419" 
d="M40 442q31 13 67.5 20.5t70.5 7.5q55 0 92 -19t55.5 -54.5t18.5 -83.5v-32h-266l15 -42h251v-57q1 -56 -19.5 -89t-59.5 -48t-95 -15q-27 0 -52 2.5t-44 5.5t-30 5t-10 2l-9 -40q34 -8 72 -12.5t75 -3.5q65 1 113.5 19.5t75.5 58.5t27 106v145q0 59 -23.5 102t-69.5 66.5
t-116 23.5q-38 0 -77 -8.5t-75 -23.5z" />
    <glyph glyph-name="uni044E" unicode="&#x44e;" horiz-adv-x="673" 
d="M61 273v-45h186v45h-186zM641 183v134q0 95 -53 145t-153 50q-66 0 -113.5 -21.5t-72 -64.5t-24.5 -109v-134q0 -56 23 -99.5t70.5 -68.5t118.5 -25q102 0 153 51.5t51 141.5zM597 319v-143q0 -45 -18 -78.5t-53.5 -51t-88.5 -17.5q-52 0 -90 18t-58 51.5t-20 77.5v142
q0 52 19.5 86t57 51t91.5 17q51 0 87 -16.5t54.5 -50t18.5 -86.5zM38 0h44v500h-44v-500z" />
    <glyph glyph-name="uni044F" unicode="&#x44f;" horiz-adv-x="501" 
d="M232 510q-75 0 -120 -22.5t-65 -59.5t-20 -79q0 -35 12.5 -63t36.5 -48t57 -30l-98 -208h47l94 198q4 0 14 -0.5t20 -0.5h13h192v-197h43v499q-2 0 -15 1t-35.5 3t-51 3.5t-61 2.5t-63.5 1zM196 240q-22 0 -45 6.5t-41 20.5t-29 35t-11 50q0 52 43 84t121 32
q31 0 61.5 -1t56 -2t42.5 -2t21 -1v-222h-219z" />
    <glyph glyph-name="uni0450" unicode="&#x450;" horiz-adv-x="467" 
d="M207 664q-3 8 -9 13.5t-13.5 6.5t-15.5 -3q-6 -4 -9 -11t-1.5 -14.5t5.5 -14.5l55 -86h31zM75 132v75l362 17v119q0 58 -24.5 94.5t-69 54.5t-104.5 18t-107 -18t-74 -55.5t-27 -96.5v-207q0 -43 14.5 -70.5t40.5 -44t62 -23.5t78 -7q44 0 92.5 12.5t89.5 34.5l-17 34
q-43 -20 -84.5 -31.5t-84.5 -11.5q-31 0 -57.5 5.5t-46.5 17.5t-31.5 32.5t-11.5 50.5zM392 348v-85l-317 -13v88q0 45 20.5 75t57 45t85.5 15q44 0 78.5 -14t55 -41.5t20.5 -69.5z" />
    <glyph glyph-name="uni0451" unicode="&#x451;" horiz-adv-x="467" 
d="M155 651q-11 0 -19 -8t-8 -20q0 -11 8 -19t19 -8q12 0 20 8t8 19q0 12 -8 20t-20 8zM314 651q-12 0 -19.5 -8t-7.5 -20q0 -11 7.5 -19t19.5 -8t20 8t8 19q0 12 -8 20t-20 8zM75 132v75l362 17v119q0 58 -24.5 94.5t-69 54.5t-104.5 18t-107 -18t-74 -55.5t-27 -96.5v-207
q0 -43 14.5 -70.5t40.5 -44t62 -23.5t78 -7q44 0 92.5 12.5t89.5 34.5l-17 34q-43 -20 -84.5 -31.5t-84.5 -11.5q-31 0 -57.5 5.5t-46.5 17.5t-31.5 32.5t-11.5 50.5zM392 348v-85l-317 -13v88q0 45 20.5 75t57 45t85.5 15q44 0 78.5 -14t55 -41.5t20.5 -69.5z" />
    <glyph glyph-name="uni0452" unicode="&#x452;" horiz-adv-x="514" 
d="M0 618v-42h264v42h-264zM288 510q-30 0 -62.5 -5.5t-62.5 -14.5t-53 -21v231h-44v-700h44v435q19 9 40.5 16t44 11.5t45.5 7t44 2.5q31 0 59.5 -6.5t50.5 -21.5t34.5 -39t12.5 -61v-410q0 -30 -11.5 -51.5t-31.5 -36t-47 -23.5l13 -34q43 13 69.5 31.5t38.5 46.5t12 68
v411q0 45 -14 76.5t-40.5 51t-62.5 28t-79 8.5z" />
    <glyph glyph-name="uni0453" unicode="&#x453;" horiz-adv-x="352" 
d="M251 641q5 8 6 15t-1.5 14t-10.5 11q-7 4 -14 3t-13 -6t-9 -13l-42 -110h30zM33 500v-500h44v459h266v41h-310z" />
    <glyph glyph-name="uni0454" unicode="&#x454;" horiz-adv-x="421" 
d="M321 252l15 42h-264v18q1 49 19 84.5t55 54.5t92 19q34 0 70.5 -7.5t67.5 -20.5l12 36q-35 15 -74 23.5t-77 8.5q-70 0 -116 -23.5t-69.5 -66.5t-23.5 -103v-143q0 -67 27 -107t75.5 -58.5t113.5 -19.5q37 -1 75 3.5t72 12.5l-9 40q-1 0 -12.5 -2.5t-30 -5.5t-43 -5
t-50.5 -2q-42 0 -74.5 8t-55 26t-33.5 47t-11 72v69h249z" />
    <glyph glyph-name="uni0455" unicode="&#x455;" horiz-adv-x="459" 
d="M365 446l17 31q-18 10 -41.5 18t-49.5 12.5t-55 4.5q-33 0 -65.5 -7t-58.5 -22.5t-42 -39t-16 -56.5q0 -34 18 -57.5t47.5 -40t65.5 -29.5t71.5 -25t65 -27t47.5 -36t18 -50q0 -26 -14 -44.5t-37 -30.5t-50 -18t-53 -6q-36 0 -68.5 8t-60.5 24t-53 40l-25 -27
q39 -41 93 -63t115 -22q36 0 70.5 8.5t62.5 25.5t45 44t17 63q0 37 -18 62.5t-47.5 43.5t-65.5 31t-71.5 25t-64.5 26t-47.5 32.5t-18.5 45.5q0 23 13.5 39.5t36 26.5t48.5 14.5t50 4.5q21 0 43 -4t42 -10t36 -15z" />
    <glyph glyph-name="uni0456" unicode="&#x456;" horiz-adv-x="121" 
d="M38 0h44v501h-44v-501zM61 710q-11 0 -19.5 -8t-8.5 -20q0 -11 8.5 -19.5t19.5 -8.5q12 0 20 8.5t8 19.5q0 12 -8 20t-20 8z" />
    <glyph glyph-name="uni0457" unicode="&#x457;" horiz-adv-x="122" 
d="M-19 651q-11 0 -19 -8t-8 -20q0 -11 8 -19t19 -8q12 0 20 8t8 19q0 12 -8 20t-20 8zM140 651q-12 0 -19.5 -8t-7.5 -20q0 -11 7.5 -19t19.5 -8t20 8t8 19q0 12 -8 20t-20 8zM38 0h44v500h-44v-500z" />
    <glyph glyph-name="uni0458" unicode="&#x458;" horiz-adv-x="207" 
d="M156 -65v566h-127v-41h83v-524q0 -28 -9.5 -50t-28.5 -37.5t-50 -25.5l13 -34q43 13 69 31t38 46t12 69zM163 682q0 12 -8 19.5t-20 7.5t-20.5 -7.5t-8.5 -19.5q0 -11 8.5 -19.5t20.5 -8.5t20 8.5t8 19.5z" />
    <glyph glyph-name="uni0459" unicode="&#x459;" horiz-adv-x="887" 
d="M685 303h-192v197h-149q-46 0 -76 -14.5t-48 -35.5t-27.5 -43.5t-14.5 -38.5l-83 -246q-4 -14 -14 -35.5t-28.5 -41t-51.5 -30.5l28 -25q32 10 51 25t32 38.5t25 58.5l90 266q6 16 14.5 30.5t22.5 26t34 18t49 6.5h102v-457q1 0 13 -1t32 -2.5t45.5 -3.5t54 -3t56.5 -1
q74 0 118.5 22.5t65 59.5t20.5 79q0 36 -12.5 64t-35 47.5t-53.5 29.5t-68 10zM644 33q-31 0 -57 1t-46 2t-32 2t-16 1v221h194q23 0 45 -6t39.5 -19t28 -34.5t10.5 -51.5q0 -52 -45 -84t-121 -32z" />
    <glyph glyph-name="uni045A" unicode="&#x45a;" horiz-adv-x="848" 
d="M644 303h-215v197h-43v-197h-310v197h-44v-500h44v260h310v-258l13.5 -1t37 -2.5t52.5 -3.5t60 -3t60 -1q74 0 120 22.5t67 59.5t21 79q0 36 -13 64t-36.5 47.5t-55 29.5t-68.5 10zM605 33q-31 0 -61 0.5t-54.5 2t-40.5 2t-20 1.5v221h216q24 0 47 -6t41 -19.5t29 -34.5
t11 -51q0 -35 -21 -61.5t-58.5 -40.5t-88.5 -14z" />
    <glyph glyph-name="uni045B" unicode="&#x45b;" horiz-adv-x="497" 
d="M270 575v42h-269v-42h269zM85 469v231h-44v-700h44v435q23 11 49.5 19t55.5 12.5t57 5.5q33 0 63 -5t53.5 -19t36.5 -38.5t13 -62.5v-347h44v349q0 37 -10 64.5t-28.5 46t-44 30t-57 16.5t-67.5 4q-28 0 -58.5 -6t-58 -15t-48.5 -20z" />
    <glyph glyph-name="uni045C" unicode="&#x45c;" horiz-adv-x="477" 
d="M275 638q5 8 6 15t-1.5 14t-10.5 11q-7 4 -14 3t-13 -6t-9 -13l-42 -110h30zM340 116l-143 180l213 205h-62l-266 -254v255l-44 10v-512h44v189l84 75l129 -161q19 -23 42 -47t52 -40t65 -16h2v38h-4q-15 0 -33.5 8.5t-38 26t-40.5 43.5z" />
    <glyph glyph-name="uni045D" unicode="&#x45d;" horiz-adv-x="492" 
d="M226 663q-3 8 -9 13.5t-13.5 6.5t-15.5 -3q-6 -4 -9 -11t-1.5 -14.5t5.5 -14.5l55 -86h31zM82 500h-44v-500h52l320 437v-437h43v500h-51l-320 -436v436z" />
    <glyph glyph-name="uni045E" unicode="&#x45e;" horiz-adv-x="552" 
d="M363 672h-37v-7q0 -31 -21.5 -53.5t-53.5 -22.5q-31 0 -54 22.5t-23 53.5v7h-37v-7q0 -31 15.5 -56.5t41.5 -41t57 -15.5t56.5 15.5t40.5 41t15 56.5v7zM127 -209h47l349 709h-49l-205 -419l-203 419h-50l229 -469z" />
    <glyph glyph-name="uni045F" unicode="&#x45f;" horiz-adv-x="490" 
d="M450 500h-44v-456h-327v456h-44v-500h187l2 -104h37l2 104h187v500z" />
    <glyph glyph-name="uni0462" unicode="&#x462;" horiz-adv-x="528" 
d="M1 617v-41h262v41h-262zM331 412h-220v288h-44v-701l14 -1t36.5 -2.5t48.5 -3t49.5 -2.5t39.5 -1q57 0 102.5 7.5t77.5 27t49 54t17 88.5v88q0 36 -11 65.5t-33 50t-53.5 31.5t-72.5 11zM458 168q0 -41 -11.5 -68.5t-36 -43.5t-62 -22.5t-90.5 -6.5q-19 0 -38.5 1
t-38.5 2t-34 2.5t-24.5 2.5t-11.5 1v333h223q24 0 46 -6.5t39.5 -20t28 -35.5t10.5 -55v-84z" />
    <glyph glyph-name="uni0463" unicode="&#x463;" horiz-adv-x="533" 
d="M331 303h-219v397h-44v-697q4 0 19.5 -1.5t39 -3t52 -3t58.5 -2.5t58 -1q75 0 120 22.5t65 59.5t20 79q0 48 -22.5 81.5t-60.5 51t-86 17.5zM289 34q-31 0 -61 0.5t-55 2t-41.5 2t-19.5 1.5v220h219q24 0 46 -6t40 -19t28 -34t10 -51q0 -35 -20.5 -61.5t-57.5 -40.5
t-88 -14zM0 500v-44h265v44h-265z" />
    <glyph glyph-name="uni046A" unicode="&#x46a;" horiz-adv-x="668" 
d="M419 376h-56l234 324h-532l233 -324h-53q-72 0 -118 -23t-68.5 -65.5t-22.5 -103.5v-184h43v190q0 48 19.5 80.5t56.5 49t88 16.5h65v-336h44v336h68q76 0 121 -35.5t45 -110.5v-190h43v184q0 61 -22.5 103.5t-69 65.5t-118.5 23zM330 403l-180 253h365z" />
    <glyph glyph-name="uni046B" unicode="&#x46b;" horiz-adv-x="645" 
d="M412 301h-49l200 199h-487l202 -199h-44q-72 0 -118 -23.5t-68 -66.5t-22 -105v-106h43v112q0 50 19 83t55.5 50t88.5 17h66v-262h44v262h72q50 0 86.5 -16.5t57 -49.5t20.5 -84v-112h41v106q0 62 -22 105t-67.5 66.5t-117.5 23.5zM321 318l-142 138h282z" />
    <glyph glyph-name="uni0472" unicode="&#x472;" horiz-adv-x="543" 
d="M72 373v-44h395v44h-395zM33 504v-314q0 -67 31.5 -112t85.5 -67t121 -22q71 0 124 24t82 69t29 108v313q0 101 -61 157t-173 56q-113 0 -176 -54t-63 -158zM77 191v319q0 54 23.5 90t67 55t101.5 19q61 0 104 -18.5t66 -55t23 -89.5v-320q0 -55 -25 -91t-68.5 -53
t-99.5 -17q-53 0 -96.5 18t-69.5 53.5t-26 89.5z" />
    <glyph glyph-name="uni0473" unicode="&#x473;" horiz-adv-x="475" 
d="M445 183v135q0 94 -53 144t-153 50q-66 0 -113.5 -21.5t-72.5 -64.5t-25 -108v-135q0 -55 23.5 -98.5t71 -69t118.5 -25.5q102 0 153 51.5t51 141.5zM401 319v-142q0 -46 -18 -79t-54 -51t-88 -18t-90 18.5t-58.5 51.5t-20.5 78v142q0 52 20 86t57.5 51t91.5 17
q51 0 86.5 -16.5t54.5 -50.5t19 -87zM52 273v-45h371v45h-371z" />
    <glyph glyph-name="uni0474" unicode="&#x474;" horiz-adv-x="611" 
d="M584 710q-33 -9 -53.5 -25t-34 -42t-26.5 -64l-179 -527l-221 648h-47l239 -701h58l199 587q5 17 13.5 35t26.5 34.5t52 26.5z" />
    <glyph glyph-name="uni0475" unicode="&#x475;" horiz-adv-x="501" 
d="M474 510q-25 -6 -42 -17t-30 -26.5t-23.5 -37t-21.5 -50.5l-123 -323l-169 444h-46l190 -500h51l147 387q7 16 16 34t27 34.5t51 27.5z" />
    <glyph glyph-name="uni0490" unicode="&#x490;" horiz-adv-x="423" 
d="M379 784l-2 -85v-22h41v107h-39zM41 0h44v658h332v42h-376v-700z" />
    <glyph glyph-name="uni0491" unicode="&#x491;" horiz-adv-x="353" 
d="M304 586l-3 -85v-23h41v108h-38zM33 500v-500h44v459h266v41h-310z" />
    <glyph glyph-name="uni0492" unicode="&#x492;" horiz-adv-x="433" 
d="M0 414v-45h343v45h-343zM51 0h45v658h331v42h-376v-700z" />
    <glyph glyph-name="uni0493" unicode="&#x493;" horiz-adv-x="366" 
d="M0 303v-45h327v45h-327zM51 500v-500h44v459h266v41h-310z" />
    <glyph glyph-name="uni0494" unicode="&#x494;" horiz-adv-x="490" 
d="M260 510q-32 0 -65 -6t-61.5 -15t-49.5 -20v-34q18 9 39.5 15.5t44 11.5t44.5 7t42 2q31 0 59.5 -6t51 -20.5t35 -39t12.5 -61.5v-212q0 -30 -10 -51.5t-29.5 -36t-49.5 -23.5l15 -34q30 8 52.5 21t37 30.5t21.5 41t7 52.5v214q0 45 -14 76t-40 50.5t-62 28.5t-80 9z
M41 0h44v658h332v42h-376v-700z" />
    <glyph glyph-name="uni0495" unicode="&#x495;" horiz-adv-x="458" 
d="M236 304q-28 0 -58 -6t-56.5 -15t-46.5 -20v-34q18 9 37.5 15.5t39.5 11.5t39.5 7t38.5 2q29 0 56.5 -5.5t49 -19.5t34 -38.5t12.5 -60.5v-205q0 -30 -11.5 -52t-32 -36.5t-48.5 -23.5l14 -34q42 13 68.5 31.5t39 46.5t12.5 68v206q0 45 -14.5 76t-40 50t-60 27.5
t-73.5 8.5zM33 500v-500h44v459h266v41h-310z" />
    <glyph glyph-name="uni0496" unicode="&#x496;" horiz-adv-x="760" 
d="M685 44v-44h10l8 -99h36v143h-54zM681 0h55l-256 355l237 345h-51l-226 -324h-40v324h-44v-324h-39l-224 324h-51l237 -345l-257 -355h56l240 332h38v-332h44v332h40z" />
    <glyph glyph-name="uni0497" unicode="&#x497;" horiz-adv-x="598" 
d="M530 44v-44h10l7 -99h37v143h-54zM578 500h-51l-157 -228h-49v228h-44v-228h-46l-153 228h-54l173 -250l-180 -250h53l163 229h44v-229h44v229h48l156 -229h53l-171 250z" />
    <glyph glyph-name="uni0498" unicode="&#x498;" horiz-adv-x="512" 
d="M113 412l15 -44h99q48 0 87 -9.5t67.5 -29t44 -49t15.5 -69.5q0 -55 -28 -96t-81.5 -63.5t-131.5 -22.5q-33 0 -64 5t-55.5 10.5t-39 10.5l-14.5 5l-11 -37l15.5 -5t41.5 -12t58.5 -12t66.5 -5q80 0 134.5 19t88 50.5t48.5 71.5t15 82q0 70 -37 114.5t-101 65.5
q44 18 67 42.5t31 52t8 51.5q0 45 -22 84.5t-69.5 63.5t-123.5 24q-43 0 -76.5 -6.5t-56 -15t-29.5 -11.5l15 -31q8 4 29.5 9.5t49 10t55.5 4.5q41 0 74.5 -8t58 -24t38 -41.5t13.5 -60.5q0 -39 -21 -66.5t-55.5 -42.5t-75.5 -15h-143zM244 10v-9l72 -122q15 -23 10 -42.5
t-23.5 -27t-45.5 1.5l-89 31l-14 -32l97 -34q31 -11 55.5 -3.5t39 26t15.5 43t-14 50.5l-68 110v6z" />
    <glyph glyph-name="uni0499" unicode="&#x499;" horiz-adv-x="445" 
d="M222 10v-9l72 -122q15 -23 10 -42.5t-23.5 -27t-45.5 1.5l-89 31l-14 -32l97 -34q31 -11 55.5 -3.5t39 26t15.5 43t-14 50.5l-68 110v6zM101 455q25 8 48.5 12t44 4.5t36.5 -0.5q24 -2 44.5 -8.5t35.5 -18t23.5 -26.5t8.5 -35q0 -23 -12 -41.5t-33 -29.5t-48 -11h-148
l16 -42h118q25 0 49 -6.5t44 -20t32 -34.5t12 -51q0 -35 -21 -61.5t-58.5 -40.5t-88.5 -14q-34 0 -66 6t-58.5 13.5t-44.5 13.5l-13 -41q38 -14 89 -24t99 -10q74 0 119 22.5t65.5 60t20.5 78.5q0 47 -25.5 82t-72.5 50q25 9 40.5 24.5t23 35.5t7.5 39q0 34 -18.5 63t-57 48
t-97.5 19q-26 0 -54.5 -3t-59.5 -11v-42z" />
    <glyph glyph-name="uni049A" unicode="&#x49a;" horiz-adv-x="509" 
d="M439 44v-44h10l8 -99h37v143h-55zM85 346v354h-44v-700h44v277l76 92l272 -369h55l-297 407l241 293h-54z" />
    <glyph glyph-name="uni049B" unicode="&#x49b;" horiz-adv-x="479" 
d="M435 0l-238 295l213 206h-62l-266 -254v255l-44 10v-512h44v189l83 75l217 -264h53zM389 38v-38h19l7 -98h37v136h-63z" />
    <glyph glyph-name="uni049C" unicode="&#x49c;" horiz-adv-x="592" 
d="M569 0l-295 398l237 302h-53l-225 -288h-47v72h-44v-72h-58v288h-44v-700h44v369h58v-72h44v72h56l273 -369h54z" />
    <glyph glyph-name="uni049D" unicode="&#x49d;" horiz-adv-x="535" 
d="M520 37q-22 0 -51.5 20t-61.5 59l-143 179l213 205h-62l-194 -187h-44v71h-44v-71h-51v188l-44 10v-511h44v269h51v-71h44v71h51l136 -166q20 -23 42 -47.5t50.5 -40.5t63.5 -16v38z" />
    <glyph glyph-name="uni04A0" unicode="&#x4a0;" horiz-adv-x="572" 
d="M1 700v-38l107 -3h19v41h-126zM148 346v354h-44v-700h44v277l76 92l272 -369h55l-297 407l241 293h-54z" />
    <glyph glyph-name="uni04A1" unicode="&#x4a1;" horiz-adv-x="547" 
d="M410 116l-145 179l214 205h-61l-267 -254v254h-151v-38l108 -3v-459h43v189l84 75l131 -159q19 -23 42 -47.5t51.5 -41t63.5 -16.5h2v38h-3q-16 0 -33.5 8.5t-37 26.5t-41.5 43z" />
    <glyph glyph-name="uni04A2" unicode="&#x4a2;" horiz-adv-x="593" 
d="M501 44v-44h21l8 -99h37v143h-66zM480 412h-395v288h-44v-700h44v369h395v-369h43v700h-43v-288z" />
    <glyph glyph-name="uni04A3" unicode="&#x4a3;" horiz-adv-x="515" 
d="M430 44v-44h24l8 -99h36v143h-68zM408 293h-327v207h-44v-500h44v251h327v-251h44v500h-44v-207z" />
    <glyph glyph-name="uni04A4" unicode="&#x4a4;" horiz-adv-x="636" 
d="M501 700v-41h18l105 3v38h-123zM480 412h-395v288h-44v-700h44v369h395v-369h43v700h-43v-288z" />
    <glyph glyph-name="uni04A5" unicode="&#x4a5;" horiz-adv-x="585" 
d="M428 500v-41h24l100 3v38h-124zM408 293h-327v207h-44v-500h44v251h327v-251h44v500h-44v-207z" />
    <glyph glyph-name="uni04AA" unicode="&#x4aa;" horiz-adv-x="466" 
d="M231 8v-9l72 -122q15 -23 10 -42.5t-23.5 -27t-45.5 1.5l-89 31l-14 -32l97 -34q31 -11 55.5 -3.5t39 26t15.5 43t-14 50.5l-68 110v6zM400 646l13 31q-34 17 -75.5 25t-86.5 8q-61 0 -110 -19.5t-78 -63t-29 -116.5v-325q0 -69 26 -112t76 -63.5t123 -20.5q43 0 89 8.5
t94 24.5l-11 37q-31 -10 -61.5 -17t-57 -10.5t-49.5 -3.5q-59 0 -100.5 15t-62.5 50t-21 94v326q0 56 22 90.5t64 50t101 15.5q31 0 65.5 -5.5t68.5 -18.5z" />
    <glyph glyph-name="uni04AB" unicode="&#x4ab;" horiz-adv-x="418" 
d="M210 8v-9l72 -122q15 -23 10 -42.5t-23.5 -27t-45.5 1.5l-89 31l-14 -32l97 -34q31 -11 55.5 -3.5t39 26t15.5 43t-14 50.5l-68 110v6zM377 442l12 36q-36 15 -75 23.5t-77 8.5q-70 0 -116.5 -23.5t-69.5 -66.5t-23 -103v-143q1 -67 27.5 -107t75 -58.5t113.5 -19.5
q37 -1 75 3.5t72 12.5l-9 40q-1 0 -12.5 -2.5t-30 -5.5t-42.5 -5t-51 -2q-41 1 -73.5 9t-55.5 25.5t-34 46.5t-11 72v129q1 49 19 84.5t55 54.5t92 19q34 -1 70.5 -8t68.5 -20z" />
    <glyph glyph-name="uni04AE" unicode="&#x4ae;" horiz-adv-x="545" 
d="M292 342l245 358h-52l-215 -312l-213 312h-51l243 -359v-341h43v342z" />
    <glyph glyph-name="uni04AF" unicode="&#x4af;" horiz-adv-x="473" 
d="M455 500h-47l-169 -439l-172 439h-45l194 -500v-195l44 -18v212z" />
    <glyph glyph-name="uni04B0" unicode="&#x4b0;" horiz-adv-x="545" 
d="M115 218v-45h314v45h-314zM292 342l245 358h-52l-215 -312l-213 312h-51l243 -359v-341h43v342z" />
    <glyph glyph-name="uni04B1" unicode="&#x4b1;" horiz-adv-x="472" 
d="M116 45v-45h240v45h-240zM453 500h-47l-169 -439l-171 439h-46l194 -500v-195l44 -18v212z" />
    <glyph glyph-name="uni04B2" unicode="&#x4b2;" horiz-adv-x="621" 
d="M546 44v-44h11l7 -99h37v143h-55zM310 398l-212 302h-53l238 -342l-258 -358h56l229 316l229 -316h57l-258 358l238 342h-52z" />
    <glyph glyph-name="uni04B3" unicode="&#x4b3;" horiz-adv-x="469" 
d="M391 44v-44h13l7 -99h38v143h-58zM237 287l-149 213h-54l176 -250l-178 -250h54l151 212l148 -212h54l-176 250l176 250h-51z" />
    <glyph glyph-name="uni04B6" unicode="&#x4b6;" horiz-adv-x="589" 
d="M503 44v-44h22l6 -99h38v143h-66zM523 700h-45v-272q0 -37 -18.5 -64t-48 -43.5t-66 -24.5t-72.5 -8q-64 0 -111 17.5t-71.5 54.5t-24.5 95v245h-43v-248q0 -66 27.5 -112t81.5 -70.5t131 -24.5q49 0 91 11t74.5 29.5t49.5 39.5v-325h45v700z" />
    <glyph glyph-name="uni04B7" unicode="&#x4b7;" horiz-adv-x="514" 
d="M430 44v-44h24l7 -99h37v143h-68zM407 0h43v411q0 33 9 47t25 22l-20 32q-16 -7 -27 -17t-18 -22.5t-9.5 -28t-2.5 -32.5v-122q0 -30 -14 -56t-37.5 -45t-53.5 -29.5t-64 -10.5q-30 0 -59 6t-52.5 20t-37 39t-13.5 62v224h-44v-225q0 -47 15 -79.5t42 -51.5t62.5 -27.5
t77.5 -8.5q35 0 69.5 9t63 26.5t45.5 42.5v-186z" />
    <glyph glyph-name="uni04B8" unicode="&#x4b8;" horiz-adv-x="544" 
d="M252 358v-188h45v188h-45zM523 700h-45v-272q0 -37 -18.5 -64t-48 -43.5t-66 -24.5t-72.5 -8q-64 0 -111 17.5t-71.5 54.5t-24.5 95v245h-43v-248q0 -66 27.5 -112t81.5 -70.5t131 -24.5q49 0 91 11t74.5 29.5t49.5 39.5v-325h45v700z" />
    <glyph glyph-name="uni04B9" unicode="&#x4b9;" horiz-adv-x="489" 
d="M407 0h43v411q0 33 9 47t25 22l-20 32q-16 -7 -27 -17t-18 -22.5t-9.5 -28t-2.5 -32.5v-122q0 -30 -14 -56t-37.5 -45t-53.5 -29.5t-64 -10.5q-30 0 -59 6t-52.5 20t-37 39t-13.5 62v224h-44v-225q0 -47 15 -79.5t42 -51.5t62.5 -27.5t77.5 -8.5q35 0 69.5 9t63 26.5
t45.5 42.5v-186zM215 223v-188h45v188h-45z" />
    <glyph glyph-name="uni04BA" unicode="&#x4ba;" horiz-adv-x="576" 
d="M87 700h-45v-701h45v274q0 38 18 64t47.5 42t66 24t73.5 8q64 0 110.5 -18t72 -55t25.5 -94v-245h43v246q0 66 -28.5 112.5t-83 71.5t-131.5 25q-49 0 -90.5 -11t-73 -29t-49.5 -39v325z" />
    <glyph glyph-name="uni04BB" unicode="&#x4bb;" horiz-adv-x="489" 
d="M38 0h43v213q0 30 14 55.5t37 44t53 29t64 10.5q31 0 59.5 -6.5t51.5 -21t37 -39t14 -61.5v-224h44v226q0 47 -16.5 79t-44.5 51.5t-63.5 28t-74.5 8.5q-36 0 -69.5 -9.5t-60.5 -27.5t-45 -42v186h-43v-500z" />
    <glyph glyph-name="uni04C0" unicode="&#x4c0;" horiz-adv-x="190" 
d="M18 662l87 -2v-660h43v700h-130v-38z" />
    <glyph glyph-name="uni04C1" unicode="&#x4c1;" horiz-adv-x="758" 
d="M469 854h-37v-7q0 -31 -21.5 -53.5t-53.5 -22.5q-31 0 -54 22.5t-23 53.5v7h-37v-7q0 -31 15.5 -56.5t41.5 -41t57 -15.5t56.5 15.5t40.5 41t15 56.5v7zM681 0h55l-256 355l237 345h-51l-226 -324h-40v324h-44v-324h-39l-224 324h-51l237 -345l-257 -355h56l240 332h38
v-332h44v332h40z" />
    <glyph glyph-name="uni04C2" unicode="&#x4c2;" horiz-adv-x="596" 
d="M390 672h-37v-7q0 -31 -21.5 -53.5t-53.5 -22.5q-31 0 -54 22.5t-23 53.5v7h-37v-7q0 -31 15.5 -56.5t41.5 -41t57 -15.5t56.5 15.5t40.5 41t15 56.5v7zM578 500h-51l-157 -228h-49v228h-44v-228h-46l-153 228h-54l173 -250l-180 -250h53l163 229h44v-229h44v229h48
l156 -229h53l-171 250z" />
    <glyph glyph-name="uni04CB" unicode="&#x4cb;" horiz-adv-x="545" 
d="M429 44v-143h37l7 99h27v44h-71zM523 700h-45v-272q0 -37 -18.5 -64t-48 -43.5t-66 -24.5t-72.5 -8q-64 0 -111 17.5t-71.5 54.5t-24.5 95v245h-43v-248q0 -66 27.5 -112t81.5 -70.5t131 -24.5q49 0 91 11t74.5 29.5t49.5 39.5v-325h45v700z" />
    <glyph glyph-name="uni04CC" unicode="&#x4cc;" horiz-adv-x="490" 
d="M358 44v-143h37l7 99h26v44h-70zM406 0h44v411q0 33 9 47t24 22l-19 32q-21 -9 -34 -23.5t-18.5 -34t-5.5 -42.5v-123q0 -30 -13.5 -55.5t-37 -44.5t-53.5 -29.5t-64 -10.5q-30 0 -59 6.5t-52.5 20.5t-37 39t-13.5 62v223h-44v-225q0 -46 15 -78t42 -51.5t62.5 -28.5
t77.5 -9q34 0 68.5 9t63 26.5t45.5 43.5v-187z" />
    <glyph glyph-name="uni04CF" unicode="&#x4cf;" horiz-adv-x="190" 
d="M18 662l87 -2v-660h43v700h-130v-38z" />
    <glyph glyph-name="uni04D0" unicode="&#x4d0;" horiz-adv-x="608" 
d="M394 854h-37v-7q0 -31 -21.5 -53.5t-53.5 -22.5q-31 0 -54 22.5t-23 53.5v7h-37v-7q0 -31 15.5 -56.5t41.5 -41t57 -15.5t56.5 15.5t40.5 41t15 56.5v7zM589 0l-265 700h-40l-263 -700h47l97 257h278l99 -257h47zM180 300l124 335l125 -335h-249z" />
    <glyph glyph-name="uni04D1" unicode="&#x4d1;" horiz-adv-x="483" 
d="M328 673h-37v-7q0 -31 -21.5 -53.5t-53.5 -22.5q-31 0 -54 22.5t-23 53.5v7h-37v-7q0 -31 15.5 -56.5t41.5 -41t57 -15.5t56.5 15.5t40.5 41t15 56.5v7zM449 487l-34 15q-5 -9 -8.5 -22.5t-4.5 -17.5q-31 13 -65.5 23.5t-69.5 16.5t-66 6q-33 0 -63.5 -7t-54.5 -23.5
t-38 -46.5t-14 -76v-191q0 -48 15.5 -81t44 -52t67.5 -27.5t85 -7.5q18 0 44 1t53 2t50.5 2.5t37.5 2t13 0.5v407q0 31 4 53.5zM74 163v189q0 37 11 59.5t29 34.5t40 16.5t43 4.5q20 0 43.5 -3t49.5 -8.5t53 -14t54 -20.5v-379l-15 -1t-39.5 -2t-54.5 -2.5t-60 -1.5
q-49 0 -83.5 14t-52.5 42.5t-18 71.5z" />
    <glyph glyph-name="uni04D2" unicode="&#x4d2;" horiz-adv-x="608" 
d="M225 846q-11 0 -19 -8t-8 -20q0 -11 8 -19t19 -8q12 0 20 8t8 19q0 12 -8 20t-20 8zM384 846q-12 0 -19.5 -8t-7.5 -20q0 -11 7.5 -19t19.5 -8t20 8t8 19q0 12 -8 20t-20 8zM589 0l-265 700h-40l-263 -700h47l97 257h278l99 -257h47zM180 300l124 335l125 -335h-249z" />
    <glyph glyph-name="uni04D3" unicode="&#x4d3;" horiz-adv-x="483" 
d="M158 653q-11 0 -19 -8t-8 -20q0 -11 8 -19t19 -8q12 0 20 8t8 19q0 12 -8 20t-20 8zM317 653q-12 0 -19.5 -8t-7.5 -20q0 -11 7.5 -19t19.5 -8t20 8t8 19q0 12 -8 20t-20 8zM449 487l-34 15q-5 -9 -8.5 -22.5t-4.5 -17.5q-31 13 -65.5 23.5t-69.5 16.5t-66 6
q-33 0 -63.5 -7t-54.5 -23.5t-38 -46.5t-14 -76v-191q0 -48 15.5 -81t44 -52t67.5 -27.5t85 -7.5q18 0 44 1t53 2t50.5 2.5t37.5 2t13 0.5v407q0 31 4 53.5zM74 163v189q0 37 11 59.5t29 34.5t40 16.5t43 4.5q20 0 43.5 -3t49.5 -8.5t53 -14t54 -20.5v-379l-15 -1t-39.5 -2
t-54.5 -2.5t-60 -1.5q-49 0 -83.5 14t-52.5 42.5t-18 71.5z" />
    <glyph glyph-name="uni04D4" unicode="&#x4d4;" horiz-adv-x="832" 
d="M432 0h374v40h-330v329h217l16 45h-233v244h330v42h-481l-306 -700h47l112 256h254v-256zM197 300l156 358h79v-358h-235z" />
    <glyph glyph-name="uni04D5" unicode="&#x4d5;" horiz-adv-x="854" 
d="M415 349q-29 14 -64 26.5t-73 20t-76 7.5q-42 0 -74.5 -9.5t-55.5 -28t-34.5 -47t-11.5 -65.5v-86q0 -53 17.5 -88t49.5 -54.5t78 -27.5t102 -7q15 0 38.5 1t49.5 2.5t48.5 3t36.5 2.5t13 1v307q0 60 -13.5 99t-42 61.5t-73 32t-105.5 9.5l-2 -35q36 0 70.5 -5t62 -18
t43.5 -38t16 -64zM415 310v-273l-8.5 -1t-23 -1.5t-33.5 -2t-39.5 -2.5t-40.5 -2q-60 -1 -99 7.5t-61.5 27.5t-31.5 46t-9 61v81q0 33 11 55t29 35t41.5 18.5t47.5 5.5q38 0 75 -7.5t73 -20t69 -27.5zM462 132v75l362 17v119q0 58 -24.5 94.5t-69 54.5t-104.5 18t-107 -18
t-74 -55.5t-27 -96.5v-207q0 -43 14.5 -70.5t40.5 -44t62 -23.5t78 -7q44 0 92.5 12.5t89.5 34.5l-17 34q-43 -20 -84.5 -31.5t-84.5 -11.5q-31 0 -57.5 5.5t-46.5 17.5t-31.5 32.5t-11.5 50.5zM779 348v-85l-317 -13v88q0 45 20.5 75t57 45t85.5 15q44 0 78.5 -14t55 -41.5
t20.5 -69.5z" />
    <glyph glyph-name="uni04D6" unicode="&#x4d6;" horiz-adv-x="445" 
d="M323 852h-37v-7q0 -31 -21.5 -53.5t-53.5 -22.5q-31 0 -54 22.5t-23 53.5v7h-37v-7q0 -31 15.5 -56.5t41.5 -41t57 -15.5t56.5 15.5t40.5 41t15 56.5v7zM41 0h374v40h-329v329h230l14 43h-244v247h331v41h-376v-700z" />
    <glyph glyph-name="uni04D7" unicode="&#x4d7;" horiz-adv-x="467" 
d="M322 672h-37v-7q0 -31 -21.5 -53.5t-53.5 -22.5q-31 0 -54 22.5t-23 53.5v7h-37v-7q0 -31 15.5 -56.5t41.5 -41t57 -15.5t56.5 15.5t40.5 41t15 56.5v7zM75 132v75l362 17v119q0 58 -24.5 94.5t-69 54.5t-104.5 18t-107 -18t-74 -55.5t-27 -96.5v-207q0 -43 14.5 -70.5
t40.5 -44t62 -23.5t78 -7q44 0 92.5 12.5t89.5 34.5l-17 34q-43 -20 -84.5 -31.5t-84.5 -11.5q-31 0 -57.5 5.5t-46.5 17.5t-31.5 32.5t-11.5 50.5zM392 348v-85l-317 -13v88q0 45 20.5 75t57 45t85.5 15q44 0 78.5 -14t55 -41.5t20.5 -69.5z" />
    <glyph glyph-name="uni04D8" unicode="&#x4d8;" horiz-adv-x="543" 
d="M290 709q-44 0 -84.5 -8t-75.5 -25l14 -31q22 10 44 15t44 7.5t43 2.5q59 0 101.5 -15.5t65.5 -49.5t23 -89v-165l-430 -17v-151q0 -48 17.5 -84t49.5 -61t75 -37.5t94 -12.5q68 0 122 21.5t85 65t31 108.5v330q0 54 -17 91.5t-47.5 60.5t-70 33.5t-84.5 10.5zM273 30
q-41 0 -76.5 9t-62 27t-41.5 47.5t-15 69.5v111l387 15v-126q0 -40 -14.5 -68.5t-41 -47.5t-61.5 -28t-75 -9z" />
    <glyph glyph-name="uni04D9" unicode="&#x4d9;" horiz-adv-x="466" 
d="M392 366v-75l-362 -17v-119q0 -57 24.5 -94t69 -55t104.5 -18q59 0 106.5 18t74.5 56t27 96v207q0 43 -14.5 71t-41 44t-62 23t-77.5 7q-45 0 -93 -12t-90 -35l17 -34q45 21 86 32t84 11q30 0 56.5 -5.5t47 -17.5t32 -32.5t11.5 -50.5zM74 150v85l318 13v-88
q0 -45 -20.5 -75t-57 -45t-85.5 -15q-43 0 -78.5 14t-56 41.5t-20.5 69.5z" />
    <glyph glyph-name="uni04DC" unicode="&#x4dc;" horiz-adv-x="760" 
d="M295 846q-11 0 -19 -8t-8 -20q0 -11 8 -19t19 -8q12 0 20 8t8 19q0 12 -8 20t-20 8zM454 846q-12 0 -19.5 -8t-7.5 -20q0 -11 7.5 -19t19.5 -8t20 8t8 19q0 12 -8 20t-20 8zM681 0h55l-256 355l237 345h-51l-226 -324h-40v324h-44v-324h-39l-224 324h-51l237 -345
l-257 -355h56l240 332h38v-332h44v332h40z" />
    <glyph glyph-name="uni04DD" unicode="&#x4dd;" horiz-adv-x="598" 
d="M219 653q-11 0 -19 -8t-8 -20q0 -11 8 -19t19 -8q12 0 20 8t8 19q0 12 -8 20t-20 8zM378 653q-12 0 -19.5 -8t-7.5 -20q0 -11 7.5 -19t19.5 -8t20 8t8 19q0 12 -8 20t-20 8zM578 500h-51l-157 -228h-49v228h-44v-228h-46l-153 228h-54l173 -250l-180 -250h53l163 229h44
v-229h44v229h48l156 -229h53l-171 250z" />
    <glyph glyph-name="uni04DE" unicode="&#x4de;" horiz-adv-x="512" 
d="M170 847q-11 0 -19 -8t-8 -20q0 -11 8 -19t19 -8q12 0 20 8t8 19q0 12 -8 20t-20 8zM329 847q-12 0 -19.5 -8t-7.5 -20q0 -11 7.5 -19t19.5 -8t20 8t8 19q0 12 -8 20t-20 8zM113 412l15 -44h99q48 0 87 -9.5t67.5 -29t44 -49t15.5 -69.5q0 -55 -28 -96t-81.5 -63.5
t-131.5 -22.5q-33 0 -64 5t-55.5 10.5t-39 10.5l-14.5 5l-11 -37l15.5 -5t41.5 -12t58.5 -12t66.5 -5q80 0 134.5 19t88 50.5t48.5 71.5t15 82q0 70 -37 114.5t-101 65.5q44 18 67 42.5t31 52t8 51.5q0 45 -22 84.5t-69.5 63.5t-123.5 24q-43 0 -76.5 -6.5t-56 -15
t-29.5 -11.5l15 -31q8 4 29.5 9.5t49 10t55.5 4.5q41 0 74.5 -8t58 -24t38 -41.5t13.5 -60.5q0 -39 -21 -66.5t-55.5 -42.5t-75.5 -15h-143z" />
    <glyph glyph-name="uni04DF" unicode="&#x4df;" horiz-adv-x="444" 
d="M142 652q-11 0 -19 -8t-8 -20q0 -11 8 -19t19 -8q12 0 20 8t8 19q0 12 -8 20t-20 8zM301 652q-12 0 -19.5 -8t-7.5 -20q0 -11 7.5 -19t19.5 -8t20 8t8 19q0 12 -8 20t-20 8zM102 455q25 8 48.5 12t44 4.5t36.5 -0.5q24 -2 44.5 -8.5t35.5 -18t23.5 -26.5t8.5 -35
q0 -23 -12 -41.5t-33 -29.5t-48 -11h-148l16 -42h118q25 0 49 -6.5t44 -20t32 -34.5t12 -51q0 -35 -21 -61.5t-58.5 -40.5t-88.5 -14q-34 0 -66 6t-58.5 13.5t-44.5 13.5l-13 -41q38 -14 89 -24t99 -10q74 0 119 22.5t65.5 60t20.5 78.5q0 47 -25.5 82t-72.5 50
q25 9 40.5 24.5t23 35.5t7.5 39q0 34 -18.5 63t-57 48t-97.5 19q-26 0 -54.5 -3t-59.5 -11v-42z" />
    <glyph glyph-name="uni04E2" unicode="&#x4e2;" horiz-adv-x="638" 
d="M428 852h-221v-44h221v44zM41 700v-700h44l466 626v-626h45v700h-45l-466 -626v626h-44z" />
    <glyph glyph-name="uni04E3" unicode="&#x4e3;" horiz-adv-x="492" 
d="M359 670h-221v-44h221v44zM82 500h-44v-500h52l320 437v-437h43v500h-51l-320 -436v436z" />
    <glyph glyph-name="uni04E4" unicode="&#x4e4;" horiz-adv-x="638" 
d="M235 846q-11 0 -19 -8t-8 -20q0 -11 8 -19t19 -8q12 0 20 8t8 19q0 12 -8 20t-20 8zM394 846q-12 0 -19.5 -8t-7.5 -20q0 -11 7.5 -19t19.5 -8t20 8t8 19q0 12 -8 20t-20 8zM41 700v-700h44l466 626v-626h45v700h-45l-466 -626v626h-44z" />
    <glyph glyph-name="uni04E5" unicode="&#x4e5;" horiz-adv-x="492" 
d="M170 651q-11 0 -19 -8t-8 -20q0 -11 8 -19t19 -8q12 0 20 8t8 19q0 12 -8 20t-20 8zM329 651q-12 0 -19.5 -8t-7.5 -20q0 -11 7.5 -19t19.5 -8t20 8t8 19q0 12 -8 20t-20 8zM82 500h-44v-500h52l320 437v-437h43v500h-51l-320 -436v436z" />
    <glyph glyph-name="uni04E6" unicode="&#x4e6;" horiz-adv-x="541" 
d="M191 846q-11 0 -19 -8t-8 -20q0 -11 8 -19t19 -8q12 0 20 8t8 19q0 12 -8 20t-20 8zM350 846q-12 0 -19.5 -8t-7.5 -20q0 -11 7.5 -19t19.5 -8t20 8t8 19q0 12 -8 20t-20 8zM34 504v-314q0 -67 31.5 -112t85.5 -67t121 -22q71 0 124 24t82 69t29 108v313q0 101 -61 157
t-173 56q-113 0 -176 -54t-63 -158zM78 191v319q0 54 23.5 90t67 55t101.5 19q61 0 104 -18.5t66 -55t23 -89.5v-320q0 -55 -25 -91t-68.5 -53t-99.5 -17q-53 0 -96.5 18t-69.5 53.5t-26 89.5z" />
    <glyph glyph-name="uni04E7" unicode="&#x4e7;" horiz-adv-x="474" 
d="M157 651q-11 0 -19 -8t-8 -20q0 -11 8 -19t19 -8q12 0 20 8t8 19q0 12 -8 20t-20 8zM316 651q-12 0 -19.5 -8t-7.5 -20q0 -11 7.5 -19t19.5 -8t20 8t8 19q0 12 -8 20t-20 8zM445 183v135q0 94 -53 144t-153 50q-66 0 -113.5 -21.5t-72.5 -64.5t-25 -108v-135
q0 -55 23.5 -98.5t71 -69t118.5 -25.5q102 0 153 51.5t51 141.5zM401 319v-142q0 -46 -18 -79t-54 -51t-88 -18t-90 18.5t-58.5 51.5t-20.5 78v142q0 52 20 86t57.5 51t91.5 17q51 0 86.5 -16.5t54.5 -50.5t19 -87z" />
    <glyph glyph-name="uni04E8" unicode="&#x4e8;" horiz-adv-x="543" 
d="M73 373v-44h395v44h-395zM34 504v-314q0 -67 31.5 -112t85.5 -67t121 -22q71 0 124 24t82 69t29 108v313q0 101 -61 157t-173 56q-113 0 -176 -54t-63 -158zM78 191v319q0 54 23.5 90t67 55t101.5 19q61 0 104 -18.5t66 -55t23 -89.5v-320q0 -55 -25 -91t-68.5 -53
t-99.5 -17q-53 0 -96.5 18t-69.5 53.5t-26 89.5z" />
    <glyph glyph-name="uni04E9" unicode="&#x4e9;" horiz-adv-x="475" 
d="M445 183v135q0 94 -53 144t-153 50q-66 0 -113.5 -21.5t-72.5 -64.5t-25 -108v-135q0 -55 23.5 -98.5t71 -69t118.5 -25.5q102 0 153 51.5t51 141.5zM401 319v-142q0 -46 -18 -79t-54 -51t-88 -18t-90 18.5t-58.5 51.5t-20.5 78v142q0 52 20 86t57.5 51t91.5 17
q51 0 86.5 -16.5t54.5 -50.5t19 -87zM52 273v-45h371v45h-371z" />
    <glyph glyph-name="uni04EE" unicode="&#x4ee;" horiz-adv-x="542" 
d="M381 827h-221v-44h221v44zM485 700l-210 -394l-219 394h-49l244 -440l-73 -139q-8 -14 -22.5 -35t-38 -41t-59.5 -31l26 -25q27 7 46 17t34 24.5t28.5 34.5t27.5 46l314 589h-49z" />
    <glyph glyph-name="uni04EF" unicode="&#x4ef;" horiz-adv-x="543" 
d="M379 669h-221v-44h221v44zM122 -209h47l349 709h-49l-205 -419l-203 419h-50l229 -469z" />
    <glyph glyph-name="uni04F0" unicode="&#x4f0;" horiz-adv-x="542" 
d="M183 846q-11 0 -19 -8t-8 -20q0 -11 8 -19t19 -8q12 0 20 8t8 19q0 12 -8 20t-20 8zM342 846q-12 0 -19.5 -8t-7.5 -20q0 -11 7.5 -19t19.5 -8t20 8t8 19q0 12 -8 20t-20 8zM485 700l-210 -394l-219 394h-49l244 -440l-73 -139q-8 -14 -22.5 -35t-38 -41t-59.5 -31
l26 -25q27 7 46 17t34 24.5t28.5 34.5t27.5 46l314 589h-49z" />
    <glyph glyph-name="uni04F1" unicode="&#x4f1;" horiz-adv-x="543" 
d="M190 653q-11 0 -19 -8t-8 -20q0 -11 8 -19t19 -8q12 0 20 8t8 19q0 12 -8 20t-20 8zM349 653q-12 0 -19.5 -8t-7.5 -20q0 -11 7.5 -19t19.5 -8t20 8t8 19q0 12 -8 20t-20 8zM122 -209h47l349 709h-49l-205 -419l-203 419h-50l229 -469z" />
    <glyph glyph-name="uni04F2" unicode="&#x4f2;" horiz-adv-x="542" 
d="M287 840q5 7 6 14.5t-2 14.5t-10 11t-14.5 3t-13 -6t-9.5 -14l-43 -108h31zM398 840q5 7 6 14.5t-1.5 14.5t-10.5 11q-7 4 -14.5 3t-13.5 -6t-8 -14l-42 -108h30zM485 700l-210 -394l-219 394h-49l244 -440l-73 -139q-8 -14 -22.5 -35t-38 -41t-59.5 -31l26 -25
q27 7 46 17t34 24.5t28.5 34.5t27.5 46l314 589h-49z" />
    <glyph glyph-name="uni04F3" unicode="&#x4f3;" horiz-adv-x="543" 
d="M284 656q5 7 6 14.5t-2 14.5t-10 11t-14.5 3t-13 -6t-9.5 -14l-43 -108h31zM395 656q5 7 6 14.5t-1.5 14.5t-10.5 11q-7 4 -14.5 3t-13.5 -6t-8 -14l-42 -108h30zM127 -209h47l349 709h-49l-205 -419l-203 419h-50l229 -469z" />
    <glyph glyph-name="uni04F4" unicode="&#x4f4;" horiz-adv-x="545" 
d="M193 847q-11 0 -19 -8t-8 -20q0 -11 8 -19t19 -8q12 0 20 8t8 19q0 12 -8 20t-20 8zM352 847q-12 0 -19.5 -8t-7.5 -20q0 -11 7.5 -19t19.5 -8t20 8t8 19q0 12 -8 20t-20 8zM523 700h-45v-272q0 -37 -18.5 -64t-48 -43.5t-66 -24.5t-72.5 -8q-64 0 -111 17.5t-71.5 54.5
t-24.5 95v245h-43v-248q0 -66 27.5 -112t81.5 -70.5t131 -24.5q49 0 91 11t74.5 29.5t49.5 39.5v-325h45v700z" />
    <glyph glyph-name="uni04F5" unicode="&#x4f5;" horiz-adv-x="488" 
d="M161 653q-11 0 -19 -8t-8 -20q0 -11 8 -19t19 -8q12 0 20 8t8 19q0 12 -8 20t-20 8zM320 653q-12 0 -19.5 -8t-7.5 -20q0 -11 7.5 -19t19.5 -8t20 8t8 19q0 12 -8 20t-20 8zM407 0h43v411q0 33 9 47t25 22l-20 32q-16 -7 -27 -17t-18 -22.5t-9.5 -28t-2.5 -32.5v-122
q0 -30 -14 -56t-37.5 -45t-53.5 -29.5t-64 -10.5q-30 0 -59 6t-52.5 20t-37 39t-13.5 62v224h-44v-225q0 -47 15 -79.5t42 -51.5t62.5 -27.5t77.5 -8.5q35 0 69.5 9t63 26.5t45.5 42.5v-186z" />
    <glyph glyph-name="uni04F6" unicode="&#x4f6;" horiz-adv-x="423" 
d="M64 44v-44h23l7 -99h37v143h-67zM41 0h44v658h332v42h-376v-700z" />
    <glyph glyph-name="uni04F7" unicode="&#x4f7;" horiz-adv-x="352" 
d="M59 44v-44h23l7 -99h37v143h-67zM33 500v-500h44v459h266v41h-310z" />
    <glyph glyph-name="uni04F8" unicode="&#x4f8;" horiz-adv-x="643" 
d="M229 846q-11 0 -19 -8t-8 -20q0 -11 8 -19t19 -8q12 0 20 8t8 19q0 12 -8 20t-20 8zM388 846q-12 0 -19.5 -8t-7.5 -20q0 -11 7.5 -19t19.5 -8t20 8t8 19q0 12 -8 20t-20 8zM471 662l87 -2v-660h43v700h-130v-38zM306 412h-220v288h-43v-701q-1 0 13 -1t37 -2.5t48.5 -3
t49 -2.5t39.5 -1q57 0 102.5 7.5t78 27t49 54t16.5 88.5v88q0 36 -11 65.5t-33 50t-53.5 31.5t-72.5 11zM433 168q0 -41 -11.5 -68.5t-35.5 -43.5t-62 -22.5t-91 -6.5q-19 0 -38.5 1t-38 2t-34 2.5t-25 2.5t-11.5 1v333h223q24 0 46.5 -6.5t39.5 -20t27.5 -35.5t10.5 -55
v-84z" />
    <glyph glyph-name="uni04F9" unicode="&#x4f9;" horiz-adv-x="613" 
d="M225 653q-11 0 -19 -8t-8 -20q0 -11 8 -19t19 -8q12 0 20 8t8 19q0 12 -8 20t-20 8zM384 653q-12 0 -19.5 -8t-7.5 -20q0 -11 7.5 -19t19.5 -8t20 8t8 19q0 12 -8 20t-20 8zM532 0h44v500h-44v-500zM303 303h-219v197h-44v-497q4 0 20 -1.5t39.5 -3t51.5 -3t58.5 -2.5
t58.5 -1q74 0 119 22.5t65 59.5t20 79q0 48 -22 81.5t-60.5 51t-86.5 17.5zM261 34q-31 0 -61 0.5t-55 2t-41 2t-20 1.5v220h220q24 0 46 -6t39.5 -19t28 -34t10.5 -51q0 -35 -21 -61.5t-58 -40.5t-88 -14z" />
    <glyph glyph-name="uni051A" unicode="&#x51a;" horiz-adv-x="544" 
d="M294 48v126h-44v-126q0 -40 11.5 -69t35 -47.5t59 -27t83.5 -8.5l5 38q-37 0 -65 6t-46.5 19.5t-28.5 35t-10 53.5zM34 504v-314q0 -67 31.5 -112t85.5 -67t121 -22q71 0 124 24t82 69t29 108v313q0 101 -61 157t-173 56q-113 0 -176 -54t-63 -158zM78 191v319
q0 54 23.5 90t67 55t101.5 19q61 0 104 -18.5t66 -55t23 -89.5v-320q0 -55 -25 -91t-68.5 -53t-99.5 -17q-53 0 -96.5 18t-69.5 53.5t-26 89.5z" />
    <glyph glyph-name="uni051B" unicode="&#x51b;" horiz-adv-x="483" 
d="M401 69v-264l45 -17v712h-45v-47q-28 19 -58.5 31.5t-61 19t-57.5 7.5q-62 3 -105 -15t-66 -55t-23 -92v-174q0 -63 22.5 -104t66 -61.5t106.5 -20.5q34 0 68.5 9.5t63.5 27.5t44 43zM401 405v-239q0 -34 -14.5 -59.5t-40 -43t-56.5 -26t-64 -8.5q-46 0 -80 15t-53 45.5
t-19 76.5v182q0 38 13.5 62.5t36 38.5t49.5 19t54 4q22 0 47 -5.5t49.5 -14t45 -20.5t32.5 -27z" />
    <glyph glyph-name="uni051C" unicode="&#x51c;" horiz-adv-x="819" 
d="M438 700h-59l-142 -644l-173 644h-48l192 -700h63l138 622l139 -622h62l189 700h-47l-170 -644z" />
    <glyph glyph-name="uni051D" unicode="&#x51d;" horiz-adv-x="781" 
d="M408 499h-42l-142 -450l-159 450h-46l178 -499h53l136 428l136 -428h53l180 499h-47l-159 -450z" />
    <glyph glyph-name="Wgrave" unicode="&#x1e80;" horiz-adv-x="818" 
d="M382 871q-3 8 -9 13.5t-13.5 6.5t-15.5 -3q-6 -4 -9 -11t-1.5 -14.5t5.5 -14.5l55 -86h31zM438 700h-59l-142 -644l-173 644h-48l192 -700h63l138 622l139 -622h62l189 700h-47l-170 -644z" />
    <glyph glyph-name="wgrave" unicode="&#x1e81;" horiz-adv-x="778" 
d="M362 676q-3 8 -9 13.5t-13.5 6.5t-15.5 -3q-6 -4 -9 -11t-1.5 -14.5t5.5 -14.5l55 -86h31zM408 499h-42l-142 -450l-159 450h-46l178 -499h53l136 428l136 -428h53l180 499h-47l-159 -450z" />
    <glyph glyph-name="Wacute" unicode="&#x1e82;" horiz-adv-x="818" 
d="M475 838q5 8 6 15t-1.5 14t-10.5 11q-7 4 -14 3t-13 -6t-9 -13l-42 -110h30zM438 700h-59l-142 -644l-173 644h-48l192 -700h63l138 622l139 -622h62l189 700h-47l-170 -644z" />
    <glyph glyph-name="wacute" unicode="&#x1e83;" horiz-adv-x="778" 
d="M457 653q5 8 6 15t-1.5 14t-10.5 11q-7 4 -14 3t-13 -6t-9 -13l-42 -110h30zM408 499h-42l-142 -450l-159 450h-46l178 -499h53l136 428l136 -428h53l180 499h-47l-159 -450z" />
    <glyph glyph-name="Wdieresis" unicode="&#x1e84;" horiz-adv-x="818" 
d="M329 846q-11 0 -19 -8t-8 -20q0 -11 8 -19t19 -8q12 0 20 8t8 19q0 12 -8 20t-20 8zM488 846q-12 0 -19.5 -8t-7.5 -20q0 -11 7.5 -19t19.5 -8t20 8t8 19q0 12 -8 20t-20 8zM438 700h-59l-142 -644l-173 644h-48l192 -700h63l138 622l139 -622h62l189 700h-47l-170 -644z
" />
    <glyph glyph-name="wdieresis" unicode="&#x1e85;" horiz-adv-x="778" 
d="M308 651q-11 0 -19 -8t-8 -20q0 -11 8 -19t19 -8q12 0 20 8t8 19q0 12 -8 20t-20 8zM467 651q-12 0 -19.5 -8t-7.5 -20q0 -11 7.5 -19t19.5 -8t20 8t8 19q0 12 -8 20t-20 8zM408 499h-42l-142 -450l-159 450h-46l178 -499h53l136 428l136 -428h53l180 499h-47l-159 -450z
" />
    <glyph glyph-name="Ygrave" unicode="&#x1ef2;" horiz-adv-x="570" 
d="M257 871q-3 8 -9 13.5t-13.5 6.5t-15.5 -3q-6 -4 -9 -11t-1.5 -14.5t5.5 -14.5l55 -86h31zM530 153v547h-45v-274q0 -36 -18 -62.5t-47.5 -43t-66 -24.5t-72.5 -8q-64 0 -110.5 18.5t-71.5 55.5t-25 94v244h-44v-245q0 -65 28 -112t82 -72.5t130 -25.5q48 0 90 10.5
t75 28.5t50 40v-171q0 -31 -6.5 -53t-18 -37t-27 -24.5t-32.5 -14.5l11 -31q56 9 87 49.5t31 110.5z" />
    <glyph glyph-name="ygrave" unicode="&#x1ef3;" horiz-adv-x="513" 
d="M226 686q-3 8 -9 13.5t-13.5 6.5t-15.5 -3q-6 -4 -9 -11t-1.5 -14.5t5.5 -14.5l55 -86h31zM484 480l-18 32q-22 -9 -35 -23.5t-18.5 -33.5t-5.5 -43v-239q0 -28 -12.5 -53t-34 -44t-51 -30.5t-62.5 -12.5t-63 4t-54 18.5t-37.5 39t-13.5 64.5v342h-44v-345
q0 -49 15.5 -81.5t43.5 -50.5t65 -25.5t80 -7.5q32 1 64 10t59.5 26t44.5 43v-133q0 -22 -5 -40t-16 -31.5t-27.5 -23.5t-39.5 -18l14 -34q42 12 68 30t38 46.5t12 69.5v475q0 33 9 47t24 22z" />
    <glyph glyph-name="endash" unicode="&#x2013;" horiz-adv-x="490" 
d="M34 375h422v39h-422v-39z" />
    <glyph glyph-name="emdash" unicode="&#x2014;" horiz-adv-x="798" 
d="M34 375h731v39h-731v-39z" />
    <glyph glyph-name="quoteleft" unicode="&#x2018;" horiz-adv-x="120" 
d="M90 690l-16 11q-4 -5 -11.5 -13.5t-16 -21.5t-14 -30.5t-5.5 -40.5q0 -12 8 -19.5t19 -7.5q12 0 20.5 7.5t8.5 19.5q0 10 -6.5 17.5t-17.5 9.5q2 15 8.5 33t22.5 35z" />
    <glyph glyph-name="quoteright" unicode="&#x2019;" horiz-adv-x="120" 
d="M28 570l15 -10q5 4 13 13t16.5 22t14 30.5t5.5 39.5q0 13 -8.5 21t-20.5 8q-11 0 -19.5 -8.5t-8.5 -20.5q0 -10 7 -17t15 -10q-1 -14 -7 -32t-22 -36z" />
    <glyph glyph-name="quotesinglbase" unicode="&#x201a;" horiz-adv-x="131" 
d="M33 -54l14 -10q6 4 14 13t16 22t13.5 30.5t5.5 40.5q0 13 -8.5 20.5t-20.5 7.5q-11 0 -19 -8t-8 -20q0 -11 7 -18t15 -9q-1 -14 -7.5 -32.5t-21.5 -36.5z" />
    <glyph glyph-name="quotedblleft" unicode="&#x201c;" horiz-adv-x="299" 
d="M269 690l-14 11q-5 -5 -13 -13.5t-16 -21.5t-13.5 -30.5t-5.5 -40.5q0 -12 8 -19.5t19 -7.5q12 0 20.5 7.5t8.5 19.5q0 10 -6.5 17.5t-17.5 9.5q3 15 9 33t21 35zM90 690l-16 11q-4 -5 -11.5 -13.5t-16 -21.5t-14 -30.5t-5.5 -40.5q0 -12 8 -19.5t19 -7.5q12 0 20.5 7.5
t8.5 19.5q0 10 -6.5 17.5t-17.5 9.5q2 15 8.5 33t22.5 35z" />
    <glyph glyph-name="quotedblright" unicode="&#x201d;" horiz-adv-x="300" 
d="M28 570l15 -10q5 4 13 13t16.5 22t14 31t5.5 39q-1 13 -9 21t-20 8q-11 0 -19.5 -8.5t-8.5 -20.5q0 -10 7 -17t15 -10q-1 -14 -7 -32t-22 -36zM209 570l14 -10q5 4 13 13t16 22t13.5 30.5t5.5 39.5q0 13 -8 21t-20 8q-11 0 -19.5 -8.5t-8.5 -20.5q0 -10 6.5 -17t16.5 -10
q-2 -14 -8 -32t-21 -36z" />
    </font>
</defs>
</svg>
