<svg xmlns="http://www.w3.org/2000/svg" version="1.1" xmlns:xlink="http://www.w3.org/1999/xlink" xmlns:svgjs="http://svgjs.dev/svgjs" width="2000" height="1247" viewBox="0 0 2000 1247"><g transform="matrix(1,0,0,1,-1.2121212121212466,0.504858299595071)"><svg viewBox="0 0 396 247" data-background-color="#b19dd0" preserveAspectRatio="xMidYMid meet" height="1247" width="2000" xmlns="http://www.w3.org/2000/svg" xmlns:xlink="http://www.w3.org/1999/xlink"><g id="tight-bounds" transform="matrix(1,0,0,1,0.2400000000000091,-0.09999999999999432)"><svg viewBox="0 0 395.52 247.2" height="247.2" width="395.52"><g><svg></svg></g><g><svg viewBox="0 0 395.52 247.2" height="247.2" width="395.52"><g transform="matrix(1,0,0,1,72.9879973963394,37.08)"><svg viewBox="0 0 249.5440052073212 173.04" height="173.04" width="249.5440052073212"><g><svg viewBox="0 0 249.5440052073212 173.04" height="173.04" width="249.5440052073212"><g><svg viewBox="0 0 395.52 274.26337388124944" height="173.04" width="249.5440052073212"><g transform="matrix(1,0,0,1,0,162.9880144762547)"><svg viewBox="0 0 395.52 111.27535940499476" height="111.27535940499476" width="395.52"><g id="textblocktransform"><svg viewBox="0 0 395.52 111.27535940499476" height="111.27535940499476" width="395.52" id="textblock"><g><svg viewBox="0 0 395.52 63.08398740818468" height="63.08398740818468" width="395.52"><g transform="matrix(1,0,0,1,0,0)"><svg width="395.52" viewBox="2.049999952316284 -37.5 238.22999572753906 38" height="63.08398740818468" data-palette-color="#000000"><path d="M19.5-0.5L19.5-0.5Q21.95-0.5 22.63-1.4 23.3-2.3 23.3-4.45L23.3-4.45 23.3-14.15 20.1-14.15 20.1-15.25 34.5-15.25 34.5-14.15 32.55-14.15 32.55-0.05 31.8-0.05Q30.9-1.3 29.25-1.3L29.25-1.3Q28.55-1.3 25.08-0.4 21.6 0.5 19.15 0.5L19.15 0.5Q11 0.5 6.53-3.9 2.05-8.3 2.05-17.13 2.05-25.95 6.73-30.75 11.4-35.55 19.3-35.55L19.3-35.55Q22.35-35.55 25.43-34.77 28.5-34 29-34 29.5-34 29.75-34.23 30-34.45 30.3-35L30.3-35 30.85-35 31.25-24.15 30.35-24.15Q27.9-29 25.43-31.78 22.95-34.55 19.9-34.55L19.9-34.55Q12.25-34.55 12.25-19.6L12.25-19.6 12.25-15.65Q12.25-8.15 14.13-4.33 16-0.5 19.5-0.5ZM49.8 0.5Q43.35 0.5 40.12-2.83 36.9-6.15 36.9-12.08 36.9-18 40.52-21.15 44.15-24.3 49.75-24.3L49.75-24.3Q61.1-24.3 60.65-12.9L60.65-12.9 46.55-12.9 46.55-10.95Q46.55-6.05 47.8-3.55 49.05-1.05 52.15-1.05L52.15-1.05Q57.95-1.05 59.75-7.25L59.75-7.25 60.65-7.1Q59.7-3.5 57.22-1.5 54.75 0.5 49.8 0.5L49.8 0.5ZM46.6-16.35L46.6-13.9 51.75-13.9 51.75-16.35Q51.75-20.4 51.27-21.88 50.8-23.35 49.37-23.35 47.95-23.35 47.27-21.78 46.6-20.2 46.6-16.35L46.6-16.35ZM75.6 0.5Q69.15 0.5 65.92-2.83 62.7-6.15 62.7-12.08 62.7-18 66.32-21.15 69.95-24.3 75.55-24.3L75.55-24.3Q86.9-24.3 86.45-12.9L86.45-12.9 72.35-12.9 72.35-10.95Q72.35-6.05 73.6-3.55 74.85-1.05 77.95-1.05L77.95-1.05Q83.75-1.05 85.55-7.25L85.55-7.25 86.45-7.1Q85.5-3.5 83.02-1.5 80.55 0.5 75.6 0.5L75.6 0.5ZM72.4-16.35L72.4-13.9 77.55-13.9 77.55-16.35Q77.55-20.4 77.07-21.88 76.6-23.35 75.17-23.35 73.75-23.35 73.07-21.78 72.4-20.2 72.4-16.35L72.4-16.35ZM118.49 0L104.59 0 104.59-0.9 106.89-0.9 101.24-12.5 100.29-12.25 100.29-0.9 102.59-0.9 102.59 0 88.24 0 88.24-0.9 90.99-0.9 90.99-36.6 88.04-36.6 88.04-37.5 100.29-37.5 100.29-13.25 101.09-13.55 112.34-22.9 107.64-22.9 107.64-23.8 117.49-23.8 117.49-22.9 113.99-22.9 108.04-17.85 116.69-0.9 118.49-0.9 118.49 0ZM128.49-34.05L128.49-35 143.19-35Q150.74-35 154.44-32.83 158.14-30.65 158.14-25.05L158.14-25.05Q158.14-18.85 153.64-16.5L153.64-16.5Q149.44-14.35 141.89-14.35L141.89-14.35 141.49-14.35 141.49-0.95 147.74-0.95 147.74 0 128.49 0 128.49-0.95 131.74-0.95 131.74-34.05 128.49-34.05ZM142.84-34.05L141.49-34.05 141.49-15.3 142.54-15.3Q145.54-15.3 146.69-17.35 147.84-19.4 147.84-24L147.84-24 147.84-26.4Q147.84-30.65 146.76-32.35 145.69-34.05 142.84-34.05L142.84-34.05ZM171.59 0.5Q165.13 0.5 161.91-2.83 158.69-6.15 158.69-12.08 158.69-18 162.31-21.15 165.94-24.3 171.53-24.3L171.53-24.3Q182.88-24.3 182.44-12.9L182.44-12.9 168.34-12.9 168.34-10.95Q168.34-6.05 169.59-3.55 170.84-1.05 173.94-1.05L173.94-1.05Q179.74-1.05 181.53-7.25L181.53-7.25 182.44-7.1Q181.49-3.5 179.01-1.5 176.53 0.5 171.59 0.5L171.59 0.5ZM168.38-16.35L168.38-13.9 173.53-13.9 173.53-16.35Q173.53-20.4 173.06-21.88 172.59-23.35 171.16-23.35 169.74-23.35 169.06-21.78 168.38-20.2 168.38-16.35L168.38-16.35ZM197.38 0.5Q190.93 0.5 187.71-2.83 184.48-6.15 184.48-12.08 184.48-18 188.11-21.15 191.73-24.3 197.33-24.3L197.33-24.3Q208.68-24.3 208.23-12.9L208.23-12.9 194.13-12.9 194.13-10.95Q194.13-6.05 195.38-3.55 196.63-1.05 199.73-1.05L199.73-1.05Q205.53-1.05 207.33-7.25L207.33-7.25 208.23-7.1Q207.28-3.5 204.81-1.5 202.33 0.5 197.38 0.5L197.38 0.5ZM194.18-16.35L194.18-13.9 199.33-13.9 199.33-16.35Q199.33-20.4 198.86-21.88 198.38-23.35 196.96-23.35 195.53-23.35 194.86-21.78 194.18-20.2 194.18-16.35L194.18-16.35ZM240.28 0L226.38 0 226.38-0.9 228.68-0.9 223.03-12.5 222.08-12.25 222.08-0.9 224.38-0.9 224.38 0 210.03 0 210.03-0.9 212.78-0.9 212.78-36.6 209.83-36.6 209.83-37.5 222.08-37.5 222.08-13.25 222.88-13.55 234.13-22.9 229.43-22.9 229.43-23.8 239.28-23.8 239.28-22.9 235.78-22.9 229.83-17.85 238.48-0.9 240.28-0.9 240.28 0Z" opacity="1" transform="matrix(1,0,0,1,0,0)" fill="#ffffff" class="wordmark-text-0" data-fill-palette-color="primary" id="text-0"></path></svg></g></svg></g><g transform="matrix(1,0,0,1,0,72.28945518673663)"><svg viewBox="0 0 395.52 38.985904218258135" height="38.985904218258135" width="395.52"><g transform="matrix(1,0,0,1,0,0)"><svg width="395.52" viewBox="1.7999999523162842 -35.5 466.6800231933594 46" height="38.985904218258135" data-palette-color="#000000"><path d="M17.9-0.3Q14.8 0.5 11.9 0.5L11.9 0.5Q9.2 0.5 7.4-0.1L7.4-0.1Q4.45-1.1 3.13-3.18 1.8-5.25 1.8-9L1.8-9 1.8-15.4Q1.8-20.35 4.4-22.93 7-25.5 11.1-25.5L11.1-25.5Q14.35-25.5 17.8-23.9L17.8-23.9 17.3-22.55Q14.3-24 11.3-24L11.3-24Q7.85-24 5.63-21.93 3.4-19.85 3.4-15.7L3.4-15.7 3.4-8.45Q3.35-4.5 5.73-2.73 8.1-0.95 11.95-0.95L11.95-0.95Q14.8-0.95 17.55-1.7L17.55-1.7 17.9-0.3ZM47.41 0L47.41-17.3Q47.41-20.75 45.21-22.4 43.01-24.05 39.61-24.05L39.61-24.05Q37.66-24.05 35.71-23.55 33.76-23.05 32.16-22.2L32.16-22.2 32.16 0 30.56 0 30.56-35 32.16-35 32.16-23.75Q33.71-24.6 35.61-25.05 37.51-25.5 39.51-25.5L39.51-25.5Q42.61-25.5 44.76-24.5L44.76-24.5Q49.01-22.55 49.01-17.3L49.01-17.3 49.01 0 47.41 0ZM82.97-9.2Q82.97-5 80.67-2.25 78.37 0.5 73.72 0.5L73.72 0.5Q69.07 0.5 66.69-2.27 64.32-5.05 64.32-9.2L64.32-9.2 64.32-15.8Q64.32-20.55 66.74-23.08 69.17-25.6 73.72-25.6L73.72-25.6Q78.07-25.6 80.52-22.98 82.97-20.35 82.97-15.8L82.97-15.8 82.97-9.2ZM81.37-15.95Q81.37-20.05 79.22-22.08 77.07-24.1 73.72-24.1L73.72-24.1Q70.22-24.1 68.07-22.08 65.92-20.05 65.92-15.95L65.92-15.95 65.92-9Q65.92-5.6 67.87-3.28 69.82-0.95 73.72-0.95L73.72-0.95Q77.52-0.95 79.44-3.23 81.37-5.5 81.37-9L81.37-9 81.37-15.95ZM115.78-9.2Q115.78-5 113.48-2.25 111.18 0.5 106.53 0.5L106.53 0.5Q101.88 0.5 99.5-2.27 97.13-5.05 97.13-9.2L97.13-9.2 97.13-15.8Q97.13-20.55 99.55-23.08 101.98-25.6 106.53-25.6L106.53-25.6Q110.88-25.6 113.33-22.98 115.78-20.35 115.78-15.8L115.78-15.8 115.78-9.2ZM114.18-15.95Q114.18-20.05 112.03-22.08 109.88-24.1 106.53-24.1L106.53-24.1Q103.03-24.1 100.88-22.08 98.73-20.05 98.73-15.95L98.73-15.95 98.73-9Q98.73-5.6 100.68-3.28 102.63-0.95 106.53-0.95L106.53-0.95Q110.33-0.95 112.25-3.23 114.18-5.5 114.18-9L114.18-9 114.18-15.95ZM130.88-6.35Q131.13-3.95 133.18-2.38 135.23-0.8 138.58-0.8L138.58-0.8Q141.63-0.8 143.68-2.25 145.73-3.7 145.73-6.2L145.73-6.2Q145.73-7.95 144.71-9.08 143.68-10.2 142.21-10.85 140.73-11.5 138.13-12.35L138.13-12.35Q135.48-13.2 133.88-13.9 132.28-14.6 131.18-15.85 130.08-17.1 130.08-19L130.08-19Q130.08-20.65 130.96-22.15 131.83-23.65 133.73-24.65 135.63-25.65 138.48-25.65L138.48-25.65Q140.03-25.65 141.28-25.33 142.53-25 143.23-24.63 143.93-24.25 144.08-24.15L144.08-24.15 143.43-22.8Q143.28-22.9 142.61-23.23 141.93-23.55 140.81-23.85 139.68-24.15 138.33-24.15L138.33-24.15Q135.53-24.15 133.48-22.73 131.43-21.3 131.68-18.55L131.68-18.55Q131.83-16.75 133.51-15.8 135.18-14.85 138.53-13.85L138.53-13.85Q141.33-13 143.11-12.2 144.88-11.4 146.11-9.95 147.33-8.5 147.33-6.25L147.33-6.25Q147.33-3.25 145.11-1.25 142.88 0.75 138.58 0.75L138.58 0.75Q135.73 0.75 133.66-0.23 131.58-1.2 130.51-2.8 129.43-4.4 129.33-6.35L129.33-6.35 130.88-6.35ZM177.49-1.75Q175.69-0.6 173.39 0 171.09 0.6 168.79 0.6L168.79 0.6Q165.09 0.6 162.92-1.23 160.74-3.05 160.74-6.7L160.74-6.7 160.74-16.95Q160.74-21 163.27-23.25 165.79-25.5 169.94-25.5L169.94-25.5Q174.09-25.5 176.42-23.28 178.74-21.05 178.74-17.1L178.74-17.1 178.74-11.75 162.34-10.9 162.34-6.65Q162.34-3.8 164.17-2.3 165.99-0.8 168.94-0.8L168.94-0.8Q170.74-0.8 172.77-1.38 174.79-1.95 176.79-3.05L176.79-3.05 177.49-1.75ZM177.14-17.25Q177.14-20.9 174.94-22.48 172.74-24.05 169.89-24.05L169.89-24.05Q166.74-24.05 164.54-22.33 162.34-20.6 162.34-16.95L162.34-16.95 162.34-12.45 177.14-13.25 177.14-17.25ZM229.31 9.15Q231.36 8.55 232.44 7.13 233.51 5.7 233.51 3.15L233.51 3.15 233.51-3.7Q232.31-1.4 230.04-0.4 227.76 0.6 225.41 0.6L225.41 0.6Q221.01 0.6 218.64-1.78 216.26-4.15 216.26-8.8L216.26-8.8 216.26-25.05 217.81-25.05 217.81-8.3Q217.81-4.85 219.71-2.88 221.61-0.9 225.41-0.9L225.41-0.9Q229.01-0.9 231.24-2.9 233.46-4.9 233.46-8.3L233.46-8.3 233.46-18.45Q233.46-20.65 233.59-21.85 233.71-23.05 234.24-24.03 234.76-25 235.96-25.5L235.96-25.5 236.46-24.3Q235.01-23.4 235.01-20.15L235.01-20.15 235.01 3.05Q235.01 6.1 233.81 7.85 232.61 9.6 229.76 10.5L229.76 10.5 229.31 9.15ZM269.12-9.2Q269.12-5 266.82-2.25 264.52 0.5 259.87 0.5L259.87 0.5Q255.22 0.5 252.84-2.27 250.47-5.05 250.47-9.2L250.47-9.2 250.47-15.8Q250.47-20.55 252.89-23.08 255.32-25.6 259.87-25.6L259.87-25.6Q264.22-25.6 266.67-22.98 269.12-20.35 269.12-15.8L269.12-15.8 269.12-9.2ZM267.52-15.95Q267.52-20.05 265.37-22.08 263.22-24.1 259.87-24.1L259.87-24.1Q256.37-24.1 254.22-22.08 252.07-20.05 252.07-15.95L252.07-15.95 252.07-9Q252.07-5.6 254.02-3.28 255.97-0.95 259.87-0.95L259.87-0.95Q263.67-0.95 265.59-3.23 267.52-5.5 267.52-9L267.52-9 267.52-15.95ZM299.73 0L299.83-3.45Q298.63-1.55 296.65-0.5 294.68 0.55 292.08 0.55L292.08 0.55Q287.28 0.55 284.98-1.78 282.68-4.1 282.68-8.75L282.68-8.75 282.68-25.05 284.28-25.05 284.28-8.6Q284.28-0.95 292.08-0.95L292.08-0.95Q295.48-0.95 297.6-2.83 299.73-4.7 299.73-8.1L299.73-8.1 299.73-25.05 301.33-25.05 301.33 0 299.73 0ZM316.19 0L316.19-25.05 317.79-25.05 317.74-22.7Q320.49-25.45 324.99-25.45L324.99-25.45Q326.69-25.45 328.69-25.05L328.69-25.05 328.24-23.45Q326.69-23.95 324.84-23.95L324.84-23.95Q321.94-23.95 319.86-22.78 317.79-21.6 317.79-19.85L317.79-19.85 317.79 0 316.19 0ZM366.8-6.35Q367.05-3.95 369.1-2.38 371.15-0.8 374.5-0.8L374.5-0.8Q377.55-0.8 379.6-2.25 381.65-3.7 381.65-6.2L381.65-6.2Q381.65-7.95 380.63-9.08 379.6-10.2 378.13-10.85 376.65-11.5 374.05-12.35L374.05-12.35Q371.4-13.2 369.8-13.9 368.2-14.6 367.1-15.85 366-17.1 366-19L366-19Q366-20.65 366.88-22.15 367.75-23.65 369.65-24.65 371.55-25.65 374.4-25.65L374.4-25.65Q375.95-25.65 377.2-25.33 378.45-25 379.15-24.63 379.85-24.25 380-24.15L380-24.15 379.35-22.8Q379.2-22.9 378.53-23.23 377.85-23.55 376.73-23.85 375.6-24.15 374.25-24.15L374.25-24.15Q371.45-24.15 369.4-22.73 367.35-21.3 367.6-18.55L367.6-18.55Q367.75-16.75 369.43-15.8 371.1-14.85 374.45-13.85L374.45-13.85Q377.25-13 379.03-12.2 380.8-11.4 382.03-9.95 383.25-8.5 383.25-6.25L383.25-6.25Q383.25-3.25 381.03-1.25 378.8 0.75 374.5 0.75L374.5 0.75Q371.65 0.75 369.58-0.23 367.5-1.2 366.43-2.8 365.35-4.4 365.25-6.35L365.25-6.35 366.8-6.35ZM399.86-33.45Q399.41-33.45 399.11-33.75 398.81-34.05 398.81-34.5L398.81-34.5Q398.81-34.9 399.11-35.2 399.41-35.5 399.86-35.5L399.86-35.5Q400.26-35.5 400.56-35.2 400.86-34.9 400.86-34.5L400.86-34.5Q400.86-34.05 400.56-33.75 400.26-33.45 399.86-33.45L399.86-33.45ZM399.06 0L399.06-25.05 400.66-25.05 400.66 0 399.06 0ZM434.72-35L436.32-35 436.32 0 433.57 0.25Q430.32 0.6 428.47 0.6L428.47 0.6Q426.62 0.6 425 0.25 423.37-0.1 421.77-0.9L421.77-0.9Q419.97-1.8 418.92-3.55 417.87-5.3 417.87-7.85L417.87-7.85 417.87-17.3Q417.87-22.55 422.12-24.5L422.12-24.5Q424.07-25.45 427.27-25.45L427.27-25.45Q429.32-25.45 431.32-25.03 433.32-24.6 434.72-23.8L434.72-23.8 434.72-35ZM434.72-22.3Q433.32-23.05 431.3-23.53 429.27-24 427.27-24L427.27-24Q423.87-24 421.67-22.38 419.47-20.75 419.47-17.15L419.47-17.15 419.47-7.8Q419.47-4.15 422.1-2.53 424.72-0.9 428.92-0.9L428.92-0.9Q431.47-0.9 434.72-1.5L434.72-1.5 434.72-22.3ZM467.23-1.75Q465.43-0.6 463.13 0 460.83 0.6 458.53 0.6L458.53 0.6Q454.83 0.6 452.65-1.23 450.48-3.05 450.48-6.7L450.48-6.7 450.48-16.95Q450.48-21 453-23.25 455.53-25.5 459.68-25.5L459.68-25.5Q463.83-25.5 466.15-23.28 468.48-21.05 468.48-17.1L468.48-17.1 468.48-11.75 452.08-10.9 452.08-6.65Q452.08-3.8 453.9-2.3 455.73-0.8 458.68-0.8L458.68-0.8Q460.48-0.8 462.5-1.38 464.53-1.95 466.53-3.05L466.53-3.05 467.23-1.75ZM466.88-17.25Q466.88-20.9 464.68-22.48 462.48-24.05 459.63-24.05L459.63-24.05Q456.48-24.05 454.28-22.33 452.08-20.6 452.08-16.95L452.08-16.95 452.08-12.45 466.88-13.25 466.88-17.25Z" opacity="1" transform="matrix(1,0,0,1,0,0)" fill="#ffffff" class="slogan-text-1" data-fill-palette-color="secondary" id="text-1"></path></svg></g></svg></g></svg></g></svg></g><g transform="matrix(1,0,0,1,138.262873093571,0)"><svg viewBox="0 0 118.99425381285799 153.78254669770277" height="153.78254669770277" width="118.99425381285799"><g><svg xmlns="http://www.w3.org/2000/svg" xmlns:xlink="http://www.w3.org/1999/xlink" version="1.1" x="0" y="0" viewBox="12.982999801635742 1 75.68599700927734 97.81300354003906" enable-background="new 0 0 100 100" xml:space="preserve" height="153.78254669770277" width="118.99425381285799" class="icon-icon-0" data-fill-palette-color="accent" id="icon-0"><g fill="#000000" data-fill-palette-color="accent"><polygon fill-rule="evenodd" clip-rule="evenodd" points="12.983,10.59 30.001,98.813 24.129,39.764 53.15,37.872 53.096,27.989    64.549,1 53.622,18.977  " fill="#ffffff" data-fill-palette-color="accent"></polygon><polygon fill-rule="evenodd" clip-rule="evenodd" points="59.389,54.548 64.549,1.007 55.809,40.723 36.197,41.768 37.767,62.23    30.001,98.813 42.058,58.914  " fill="#ffffff" data-fill-palette-color="accent"></polygon><polygon fill-rule="evenodd" clip-rule="evenodd" points="62.8,67.182 63.349,56.729 47.37,60.484 47.338,72.281 30.001,98.813    51.681,71.197  " fill="#ffffff" data-fill-palette-color="accent"></polygon><polygon fill-rule="evenodd" clip-rule="evenodd" points="65.711,62.394 80.552,57.663 82.061,45.131 66.162,47.226  " fill="#ffffff" data-fill-palette-color="accent"></polygon><polygon fill-rule="evenodd" clip-rule="evenodd" points="72.07,44.502 83.058,43.085 84.639,32.807 76.56,32.434 64.549,1    72.979,31.967  " fill="#ffffff" data-fill-palette-color="accent"></polygon><polygon fill-rule="evenodd" clip-rule="evenodd" points="87.413,31.294 88.669,21.788 79.125,19.094 64.549,1 79.032,23.437    78.61,30.437  " fill="#ffffff" data-fill-palette-color="accent"></polygon></g></svg></g></svg></g><g></g></svg></g></svg></g></svg></g><g></g></svg></g><defs></defs></svg><rect width="395.52" height="247.2" fill="none" stroke="none" visibility="hidden"></rect></g></svg></g></svg>